<svg xmlns="http://www.w3.org/2000/svg" viewBox="0 0 1765 1765">
  <path d="M 1370.86 696.76 L 1372.65 720.44 C 1372.65 720.44 1387.33 721.68 1393.10 721.18 C 1398.87 720.68 1407.27 717.45 1407.27 717.45 C 1407.27 717.45 1410.87 698.99 1408.93 691.99 C 1406.98 684.99 1406.60 678.75 1395.59 675.45 C 1384.58 672.15 1357.14 677.91 1342.87 672.18 C 1328.61 666.44 1316.30 649.36 1310.01 641.05 C 1303.71 632.73 1306.27 629.30 1305.10 622.29 C 1303.92 615.29 1303.89 607.50 1302.98 599.02 C 1302.07 590.55 1302.02 578.15 1299.64 571.42 C 1297.25 564.69 1292.03 561.59 1288.68 558.65 C 1285.33 555.70 1279.53 553.74 1279.53 553.74 L 1271.38 550.94 L 1271.38 565.35 L 1279.75 564.90 C 1279.75 564.90 1282.67 560.97 1285.00 561.66 C 1287.32 562.35 1291.66 565.03 1293.71 569.03 C 1295.75 573.03 1296.91 580.43 1297.28 585.67 C 1297.65 590.91 1297.11 595.83 1295.95 600.48 C 1294.80 605.14 1293.84 611.68 1290.36 613.58 C 1286.87 615.49 1278.54 610.51 1275.06 611.91 C 1271.58 613.30 1269.16 618.83 1269.48 621.96 C 1269.79 625.08 1273.22 629.72 1276.96 630.67 C 1280.70 631.61 1288.57 625.38 1291.92 627.65 C 1295.27 629.92 1293.72 638.84 1297.06 644.30 C 1300.39 649.76 1307.36 655.64 1311.94 660.40 C 1316.53 665.17 1318.90 668.89 1324.55 672.89 C 1330.20 676.89 1335.04 682.40 1345.85 684.38 C 1356.65 686.37 1381.26 683.20 1389.39 684.82 C 1397.53 686.43 1397.73 692.09 1394.64 694.08 C 1391.55 696.08 1370.86 696.76 1370.86 696.76 Z" data-net-id="front-vcc-main" data-net-label="VCC Main" data-category="vcc" data-color="#ff6a3d" data-stroke-width="1" data-fill-opacity="0.2" fill="#ff6a3d" fill-opacity="0.2" data-editor-points="1370.86,696.76;1372.65,720.44;1393.10,721.18;1407.27,717.45;1408.93,691.99;1395.59,675.45;1342.87,672.18;1310.01,641.05;1305.10,622.29;1302.98,599.02;1299.64,571.42;1288.68,558.65;1279.53,553.74;1271.38,550.94;1271.38,565.35;1279.75,564.90;1285.00,561.66;1293.71,569.03;1297.28,585.67;1295.95,600.48;1290.36,613.58;1275.06,611.91;1269.48,621.96;1276.96,630.67;1291.92,627.65;1297.06,644.30;1311.94,660.40;1324.55,672.89;1345.85,684.38;1389.39,684.82;1394.64,694.08" data-editor-point-modes="s;s;s;s;s;s;s;s;s;s;s;s;s;s;s;s;s;s;s;s;s;s;s;s;s;s;s;s;s;s;s" />
</svg>
