<svg xmlns="http://www.w3.org/2000/svg" viewBox="0 0 1765 1765">
  <path d="M 968.00 135.00 L 989.74 136.96 C 989.74 136.96 997.44 140.57 999.15 142.57 C 1000.86 144.58 1000.00 149.00 1000.00 149.00 L 1014.00 160.00 L 1094.32 158.81 C 1094.32 158.81 1100.24 161.73 1101.84 163.64 C 1103.43 165.56 1103.91 170.29 1103.91 170.29 L 1105.00 192.00 L 1110.00 208.00 L 1125.00 224.00 L 1136.00 229.00 L 1165.00 230.00 L 1174.00 227.00 L 1209.00 196.00 L 1259.70 195.42 C 1259.70 195.42 1267.42 197.48 1269.81 199.74 C 1272.19 202.01 1274.00 209.00 1274.00 209.00 L 1273.00 287.00 L 1280.00 312.00 L 1312.00 346.00 L 1334.00 354.00 L 1364.00 353.00 L 1373.00 364.00 L 1370.30 446.81 L 1347.00 470.00 C 1347.00 470.00 1343.10 472.00 1342.00 478.00 C 1340.90 484.00 1340.42 505.99 1340.42 505.99 C 1340.42 505.99 1340.42 516.70 1337.00 518.00 C 1333.58 519.30 1329.67 521.61 1319.92 513.76 C 1310.17 505.91 1278.50 470.89 1278.50 470.89 C 1278.50 470.89 1274.15 466.20 1273.00 461.00 C 1271.85 455.80 1273.63 444.62 1271.58 439.72 C 1269.54 434.82 1263.63 435.62 1260.74 431.61 C 1257.85 427.60 1255.07 424.69 1254.25 415.64 C 1253.42 406.59 1253.83 386.24 1255.79 377.30 C 1257.74 368.36 1264.38 366.55 1266.00 362.00 C 1267.62 357.45 1265.52 349.97 1265.52 349.97 C 1265.52 349.97 1263.13 350.52 1259.54 348.69 C 1255.96 346.86 1244.00 339.00 1244.00 339.00 L 1176.00 270.00 C 1176.00 270.00 1173.54 268.23 1166.54 267.73 C 1159.54 267.23 1140.59 265.31 1134.00 267.00 C 1127.41 268.69 1128.01 273.94 1127.00 277.89 C 1126.00 281.84 1126.94 287.85 1127.94 290.70 C 1128.94 293.55 1133.00 295.00 1133.00 295.00 C 1133.00 295.00 1144.00 295.67 1147.00 297.00 C 1150.00 298.33 1151.00 303.00 1151.00 303.00 L 1150.00 331.00 C 1150.00 331.00 1149.29 335.43 1146.00 336.00 C 1142.71 336.57 1136.23 337.73 1130.25 334.43 C 1124.27 331.12 1117.64 319.79 1110.10 316.15 C 1102.55 312.51 1097.26 313.12 1084.99 312.56 C 1072.72 312.01 1046.65 313.25 1036.48 312.82 C 1026.32 312.39 1024.00 310.00 1024.00 310.00 L 959.20 243.82 C 959.20 243.82 954.20 239.23 951.00 237.93 C 947.80 236.62 940.00 236.00 940.00 236.00 L 783.00 237.00 C 783.00 237.00 777.56 238.34 773.80 240.23 C 770.03 242.12 773.35 246.88 760.39 248.34 C 747.42 249.81 696.00 249.00 696.00 249.00 L 689.00 252.00 L 646.00 296.00 L 598.30 296.94 C 598.30 296.94 591.81 296.97 589.59 298.64 C 587.37 300.32 585.00 307.00 585.00 307.00 C 585.00 307.00 587.89 342.30 583.72 353.14 C 579.56 363.97 560.00 372.00 560.00 372.00 L 537.36 371.30 L 520.32 386.18 L 520.00 490.00 L 511.00 499.00 L 492.00 501.00 C 492.00 501.00 489.23 502.44 488.43 503.56 C 487.63 504.68 487.22 507.72 487.22 507.72 L 487.00 536.00 L 473.70 552.42 L 444.00 554.00 C 444.00 554.00 440.06 553.13 438.87 551.73 C 437.68 550.33 436.88 545.58 436.88 545.58 L 436.00 507.00 C 436.00 507.00 434.63 500.78 432.63 498.45 C 430.63 496.12 424.00 493.00 424.00 493.00 L 379.00 492.00 C 379.00 492.00 374.61 489.46 373.11 487.79 C 371.61 486.13 370.00 482.00 370.00 482.00 L 370.00 456.00 L 375.54 450.37 L 395.00 448.00 L 400.58 447.94 L 400.59 437.23 C 400.59 437.23 391.67 433.75 389.19 429.89 C 386.72 426.04 385.43 418.68 385.74 414.09 C 386.04 409.50 388.56 405.38 391.00 402.34 C 393.45 399.31 400.42 395.87 400.42 395.87 L 400.33 387.40 L 390.14 387.92 C 390.14 387.92 380.25 399.74 374.08 402.08 C 367.90 404.43 359.12 404.56 353.09 402.00 C 347.06 399.44 340.58 391.91 337.89 386.71 C 335.20 381.52 336.12 375.77 336.94 370.82 C 337.76 365.87 339.75 360.49 342.82 357.00 C 345.88 353.52 350.31 351.09 355.34 349.92 C 360.37 348.76 368.22 348.65 373.00 350.00 C 377.78 351.35 384.00 358.00 384.00 358.00 L 429.00 358.00 L 442.00 354.00 L 456.00 344.00 L 478.00 320.00 L 486.00 304.00 L 488.00 271.00 L 494.00 260.00 L 493.00 200.00 L 499.00 195.00 L 516.00 187.00 L 555.95 179.53 L 561.00 184.00 L 563.00 203.00 L 568.00 212.00 C 568.00 212.00 575.64 221.89 580.31 225.22 C 584.97 228.55 596.00 232.00 596.00 232.00 L 618.00 233.00 L 636.00 224.00 L 656.00 204.00 L 656.00 166.00 L 662.00 160.00 L 750.00 160.00 L 762.00 148.00 C 762.00 148.00 763.10 141.72 764.60 139.72 C 766.10 137.72 771.00 136.00 771.00 136.00 L 968.00 135.00 Z" data-net-id="back-gnd" data-net-label="GND" data-category="gnd" data-color="#000000" fill="#000000" fill-opacity="1" data-editor-kind="area" data-editor-mode-version="2" fill-rule="evenodd" clip-rule="evenodd" data-editor-points="968.00,135.00;989.74,136.96;999.15,142.57;1000.00,149.00;1014.00,160.00;1094.32,158.81;1101.84,163.64;1103.91,170.29;1105.00,192.00;1110.00,208.00;1125.00,224.00;1136.00,229.00;1165.00,230.00;1174.00,227.00;1209.00,196.00;1259.70,195.42;1269.81,199.74;1274.00,209.00;1273.00,287.00;1280.00,312.00;1312.00,346.00;1334.00,354.00;1364.00,353.00;1373.00,364.00;1370.30,446.81;1347.00,470.00;1342.00,478.00;1340.42,505.99;1337.00,518.00;1319.92,513.76;1278.50,470.89;1273.00,461.00;1271.58,439.72;1260.74,431.61;1254.25,415.64;1255.79,377.30;1266.00,362.00;1265.52,349.97;1259.54,348.69;1244.00,339.00;1176.00,270.00;1166.54,267.73;1134.00,267.00;1127.00,277.89;1127.94,290.70;1133.00,295.00;1147.00,297.00;1151.00,303.00;1150.00,331.00;1146.00,336.00;1130.25,334.43;1110.10,316.15;1084.99,312.56;1036.48,312.82;1024.00,310.00;959.20,243.82;951.00,237.93;940.00,236.00;783.00,237.00;773.80,240.23;760.39,248.34;696.00,249.00;689.00,252.00;646.00,296.00;598.30,296.94;589.59,298.64;585.00,307.00;583.72,353.14;560.00,372.00;537.36,371.30;520.32,386.18;520.00,490.00;511.00,499.00;492.00,501.00;488.43,503.56;487.22,507.72;487.00,536.00;473.70,552.42;444.00,554.00;438.87,551.73;436.88,545.58;436.00,507.00;432.63,498.45;424.00,493.00;379.00,492.00;373.11,487.79;370.00,482.00;370.00,456.00;375.54,450.37;395.00,448.00;400.58,447.94;400.59,437.23;389.19,429.89;385.74,414.09;391.00,402.34;400.42,395.87;400.33,387.40;390.14,387.92;374.08,402.08;353.09,402.00;337.89,386.71;336.94,370.82;342.82,357.00;355.34,349.92;373.00,350.00;384.00,358.00;429.00,358.00;442.00,354.00;456.00,344.00;478.00,320.00;486.00,304.00;488.00,271.00;494.00,260.00;493.00,200.00;499.00,195.00;516.00,187.00;555.95,179.53;561.00,184.00;563.00,203.00;568.00,212.00;580.31,225.22;596.00,232.00;618.00,233.00;636.00,224.00;656.00,204.00;656.00,166.00;662.00,160.00;750.00,160.00;762.00,148.00;764.60,139.72;771.00,136.00" data-editor-point-modes="c;c;s;c;c;c;s;c;c;c;c;c;c;c;c;c;s;c;c;c;c;c;c;c;c;c;s;c;s;s;c;s;s;s;s;s;s;c;s;c;c;s;s;s;s;c;s;c;c;s;s;s;s;s;c;c;s;c;c;s;s;c;c;c;c;s;c;s;c;c;c;c;c;c;s;c;c;c;c;s;c;c;s;c;c;s;c;c;c;c;c;c;s;s;s;c;c;c;s;s;s;s;s;s;s;c;c;c;c;c;c;c;c;c;c;c;c;c;c;c;s;c;c;c;c;c;c;c;c;s;c" />
  <path d="M 985.87 332.01 C 989.05 330.79 997.65 333.98 997.65 333.98 L 1094.22 333.45 L 1120.00 357.00 C 1120.00 357.00 1152.70 356.97 1161.93 358.60 C 1171.16 360.24 1172.39 363.73 1175.38 366.81 C 1178.36 369.88 1179.86 377.07 1179.86 377.07 L 1180.00 411.00 L 1168.00 412.00 L 1152.00 412.00 L 1142.02 413.54 L 1141.56 423.26 L 1173.00 424.00 L 1173.02 468.70 L 1147.00 469.00 L 1141.49 471.97 L 1143.01 479.72 L 1166.56 480.63 L 1171.80 486.03 L 1172.00 509.00 L 1167.78 511.71 L 1067.25 512.24 L 1058.59 517.18 L 1047.34 528.65 L 1042.18 534.35 L 1042.86 571.51 C 1042.86 571.51 1044.78 574.99 1044.76 577.06 C 1044.73 579.12 1042.71 583.89 1042.71 583.89 L 1046.58 592.10 L 1086.00 632.00 L 1086.00 669.00 L 1078.00 677.00 L 982.00 678.00 C 982.00 678.00 976.87 673.85 975.76 670.82 C 974.66 667.79 975.38 659.80 975.38 659.80 L 995.00 640.00 L 1014.00 620.00 L 1024.00 595.00 L 1026.83 584.20 C 1026.83 584.20 1025.49 578.12 1025.69 575.92 C 1025.88 573.72 1028.00 571.00 1028.00 571.00 L 1028.00 485.00 L 1033.00 481.00 L 1092.00 481.00 L 1096.73 479.64 L 1097.19 472.43 L 1064.06 469.92 L 1063.00 424.00 L 1097.20 424.89 L 1096.43 412.79 L 1063.59 412.64 L 1057.66 407.78 L 1057.00 390.00 L 1049.47 379.27 L 1048.79 363.46 C 1048.79 363.46 1050.49 358.68 1053.34 357.60 C 1056.19 356.52 1062.30 356.66 1065.91 356.98 C 1069.52 357.30 1069.89 355.84 1075.00 359.52 C 1080.12 363.21 1096.59 379.10 1096.59 379.10 L 1143.61 379.10 L 1147.93 383.27 L 1148.85 391.82 C 1148.85 391.82 1151.46 396.41 1154.48 397.37 C 1157.50 398.34 1163.56 398.54 1166.97 397.60 C 1170.37 396.67 1174.91 391.75 1174.91 391.75 C 1174.91 391.75 1176.79 379.98 1176.14 376.02 C 1175.49 372.06 1171.00 368.00 1171.00 368.00 C 1171.00 368.00 1168.24 364.62 1166.04 363.61 C 1163.84 362.60 1157.79 361.91 1157.79 361.91 L 1119.79 361.84 L 1113.93 365.00 L 1103.00 365.00 L 1089.65 351.35 C 1089.65 351.35 1087.53 348.08 1085.26 347.19 C 1082.98 346.30 1076.00 346.00 1076.00 346.00 L 1014.00 347.00 L 1007.55 351.04 C 1007.55 351.04 989.41 352.52 984.58 350.89 C 979.75 349.26 978.35 344.40 978.57 341.25 C 978.78 338.11 982.69 333.22 985.87 332.01 Z" data-net-id="back-gnd" data-net-label="GND" data-category="gnd" data-color="#000000" fill="#000000" fill-opacity="1" data-editor-kind="area" data-editor-mode-version="2" fill-rule="evenodd" clip-rule="evenodd" data-editor-points="985.87,332.01;997.65,333.98;1094.22,333.45;1120.00,357.00;1161.93,358.60;1175.38,366.81;1179.86,377.07;1180.00,411.00;1168.00,412.00;1152.00,412.00;1142.02,413.54;1141.56,423.26;1173.00,424.00;1173.02,468.70;1147.00,469.00;1141.49,471.97;1143.01,479.72;1166.56,480.63;1171.80,486.03;1172.00,509.00;1167.78,511.71;1067.25,512.24;1058.59,517.18;1047.34,528.65;1042.18,534.35;1042.86,571.51;1044.76,577.06;1042.71,583.89;1046.58,592.10;1086.00,632.00;1086.00,669.00;1078.00,677.00;982.00,678.00;975.76,670.82;975.38,659.80;995.00,640.00;1014.00,620.00;1024.00,595.00;1026.83,584.20;1025.69,575.92;1028.00,571.00;1028.00,485.00;1033.00,481.00;1092.00,481.00;1096.73,479.64;1097.19,472.43;1064.06,469.92;1063.00,424.00;1097.20,424.89;1096.43,412.79;1063.59,412.64;1057.66,407.78;1057.00,390.00;1049.47,379.27;1048.79,363.46;1053.34,357.60;1065.91,356.98;1075.00,359.52;1096.59,379.10;1143.61,379.10;1147.93,383.27;1148.85,391.82;1154.48,397.37;1166.97,397.60;1174.91,391.75;1176.14,376.02;1171.00,368.00;1166.04,363.61;1157.79,361.91;1119.79,361.84;1113.93,365.00;1103.00,365.00;1089.65,351.35;1085.26,347.19;1076.00,346.00;1014.00,347.00;1007.55,351.04;984.58,350.89;978.57,341.25" data-editor-point-modes="s;c;c;c;s;s;c;c;c;c;c;c;c;c;c;c;c;c;c;c;c;c;c;c;c;c;s;c;c;c;c;c;c;s;c;c;c;c;c;s;c;c;c;c;c;c;c;c;c;c;c;c;c;c;c;s;s;s;c;c;c;c;s;s;c;s;c;s;c;c;c;c;c;s;c;c;c;s;s" />
  <path d="M 716.00 408.00 C 718.67 407.33 722.00 408.50 724.00 410.00 C 726.00 411.50 728.00 417.00 728.00 417.00 L 728.00 446.00 C 728.00 446.00 727.27 449.01 726.26 450.23 C 725.26 451.45 721.97 453.30 721.97 453.30 L 702.00 454.00 L 701.41 472.10 L 589.00 472.00 C 589.00 472.00 584.81 465.93 581.42 464.58 C 578.04 463.23 572.09 462.40 568.69 463.89 C 565.28 465.37 561.01 473.48 561.01 473.48 C 561.01 473.48 559.38 495.89 560.71 502.48 C 562.04 509.06 565.83 511.07 569.00 513.00 C 572.17 514.93 575.89 515.19 579.73 514.06 C 583.58 512.93 592.08 506.24 592.08 506.24 L 719.05 506.39 L 734.09 519.12 L 735.93 524.11 L 738.54 553.26 L 744.00 566.00 L 753.00 576.00 C 753.00 576.00 758.64 578.78 761.48 579.12 C 764.31 579.45 770.00 578.00 770.00 578.00 L 787.00 565.00 L 818.00 565.00 L 822.31 569.60 L 823.16 585.71 L 816.00 592.00 L 738.00 592.00 C 738.00 592.00 726.33 579.50 722.00 576.00 C 717.67 572.50 712.00 571.00 712.00 571.00 C 712.00 571.00 658.69 573.42 642.64 570.45 C 626.59 567.48 622.59 556.40 615.71 553.19 C 608.83 549.98 605.09 550.17 601.37 551.19 C 597.65 552.21 594.58 555.96 593.39 559.32 C 592.20 562.69 594.23 571.37 594.23 571.37 C 594.23 571.37 598.00 582.11 615.25 584.33 C 632.50 586.56 680.66 583.41 697.72 584.72 C 714.79 586.02 717.67 592.16 717.67 592.16 L 733.86 606.35 L 845.00 605.00 L 885.00 605.00 L 958.00 604.00 L 967.00 612.00 L 967.00 642.00 L 963.00 650.00 L 831.00 782.00 L 794.00 808.00 L 756.57 809.81 C 756.57 809.81 724.29 777.49 713.53 770.53 C 702.77 763.56 692.00 768.00 692.00 768.00 C 692.00 768.00 686.17 770.73 684.68 774.59 C 683.19 778.45 683.07 791.16 683.07 791.16 C 683.07 791.16 680.21 796.42 676.70 797.76 C 673.20 799.10 665.49 797.44 662.05 799.22 C 658.61 801.00 656.07 808.43 656.07 808.43 C 656.07 808.43 656.71 817.63 655.15 820.93 C 653.59 824.23 646.71 828.22 646.71 828.22 L 604.00 829.00 L 605.43 901.94 L 573.57 901.59 L 573.25 829.26 C 573.25 829.26 564.83 827.94 562.83 825.67 C 560.83 823.40 561.26 815.63 561.26 815.63 C 561.26 815.63 558.88 807.75 556.05 805.59 C 553.22 803.44 544.27 802.68 544.27 802.68 L 532.78 803.52 C 532.78 803.52 525.65 803.82 521.68 800.27 C 517.71 796.72 511.38 787.77 508.95 782.21 C 506.52 776.66 507.10 766.96 507.10 766.96 C 507.10 766.96 508.26 759.84 512.09 756.31 C 515.92 752.79 526.10 749.21 530.09 745.83 C 534.07 742.44 536.00 736.00 536.00 736.00 C 536.00 736.00 537.83 712.52 535.19 704.45 C 532.55 696.38 520.16 687.58 520.16 687.58 L 519.32 582.51 C 519.32 582.51 521.70 579.51 524.31 579.26 C 526.93 579.00 535.00 581.00 535.00 581.00 L 564.01 609.76 C 564.01 609.76 575.72 617.07 581.56 618.61 C 587.39 620.16 599.00 619.00 599.00 619.00 L 657.30 620.69 C 657.30 620.69 660.85 624.71 664.42 625.45 C 667.99 626.20 678.72 625.17 678.72 625.17 C 678.72 625.17 685.43 622.29 686.85 619.12 C 688.27 615.95 688.09 609.44 687.24 606.17 C 686.39 602.90 685.47 600.58 681.75 599.50 C 678.03 598.41 669.46 598.46 664.93 599.66 C 660.39 600.87 654.55 606.73 654.55 606.73 L 586.00 607.00 C 586.00 607.00 575.09 602.75 567.46 596.07 C 559.83 589.39 540.22 566.92 540.22 566.92 L 538.77 558.33 L 531.71 548.35 L 531.63 537.77 L 539.76 529.63 L 540.00 449.00 L 558.00 439.00 L 568.00 427.00 L 703.00 426.00 L 707.08 423.69 C 707.08 423.69 706.51 416.61 708.00 414.00 C 709.49 411.39 713.33 408.67 716.00 408.00 Z" data-net-id="back-gnd" data-net-label="GND" data-category="gnd" data-color="#000000" fill="#000000" fill-opacity="1" data-editor-kind="area" data-editor-mode-version="2" fill-rule="evenodd" clip-rule="evenodd" data-editor-points="716.00,408.00;724.00,410.00;728.00,417.00;728.00,446.00;726.26,450.23;721.97,453.30;702.00,454.00;701.41,472.10;589.00,472.00;581.42,464.58;568.69,463.89;561.01,473.48;560.71,502.48;569.00,513.00;579.73,514.06;592.08,506.24;719.05,506.39;734.09,519.12;735.93,524.11;738.54,553.26;744.00,566.00;753.00,576.00;761.48,579.12;770.00,578.00;787.00,565.00;818.00,565.00;822.31,569.60;823.16,585.71;816.00,592.00;738.00,592.00;722.00,576.00;712.00,571.00;642.64,570.45;615.71,553.19;601.37,551.19;593.39,559.32;594.23,571.37;615.25,584.33;697.72,584.72;717.67,592.16;733.86,606.35;845.00,605.00;885.00,605.00;958.00,604.00;967.00,612.00;967.00,642.00;963.00,650.00;831.00,782.00;794.00,808.00;756.57,809.81;713.53,770.53;692.00,768.00;684.68,774.59;683.07,791.16;676.70,797.76;662.05,799.22;656.07,808.43;655.15,820.93;646.71,828.22;604.00,829.00;605.43,901.94;573.57,901.59;573.25,829.26;562.83,825.67;561.26,815.63;556.05,805.59;544.27,802.68;532.78,803.52;521.68,800.27;508.95,782.21;507.10,766.96;512.09,756.31;530.09,745.83;536.00,736.00;535.19,704.45;520.16,687.58;519.32,582.51;524.31,579.26;535.00,581.00;564.01,609.76;581.56,618.61;599.00,619.00;657.30,620.69;664.42,625.45;678.72,625.17;686.85,619.12;687.24,606.17;681.75,599.50;664.93,599.66;654.55,606.73;586.00,607.00;567.46,596.07;540.22,566.92;538.77,558.33;531.71,548.35;531.63,537.77;539.76,529.63;540.00,449.00;558.00,439.00;568.00,427.00;703.00,426.00;707.08,423.69;708.00,414.00" data-editor-point-modes="s;s;c;c;s;c;c;c;c;s;s;c;s;s;s;c;c;c;c;c;c;c;s;c;c;c;c;c;c;c;s;c;s;s;s;s;c;s;s;c;c;c;c;c;c;c;c;c;c;c;s;c;s;c;s;s;c;s;c;c;c;c;c;s;c;s;c;c;s;s;c;s;s;c;s;c;c;s;c;c;s;c;c;s;c;s;s;s;s;c;c;s;c;c;c;c;c;c;c;c;c;c;s" />
  <path d="M 354.46 537.52 C 359.63 536.14 367.70 535.62 372.95 537.20 C 378.21 538.78 383.23 542.60 386.00 547.00 C 388.77 551.40 389.65 558.26 389.60 563.57 C 389.54 568.89 388.11 574.94 385.68 578.91 C 383.25 582.88 375.02 587.40 375.02 587.40 L 376.22 608.23 C 376.22 608.23 378.10 614.22 381.93 615.79 C 385.75 617.35 399.17 617.64 399.17 617.64 C 399.17 617.64 406.98 622.50 408.52 625.14 C 410.06 627.78 409.52 631.03 408.42 633.46 C 407.31 635.89 407.97 638.73 401.89 639.72 C 395.81 640.70 378.65 640.83 371.92 639.39 C 365.20 637.95 361.53 631.07 361.53 631.07 L 361.00 592.00 C 361.00 592.00 347.02 584.27 343.20 579.67 C 339.39 575.07 338.30 570.08 338.09 564.39 C 337.88 558.70 339.23 550.00 341.95 545.52 C 344.68 541.04 349.30 538.91 354.46 537.52 Z" data-net-id="back-gnd" data-net-label="GND" data-category="gnd" data-color="#000000" fill="#000000" fill-opacity="1" data-editor-kind="area" data-editor-mode-version="2" fill-rule="evenodd" clip-rule="evenodd" data-editor-points="354.46,537.52;372.95,537.20;386.00,547.00;389.60,563.57;385.68,578.91;375.02,587.40;376.22,608.23;381.93,615.79;399.17,617.64;408.52,625.14;408.42,633.46;401.89,639.72;371.92,639.39;361.53,631.07;361.00,592.00;343.20,579.67;338.09,564.39;341.95,545.52" data-editor-point-modes="s;s;s;s;s;c;c;s;c;s;s;s;s;c;c;s;s;s" />
  <path d="M 454.00 566.00 L 484.00 567.00 C 484.00 567.00 487.98 568.48 489.31 569.81 C 490.64 571.15 492.00 575.00 492.00 575.00 L 492.00 709.00 L 470.00 741.00 L 466.18 755.21 L 467.00 769.00 L 456.00 783.00 L 458.00 794.00 L 462.83 798.75 L 466.74 803.78 L 467.11 818.87 L 475.44 818.69 L 476.00 903.00 L 430.33 903.00 L 429.89 881.47 L 426.28 880.69 L 412.12 879.79 C 412.12 879.79 408.10 878.81 406.64 877.44 C 405.17 876.06 403.32 871.52 403.32 871.52 L 403.56 829.34 C 403.56 829.34 403.99 823.41 404.95 821.92 C 405.90 820.43 409.29 820.41 409.29 820.41 L 427.73 819.74 L 434.94 816.39 L 434.38 805.70 L 427.67 801.92 L 427.11 807.69 L 398.85 806.20 L 399.35 786.08 L 424.69 786.08 L 425.19 789.12 L 430.34 788.93 L 434.00 787.00 L 436.43 754.34 L 463.00 728.00 L 480.00 701.00 L 477.00 680.00 L 458.00 651.00 L 457.00 627.00 L 432.00 610.00 L 429.00 604.00 L 429.00 571.00 L 437.00 567.00 L 454.00 566.00 Z" data-net-id="back-gnd" data-net-label="GND" data-category="gnd" data-color="#000000" fill="#000000" fill-opacity="1" data-editor-kind="area" data-editor-mode-version="2" fill-rule="evenodd" clip-rule="evenodd" data-editor-points="454.00,566.00;484.00,567.00;489.31,569.81;492.00,575.00;492.00,709.00;470.00,741.00;466.18,755.21;467.00,769.00;456.00,783.00;458.00,794.00;462.83,798.75;466.74,803.78;467.11,818.87;475.44,818.69;476.00,903.00;430.33,903.00;429.89,881.47;426.28,880.69;412.12,879.79;406.64,877.44;403.32,871.52;403.56,829.34;404.95,821.92;409.29,820.41;427.73,819.74;434.94,816.39;434.38,805.70;427.67,801.92;427.11,807.69;398.85,806.20;399.35,786.08;424.69,786.08;425.19,789.12;430.34,788.93;434.00,787.00;436.43,754.34;463.00,728.00;480.00,701.00;477.00,680.00;458.00,651.00;457.00,627.00;432.00,610.00;429.00,604.00;429.00,571.00;437.00,567.00" data-editor-point-modes="c;c;s;c;c;c;c;c;c;c;c;c;c;c;c;c;c;c;c;s;c;c;s;c;c;c;c;c;c;c;c;c;c;c;c;c;c;c;c;c;c;c;c;c;c" />
  <path d="M 1421.31 684.01 C 1421.31 684.01 1429.91 682.07 1431.87 686.23 C 1433.82 690.38 1433.06 708.94 1433.06 708.94 C 1433.06 708.94 1434.72 725.07 1432.75 729.16 C 1430.78 733.26 1421.25 733.49 1421.25 733.49 L 1402.68 733.35 L 1386.50 734.79 L 1383.61 740.38 L 1392.89 741.53 L 1393.64 816.37 L 1385.94 816.50 L 1385.94 823.98 L 1462.62 824.53 C 1462.62 824.53 1466.65 825.82 1467.78 826.66 C 1468.92 827.51 1469.42 829.61 1469.42 829.61 L 1479.09 899.24 L 1478.68 951.84 C 1478.68 951.84 1479.31 960.34 1478.10 963.06 C 1476.90 965.78 1471.47 968.14 1471.47 968.14 L 1451.23 968.22 C 1451.23 968.22 1447.15 971.50 1444.85 971.50 C 1442.54 971.50 1437.39 968.22 1437.39 968.22 L 1395.79 968.43 C 1395.79 968.43 1385.69 980.85 1380.79 983.58 C 1375.89 986.30 1369.92 985.94 1366.39 984.78 C 1362.86 983.63 1359.61 976.64 1359.61 976.64 L 1357.76 904.35 L 1326.90 872.85 L 1319.34 864.09 L 1317.34 748.53 C 1317.34 748.53 1315.63 745.13 1314.20 743.79 C 1312.77 742.45 1308.74 740.50 1308.74 740.50 L 1276.59 739.69 L 1271.05 736.88 L 1268.40 731.82 L 1268.32 704.90 L 1273.00 699.00 L 1300.76 698.52 L 1317.93 685.75 L 1421.31 684.01 Z" data-net-id="back-gnd" data-net-label="GND" data-category="gnd" data-color="#000000" fill="#000000" fill-opacity="1" data-editor-kind="area" data-editor-mode-version="2" fill-rule="evenodd" clip-rule="evenodd" data-editor-points="1421.31,684.01;1431.87,686.23;1433.06,708.94;1432.75,729.16;1421.25,733.49;1402.68,733.35;1386.50,734.79;1383.61,740.38;1392.89,741.53;1393.64,816.37;1385.94,816.50;1385.94,823.98;1462.62,824.53;1467.78,826.66;1469.42,829.61;1479.09,899.24;1478.68,951.84;1478.10,963.06;1471.47,968.14;1451.23,968.22;1444.85,971.50;1437.39,968.22;1395.79,968.43;1380.79,983.58;1366.39,984.78;1359.61,976.64;1357.76,904.35;1326.90,872.85;1319.34,864.09;1317.34,748.53;1314.20,743.79;1308.74,740.50;1276.59,739.69;1271.05,736.88;1268.40,731.82;1268.32,704.90;1273.00,699.00;1300.76,698.52;1317.93,685.75" data-editor-point-modes="c;s;c;s;c;c;c;c;c;c;c;c;c;s;c;c;c;s;c;c;s;c;c;s;s;c;c;c;c;c;s;c;c;c;c;c;c;c;c" />
  <path d="M 1248.27 783.94 L 1278.97 783.12 L 1282.00 790.47 L 1281.73 814.00 L 1278.00 820.00 L 1274.46 823.10 L 1273.36 890.85 L 1273.64 902.89 L 1288.00 920.00 L 1299.47 931.75 L 1307.46 938.74 L 1309.39 1028.09 L 1264.00 1028.00 L 1264.35 939.47 C 1264.35 939.47 1263.71 930.42 1261.50 927.89 C 1259.30 925.36 1251.12 924.31 1251.12 924.31 L 1216.65 924.95 L 1198.72 940.94 L 1112.04 940.39 L 1095.68 934.51 L 1077.48 916.49 L 873.00 918.00 C 873.00 918.00 866.33 915.83 864.00 914.00 C 861.67 912.17 859.00 907.00 859.00 907.00 L 858.25 834.78 L 869.74 835.33 L 870.56 905.92 L 1159.03 905.53 C 1159.03 905.53 1163.45 909.11 1165.89 910.21 C 1168.34 911.30 1173.68 912.11 1173.68 912.11 L 1188.11 912.74 L 1198.00 905.00 L 1246.51 905.76 C 1246.51 905.76 1251.46 904.23 1253.14 902.99 C 1254.83 901.75 1256.61 898.32 1256.61 898.32 L 1255.97 826.77 L 1255.05 820.71 L 1251.12 816.90 L 1245.60 811.61 L 1245.05 804.81 L 1244.41 788.72 L 1248.27 783.94 Z" data-net-id="back-gnd" data-net-label="GND" data-category="gnd" data-color="#000000" fill="#000000" fill-opacity="1" data-editor-kind="area" data-editor-mode-version="2" fill-rule="evenodd" clip-rule="evenodd" data-editor-points="1248.27,783.94;1278.97,783.12;1282.00,790.47;1281.73,814.00;1278.00,820.00;1274.46,823.10;1273.36,890.85;1273.64,902.89;1288.00,920.00;1299.47,931.75;1307.46,938.74;1309.39,1028.09;1264.00,1028.00;1264.35,939.47;1261.50,927.89;1251.12,924.31;1216.65,924.95;1198.72,940.94;1112.04,940.39;1095.68,934.51;1077.48,916.49;873.00,918.00;864.00,914.00;859.00,907.00;858.25,834.78;869.74,835.33;870.56,905.92;1159.03,905.53;1165.89,910.21;1173.68,912.11;1188.11,912.74;1198.00,905.00;1246.51,905.76;1253.14,902.99;1256.61,898.32;1255.97,826.77;1255.05,820.71;1251.12,816.90;1245.60,811.61;1245.05,804.81;1244.41,788.72" data-editor-point-modes="c;c;c;c;c;c;c;c;c;c;c;c;c;c;s;c;c;c;c;c;c;c;s;c;c;c;c;c;s;c;c;c;c;s;c;c;c;c;c;c;c" />
  <path d="M 872.55 973.22 C 872.55 973.22 894.36 971.12 900.60 973.08 C 906.85 975.05 910.00 985.00 910.00 985.00 L 910.00 1008.00 L 940.00 1037.00 L 955.00 1047.00 L 967.00 1050.00 L 1094.93 1049.54 C 1094.93 1049.54 1101.08 1053.15 1103.09 1055.23 C 1105.10 1057.30 1107.00 1062.00 1107.00 1062.00 L 1106.63 1142.34 C 1106.63 1142.34 1104.06 1148.18 1101.62 1150.29 C 1099.18 1152.40 1092.00 1155.00 1092.00 1155.00 L 1003.88 1154.84 C 1003.88 1154.84 996.68 1159.66 993.71 1158.65 C 990.75 1157.64 987.46 1158.30 986.08 1148.78 C 984.70 1139.25 985.42 1101.49 985.42 1101.49 L 982.91 1098.61 L 912.02 1098.48 L 908.69 1101.81 L 908.07 1151.03 L 903.53 1154.97 L 886.00 1156.00 L 879.00 1155.00 L 874.00 1150.00 L 857.46 1150.43 L 856.00 1152.00 L 856.53 1165.20 L 860.67 1167.07 L 863.82 1166.61 L 869.00 1161.00 L 876.00 1161.00 L 876.00 1176.00 L 868.29 1175.90 L 864.95 1170.95 L 841.95 1170.75 L 839.55 1175.30 L 831.19 1175.90 L 830.65 1168.41 L 830.92 1161.66 L 837.67 1162.13 L 841.35 1166.21 L 847.57 1166.87 L 851.38 1164.53 C 851.38 1164.53 851.91 1154.27 851.18 1149.89 C 850.44 1145.51 847.61 1143.23 846.97 1138.26 C 846.32 1133.29 847.30 1120.08 847.30 1120.08 L 848.51 1108.64 L 848.00 1069.00 L 857.00 1054.00 L 905.00 1008.00 L 905.00 983.00 C 905.00 983.00 903.90 977.08 898.40 976.08 C 892.90 975.08 872.00 977.00 872.00 977.00 L 871.35 1014.00 C 871.35 1014.00 869.46 1018.94 864.68 1024.47 C 859.91 1030.01 842.69 1047.20 842.69 1047.20 L 835.00 1060.00 L 835.00 1113.00 C 835.00 1113.00 829.78 1121.72 826.44 1124.89 C 823.11 1128.06 815.00 1132.00 815.00 1132.00 L 768.00 1132.00 L 761.00 1128.00 L 758.00 1122.00 L 758.45 1049.21 L 761.00 1044.00 L 765.00 1041.00 L 812.00 1040.00 L 822.00 1030.00 L 821.00 992.00 C 821.00 992.00 821.13 983.74 823.23 980.81 C 825.34 977.88 825.41 975.68 833.63 974.42 C 841.85 973.15 872.55 973.22 872.55 973.22 Z M 1054.51 1103.23 C 1059.14 1106.57 1061.14 1105.49 1064.07 1105.76 C 1067.00 1106.03 1069.99 1105.82 1072.10 1104.86 C 1074.20 1103.89 1075.99 1103.13 1076.69 1099.99 C 1077.40 1096.85 1077.93 1090.04 1076.33 1086.01 C 1074.74 1081.98 1070.82 1078.41 1067.14 1075.82 C 1063.45 1073.24 1059.88 1071.59 1054.24 1070.50 C 1048.60 1069.41 1033.31 1069.31 1033.31 1069.31 L 979.28 1068.29 L 916.72 1069.65 L 900.18 1069.65 C 900.18 1069.65 895.54 1071.00 890.63 1075.38 C 885.72 1079.76 870.71 1095.94 870.71 1095.94 L 860.92 1105.55 L 852.28 1116.87 L 851.43 1123.52 L 852.28 1140.05 C 852.28 1140.05 853.57 1144.13 856.03 1145.17 C 858.49 1146.20 863.79 1146.36 867.06 1146.28 C 870.33 1146.19 873.62 1145.48 875.63 1144.66 C 877.65 1143.83 878.14 1143.24 879.16 1141.31 C 880.18 1139.38 881.28 1137.79 881.74 1133.08 C 882.20 1128.37 881.92 1113.06 881.92 1113.06 C 881.92 1113.06 882.54 1106.57 883.36 1104.22 C 884.19 1101.88 885.29 1100.91 886.88 1098.97 C 888.48 1097.03 892.92 1092.59 892.92 1092.59 C 892.92 1092.59 897.82 1086.03 900.77 1084.48 C 903.71 1082.93 910.58 1083.29 910.58 1083.29 L 1026.02 1082.67 C 1026.02 1082.67 1030.71 1082.16 1032.42 1082.67 C 1034.13 1083.18 1036.30 1085.74 1036.30 1085.74 C 1036.30 1085.74 1049.88 1099.90 1054.51 1103.23 Z" data-net-id="back-gnd" data-net-label="GND" data-category="gnd" data-color="#000000" fill="#000000" fill-opacity="1" data-editor-kind="area" data-editor-mode-version="2" fill-rule="evenodd" clip-rule="evenodd" data-editor-points="872.55,973.22;900.60,973.08;910.00,985.00;910.00,1008.00;940.00,1037.00;955.00,1047.00;967.00,1050.00;1094.93,1049.54;1103.09,1055.23;1107.00,1062.00;1106.63,1142.34;1101.62,1150.29;1092.00,1155.00;1003.88,1154.84;993.71,1158.65;986.08,1148.78;985.42,1101.49;982.91,1098.61;912.02,1098.48;908.69,1101.81;908.07,1151.03;903.53,1154.97;886.00,1156.00;879.00,1155.00;874.00,1150.00;857.46,1150.43;856.00,1152.00;856.53,1165.20;860.67,1167.07;863.82,1166.61;869.00,1161.00;876.00,1161.00;876.00,1176.00;868.29,1175.90;864.95,1170.95;841.95,1170.75;839.55,1175.30;831.19,1175.90;830.65,1168.41;830.92,1161.66;837.67,1162.13;841.35,1166.21;847.57,1166.87;851.38,1164.53;851.18,1149.89;846.97,1138.26;847.30,1120.08;848.51,1108.64;848.00,1069.00;857.00,1054.00;905.00,1008.00;905.00,983.00;898.40,976.08;872.00,977.00;871.35,1014.00;864.68,1024.47;842.69,1047.20;835.00,1060.00;835.00,1113.00;826.44,1124.89;815.00,1132.00;768.00,1132.00;761.00,1128.00;758.00,1122.00;758.45,1049.21;761.00,1044.00;765.00,1041.00;812.00,1040.00;822.00,1030.00;821.00,992.00;823.23,980.81;833.63,974.42" data-editor-point-modes="c;s;c;c;c;c;c;c;s;c;c;s;c;c;s;s;c;c;c;c;c;c;c;c;c;c;c;c;c;c;c;c;c;c;c;c;c;c;c;c;c;c;c;c;s;s;c;c;c;c;c;c;s;c;c;s;c;c;c;s;c;c;c;c;c;c;c;c;c;c;s;s" data-editor-holes="[{&quot;points&quot;:[[1054.51,1103.23],[1064.07,1105.76],[1072.1,1104.86],[1076.69,1099.99],[1076.33,1086.01],[1067.14,1075.82],[1054.24,1070.5],[1033.31,1069.31],[979.28,1068.29],[916.72,1069.65],[900.18,1069.65],[890.63,1075.38],[870.71,1095.94],[860.92,1105.55],[852.28,1116.87],[851.43,1123.52],[852.28,1140.05],[856.03,1145.17],[867.06,1146.28],[875.63,1144.66],[879.16,1141.31],[881.74,1133.08],[881.92,1113.06],[883.36,1104.22],[886.88,1098.97],[892.92,1092.59],[900.77,1084.48],[910.58,1083.29],[1026.02,1082.67],[1032.42,1082.67],[1036.3,1085.74]],&quot;pointModes&quot;:[&quot;smooth&quot;,&quot;smooth&quot;,&quot;smooth&quot;,&quot;smooth&quot;,&quot;smooth&quot;,&quot;smooth&quot;,&quot;smooth&quot;,&quot;corner&quot;,&quot;corner&quot;,&quot;corner&quot;,&quot;corner&quot;,&quot;smooth&quot;,&quot;corner&quot;,&quot;corner&quot;,&quot;corner&quot;,&quot;corner&quot;,&quot;corner&quot;,&quot;smooth&quot;,&quot;smooth&quot;,&quot;smooth&quot;,&quot;smooth&quot;,&quot;smooth&quot;,&quot;corner&quot;,&quot;smooth&quot;,&quot;smooth&quot;,&quot;corner&quot;,&quot;smooth&quot;,&quot;corner&quot;,&quot;corner&quot;,&quot;smooth&quot;,&quot;corner&quot;]}]" />
  <path d="M 383.00 980.00 C 383.00 980.00 397.16 979.70 401.32 980.37 C 405.49 981.03 408.00 984.00 408.00 984.00 L 408.00 1010.00 L 370.00 1048.00 L 364.23 1055.39 C 364.23 1055.39 369.14 1058.69 370.66 1060.51 C 372.18 1062.33 373.33 1066.32 373.33 1066.32 L 386.00 1066.00 L 387.79 1062.12 C 387.79 1062.12 396.61 1061.36 399.34 1062.19 C 402.06 1063.02 404.15 1067.09 404.15 1067.09 L 405.30 1121.00 L 417.08 1139.28 L 432.00 1154.00 L 470.68 1180.72 L 488.00 1180.00 C 488.00 1180.00 495.45 1179.43 498.06 1180.65 C 500.67 1181.86 503.64 1187.30 503.64 1187.30 L 503.18 1233.41 C 503.18 1233.41 502.50 1236.93 501.35 1238.31 C 500.20 1239.68 496.30 1241.67 496.30 1241.67 L 465.18 1242.82 L 456.38 1238.77 L 379.00 1164.00 C 379.00 1164.00 379.14 1154.73 377.00 1152.00 C 374.86 1149.27 369.98 1147.94 366.15 1147.61 C 362.31 1147.28 356.87 1147.67 354.00 1150.00 C 351.13 1152.33 349.02 1157.57 348.94 1161.61 C 348.86 1165.64 350.98 1171.69 353.53 1174.22 C 356.08 1176.76 364.23 1176.82 364.23 1176.82 L 457.00 1269.00 L 473.28 1280.52 L 490.41 1285.57 L 603.82 1283.96 L 621.81 1270.55 L 673.67 1270.33 L 725.00 1269.00 C 725.00 1269.00 734.63 1267.77 738.46 1269.27 C 742.30 1270.77 748.00 1278.00 748.00 1278.00 L 776.00 1307.00 C 776.00 1307.00 781.72 1311.53 784.22 1312.70 C 786.72 1313.86 791.00 1314.00 791.00 1314.00 L 1028.00 1313.00 L 1090.45 1312.92 C 1090.45 1312.92 1095.70 1313.37 1101.96 1318.72 C 1108.22 1324.06 1128.00 1345.00 1128.00 1345.00 C 1128.00 1345.00 1132.96 1351.56 1141.13 1352.73 C 1149.30 1353.89 1177.00 1352.00 1177.00 1352.00 C 1177.00 1352.00 1185.33 1352.00 1187.00 1342.00 C 1188.67 1332.00 1187.00 1292.00 1187.00 1292.00 C 1187.00 1292.00 1184.83 1281.33 1183.00 1278.00 C 1181.17 1274.67 1179.17 1272.83 1176.00 1272.00 C 1172.83 1271.17 1168.00 1270.67 1164.00 1273.00 C 1160.00 1275.33 1155.83 1283.00 1152.00 1286.00 C 1148.17 1289.00 1145.00 1290.50 1141.00 1291.00 C 1137.00 1291.50 1132.00 1290.83 1128.00 1289.00 C 1124.00 1287.17 1117.00 1280.00 1117.00 1280.00 L 800.00 1282.00 L 792.67 1277.71 L 766.00 1250.00 L 751.00 1238.00 L 666.57 1236.00 L 640.00 1213.00 L 634.00 1202.00 L 634.02 1175.24 L 642.63 1164.53 L 643.00 1143.00 C 643.00 1143.00 627.03 1126.10 623.46 1120.38 C 619.89 1114.66 621.59 1108.66 621.59 1108.66 L 609.13 1107.76 L 609.00 1048.00 L 619.88 1047.51 L 620.55 1039.90 C 620.55 1039.90 588.80 1041.14 581.00 1040.00 C 573.20 1038.86 573.74 1033.03 573.74 1033.03 L 574.11 1020.86 L 570.15 1017.87 L 569.78 1001.15 L 591.13 1000.70 L 592.25 1018.47 L 588.67 1019.44 L 591.58 1022.50 C 591.58 1022.50 633.29 1021.68 643.69 1022.43 C 654.10 1023.18 654.00 1027.00 654.00 1027.00 L 654.67 1046.92 L 662.51 1046.77 L 663.00 1067.00 L 661.91 1107.39 L 654.74 1107.24 L 655.00 1116.00 L 667.00 1130.00 L 667.00 1184.00 C 667.00 1184.00 665.33 1191.00 672.00 1199.00 C 678.67 1207.00 707.00 1232.00 707.00 1232.00 L 754.00 1234.00 L 774.00 1252.00 L 785.16 1264.75 L 1018.00 1264.00 L 1032.00 1277.00 L 1119.00 1276.00 L 1130.00 1285.00 L 1141.00 1287.00 L 1161.00 1270.00 C 1161.00 1270.00 1170.30 1266.67 1174.63 1267.51 C 1178.96 1268.34 1187.00 1275.00 1187.00 1275.00 C 1187.00 1275.00 1188.11 1285.05 1192.00 1287.48 C 1195.89 1289.91 1206.33 1289.98 1210.33 1289.57 C 1214.33 1289.16 1216.00 1285.00 1216.00 1285.00 C 1216.00 1285.00 1213.81 1253.74 1217.56 1242.98 C 1221.32 1232.23 1238.51 1220.47 1238.51 1220.47 L 1276.00 1219.00 C 1276.00 1219.00 1287.19 1219.12 1291.36 1220.62 C 1295.53 1222.12 1301.00 1228.00 1301.00 1228.00 L 1339.00 1265.00 L 1344.00 1275.00 L 1343.96 1385.92 L 1343.69 1436.01 L 1320.00 1457.00 L 1314.47 1461.75 L 1306.79 1468.64 L 1301.77 1474.74 L 1296.00 1483.00 C 1296.00 1483.00 1288.17 1493.57 1286.51 1505.07 C 1284.84 1516.57 1286.00 1552.00 1286.00 1552.00 L 1256.00 1560.00 L 1144.00 1576.00 L 973.97 1587.19 L 968.75 1582.37 L 968.00 1508.00 C 968.00 1508.00 970.12 1504.30 972.79 1503.30 C 975.45 1502.30 984.00 1502.00 984.00 1502.00 C 984.00 1502.00 1002.92 1507.12 1011.19 1505.76 C 1019.46 1504.40 1028.17 1499.47 1033.64 1493.85 C 1039.11 1488.22 1042.44 1478.31 1044.00 1472.00 C 1045.56 1465.69 1044.50 1461.33 1043.00 1456.00 C 1041.50 1450.67 1038.00 1444.00 1035.00 1440.00 C 1032.00 1436.00 1029.00 1434.17 1025.00 1432.00 C 1021.00 1429.83 1011.00 1427.00 1011.00 1427.00 L 816.82 1427.87 C 816.82 1427.87 807.87 1429.07 805.59 1431.12 C 803.31 1433.17 803.13 1440.18 803.13 1440.18 L 802.54 1601.96 L 702.69 1623.92 C 702.69 1623.92 697.48 1622.33 695.70 1620.67 C 693.92 1619.02 692.00 1614.00 692.00 1614.00 C 692.00 1614.00 692.43 1578.00 691.76 1567.50 C 691.09 1557.00 691.46 1555.25 688.00 1551.00 C 684.54 1546.75 677.67 1543.50 671.00 1542.00 C 664.33 1540.50 654.00 1540.83 648.00 1542.00 C 642.00 1543.17 638.18 1545.34 635.00 1549.00 C 631.82 1552.66 629.94 1554.79 628.94 1563.96 C 627.94 1573.12 631.23 1594.22 629.00 1604.00 C 626.77 1613.78 621.21 1616.14 615.55 1622.64 C 609.88 1629.14 595.00 1643.00 595.00 1643.00 C 595.00 1643.00 591.26 1646.05 587.00 1646.00 C 582.74 1645.95 578.63 1649.23 569.46 1642.73 C 560.30 1636.23 532.00 1607.00 532.00 1607.00 L 529.00 1600.00 L 528.00 1560.00 C 528.00 1560.00 525.29 1552.11 522.79 1549.78 C 520.29 1547.44 513.00 1546.00 513.00 1546.00 L 472.77 1544.16 C 472.77 1544.16 468.26 1543.97 466.76 1542.49 C 465.27 1541.01 463.81 1535.30 463.81 1535.30 L 462.00 1501.00 C 462.00 1501.00 463.70 1494.23 465.78 1492.17 C 467.85 1490.11 474.44 1488.63 474.44 1488.63 L 536.00 1489.00 C 536.00 1489.00 544.41 1486.29 547.51 1483.51 C 550.61 1480.72 554.60 1472.28 554.60 1472.28 L 554.50 1397.45 L 558.00 1394.00 L 559.22 1380.31 C 559.22 1380.31 561.34 1373.77 564.25 1371.55 C 567.15 1369.33 576.65 1367.02 576.65 1367.02 L 595.76 1366.04 L 784.00 1366.00 L 805.20 1344.47 L 856.00 1344.00 L 887.32 1343.78 C 887.32 1343.78 891.39 1350.13 894.00 1352.00 C 896.61 1353.87 900.00 1355.00 903.00 1355.00 C 906.00 1355.00 909.67 1353.83 912.00 1352.00 C 914.33 1350.17 916.39 1347.21 917.00 1344.00 C 917.61 1340.79 917.93 1335.66 915.68 1332.75 C 913.42 1329.84 907.58 1326.84 903.47 1326.55 C 899.35 1326.26 891.00 1331.00 891.00 1331.00 L 806.00 1331.00 L 796.00 1324.00 L 750.25 1324.09 L 727.90 1345.06 L 699.00 1345.00 L 691.00 1337.00 L 690.00 1300.00 C 690.00 1300.00 687.19 1294.86 683.69 1293.86 C 680.19 1292.86 669.00 1294.00 669.00 1294.00 L 641.84 1322.91 L 629.23 1328.52 L 464.89 1330.00 L 457.51 1335.81 L 458.00 1359.00 C 458.00 1359.00 455.83 1364.33 453.00 1366.00 C 450.17 1367.67 441.00 1369.00 441.00 1369.00 L 420.00 1368.00 C 420.00 1368.00 408.21 1372.09 401.38 1377.26 C 394.55 1382.43 379.00 1399.00 379.00 1399.00 L 362.09 1412.12 L 361.99 1419.01 C 361.99 1419.01 367.93 1422.22 370.26 1424.72 C 372.60 1427.22 376.00 1434.00 376.00 1434.00 L 387.00 1433.58 L 393.50 1425.90 L 431.81 1425.90 C 431.81 1425.90 434.84 1428.46 436.04 1430.14 C 437.24 1431.82 439.00 1436.00 439.00 1436.00 L 437.81 1471.00 L 431.00 1478.00 L 393.00 1478.00 L 387.00 1471.00 L 386.00 1457.00 L 376.00 1457.00 C 376.00 1457.00 364.31 1469.93 358.00 1472.00 C 351.69 1474.07 343.44 1472.07 338.16 1469.43 C 332.89 1466.78 326.35 1456.13 326.35 1456.13 L 314.14 1456.82 L 312.00 1475.00 C 312.00 1475.00 310.98 1478.27 307.00 1479.00 C 303.02 1479.73 292.31 1480.37 288.14 1479.37 C 283.98 1478.37 283.69 1477.23 282.00 1473.00 C 280.31 1468.77 278.00 1454.00 278.00 1454.00 L 279.00 1356.00 L 286.00 1347.00 L 323.00 1346.00 C 323.00 1346.00 333.00 1341.17 336.00 1338.00 C 339.00 1334.83 340.17 1333.50 341.00 1327.00 C 341.83 1320.50 341.00 1299.00 341.00 1299.00 C 341.00 1299.00 341.95 1285.30 339.00 1280.00 C 336.05 1274.70 331.96 1269.34 323.30 1267.17 C 314.63 1265.01 287.00 1267.00 287.00 1267.00 C 287.00 1267.00 280.88 1263.09 279.87 1257.62 C 278.86 1252.15 280.95 1234.19 280.95 1234.19 L 285.19 1231.43 C 285.19 1231.43 298.13 1231.35 301.44 1230.45 C 304.74 1229.54 305.00 1226.00 305.00 1226.00 L 304.00 1168.00 L 301.00 1165.00 L 284.00 1164.00 L 278.30 1159.35 L 278.30 1064.04 C 278.30 1064.04 280.22 1058.61 282.33 1057.44 C 284.45 1056.27 291.00 1057.00 291.00 1057.00 L 302.42 1049.26 C 302.42 1049.26 306.57 1048.18 308.23 1048.67 C 309.89 1049.17 311.56 1049.35 312.37 1052.22 C 313.17 1055.09 313.05 1065.91 313.05 1065.91 C 313.05 1065.91 319.71 1067.67 322.86 1066.02 C 326.02 1064.36 328.19 1058.52 332.00 1056.00 C 335.81 1053.48 345.73 1050.87 345.73 1050.87 L 360.00 1037.00 L 373.00 1024.00 C 373.00 1024.00 375.32 1019.76 375.63 1016.31 C 375.94 1012.86 374.86 1003.31 374.86 1003.31 L 374.71 982.89 L 383.00 980.00 Z M 1092.14 1417.89 L 1091.90 1471.63 L 1125.68 1470.75 L 1126.09 1523.87 L 1119.45 1536.14 L 1120.73 1544.69 L 1142.85 1565.53 L 1174.31 1565.53 L 1184.33 1556.87 C 1184.33 1556.87 1189.94 1548.74 1194.87 1544.74 C 1199.80 1540.74 1202.95 1534.96 1213.91 1532.87 C 1224.88 1530.78 1260.66 1532.22 1260.66 1532.22 C 1260.66 1532.22 1266.99 1532.85 1268.85 1531.67 C 1270.70 1530.49 1271.80 1525.12 1271.80 1525.12 C 1271.80 1525.12 1270.72 1515.40 1271.80 1512.03 C 1272.88 1508.66 1278.27 1504.92 1278.27 1504.92 L 1278.67 1456.62 L 1277.75 1432.44 C 1277.75 1432.44 1277.88 1425.93 1280.18 1422.60 C 1282.49 1419.27 1291.60 1412.46 1291.60 1412.46 C 1291.60 1412.46 1298.54 1406.56 1299.83 1401.20 C 1301.12 1395.84 1301.26 1385.67 1299.35 1380.28 C 1297.43 1374.89 1292.72 1370.86 1288.33 1368.86 C 1283.94 1366.87 1273.00 1368.30 1273.00 1368.30 L 1062.49 1371.02 L 1011.41 1368.83 L 987.36 1371.02 L 956.55 1369.83 L 930.91 1373.21 L 837.49 1370.82 L 810.91 1371.25 L 756.79 1370.82 L 623.51 1371.76 L 573.33 1372.52 C 573.33 1372.52 566.58 1375.52 565.11 1378.64 C 563.64 1381.76 563.32 1387.77 564.52 1391.23 C 565.73 1394.68 568.83 1398.21 572.33 1399.37 C 575.82 1400.53 580.52 1400.44 585.50 1398.19 C 590.48 1395.94 592.07 1388.03 602.20 1385.86 C 612.32 1383.69 646.25 1385.19 646.25 1385.19 L 855.39 1385.95 L 1006.54 1384.67 L 1028.30 1384.14 L 1168.23 1382.95 L 1256.09 1382.95 C 1256.09 1382.95 1271.79 1382.29 1276.43 1383.31 C 1281.07 1384.34 1282.68 1386.42 1283.91 1389.11 C 1285.15 1391.80 1286.52 1394.79 1283.86 1399.44 C 1281.20 1404.09 1271.15 1412.27 1267.97 1417.01 C 1264.79 1421.75 1264.77 1427.87 1264.77 1427.87 C 1264.77 1427.87 1266.02 1449.89 1264.53 1455.74 C 1263.04 1461.58 1255.83 1462.92 1255.83 1462.92 C 1255.83 1462.92 1245.10 1463.33 1242.50 1461.33 C 1239.89 1459.33 1240.19 1450.92 1240.19 1450.92 L 1239.94 1417.73 C 1239.94 1417.73 1239.95 1409.34 1236.99 1407.19 C 1234.02 1405.03 1222.13 1404.79 1222.13 1404.79 L 1099.25 1406.15 C 1099.25 1406.15 1095.72 1408.27 1094.54 1410.22 C 1093.35 1412.18 1092.14 1417.89 1092.14 1417.89 Z" data-net-id="back-gnd" data-net-label="GND" data-category="gnd" data-color="#000000" fill="#000000" fill-opacity="1" data-editor-kind="area" data-editor-mode-version="2" fill-rule="evenodd" clip-rule="evenodd" data-editor-points="383.00,980.00;401.32,980.37;408.00,984.00;408.00,1010.00;370.00,1048.00;364.23,1055.39;370.66,1060.51;373.33,1066.32;386.00,1066.00;387.79,1062.12;399.34,1062.19;404.15,1067.09;405.30,1121.00;417.08,1139.28;432.00,1154.00;470.68,1180.72;488.00,1180.00;498.06,1180.65;503.64,1187.30;503.18,1233.41;501.35,1238.31;496.30,1241.67;465.18,1242.82;456.38,1238.77;379.00,1164.00;377.00,1152.00;366.15,1147.61;354.00,1150.00;348.94,1161.61;353.53,1174.22;364.23,1176.82;457.00,1269.00;473.28,1280.52;490.41,1285.57;603.82,1283.96;621.81,1270.55;673.67,1270.33;725.00,1269.00;738.46,1269.27;748.00,1278.00;776.00,1307.00;784.22,1312.70;791.00,1314.00;1028.00,1313.00;1090.45,1312.92;1101.96,1318.72;1128.00,1345.00;1141.13,1352.73;1177.00,1352.00;1187.00,1342.00;1187.00,1292.00;1183.00,1278.00;1176.00,1272.00;1164.00,1273.00;1152.00,1286.00;1141.00,1291.00;1128.00,1289.00;1117.00,1280.00;800.00,1282.00;792.67,1277.71;766.00,1250.00;751.00,1238.00;666.57,1236.00;640.00,1213.00;634.00,1202.00;634.02,1175.24;642.63,1164.53;643.00,1143.00;623.46,1120.38;621.59,1108.66;609.13,1107.76;609.00,1048.00;619.88,1047.51;620.55,1039.90;581.00,1040.00;573.74,1033.03;574.11,1020.86;570.15,1017.87;569.78,1001.15;591.13,1000.70;592.25,1018.47;588.67,1019.44;591.58,1022.50;643.69,1022.43;654.00,1027.00;654.67,1046.92;662.51,1046.77;663.00,1067.00;661.91,1107.39;654.74,1107.24;655.00,1116.00;667.00,1130.00;667.00,1184.00;672.00,1199.00;707.00,1232.00;754.00,1234.00;774.00,1252.00;785.16,1264.75;1018.00,1264.00;1032.00,1277.00;1119.00,1276.00;1130.00,1285.00;1141.00,1287.00;1161.00,1270.00;1174.63,1267.51;1187.00,1275.00;1192.00,1287.48;1210.33,1289.57;1216.00,1285.00;1217.56,1242.98;1238.51,1220.47;1276.00,1219.00;1291.36,1220.62;1301.00,1228.00;1339.00,1265.00;1344.00,1275.00;1343.96,1385.92;1343.69,1436.01;1320.00,1457.00;1314.47,1461.75;1306.79,1468.64;1301.77,1474.74;1296.00,1483.00;1286.51,1505.07;1286.00,1552.00;1256.00,1560.00;1144.00,1576.00;973.97,1587.19;968.75,1582.37;968.00,1508.00;972.79,1503.30;984.00,1502.00;1011.19,1505.76;1033.64,1493.85;1044.00,1472.00;1043.00,1456.00;1035.00,1440.00;1025.00,1432.00;1011.00,1427.00;816.82,1427.87;805.59,1431.12;803.13,1440.18;802.54,1601.96;702.69,1623.92;695.70,1620.67;692.00,1614.00;691.76,1567.50;688.00,1551.00;671.00,1542.00;648.00,1542.00;635.00,1549.00;628.94,1563.96;629.00,1604.00;615.55,1622.64;595.00,1643.00;587.00,1646.00;569.46,1642.73;532.00,1607.00;529.00,1600.00;528.00,1560.00;522.79,1549.78;513.00,1546.00;472.77,1544.16;466.76,1542.49;463.81,1535.30;462.00,1501.00;465.78,1492.17;474.44,1488.63;536.00,1489.00;547.51,1483.51;554.60,1472.28;554.50,1397.45;558.00,1394.00;559.22,1380.31;564.25,1371.55;576.65,1367.02;595.76,1366.04;784.00,1366.00;805.20,1344.47;856.00,1344.00;887.32,1343.78;894.00,1352.00;903.00,1355.00;912.00,1352.00;917.00,1344.00;915.68,1332.75;903.47,1326.55;891.00,1331.00;806.00,1331.00;796.00,1324.00;750.25,1324.09;727.90,1345.06;699.00,1345.00;691.00,1337.00;690.00,1300.00;683.69,1293.86;669.00,1294.00;641.84,1322.91;629.23,1328.52;464.89,1330.00;457.51,1335.81;458.00,1359.00;453.00,1366.00;441.00,1369.00;420.00,1368.00;401.38,1377.26;379.00,1399.00;362.09,1412.12;361.99,1419.01;370.26,1424.72;376.00,1434.00;387.00,1433.58;393.50,1425.90;431.81,1425.90;436.04,1430.14;439.00,1436.00;437.81,1471.00;431.00,1478.00;393.00,1478.00;387.00,1471.00;386.00,1457.00;376.00,1457.00;358.00,1472.00;338.16,1469.43;326.35,1456.13;314.14,1456.82;312.00,1475.00;307.00,1479.00;288.14,1479.37;282.00,1473.00;278.00,1454.00;279.00,1356.00;286.00,1347.00;323.00,1346.00;336.00,1338.00;341.00,1327.00;341.00,1299.00;339.00,1280.00;323.30,1267.17;287.00,1267.00;279.87,1257.62;280.95,1234.19;285.19,1231.43;301.44,1230.45;305.00,1226.00;304.00,1168.00;301.00,1165.00;284.00,1164.00;278.30,1159.35;278.30,1064.04;282.33,1057.44;291.00,1057.00;302.42,1049.26;308.23,1048.67;312.37,1052.22;313.05,1065.91;322.86,1066.02;332.00,1056.00;345.73,1050.87;360.00,1037.00;373.00,1024.00;375.63,1016.31;374.86,1003.31;374.71,982.89" data-editor-point-modes="c;s;c;c;c;c;s;c;c;c;s;c;c;c;c;c;c;s;c;c;s;c;c;c;c;s;s;s;s;s;c;c;c;c;c;c;c;c;s;c;c;s;c;c;c;s;c;s;c;s;c;s;s;s;s;s;s;c;c;c;c;c;c;c;c;c;c;c;s;c;c;c;c;c;s;c;c;c;c;c;c;c;c;s;c;c;c;c;c;c;c;c;c;s;c;c;c;c;c;c;c;c;c;c;s;c;s;s;c;s;c;c;s;c;c;c;c;c;c;c;c;c;c;s;c;c;c;c;c;c;s;c;s;s;s;s;s;s;c;c;s;c;c;c;s;c;s;s;s;s;s;s;s;s;c;s;s;c;c;c;s;c;c;s;c;c;s;c;c;s;c;c;c;c;s;c;c;c;c;c;c;s;s;s;s;s;s;c;c;c;c;c;c;c;c;s;c;c;c;c;c;c;s;c;c;s;c;c;c;s;c;c;c;c;s;c;c;c;c;c;c;c;s;s;c;c;c;s;s;s;c;c;c;c;s;s;c;s;s;c;s;c;c;s;c;c;c;c;c;c;s;c;c;s;s;c;s;s;c;c;c;s;c;c" data-editor-holes="[{&quot;points&quot;:[[1092.14,1417.89],[1091.9,1471.63],[1125.68,1470.75],[1126.09,1523.87],[1119.45,1536.14],[1120.73,1544.69],[1142.85,1565.53],[1174.31,1565.53],[1184.33,1556.87],[1194.87,1544.74],[1213.91,1532.87],[1260.66,1532.22],[1268.85,1531.67],[1271.8,1525.12],[1271.8,1512.03],[1278.27,1504.92],[1278.67,1456.62],[1277.75,1432.44],[1280.18,1422.6],[1291.6,1412.46],[1299.83,1401.2],[1299.35,1380.28],[1288.33,1368.86],[1273,1368.3],[1062.49,1371.02],[1011.41,1368.83],[987.36,1371.02],[956.55,1369.83],[930.91,1373.21],[837.49,1370.82],[810.91,1371.25],[756.79,1370.82],[623.51,1371.76],[573.33,1372.52],[565.11,1378.64],[564.52,1391.23],[572.33,1399.37],[585.5,1398.19],[602.2,1385.86],[646.25,1385.19],[855.39,1385.95],[1006.54,1384.67],[1028.3,1384.14],[1168.23,1382.95],[1256.09,1382.95],[1276.43,1383.31],[1283.91,1389.11],[1283.86,1399.44],[1267.97,1417.01],[1264.77,1427.87],[1264.53,1455.74],[1255.83,1462.92],[1242.5,1461.33],[1240.19,1450.92],[1239.94,1417.73],[1236.99,1407.19],[1222.13,1404.79],[1099.25,1406.15],[1094.54,1410.22]],&quot;pointModes&quot;:[&quot;corner&quot;,&quot;corner&quot;,&quot;corner&quot;,&quot;corner&quot;,&quot;corner&quot;,&quot;corner&quot;,&quot;corner&quot;,&quot;corner&quot;,&quot;corner&quot;,&quot;smooth&quot;,&quot;smooth&quot;,&quot;corner&quot;,&quot;smooth&quot;,&quot;corner&quot;,&quot;smooth&quot;,&quot;corner&quot;,&quot;corner&quot;,&quot;corner&quot;,&quot;smooth&quot;,&quot;corner&quot;,&quot;smooth&quot;,&quot;smooth&quot;,&quot;smooth&quot;,&quot;corner&quot;,&quot;corner&quot;,&quot;corner&quot;,&quot;corner&quot;,&quot;corner&quot;,&quot;corner&quot;,&quot;corner&quot;,&quot;corner&quot;,&quot;corner&quot;,&quot;corner&quot;,&quot;corner&quot;,&quot;smooth&quot;,&quot;smooth&quot;,&quot;smooth&quot;,&quot;smooth&quot;,&quot;smooth&quot;,&quot;corner&quot;,&quot;corner&quot;,&quot;corner&quot;,&quot;corner&quot;,&quot;corner&quot;,&quot;corner&quot;,&quot;smooth&quot;,&quot;smooth&quot;,&quot;smooth&quot;,&quot;smooth&quot;,&quot;corner&quot;,&quot;smooth&quot;,&quot;corner&quot;,&quot;smooth&quot;,&quot;corner&quot;,&quot;corner&quot;,&quot;smooth&quot;,&quot;corner&quot;,&quot;corner&quot;,&quot;smooth&quot;]}]" />
  <path d="M 1160.42 1137.20 C 1162.75 1136.89 1167.44 1139.94 1167.44 1139.94 L 1173.03 1144.10 L 1182.73 1144.16 C 1182.73 1144.16 1186.60 1144.61 1187.67 1147.08 C 1188.73 1149.55 1189.09 1158.98 1189.09 1158.98 C 1189.09 1158.98 1187.40 1165.39 1186.59 1167.13 C 1185.79 1168.86 1184.27 1169.39 1184.27 1169.39 L 1178.09 1169.98 L 1175.02 1175.38 L 1167.26 1175.04 L 1167.44 1160.76 L 1174.82 1159.99 L 1179.28 1163.85 C 1179.28 1163.85 1183.06 1166.09 1183.92 1163.68 C 1184.78 1161.26 1184.45 1149.34 1184.45 1149.34 L 1172.79 1149.70 C 1172.79 1149.70 1169.36 1153.85 1166.61 1154.87 C 1163.85 1155.89 1156.26 1155.82 1156.26 1155.82 C 1156.26 1155.82 1152.50 1152.92 1152.03 1150.59 C 1151.57 1148.26 1152.06 1144.07 1153.46 1141.84 C 1154.86 1139.61 1158.09 1137.52 1160.42 1137.20 Z" data-net-id="back-gnd" data-net-label="GND" data-category="gnd" data-color="#000000" fill="#000000" fill-opacity="1" data-editor-kind="area" data-editor-mode-version="2" fill-rule="evenodd" clip-rule="evenodd" data-editor-points="1160.42,1137.20;1167.44,1139.94;1173.03,1144.10;1182.73,1144.16;1187.67,1147.08;1189.09,1158.98;1186.59,1167.13;1184.27,1169.39;1178.09,1169.98;1175.02,1175.38;1167.26,1175.04;1167.44,1160.76;1174.82,1159.99;1179.28,1163.85;1183.92,1163.68;1184.45,1149.34;1172.79,1149.70;1166.61,1154.87;1156.26,1155.82;1152.03,1150.59;1153.46,1141.84" data-editor-point-modes="s;c;c;c;s;c;s;c;c;c;c;c;c;c;s;c;c;s;c;s;s" />
  <path d="M 1232.40 1167.24 L 1246.93 1168.01 L 1246.93 1175.98 L 1240.35 1178.78 L 1240.66 1182.19 L 1248.55 1189.39 L 1301.63 1189.07 C 1301.63 1189.07 1312.57 1181.71 1318.61 1180.24 C 1324.65 1178.76 1333.34 1179.24 1337.86 1180.24 C 1342.38 1181.24 1342.57 1184.38 1345.75 1186.23 C 1348.92 1188.09 1354.68 1188.69 1356.91 1191.37 C 1359.14 1194.06 1360.33 1199.72 1359.12 1202.32 C 1357.92 1204.91 1352.54 1207.02 1349.66 1206.93 C 1346.78 1206.85 1343.03 1204.28 1341.84 1201.82 C 1340.64 1199.36 1342.47 1192.16 1342.47 1192.16 C 1342.47 1192.16 1342.66 1186.47 1338.68 1185.22 C 1334.70 1183.97 1322.86 1184.34 1318.61 1184.65 C 1314.36 1184.97 1315.73 1185.83 1313.18 1187.12 C 1310.64 1188.40 1305.94 1191.38 1303.34 1192.35 C 1300.73 1193.33 1297.53 1192.98 1297.53 1192.98 L 1252.91 1193.55 C 1252.91 1193.55 1247.44 1193.62 1245.08 1192.35 C 1242.73 1191.09 1238.77 1185.98 1238.77 1185.98 L 1237.51 1178.41 L 1232.73 1175.44 L 1232.40 1167.24 Z" data-net-id="back-gnd" data-net-label="GND" data-category="gnd" data-color="#000000" fill="#000000" fill-opacity="1" data-editor-kind="area" data-editor-mode-version="2" fill-rule="evenodd" clip-rule="evenodd" data-editor-points="1232.40,1167.24;1246.93,1168.01;1246.93,1175.98;1240.35,1178.78;1240.66,1182.19;1248.55,1189.39;1301.63,1189.07;1318.61,1180.24;1337.86,1180.24;1345.75,1186.23;1356.91,1191.37;1359.12,1202.32;1349.66,1206.93;1341.84,1201.82;1342.47,1192.16;1338.68,1185.22;1318.61,1184.65;1313.18,1187.12;1303.34,1192.35;1297.53,1192.98;1252.91,1193.55;1245.08,1192.35;1238.77,1185.98;1237.51,1178.41;1232.73,1175.44" data-editor-point-modes="c;c;c;c;c;c;c;s;s;s;s;s;s;s;c;s;s;s;s;c;c;s;c;c;c" />
  <path d="M 1160.62 295.88 C 1163.06 295.10 1168.06 295.77 1170.61 297.63 C 1173.16 299.49 1175.94 307.03 1175.94 307.03 L 1222.22 357.14 C 1222.22 357.14 1228.95 365.06 1230.63 376.46 C 1232.30 387.85 1232.26 425.49 1232.26 425.49 L 1249.79 457.41 L 1251.54 477.77 L 1300.65 530.46 L 1301.30 676.12 C 1301.30 676.12 1302.84 682.86 1302.21 685.69 C 1301.59 688.52 1299.72 691.96 1297.55 693.10 C 1295.39 694.24 1291.39 694.07 1289.23 692.52 C 1287.06 690.96 1284.14 687.18 1284.57 683.78 C 1285.00 680.38 1291.81 672.12 1291.81 672.12 L 1291.31 532.70 L 1241.86 483.92 L 1239.28 456.70 C 1239.28 456.70 1227.46 439.23 1224.63 434.22 C 1221.80 429.22 1222.30 426.65 1222.30 426.65 L 1222.47 392.85 C 1222.47 392.85 1221.97 377.19 1218.56 370.21 C 1215.15 363.24 1202.00 351.00 1202.00 351.00 L 1170.78 317.36 C 1170.78 317.36 1161.18 313.29 1158.71 310.78 C 1156.24 308.27 1155.64 304.77 1155.96 302.29 C 1156.28 299.81 1158.18 296.66 1160.62 295.88 Z" data-net-id="back-vbat" data-net-label="VBAT" data-category="vbat" data-color="#ff3e00" fill="#ff3e00" fill-opacity="1" data-editor-kind="area" data-editor-mode-version="2" fill-rule="evenodd" clip-rule="evenodd" data-editor-points="1160.62,295.88;1170.61,297.63;1175.94,307.03;1222.22,357.14;1230.63,376.46;1232.26,425.49;1249.79,457.41;1251.54,477.77;1300.65,530.46;1301.30,676.12;1302.21,685.69;1297.55,693.10;1289.23,692.52;1284.57,683.78;1291.81,672.12;1291.31,532.70;1241.86,483.92;1239.28,456.70;1224.63,434.22;1222.30,426.65;1222.47,392.85;1218.56,370.21;1202.00,351.00;1170.78,317.36;1158.71,310.78;1155.96,302.29" data-editor-point-modes="s;s;c;c;s;c;c;c;c;c;s;s;s;s;c;c;c;c;s;c;c;s;c;c;s;s" />
  <path d="M 1333.17 920.16 C 1333.17 920.16 1331.43 908.57 1334.13 906.23 C 1336.83 903.89 1345.96 904.09 1349.38 906.11 C 1352.80 908.13 1354.66 918.36 1354.66 918.36 L 1353.12 1099.47 C 1353.12 1099.47 1350.75 1102.02 1349.19 1102.88 C 1347.64 1103.73 1343.79 1104.58 1343.79 1104.58 L 1317.49 1104.80 L 1311.35 1108.88 L 1310.31 1113.76 L 1309.35 1144.06 L 1312.46 1147.83 L 1322.83 1148.87 L 1325.79 1143.61 L 1336.31 1144.06 L 1335.19 1165.76 L 1323.94 1166.20 L 1323.49 1159.53 L 1311.79 1158.94 L 1311.12 1162.28 L 1264.39 1162.05 L 1264.09 1133.91 L 1248.02 1134.87 L 1241.06 1139.76 L 1240.91 1144.72 L 1245.73 1148.05 L 1246.76 1155.24 L 1231.51 1154.79 L 1233.80 1147.83 L 1237.80 1144.65 L 1237.73 1137.83 L 1234.62 1132.58 L 1232.32 1118.80 C 1232.32 1118.80 1224.30 1104.97 1219.21 1101.47 C 1214.12 1097.96 1201.81 1097.77 1201.81 1097.77 L 1202.10 1104.36 L 1148.85 1104.28 L 1149.07 1046.07 L 1200.10 1045.25 L 1200.25 1060.81 L 1206.03 1064.51 C 1206.03 1064.51 1236.69 1063.72 1244.76 1064.73 C 1252.84 1065.75 1252.40 1067.89 1254.46 1070.58 C 1256.53 1073.28 1257.13 1080.88 1257.13 1080.88 L 1263.06 1084.80 L 1263.20 1077.55 L 1307.85 1076.97 L 1308.43 1086.76 C 1308.43 1086.76 1318.68 1086.51 1323.06 1083.65 C 1327.44 1080.79 1334.69 1069.60 1334.69 1069.60 L 1333.17 920.16 Z" data-net-id="back-vbat" data-net-label="VBAT" data-category="vbat" data-color="#ff3e00" fill="#ff3e00" fill-opacity="1" data-editor-kind="area" data-editor-mode-version="2" fill-rule="evenodd" clip-rule="evenodd" data-editor-points="1333.17,920.16;1334.13,906.23;1349.38,906.11;1354.66,918.36;1353.12,1099.47;1349.19,1102.88;1343.79,1104.58;1317.49,1104.80;1311.35,1108.88;1310.31,1113.76;1309.35,1144.06;1312.46,1147.83;1322.83,1148.87;1325.79,1143.61;1336.31,1144.06;1335.19,1165.76;1323.94,1166.20;1323.49,1159.53;1311.79,1158.94;1311.12,1162.28;1264.39,1162.05;1264.09,1133.91;1248.02,1134.87;1241.06,1139.76;1240.91,1144.72;1245.73,1148.05;1246.76,1155.24;1231.51,1154.79;1233.80,1147.83;1237.80,1144.65;1237.73,1137.83;1234.62,1132.58;1232.32,1118.80;1219.21,1101.47;1201.81,1097.77;1202.10,1104.36;1148.85,1104.28;1149.07,1046.07;1200.10,1045.25;1200.25,1060.81;1206.03,1064.51;1244.76,1064.73;1254.46,1070.58;1257.13,1080.88;1263.06,1084.80;1263.20,1077.55;1307.85,1076.97;1308.43,1086.76;1323.06,1083.65;1334.69,1069.60" data-editor-point-modes="c;s;s;c;c;s;c;c;c;c;c;c;c;c;c;c;c;c;c;c;c;c;c;c;c;c;c;c;c;c;c;c;c;s;c;c;c;c;c;c;c;s;s;c;c;c;c;c;s;c" />
  <path d="M 1462.48 1067.62 L 1486.76 1068.47 L 1489.54 1072.32 L 1491.00 1155.00 L 1486.92 1158.51 C 1486.92 1158.51 1454.91 1157.11 1446.37 1159.82 C 1437.82 1162.53 1435.65 1174.77 1435.65 1174.77 L 1435.34 1209.54 C 1435.34 1209.54 1439.73 1221.47 1447.99 1224.41 C 1456.25 1227.36 1484.91 1227.19 1484.91 1227.19 C 1484.91 1227.19 1490.23 1231.07 1491.00 1236.00 C 1491.77 1240.93 1492.37 1252.29 1489.54 1256.79 C 1486.70 1261.29 1474.00 1263.00 1474.00 1263.00 L 1454.69 1261.65 C 1454.69 1261.65 1442.62 1262.86 1438.43 1265.58 C 1434.24 1268.30 1429.56 1277.99 1429.56 1277.99 L 1429.18 1315.53 C 1429.18 1315.53 1430.72 1328.21 1433.57 1332.72 C 1436.42 1337.23 1446.29 1342.59 1446.29 1342.59 L 1482.11 1343.27 L 1489.58 1347.35 L 1489.84 1394.62 L 1484.14 1402.25 L 1476.05 1404.41 C 1476.05 1404.41 1470.13 1406.44 1468.80 1409.55 C 1467.48 1412.66 1468.11 1423.07 1468.11 1423.07 C 1468.11 1423.07 1469.15 1431.69 1465.87 1437.17 C 1462.59 1442.66 1452.38 1450.60 1448.45 1455.98 C 1444.52 1461.37 1445.65 1465.98 1442.28 1469.47 C 1438.92 1472.97 1433.62 1475.87 1428.25 1476.95 C 1422.88 1478.03 1415.38 1478.21 1410.06 1475.95 C 1404.74 1473.69 1398.79 1467.29 1396.34 1463.38 C 1393.88 1459.48 1395.34 1452.51 1395.34 1452.51 C 1395.34 1452.51 1397.15 1444.23 1395.11 1440.41 C 1393.06 1436.60 1385.96 1433.87 1383.08 1429.62 C 1380.20 1425.37 1377.84 1414.90 1377.84 1414.90 C 1377.84 1414.90 1378.96 1383.88 1376.68 1375.12 C 1374.41 1366.36 1364.19 1362.32 1364.19 1362.32 L 1362.42 1208.38 L 1366.89 1200.44 L 1367.92 1181.22 L 1373.09 1165.16 L 1370.31 1163.62 L 1367.30 1169.56 L 1352.63 1169.79 L 1351.63 1142.70 L 1365.43 1142.24 L 1369.44 1148.41 L 1373.37 1148.33 C 1373.37 1148.33 1375.14 1139.62 1374.60 1137.15 C 1374.06 1134.69 1370.13 1133.53 1370.13 1133.53 L 1351.32 1133.14 L 1351.09 1115.18 L 1360.57 1113.33 L 1381.38 1092.67 L 1396.49 1092.37 C 1396.49 1092.37 1400.05 1084.90 1403.43 1082.11 C 1406.81 1079.33 1411.73 1076.32 1416.77 1075.64 C 1421.80 1074.96 1429.02 1075.25 1433.65 1078.03 C 1438.27 1080.80 1444.52 1092.29 1444.52 1092.29 L 1456.70 1091.75 C 1456.70 1091.75 1455.97 1076.58 1456.93 1072.55 C 1457.89 1068.53 1462.48 1067.62 1462.48 1067.62 Z" data-net-id="back-vbat" data-net-label="VBAT" data-category="vbat" data-color="#ff3e00" fill="#ff3e00" fill-opacity="1" data-editor-kind="area" data-editor-mode-version="2" fill-rule="evenodd" clip-rule="evenodd" data-editor-points="1462.48,1067.62;1486.76,1068.47;1489.54,1072.32;1491.00,1155.00;1486.92,1158.51;1446.37,1159.82;1435.65,1174.77;1435.34,1209.54;1447.99,1224.41;1484.91,1227.19;1491.00,1236.00;1489.54,1256.79;1474.00,1263.00;1454.69,1261.65;1438.43,1265.58;1429.56,1277.99;1429.18,1315.53;1433.57,1332.72;1446.29,1342.59;1482.11,1343.27;1489.58,1347.35;1489.84,1394.62;1484.14,1402.25;1476.05,1404.41;1468.80,1409.55;1468.11,1423.07;1465.87,1437.17;1448.45,1455.98;1442.28,1469.47;1428.25,1476.95;1410.06,1475.95;1396.34,1463.38;1395.34,1452.51;1395.11,1440.41;1383.08,1429.62;1377.84,1414.90;1376.68,1375.12;1364.19,1362.32;1362.42,1208.38;1366.89,1200.44;1367.92,1181.22;1373.09,1165.16;1370.31,1163.62;1367.30,1169.56;1352.63,1169.79;1351.63,1142.70;1365.43,1142.24;1369.44,1148.41;1373.37,1148.33;1374.60,1137.15;1370.13,1133.53;1351.32,1133.14;1351.09,1115.18;1360.57,1113.33;1381.38,1092.67;1396.49,1092.37;1403.43,1082.11;1416.77,1075.64;1433.65,1078.03;1444.52,1092.29;1456.70,1091.75;1456.93,1072.55" data-editor-point-modes="c;c;c;c;c;s;c;c;s;c;s;s;c;c;s;c;c;s;c;c;c;c;c;c;s;c;s;s;s;s;s;s;c;s;s;c;s;c;c;c;c;c;c;c;c;c;c;c;c;s;c;c;c;c;c;c;s;s;s;c;c;s" />
  <path d="M 946.00 242.00 L 1021.31 315.60 L 1105.02 318.33 L 1128.00 340.00 L 1176.00 340.00 L 1188.00 347.00 L 1198.00 360.00 L 1198.10 375.59 L 1203.26 390.27 L 1216.00 404.00 L 1217.14 430.67 L 1229.34 452.46 L 1235.23 463.65 L 1235.74 486.83 L 1280.49 535.58 L 1283.83 544.23 L 1287.00 649.00 L 1284.00 658.00 L 1277.00 662.00 L 1233.00 662.00 C 1233.00 662.00 1227.52 663.75 1226.06 666.46 C 1224.60 669.18 1224.24 678.28 1224.24 678.28 C 1224.24 678.28 1229.05 689.46 1228.24 692.37 C 1227.44 695.28 1222.37 695.61 1219.43 695.73 C 1216.49 695.85 1211.68 695.72 1210.61 693.10 C 1209.54 690.47 1213.00 680.00 1213.00 680.00 L 1212.00 586.00 L 1217.00 574.00 L 1247.00 545.00 L 1248.00 522.00 L 1243.00 512.00 L 1227.00 496.00 L 1223.00 464.00 L 1206.00 433.00 L 1205.00 410.00 L 1200.00 403.00 C 1200.00 403.00 1187.51 396.10 1185.42 391.58 C 1183.34 387.06 1187.49 375.89 1187.49 375.89 L 1186.40 363.39 L 1175.00 353.00 L 1124.00 352.00 L 1102.00 330.00 L 1093.00 328.00 L 1009.00 329.00 C 1009.00 329.00 994.97 325.48 989.77 325.67 C 984.57 325.87 981.44 327.47 977.81 330.19 C 974.19 332.91 968.00 342.00 968.00 342.00 L 912.00 342.00 L 887.62 317.67 L 867.00 318.00 L 861.00 314.00 C 861.00 314.00 860.87 289.60 859.37 282.93 C 857.87 276.26 855.56 275.49 852.00 274.00 C 848.44 272.51 841.64 272.43 838.00 274.00 C 834.36 275.57 831.52 277.07 830.18 283.40 C 828.85 289.73 830.00 312.00 830.00 312.00 L 824.00 318.00 L 760.00 319.00 L 750.00 313.00 L 750.25 279.35 L 758.63 272.10 L 790.92 271.54 C 790.92 271.54 794.99 267.59 796.00 264.00 C 797.01 260.41 797.00 250.00 797.00 250.00 L 805.80 242.25 L 946.00 242.00 Z" data-net-id="back-vcc" data-net-label="VCC" data-category="vcc" data-color="#ff0000" fill="#ff0000" fill-opacity="1" data-editor-kind="area" data-editor-mode-version="2" fill-rule="evenodd" clip-rule="evenodd" data-editor-points="946.00,242.00;1021.31,315.60;1105.02,318.33;1128.00,340.00;1176.00,340.00;1188.00,347.00;1198.00,360.00;1198.10,375.59;1203.26,390.27;1216.00,404.00;1217.14,430.67;1229.34,452.46;1235.23,463.65;1235.74,486.83;1280.49,535.58;1283.83,544.23;1287.00,649.00;1284.00,658.00;1277.00,662.00;1233.00,662.00;1226.06,666.46;1224.24,678.28;1228.24,692.37;1219.43,695.73;1210.61,693.10;1213.00,680.00;1212.00,586.00;1217.00,574.00;1247.00,545.00;1248.00,522.00;1243.00,512.00;1227.00,496.00;1223.00,464.00;1206.00,433.00;1205.00,410.00;1200.00,403.00;1185.42,391.58;1187.49,375.89;1186.40,363.39;1175.00,353.00;1124.00,352.00;1102.00,330.00;1093.00,328.00;1009.00,329.00;989.77,325.67;977.81,330.19;968.00,342.00;912.00,342.00;887.62,317.67;867.00,318.00;861.00,314.00;859.37,282.93;852.00,274.00;838.00,274.00;830.18,283.40;830.00,312.00;824.00,318.00;760.00,319.00;750.00,313.00;750.25,279.35;758.63,272.10;790.92,271.54;796.00,264.00;797.00,250.00;805.80,242.25" data-editor-point-modes="c;c;c;c;c;c;c;c;c;c;c;c;c;c;c;c;c;c;c;c;s;c;s;s;s;c;c;c;c;c;c;c;c;c;c;c;s;c;c;c;c;c;c;c;s;s;c;c;c;c;c;s;s;s;s;c;c;c;c;c;c;c;s;c;c" />
  <path d="M 787.00 461.00 L 800.00 464.00 L 802.00 481.00 L 818.00 496.00 L 822.00 504.00 L 823.00 551.00 L 814.00 561.00 L 787.00 561.00 L 780.00 558.00 L 777.00 552.00 L 777.00 487.00 L 781.00 481.00 L 781.00 466.00 Z" data-net-id="back-vcc" data-net-label="VCC" data-category="vcc" data-color="#ff0000" fill="#ff0000" fill-opacity="1" data-editor-kind="area" data-editor-mode-version="2" fill-rule="evenodd" clip-rule="evenodd" data-editor-points="787.00,461.00;800.00,464.00;802.00,481.00;818.00,496.00;822.00,504.00;823.00,551.00;814.00,561.00;787.00,561.00;780.00,558.00;777.00,552.00;777.00,487.00;781.00,481.00;781.00,466.00" data-editor-point-modes="c;c;c;c;c;c;c;c;c;c;c;c;c" />
  <path d="M 857.00 678.00 C 860.03 677.64 865.57 679.53 867.20 683.83 C 868.84 688.12 867.97 698.51 866.80 703.76 C 865.64 709.01 864.00 711.38 860.21 715.33 C 856.42 719.28 853.21 725.35 844.06 727.46 C 834.91 729.58 813.89 729.52 805.33 728.02 C 796.77 726.52 796.76 720.13 792.71 718.46 C 788.66 716.79 784.46 717.30 781.00 718.00 C 777.54 718.70 773.83 719.16 771.98 722.64 C 770.12 726.12 771.32 735.47 769.89 738.87 C 768.45 742.28 763.38 743.05 763.38 743.05 L 671.20 743.37 L 616.00 799.00 L 608.84 802.20 C 608.84 802.20 583.45 803.48 574.85 800.83 C 566.25 798.18 557.25 786.29 557.25 786.29 C 557.25 786.29 553.21 778.38 552.27 771.58 C 551.33 764.78 551.51 752.94 551.63 745.46 C 551.75 737.99 551.41 730.65 552.99 726.74 C 554.57 722.83 558.55 722.43 561.11 722.00 C 563.67 721.57 566.57 722.80 568.34 724.17 C 570.11 725.53 571.72 730.19 571.72 730.19 L 573.00 762.00 C 573.00 762.00 573.17 766.83 576.00 770.00 C 578.83 773.17 584.59 779.10 590.00 781.00 C 595.41 782.90 602.78 783.55 608.44 781.38 C 614.11 779.22 620.68 773.14 624.00 768.00 C 627.32 762.86 628.37 750.53 628.37 750.53 C 628.37 750.53 644.71 732.47 652.16 728.11 C 659.61 723.74 666.28 727.81 673.05 724.33 C 679.83 720.85 679.44 710.27 692.82 707.21 C 706.20 704.16 753.33 706.01 753.33 706.01 L 773.18 693.95 L 818.91 693.39 C 818.91 693.39 826.48 699.73 830.00 701.00 C 833.52 702.27 837.00 701.83 840.00 701.00 C 843.00 700.17 846.50 698.50 848.00 696.00 C 849.50 693.50 847.50 689.00 849.00 686.00 C 850.50 683.00 853.97 678.36 857.00 678.00 Z" data-net-id="back-vcc" data-net-label="VCC" data-category="vcc" data-color="#ff0000" fill="#ff0000" fill-opacity="1" data-editor-kind="area" data-editor-mode-version="2" fill-rule="evenodd" clip-rule="evenodd" data-editor-points="857.00,678.00;867.20,683.83;866.80,703.76;860.21,715.33;844.06,727.46;805.33,728.02;792.71,718.46;781.00,718.00;771.98,722.64;769.89,738.87;763.38,743.05;671.20,743.37;616.00,799.00;608.84,802.20;574.85,800.83;557.25,786.29;552.27,771.58;551.63,745.46;552.99,726.74;561.11,722.00;568.34,724.17;571.72,730.19;573.00,762.00;576.00,770.00;590.00,781.00;608.44,781.38;624.00,768.00;628.37,750.53;652.16,728.11;673.05,724.33;692.82,707.21;753.33,706.01;773.18,693.95;818.91,693.39;830.00,701.00;840.00,701.00;848.00,696.00;849.00,686.00" data-editor-point-modes="s;s;s;s;s;s;s;s;s;s;c;c;c;c;s;c;s;s;s;s;s;c;c;s;s;s;s;c;s;s;s;c;c;c;s;s;s;s" />
  <path d="M 463.11 684.66 C 465.96 683.93 471.94 684.40 473.72 686.85 C 475.49 689.30 473.79 699.37 473.79 699.37 C 473.79 699.37 468.94 703.35 466.79 706.79 C 464.63 710.23 460.85 720.01 460.85 720.01 L 426.55 754.02 L 425.92 760.88 L 400.46 759.75 L 391.70 768.80 L 391.91 855.13 C 391.91 855.13 393.28 861.67 392.69 864.32 C 392.10 866.97 390.42 869.93 388.37 871.04 C 386.32 872.15 382.43 871.79 380.38 870.97 C 378.33 870.14 376.59 868.57 376.07 866.09 C 375.55 863.62 375.87 858.51 377.27 856.12 C 378.67 853.73 384.48 851.74 384.48 851.74 L 385.19 766.75 L 398.77 750.34 L 399.19 742.57 L 424.29 742.07 L 446.28 720.01 L 453.56 710.96 L 455.69 702.97 C 455.69 702.97 455.37 694.29 456.60 691.23 C 457.84 688.18 460.26 685.39 463.11 684.66 Z" data-net-id="back-vcc" data-net-label="VCC" data-category="vcc" data-color="#ff0000" fill="#ff0000" fill-opacity="1" data-editor-kind="area" data-editor-mode-version="2" fill-rule="evenodd" clip-rule="evenodd" data-editor-points="463.11,684.66;473.72,686.85;473.79,699.37;466.79,706.79;460.85,720.01;426.55,754.02;425.92,760.88;400.46,759.75;391.70,768.80;391.91,855.13;392.69,864.32;388.37,871.04;380.38,870.97;376.07,866.09;377.27,856.12;384.48,851.74;385.19,766.75;398.77,750.34;399.19,742.57;424.29,742.07;446.28,720.01;453.56,710.96;455.69,702.97;456.60,691.23" data-editor-point-modes="s;s;c;s;c;c;c;c;c;c;s;s;s;s;s;c;c;c;c;c;c;c;c;s" />
  <path d="M 1235.35 929.55 C 1235.35 929.55 1248.14 929.65 1251.65 930.98 C 1255.17 932.31 1256.03 935.17 1256.44 937.51 C 1256.86 939.86 1254.14 945.04 1254.14 945.04 L 1253.83 974.47 C 1253.83 974.47 1253.66 979.62 1252.65 981.56 C 1251.63 983.50 1247.73 986.10 1247.73 986.10 L 1203.00 987.00 L 1201.76 1010.30 L 1183.78 1010.36 L 1183.72 1017.95 L 1176.38 1025.48 L 1148.51 1024.92 C 1148.51 1024.92 1144.32 1025.74 1142.72 1027.28 C 1141.12 1028.83 1138.92 1034.19 1138.92 1034.19 L 1138.99 1112.45 L 1143.53 1116.86 L 1216.45 1116.17 C 1216.45 1116.17 1221.02 1118.56 1222.29 1120.21 C 1223.55 1121.86 1224.02 1126.05 1224.02 1126.05 L 1222.91 1186.67 C 1222.91 1186.67 1200.29 1211.39 1192.91 1217.97 C 1185.53 1224.56 1178.62 1226.17 1178.62 1226.17 L 1084.65 1226.92 L 1066.88 1211.33 L 1049.55 1210.40 C 1049.55 1210.40 1042.95 1209.99 1041.36 1203.75 C 1039.76 1197.51 1039.99 1172.94 1039.99 1172.94 C 1039.99 1172.94 1038.50 1170.37 1037.19 1169.90 C 1035.89 1169.42 1032.16 1170.08 1032.16 1170.08 L 1030.05 1174.93 L 1023.47 1176.05 L 1023.09 1160.77 L 1029.43 1162.20 L 1033.03 1166.67 C 1033.03 1166.67 1038.79 1166.77 1040.42 1167.60 C 1042.06 1168.43 1042.85 1171.64 1042.85 1171.64 L 1044.71 1194.25 L 1048.37 1196.85 L 1084.71 1197.85 L 1091.04 1203.63 L 1108.19 1203.94 L 1112.78 1198.84 L 1113.16 1187.29 L 1116.82 1183.63 L 1180.00 1182.00 C 1180.00 1182.00 1190.72 1177.27 1193.16 1171.20 C 1195.59 1165.14 1197.12 1151.97 1194.58 1145.61 C 1192.05 1139.26 1188.62 1135.44 1177.94 1133.07 C 1167.25 1130.70 1130.48 1131.39 1130.48 1131.39 L 1122.10 1121.33 L 1120.73 1054.68 L 1113.84 1042.82 C 1113.84 1042.82 1101.02 1031.38 1097.81 1026.73 C 1094.61 1022.08 1094.58 1014.93 1094.58 1014.93 C 1094.58 1014.93 1092.19 1008.20 1088.44 1006.73 C 1084.68 1005.26 1072.04 1006.11 1072.04 1006.11 L 1048.81 1027.42 L 980.73 1027.60 L 953.03 998.35 L 952.54 969.03 L 939.80 960.96 L 813.38 961.34 L 798.25 973.81 C 798.25 973.81 789.65 981.54 787.63 986.86 C 785.61 992.18 786.14 1005.74 786.14 1005.74 C 786.14 1005.74 789.73 1007.47 790.86 1009.53 C 791.99 1011.59 793.44 1015.68 792.91 1018.10 C 792.38 1020.52 789.76 1022.96 787.69 1024.06 C 785.62 1025.16 782.47 1025.55 780.49 1024.68 C 778.50 1023.81 776.36 1021.13 775.77 1018.84 C 775.18 1016.56 775.84 1013.38 776.95 1010.96 C 778.05 1008.53 782.41 1004.31 782.41 1004.31 C 782.41 1004.31 781.67 989.18 786.33 981.76 C 790.98 974.35 810.36 959.84 810.36 959.84 L 813.47 957.73 L 937.38 956.79 C 937.38 956.79 943.87 958.36 946.88 960.09 C 949.90 961.82 955.46 967.17 955.46 967.17 L 963.03 967.42 L 986.88 987.59 C 986.88 987.59 986.27 995.97 987.57 999.03 C 988.86 1002.09 991.21 1004.47 994.65 1005.92 C 998.09 1007.38 1004.75 1008.13 1008.22 1007.75 C 1011.68 1007.37 1015.44 1003.64 1015.44 1003.64 L 1026.51 992.94 L 1043.53 992.32 C 1043.53 992.32 1048.32 990.04 1048.72 988.28 C 1049.12 986.51 1046.53 983.93 1045.92 981.74 C 1045.31 979.56 1044.28 977.28 1045.05 975.15 C 1045.82 973.03 1048.16 969.96 1050.52 968.99 C 1052.89 968.03 1057.13 967.98 1059.23 969.36 C 1061.34 970.75 1063.00 974.23 1063.15 977.33 C 1063.31 980.43 1060.02 985.52 1060.17 987.97 C 1060.31 990.41 1064.00 992.00 1064.00 992.00 L 1143.00 991.00 L 1148.00 986.00 L 1148.94 950.89 L 1205.86 952.01 L 1226.89 930.42 L 1235.35 929.55 Z" data-net-id="back-vcc" data-net-label="VCC" data-category="vcc" data-color="#ff0000" fill="#ff0000" fill-opacity="1" data-editor-kind="area" data-editor-mode-version="2" fill-rule="evenodd" clip-rule="evenodd" data-editor-points="1235.35,929.55;1251.65,930.98;1256.44,937.51;1254.14,945.04;1253.83,974.47;1252.65,981.56;1247.73,986.10;1203.00,987.00;1201.76,1010.30;1183.78,1010.36;1183.72,1017.95;1176.38,1025.48;1148.51,1024.92;1142.72,1027.28;1138.92,1034.19;1138.99,1112.45;1143.53,1116.86;1216.45,1116.17;1222.29,1120.21;1224.02,1126.05;1222.91,1186.67;1192.91,1217.97;1178.62,1226.17;1084.65,1226.92;1066.88,1211.33;1049.55,1210.40;1041.36,1203.75;1039.99,1172.94;1037.19,1169.90;1032.16,1170.08;1030.05,1174.93;1023.47,1176.05;1023.09,1160.77;1029.43,1162.20;1033.03,1166.67;1040.42,1167.60;1042.85,1171.64;1044.71,1194.25;1048.37,1196.85;1084.71,1197.85;1091.04,1203.63;1108.19,1203.94;1112.78,1198.84;1113.16,1187.29;1116.82,1183.63;1180.00,1182.00;1193.16,1171.20;1194.58,1145.61;1177.94,1133.07;1130.48,1131.39;1122.10,1121.33;1120.73,1054.68;1113.84,1042.82;1097.81,1026.73;1094.58,1014.93;1088.44,1006.73;1072.04,1006.11;1048.81,1027.42;980.73,1027.60;953.03,998.35;952.54,969.03;939.80,960.96;813.38,961.34;798.25,973.81;787.63,986.86;786.14,1005.74;790.86,1009.53;792.91,1018.10;787.69,1024.06;780.49,1024.68;775.77,1018.84;776.95,1010.96;782.41,1004.31;786.33,981.76;810.36,959.84;813.47,957.73;937.38,956.79;946.88,960.09;955.46,967.17;963.03,967.42;986.88,987.59;987.57,999.03;994.65,1005.92;1008.22,1007.75;1015.44,1003.64;1026.51,992.94;1043.53,992.32;1048.72,988.28;1045.92,981.74;1045.05,975.15;1050.52,968.99;1059.23,969.36;1063.15,977.33;1060.17,987.97;1064.00,992.00;1143.00,991.00;1148.00,986.00;1148.94,950.89;1205.86,952.01;1226.89,930.42" data-editor-point-modes="c;s;s;c;c;s;c;c;c;c;c;c;c;s;c;c;c;c;s;c;c;s;c;c;c;c;s;c;s;c;c;c;c;c;c;s;c;c;c;c;c;c;c;c;c;c;s;s;s;c;c;c;c;s;c;s;c;c;c;c;c;c;c;c;s;c;s;s;s;s;s;s;c;s;c;c;c;s;c;c;c;s;s;s;c;c;c;s;s;s;s;s;s;s;c;c;c;c;c;c" />
  <path d="M 485.57 940.60 C 488.76 939.21 495.14 940.01 499.04 941.18 C 502.94 942.35 508.96 947.63 508.96 947.63 C 508.96 947.63 520.80 946.81 524.46 949.29 C 528.12 951.78 530.91 962.55 530.91 962.55 C 530.91 962.55 535.23 969.07 538.22 970.58 C 541.21 972.08 546.18 970.41 548.84 971.58 C 551.50 972.75 554.18 977.61 554.18 977.61 L 554.10 1034.95 C 554.10 1034.95 550.68 1043.20 546.90 1045.32 C 543.12 1047.43 531.39 1047.63 531.39 1047.63 L 520.26 1058.17 L 521.28 1109.06 L 526.00 1107.00 L 542.00 1107.00 L 544.00 1114.00 L 541.00 1120.00 L 536.02 1120.54 L 536.71 1127.56 L 540.39 1130.82 L 551.44 1132.96 L 571.66 1132.44 L 573.37 1127.90 L 569.95 1127.65 L 571.06 1110.94 L 592.22 1110.51 L 592.39 1129.19 L 589.57 1131.50 L 589.74 1136.47 L 624.89 1171.48 L 627.83 1181.28 L 628.92 1210.79 L 658.87 1241.94 L 747.30 1242.70 L 794.35 1287.36 L 1114.22 1285.51 L 1127.40 1296.18 C 1127.40 1296.18 1134.93 1296.67 1138.84 1296.18 C 1142.74 1295.69 1150.82 1293.24 1150.82 1293.24 C 1150.82 1293.24 1160.36 1280.51 1164.76 1278.32 C 1169.15 1276.12 1174.94 1277.63 1177.17 1280.06 C 1179.41 1282.49 1178.15 1292.91 1178.15 1292.91 C 1178.15 1292.91 1182.75 1301.82 1183.60 1307.18 C 1184.45 1312.53 1183.27 1325.04 1183.27 1325.04 C 1183.27 1325.04 1182.75 1336.91 1180.88 1340.07 C 1179.00 1343.23 1174.50 1344.49 1172.00 1344.00 C 1169.50 1343.51 1167.96 1340.36 1165.85 1337.13 C 1163.73 1333.90 1165.21 1326.95 1159.31 1324.60 C 1153.41 1322.26 1138.90 1326.34 1130.46 1323.08 C 1122.03 1319.81 1114.88 1309.20 1108.72 1305.01 C 1102.56 1300.83 1093.49 1297.99 1093.49 1297.99 L 794.65 1298.49 L 788.46 1297.90 L 752.91 1262.94 C 752.91 1262.94 747.82 1258.44 745.30 1257.00 C 742.78 1255.57 737.77 1254.33 737.77 1254.33 L 627.62 1254.66 C 627.62 1254.66 622.50 1253.85 620.51 1251.99 C 618.51 1250.12 615.66 1243.45 615.66 1243.45 L 613.23 1189.00 L 576.60 1153.04 C 576.60 1153.04 574.34 1145.85 571.08 1144.34 C 567.81 1142.83 560.61 1143.07 557.00 1144.00 C 553.39 1144.93 549.41 1149.94 549.41 1149.94 L 521.14 1148.77 C 521.14 1148.77 515.22 1146.74 513.78 1143.17 C 512.35 1139.60 512.53 1127.36 512.53 1127.36 L 512.11 1051.41 L 486.51 1023.31 L 483.75 1008.17 L 477.90 1005.41 L 478.82 1035.27 L 430.31 1035.94 L 431.00 951.00 L 479.91 949.54 C 479.91 949.54 482.38 942.00 485.57 940.60 Z" data-net-id="back-vcc" data-net-label="VCC" data-category="vcc" data-color="#ff0000" fill="#ff0000" fill-opacity="1" data-editor-kind="area" data-editor-mode-version="2" fill-rule="evenodd" clip-rule="evenodd" data-editor-points="485.57,940.60;499.04,941.18;508.96,947.63;524.46,949.29;530.91,962.55;538.22,970.58;548.84,971.58;554.18,977.61;554.10,1034.95;546.90,1045.32;531.39,1047.63;520.26,1058.17;521.28,1109.06;526.00,1107.00;542.00,1107.00;544.00,1114.00;541.00,1120.00;536.02,1120.54;536.71,1127.56;540.39,1130.82;551.44,1132.96;571.66,1132.44;573.37,1127.90;569.95,1127.65;571.06,1110.94;592.22,1110.51;592.39,1129.19;589.57,1131.50;589.74,1136.47;624.89,1171.48;627.83,1181.28;628.92,1210.79;658.87,1241.94;747.30,1242.70;794.35,1287.36;1114.22,1285.51;1127.40,1296.18;1138.84,1296.18;1150.82,1293.24;1164.76,1278.32;1177.17,1280.06;1178.15,1292.91;1183.60,1307.18;1183.27,1325.04;1180.88,1340.07;1172.00,1344.00;1165.85,1337.13;1159.31,1324.60;1130.46,1323.08;1108.72,1305.01;1093.49,1297.99;794.65,1298.49;788.46,1297.90;752.91,1262.94;745.30,1257.00;737.77,1254.33;627.62,1254.66;620.51,1251.99;615.66,1243.45;613.23,1189.00;576.60,1153.04;571.08,1144.34;557.00,1144.00;549.41,1149.94;521.14,1148.77;513.78,1143.17;512.53,1127.36;512.11,1051.41;486.51,1023.31;483.75,1008.17;477.90,1005.41;478.82,1035.27;430.31,1035.94;431.00,951.00;479.91,949.54" data-editor-point-modes="s;s;c;s;c;s;s;c;c;s;c;c;c;c;c;c;c;c;c;c;c;c;c;c;c;c;c;c;c;c;c;c;c;c;c;c;c;s;c;s;s;c;s;c;s;s;s;s;s;s;c;c;c;c;s;c;c;s;c;c;c;s;s;c;c;s;c;c;c;c;c;c;c;c;c" />
  <path d="M 1103.00 1408.00 L 1227.00 1409.00 L 1240.00 1430.00 L 1237.00 1439.00 L 1238.00 1466.00 L 1264.00 1468.00 L 1267.00 1476.00 L 1256.00 1482.00 L 1232.00 1480.00 L 1225.00 1470.00 L 1224.00 1449.00 L 1214.00 1451.00 L 1207.00 1443.00 L 1210.00 1436.00 L 1226.00 1438.00 L 1225.00 1429.00 L 1108.00 1431.00 L 1099.00 1422.00 Z" data-net-id="back-vcc" data-net-label="VCC" data-category="vcc" data-color="#ff0000" fill="#ff0000" fill-opacity="1" data-editor-kind="area" data-editor-mode-version="2" fill-rule="evenodd" clip-rule="evenodd" data-editor-points="1103.00,1408.00;1227.00,1409.00;1240.00,1430.00;1237.00,1439.00;1238.00,1466.00;1264.00,1468.00;1267.00,1476.00;1256.00,1482.00;1232.00,1480.00;1225.00,1470.00;1224.00,1449.00;1214.00,1451.00;1207.00,1443.00;1210.00,1436.00;1226.00,1438.00;1225.00,1429.00;1108.00,1431.00;1099.00,1422.00" data-editor-point-modes="c;c;c;c;c;c;c;c;c;c;c;c;c;c;c;c;c;c" />
  <path d="M 1147.47 1515.04 C 1150.11 1514.91 1153.57 1516.02 1154.39 1518.72 C 1155.21 1521.42 1155.06 1528.52 1152.37 1531.25 C 1149.69 1533.98 1140.72 1532.26 1138.27 1535.11 C 1135.81 1537.95 1137.65 1548.34 1137.65 1548.34 C 1137.65 1548.34 1139.86 1550.21 1140.72 1549.65 C 1141.58 1549.10 1142.82 1545.01 1142.82 1545.01 L 1152.20 1544.83 L 1151.85 1558.15 L 1143.44 1558.41 L 1140.98 1552.80 C 1140.98 1552.80 1136.54 1554.32 1135.38 1551.58 C 1134.21 1548.83 1133.62 1539.74 1133.97 1536.33 C 1134.32 1532.93 1137.48 1531.16 1137.48 1531.16 C 1137.48 1531.16 1136.87 1522.20 1138.53 1519.51 C 1140.19 1516.82 1144.82 1515.17 1147.47 1515.04 Z" data-net-id="back-vcc" data-net-label="VCC" data-category="vcc" data-color="#ff0000" fill="#ff0000" fill-opacity="1" data-editor-kind="area" data-editor-mode-version="2" fill-rule="evenodd" clip-rule="evenodd" data-editor-points="1147.47,1515.04;1154.39,1518.72;1152.37,1531.25;1138.27,1535.11;1137.65,1548.34;1140.72,1549.65;1142.82,1545.01;1152.20,1544.83;1151.85,1558.15;1143.44,1558.41;1140.98,1552.80;1135.38,1551.58;1133.97,1536.33;1137.48,1531.16;1138.53,1519.51" data-editor-point-modes="s;s;s;s;c;s;c;c;c;c;c;s;s;c;s" />
  <path d="M 917.72 1107.33 L 917.56 1160.01 L 944.89 1159.38 L 945.21 1171.53 C 945.21 1171.53 941.20 1174.78 940.36 1177.42 C 939.53 1180.05 938.72 1184.75 940.20 1187.35 C 941.69 1189.94 946.38 1192.81 949.26 1192.99 C 952.15 1193.18 956.11 1190.94 957.53 1188.46 C 958.94 1185.98 959.00 1180.89 957.77 1178.13 C 956.53 1175.38 950.14 1171.93 950.14 1171.93 L 949.82 1159.61 L 976.92 1159.61 L 976.60 1106.85 L 917.72 1107.33 Z" data-net-id="back-PWR" data-net-label="Power through D5+D6" data-category="PWR" data-color="#00ff00" fill="#00ff00" fill-opacity="1" data-editor-kind="area" data-editor-mode-version="2" fill-rule="evenodd" clip-rule="evenodd" data-editor-points="917.72,1107.33;917.56,1160.01;944.89,1159.38;945.21,1171.53;940.36,1177.42;940.20,1187.35;949.26,1192.99;957.53,1188.46;957.77,1178.13;950.14,1171.93;949.82,1159.61;976.92,1159.61;976.60,1106.85" data-editor-point-modes="c;c;c;c;s;s;s;s;s;c;c;c;c" />
  <path d="M 683.44 1299.16 C 681.19 1296.74 674.32 1297.14 671.64 1298.38 C 668.96 1299.62 668.03 1304.17 667.38 1306.61 C 666.74 1309.04 667.77 1312.99 667.77 1312.99 L 648.32 1332.24 L 479.79 1336.21 C 479.79 1336.21 474.33 1334.14 471.71 1334.72 C 469.08 1335.30 465.52 1337.51 464.02 1339.69 C 462.51 1341.88 462.06 1345.77 462.66 1347.82 C 463.26 1349.87 465.29 1351.34 467.59 1351.98 C 469.90 1352.63 473.56 1353.19 476.50 1351.69 C 479.43 1350.19 480.98 1345.14 485.20 1342.98 C 489.43 1340.82 501.84 1338.73 501.84 1338.73 L 648.03 1337.18 L 670.67 1316.57 C 670.67 1316.57 683.06 1315.80 685.19 1312.89 C 687.31 1309.99 685.70 1301.57 683.44 1299.16 Z" data-net-id="back-PWR" data-net-label="Power through D5+D6" data-category="PWR" data-color="#00ff00" fill="#00ff00" fill-opacity="1" data-editor-kind="area" data-editor-mode-version="2" fill-rule="evenodd" clip-rule="evenodd" data-editor-points="683.44,1299.16;671.64,1298.38;667.38,1306.61;667.77,1312.99;648.32,1332.24;479.79,1336.21;471.71,1334.72;464.02,1339.69;462.66,1347.82;467.59,1351.98;476.50,1351.69;485.20,1342.98;501.84,1338.73;648.03,1337.18;670.67,1316.57;685.19,1312.89" data-editor-point-modes="s;s;s;c;c;c;s;s;s;s;s;s;c;c;c;s" />
  <path d="M 440.40 1492.41 C 438.01 1493.40 435.49 1497.62 435.49 1497.62 L 420.17 1498.13 C 420.17 1498.13 409.34 1489.18 404.84 1488.63 C 400.35 1488.09 395.58 1492.18 393.20 1494.87 C 390.82 1497.55 389.91 1501.97 390.57 1504.75 C 391.23 1507.54 395.03 1510.05 397.18 1511.55 C 399.32 1513.06 400.90 1514.02 403.45 1513.79 C 406.01 1513.56 410.18 1511.71 412.51 1510.19 C 414.83 1508.67 417.41 1504.67 417.41 1504.67 L 435.29 1505.49 C 435.29 1505.49 441.74 1510.21 444.79 1510.09 C 447.84 1509.97 451.96 1507.43 453.57 1504.77 C 455.19 1502.12 453.10 1497.13 454.49 1494.15 C 455.89 1491.17 459.14 1488.57 461.95 1486.90 C 464.76 1485.23 471.35 1484.14 471.35 1484.14 C 471.35 1484.14 512.30 1485.25 523.45 1483.83 C 534.60 1482.41 538.23 1475.63 538.23 1475.63 C 538.23 1475.63 546.82 1470.04 548.81 1455.07 C 550.80 1440.10 550.18 1385.82 550.18 1385.82 C 550.18 1385.82 555.28 1376.73 558.51 1372.93 C 561.74 1369.12 563.99 1364.90 569.58 1363.00 C 575.17 1361.10 592.05 1361.52 592.05 1361.52 L 736.80 1360.64 C 736.80 1360.64 760.56 1362.08 768.59 1359.80 C 776.62 1357.52 784.98 1346.96 784.98 1346.96 C 784.98 1346.96 792.89 1347.17 795.64 1345.93 C 798.39 1344.69 801.49 1339.51 801.49 1339.51 L 891.25 1340.20 C 891.25 1340.20 897.68 1349.87 901.33 1349.94 C 904.98 1350.02 912.87 1343.77 913.14 1340.66 C 913.41 1337.54 906.49 1332.10 902.94 1331.26 C 899.39 1330.42 891.82 1335.61 891.82 1335.61 L 802.06 1333.78 C 802.06 1333.78 792.82 1327.59 789.45 1327.70 C 786.09 1327.82 783.28 1331.68 781.89 1334.47 C 780.49 1337.26 781.08 1344.44 781.08 1344.44 C 781.08 1344.44 772.29 1353.07 767.27 1355.19 C 762.25 1357.32 750.97 1357.19 750.97 1357.19 L 612.69 1357.39 L 587.14 1357.64 C 587.14 1357.64 573.50 1358.00 568.66 1359.69 C 563.82 1361.39 558.09 1367.81 558.09 1367.81 C 558.09 1367.81 548.84 1376.64 546.76 1382.62 C 544.68 1388.61 545.62 1403.73 545.62 1403.73 L 545.26 1435.53 L 545.28 1458.83 C 545.28 1458.83 537.07 1474.63 529.17 1478.21 C 521.28 1481.80 497.91 1480.36 497.91 1480.36 C 497.91 1480.36 473.55 1479.69 465.53 1481.58 C 457.51 1483.47 449.79 1491.70 449.79 1491.70 C 449.79 1491.70 442.78 1491.43 440.40 1492.41 Z" data-net-id="back-PWR" data-net-label="Power through D5+D6" data-category="PWR" data-color="#00ff00" fill="#00ff00" fill-opacity="1" data-editor-kind="area" data-editor-mode-version="2" fill-rule="evenodd" clip-rule="evenodd" data-editor-points="440.40,1492.41;435.49,1497.62;420.17,1498.13;404.84,1488.63;393.20,1494.87;390.57,1504.75;397.18,1511.55;403.45,1513.79;412.51,1510.19;417.41,1504.67;435.29,1505.49;444.79,1510.09;453.57,1504.77;454.49,1494.15;461.95,1486.90;471.35,1484.14;523.45,1483.83;538.23,1475.63;548.81,1455.07;550.18,1385.82;558.51,1372.93;569.58,1363.00;592.05,1361.52;736.80,1360.64;768.59,1359.80;784.98,1346.96;795.64,1345.93;801.49,1339.51;891.25,1340.20;901.33,1349.94;913.14,1340.66;902.94,1331.26;891.82,1335.61;802.06,1333.78;789.45,1327.70;781.89,1334.47;781.08,1344.44;767.27,1355.19;750.97,1357.19;612.69,1357.39;587.14,1357.64;568.66,1359.69;558.09,1367.81;546.76,1382.62;545.62,1403.73;545.26,1435.53;545.28,1458.83;529.17,1478.21;497.91,1480.36;465.53,1481.58;449.79,1491.70" data-editor-point-modes="s;c;c;s;s;s;s;s;s;c;c;s;s;s;s;c;s;c;s;c;s;s;c;c;s;c;s;c;c;s;s;s;c;c;s;s;c;s;c;c;c;s;c;s;c;c;c;s;c;s;c" />
  <path d="M 851.45 1206.89 C 850.95 1209.60 847.31 1212.77 845.00 1213.70 C 842.68 1214.63 839.57 1213.49 837.56 1212.46 C 835.56 1211.43 834.13 1209.94 832.96 1207.51 C 831.80 1205.08 832.26 1200.03 830.58 1197.87 C 828.90 1195.70 822.88 1194.50 822.88 1194.50 L 809.41 1194.63 L 761.49 1194.15 C 761.49 1194.15 748.28 1194.17 744.15 1193.53 C 740.03 1192.90 739.45 1192.63 736.72 1190.35 C 734.00 1188.06 729.51 1183.55 727.79 1179.82 C 726.06 1176.09 726.37 1167.97 726.37 1167.97 C 726.37 1167.97 725.68 1161.86 727.26 1157.88 C 728.84 1153.90 735.84 1144.08 735.84 1144.08 L 735.93 1089.86 C 735.93 1089.86 736.35 1056.66 734.16 1047.58 C 731.96 1038.49 722.75 1035.37 722.75 1035.37 C 722.75 1035.37 718.34 1036.22 716.20 1035.37 C 714.06 1034.51 710.88 1032.51 709.92 1030.24 C 708.96 1027.97 709.61 1023.88 710.45 1021.75 C 711.29 1019.61 712.65 1017.85 714.96 1017.41 C 717.28 1016.97 722.23 1018.05 724.34 1019.09 C 726.45 1020.14 727.07 1021.63 727.61 1023.69 C 728.16 1025.76 727.61 1031.48 727.61 1031.48 C 727.61 1031.48 734.72 1037.67 736.63 1042.89 C 738.55 1048.11 739.11 1062.79 739.11 1062.79 L 739.20 1090.21 L 738.85 1144.79 C 738.85 1144.79 731.95 1154.14 730.80 1159.74 C 729.65 1165.34 729.57 1173.38 731.95 1178.41 C 734.32 1183.43 736.93 1187.81 745.04 1189.90 C 753.15 1192.00 780.60 1190.97 780.60 1190.97 L 807.31 1191.23 C 807.31 1191.23 822.45 1189.88 827.22 1190.52 C 831.98 1191.17 832.42 1193.97 835.88 1195.12 C 839.35 1196.27 845.41 1195.46 848.00 1197.42 C 850.60 1199.38 851.95 1204.18 851.45 1206.89 Z" data-net-id="back-PWR" data-net-label="Power through D5+D6" data-category="PWR" data-color="#00ff00" fill="#00ff00" fill-opacity="1" data-editor-kind="area" data-editor-mode-version="2" fill-rule="evenodd" clip-rule="evenodd" data-editor-points="851.45,1206.89;845.00,1213.70;837.56,1212.46;832.96,1207.51;830.58,1197.87;822.88,1194.50;809.41,1194.63;761.49,1194.15;744.15,1193.53;736.72,1190.35;727.79,1179.82;726.37,1167.97;727.26,1157.88;735.84,1144.08;735.93,1089.86;734.16,1047.58;722.75,1035.37;716.20,1035.37;709.92,1030.24;710.45,1021.75;714.96,1017.41;724.34,1019.09;727.61,1023.69;727.61,1031.48;736.63,1042.89;739.11,1062.79;739.20,1090.21;738.85,1144.79;730.80,1159.74;731.95,1178.41;745.04,1189.90;780.60,1190.97;807.31,1191.23;827.22,1190.52;835.88,1195.12;848.00,1197.42" data-editor-point-modes="s;s;s;s;s;c;c;c;s;s;s;c;s;c;c;s;c;s;s;s;s;s;s;c;s;c;c;c;s;s;s;c;c;s;s;s" />
  <path d="M 765.77 1344.87 C 763.22 1346.69 753.94 1347.62 753.94 1347.62 C 753.94 1347.62 747.80 1352.54 742.85 1353.64 C 737.90 1354.74 724.24 1354.22 724.24 1354.22 L 586.17 1354.70 C 586.17 1354.70 569.74 1353.27 564.51 1355.23 C 559.28 1357.18 554.79 1366.43 554.79 1366.43 C 554.79 1366.43 549.02 1370.26 543.70 1370.76 C 538.38 1371.25 531.09 1367.73 522.88 1369.38 C 514.68 1371.04 494.46 1380.69 494.46 1380.69 C 494.46 1380.69 480.24 1389.00 471.64 1390.73 C 463.05 1392.45 450.74 1388.61 442.91 1391.04 C 435.07 1393.47 424.63 1405.31 424.63 1405.31 C 424.63 1405.31 425.58 1411.31 424.52 1413.76 C 423.47 1416.20 420.77 1419.29 418.29 1419.99 C 415.81 1420.69 411.64 1419.50 409.63 1417.98 C 407.62 1416.47 406.00 1413.44 406.25 1410.90 C 406.49 1408.37 408.45 1404.18 411.11 1402.77 C 413.77 1401.36 422.20 1402.45 422.20 1402.45 C 422.20 1402.45 433.29 1390.37 441.64 1387.56 C 449.99 1384.74 461.59 1388.24 472.28 1385.55 C 482.97 1382.85 505.77 1371.39 505.77 1371.39 C 505.77 1371.39 515.15 1366.07 521.93 1365.26 C 528.71 1364.45 539.58 1368.63 546.44 1366.53 C 553.31 1364.44 558.21 1355.35 563.14 1352.69 C 568.07 1350.03 576.03 1350.58 576.03 1350.58 L 730.80 1350.05 C 730.80 1350.05 744.34 1349.65 748.02 1346.56 C 751.70 1343.48 750.96 1334.66 752.88 1331.56 C 754.80 1328.46 757.32 1328.29 759.54 1327.97 C 761.76 1327.65 764.58 1328.20 766.20 1329.66 C 767.82 1331.12 769.33 1334.20 769.26 1336.74 C 769.19 1339.27 768.33 1343.06 765.77 1344.87 Z" data-net-id="back-PWR" data-net-label="Power through D5+D6" data-category="PWR" data-color="#00ff00" fill="#00ff00" fill-opacity="1" data-editor-kind="area" data-editor-mode-version="2" fill-rule="evenodd" clip-rule="evenodd" data-editor-points="765.77,1344.87;753.94,1347.62;742.85,1353.64;724.24,1354.22;586.17,1354.70;564.51,1355.23;554.79,1366.43;543.70,1370.76;522.88,1369.38;494.46,1380.69;471.64,1390.73;442.91,1391.04;424.63,1405.31;424.52,1413.76;418.29,1419.99;409.63,1417.98;406.25,1410.90;411.11,1402.77;422.20,1402.45;441.64,1387.56;472.28,1385.55;505.77,1371.39;521.93,1365.26;546.44,1366.53;563.14,1352.69;576.03,1350.58;730.80,1350.05;748.02,1346.56;752.88,1331.56;759.54,1327.97;766.20,1329.66;769.26,1336.74" data-editor-point-modes="s;c;s;c;c;s;c;s;s;c;s;s;c;s;s;s;s;s;c;s;s;c;s;s;s;c;c;s;s;s;s;s" />
  <path d="M 1291.79 895.42 C 1291.79 895.42 1288.62 898.35 1288.25 901.09 C 1287.89 903.82 1287.20 909.78 1289.58 911.83 C 1291.96 913.88 1299.15 915.26 1302.53 913.38 C 1305.92 911.49 1308.98 910.64 1309.89 900.50 C 1310.81 890.35 1308.03 852.51 1308.03 852.51 L 1308.57 823.08 L 1312.83 811.60 L 1313.31 783.27 L 1312.39 754.93 C 1312.39 754.93 1310.72 749.97 1309.01 748.38 C 1307.29 746.80 1302.09 745.44 1302.09 745.44 L 1274.86 746.47 L 1249.40 746.10 C 1249.40 746.10 1241.34 744.97 1239.24 741.61 C 1237.15 738.25 1236.81 725.94 1236.81 725.94 C 1236.81 725.94 1235.00 711.18 1235.71 706.36 C 1236.42 701.54 1240.03 700.05 1241.08 697.02 C 1242.14 693.99 1242.04 688.19 1242.04 688.19 C 1242.04 688.19 1248.42 680.91 1248.59 677.59 C 1248.76 674.26 1245.71 669.62 1243.07 668.24 C 1240.43 666.87 1234.82 667.49 1232.77 669.35 C 1230.72 671.20 1230.30 676.48 1230.78 679.35 C 1231.26 682.22 1235.64 686.57 1235.64 686.57 L 1235.49 694.81 L 1224.16 710.85 L 1222.83 729.10 C 1222.83 729.10 1219.88 734.51 1216.58 735.65 C 1213.28 736.79 1203.04 735.95 1203.04 735.95 L 1185.67 721.01 L 1073.68 721.91 L 993.65 722.50 C 993.65 722.50 987.12 722.93 981.91 726.41 C 976.70 729.89 962.38 743.37 962.38 743.37 C 962.38 743.37 915.79 787.50 905.25 802.56 C 894.71 817.62 899.13 833.75 899.13 833.75 L 895.63 833.57 L 897.56 903.00 L 908.23 902.83 L 906.95 834.07 L 904.38 833.57 C 904.38 833.57 901.55 816.93 913.82 800.75 C 926.09 784.57 978.00 736.51 978.00 736.51 C 978.00 736.51 985.05 729.71 991.30 727.94 C 997.54 726.18 1015.49 725.93 1015.49 725.93 L 1060.15 725.93 L 1182.87 725.94 L 1200.61 739.63 C 1200.61 739.63 1212.66 738.69 1216.43 740.95 C 1220.20 743.21 1223.07 749.05 1223.20 753.17 C 1223.34 757.29 1217.24 765.68 1217.24 765.68 C 1217.24 765.68 1205.08 778.29 1199.82 781.85 C 1194.55 785.40 1191.18 786.01 1185.66 787.02 C 1180.14 788.02 1166.69 787.90 1166.69 787.90 C 1166.69 787.90 1150.03 787.78 1143.57 785.47 C 1137.12 783.17 1134.45 779.51 1127.97 774.07 C 1121.50 768.62 1104.72 752.80 1104.72 752.80 C 1104.72 752.80 1091.04 743.07 1079.99 740.88 C 1068.94 738.68 1038.41 739.63 1038.41 739.63 C 1038.41 739.63 1014.78 736.47 1003.53 741.76 C 992.28 747.05 970.93 771.34 970.93 771.34 L 945.20 797.81 C 945.20 797.81 938.36 806.89 936.47 812.92 C 934.58 818.95 933.85 833.99 933.85 833.99 L 934.03 901.45 L 945.17 900.32 L 944.56 833.90 C 944.56 833.90 942.99 817.18 947.26 808.74 C 951.53 800.30 970.19 783.27 970.19 783.27 L 986.16 768.47 C 986.16 768.47 999.15 751.11 1008.98 747.21 C 1018.80 743.31 1045.11 745.07 1045.11 745.07 C 1045.11 745.07 1071.03 744.35 1083.45 749.56 C 1095.87 754.77 1119.66 776.35 1119.66 776.35 C 1119.66 776.35 1135.22 790.93 1143.28 793.79 C 1151.34 796.64 1168.04 793.48 1168.04 793.48 C 1168.04 793.48 1183.15 793.05 1186.40 797.10 C 1189.66 801.15 1187.58 817.78 1187.58 817.78 C 1187.58 817.78 1183.11 820.85 1182.06 823.15 C 1181.02 825.46 1181.33 831.62 1181.33 831.62 L 1159.91 832.35 L 1160.57 898.58 C 1160.57 898.58 1164.36 904.37 1166.90 905.87 C 1169.44 907.37 1175.81 907.56 1175.81 907.56 C 1175.81 907.56 1182.64 908.90 1185.23 907.05 C 1187.81 905.19 1191.34 896.45 1191.34 896.45 L 1190.53 831.84 L 1192.37 825.88 L 1231.81 824.55 C 1231.81 824.55 1236.51 821.78 1237.84 819.62 C 1239.18 817.46 1239.83 811.60 1239.83 811.60 L 1238.95 783.49 L 1244.60 778.51 L 1282.81 778.33 L 1287.67 782.68 L 1288.33 810.42 L 1292.67 819.69 L 1290.32 825.43 L 1291.64 852.29 L 1291.79 895.42 Z" data-net-id="back-vcc_cart" data-net-label="VCC Cart" data-category="vcc_cart" data-color="#ff4860" fill="#ff4860" fill-opacity="1" data-editor-kind="area" data-editor-mode-version="2" fill-rule="evenodd" clip-rule="evenodd" data-editor-points="1291.79,895.42;1288.25,901.09;1289.58,911.83;1302.53,913.38;1309.89,900.50;1308.03,852.51;1308.57,823.08;1312.83,811.60;1313.31,783.27;1312.39,754.93;1309.01,748.38;1302.09,745.44;1274.86,746.47;1249.40,746.10;1239.24,741.61;1236.81,725.94;1235.71,706.36;1241.08,697.02;1242.04,688.19;1248.59,677.59;1243.07,668.24;1232.77,669.35;1230.78,679.35;1235.64,686.57;1235.49,694.81;1224.16,710.85;1222.83,729.10;1216.58,735.65;1203.04,735.95;1185.67,721.01;1073.68,721.91;993.65,722.50;981.91,726.41;962.38,743.37;905.25,802.56;899.13,833.75;895.63,833.57;897.56,903.00;908.23,902.83;906.95,834.07;904.38,833.57;913.82,800.75;978.00,736.51;991.30,727.94;1015.49,725.93;1060.15,725.93;1182.87,725.94;1200.61,739.63;1216.43,740.95;1223.20,753.17;1217.24,765.68;1199.82,781.85;1185.66,787.02;1166.69,787.90;1143.57,785.47;1127.97,774.07;1104.72,752.80;1079.99,740.88;1038.41,739.63;1003.53,741.76;970.93,771.34;945.20,797.81;936.47,812.92;933.85,833.99;934.03,901.45;945.17,900.32;944.56,833.90;947.26,808.74;970.19,783.27;986.16,768.47;1008.98,747.21;1045.11,745.07;1083.45,749.56;1119.66,776.35;1143.28,793.79;1168.04,793.48;1186.40,797.10;1187.58,817.78;1182.06,823.15;1181.33,831.62;1159.91,832.35;1160.57,898.58;1166.90,905.87;1175.81,907.56;1185.23,907.05;1191.34,896.45;1190.53,831.84;1192.37,825.88;1231.81,824.55;1237.84,819.62;1239.83,811.60;1238.95,783.49;1244.60,778.51;1282.81,778.33;1287.67,782.68;1288.33,810.42;1292.67,819.69;1290.32,825.43;1291.64,852.29" data-editor-point-modes="c;s;s;s;s;c;c;c;c;c;s;c;c;c;s;c;s;s;c;s;s;s;s;c;c;c;c;s;c;c;c;c;s;c;s;c;c;c;c;c;c;s;c;s;c;c;c;c;s;s;c;s;s;c;s;s;c;s;c;s;c;c;s;c;c;c;c;s;c;c;s;c;s;c;s;c;s;c;s;c;c;c;s;c;s;c;c;c;c;s;c;c;c;c;c;c;c;c;c" />
</svg>
