<svg xmlns="http://www.w3.org/2000/svg" viewBox="0 0 1765 1765">
  <path d="M 968.00 135.00 L 993.00 138.00 L 999.00 142.00 L 1000.00 149.00 L 1014.00 160.00 L 1098.00 160.00 L 1104.00 166.00 L 1105.00 192.00 L 1110.00 208.00 L 1125.00 224.00 L 1136.00 229.00 L 1165.00 230.00 L 1174.00 227.00 L 1209.00 196.00 L 1264.00 195.00 L 1268.00 198.00 L 1274.00 209.00 L 1273.00 287.00 L 1280.00 312.00 L 1312.00 346.00 L 1334.00 354.00 L 1364.00 353.00 L 1373.00 364.00 L 1371.00 444.00 L 1363.00 456.00 L 1347.00 470.00 L 1350.00 473.00 L 1344.00 484.00 L 1344.00 477.00 L 1342.00 478.00 L 1340.00 514.00 L 1337.00 518.00 L 1322.00 516.00 L 1278.00 472.00 L 1273.00 461.00 L 1272.00 438.00 L 1261.00 432.00 L 1255.00 423.00 L 1254.00 380.00 L 1266.00 362.00 L 1266.00 352.00 L 1253.00 347.00 L 1244.00 339.00 L 1176.00 270.00 L 1168.00 267.00 L 1134.00 267.00 L 1128.00 272.00 L 1128.00 291.00 L 1133.00 295.00 L 1147.00 297.00 L 1151.00 303.00 L 1150.00 331.00 L 1146.00 336.00 L 1135.00 337.00 L 1105.00 313.00 L 1032.00 313.00 L 1024.00 310.00 L 960.00 248.00 L 952.00 249.00 L 950.00 245.00 L 955.00 244.00 L 950.00 239.00 L 940.00 236.00 L 783.00 237.00 L 765.00 249.00 L 696.00 249.00 L 689.00 252.00 L 646.00 296.00 L 590.00 298.00 L 585.00 307.00 L 584.00 357.00 L 560.00 372.00 L 536.00 375.00 L 524.00 385.00 L 520.00 490.00 L 511.00 499.00 L 492.00 501.00 L 488.00 505.00 L 487.00 536.00 L 475.00 552.00 L 444.00 554.00 L 438.00 551.00 L 436.00 507.00 L 424.00 493.00 L 379.00 492.00 L 373.00 488.00 L 370.00 482.00 L 370.00 456.00 L 381.00 447.00 L 390.00 445.00 L 395.00 448.00 L 400.00 445.00 L 398.00 439.00 L 385.00 430.00 L 382.00 416.00 L 384.00 408.00 L 398.00 392.00 L 395.00 388.00 L 391.00 389.00 L 377.00 405.00 L 353.00 403.00 L 337.00 390.00 L 337.00 367.00 L 341.00 358.00 L 351.00 349.00 L 373.00 350.00 L 384.00 358.00 L 429.00 358.00 L 442.00 354.00 L 456.00 344.00 L 478.00 320.00 L 486.00 304.00 L 488.00 271.00 L 494.00 260.00 L 493.00 200.00 L 499.00 195.00 L 516.00 187.00 L 556.00 179.00 L 561.00 184.00 L 563.00 203.00 L 568.00 212.00 L 573.00 212.00 L 574.00 218.00 L 596.00 232.00 L 618.00 233.00 L 636.00 224.00 L 656.00 204.00 L 656.00 166.00 L 662.00 160.00 L 750.00 160.00 L 762.00 148.00 L 763.00 140.00 L 771.00 136.00 Z" data-net-id="back-gnd" data-net-label="GND" data-category="gnd" data-color="#000000" fill="#000000" fill-opacity="1" data-editor-kind="area" data-editor-mode-version="2" fill-rule="evenodd" clip-rule="evenodd" data-editor-points="968.00,135.00;993.00,138.00;999.00,142.00;1000.00,149.00;1014.00,160.00;1098.00,160.00;1104.00,166.00;1105.00,192.00;1110.00,208.00;1125.00,224.00;1136.00,229.00;1165.00,230.00;1174.00,227.00;1209.00,196.00;1264.00,195.00;1268.00,198.00;1274.00,209.00;1273.00,287.00;1280.00,312.00;1312.00,346.00;1334.00,354.00;1364.00,353.00;1373.00,364.00;1371.00,444.00;1363.00,456.00;1347.00,470.00;1350.00,473.00;1344.00,484.00;1344.00,477.00;1342.00,478.00;1340.00,514.00;1337.00,518.00;1322.00,516.00;1278.00,472.00;1273.00,461.00;1272.00,438.00;1261.00,432.00;1255.00,423.00;1254.00,380.00;1266.00,362.00;1266.00,352.00;1253.00,347.00;1244.00,339.00;1176.00,270.00;1168.00,267.00;1134.00,267.00;1128.00,272.00;1128.00,291.00;1133.00,295.00;1147.00,297.00;1151.00,303.00;1150.00,331.00;1146.00,336.00;1135.00,337.00;1105.00,313.00;1032.00,313.00;1024.00,310.00;960.00,248.00;952.00,249.00;950.00,245.00;955.00,244.00;950.00,239.00;940.00,236.00;783.00,237.00;765.00,249.00;696.00,249.00;689.00,252.00;646.00,296.00;590.00,298.00;585.00,307.00;584.00,357.00;560.00,372.00;536.00,375.00;524.00,385.00;520.00,490.00;511.00,499.00;492.00,501.00;488.00,505.00;487.00,536.00;475.00,552.00;444.00,554.00;438.00,551.00;436.00,507.00;424.00,493.00;379.00,492.00;373.00,488.00;370.00,482.00;370.00,456.00;381.00,447.00;390.00,445.00;395.00,448.00;400.00,445.00;398.00,439.00;385.00,430.00;382.00,416.00;384.00,408.00;398.00,392.00;395.00,388.00;391.00,389.00;377.00,405.00;353.00,403.00;337.00,390.00;337.00,367.00;341.00,358.00;351.00,349.00;373.00,350.00;384.00,358.00;429.00,358.00;442.00,354.00;456.00,344.00;478.00,320.00;486.00,304.00;488.00,271.00;494.00,260.00;493.00,200.00;499.00,195.00;516.00,187.00;556.00,179.00;561.00,184.00;563.00,203.00;568.00,212.00;573.00,212.00;574.00,218.00;596.00,232.00;618.00,233.00;636.00,224.00;656.00,204.00;656.00,166.00;662.00,160.00;750.00,160.00;762.00,148.00;763.00,140.00;771.00,136.00" data-editor-point-modes="c;c;c;c;c;c;c;c;c;c;c;c;c;c;c;c;c;c;c;c;c;c;c;c;c;c;c;c;c;c;c;c;c;c;c;c;c;c;c;c;c;c;c;c;c;c;c;c;c;c;c;c;c;c;c;c;c;c;c;c;c;c;c;c;c;c;c;c;c;c;c;c;c;c;c;c;c;c;c;c;c;c;c;c;c;c;c;c;c;c;c;c;c;c;c;c;c;c;c;c;c;c;c;c;c;c;c;c;c;c;c;c;c;c;c;c;c;c;c;c;c;c;c;c;c;c;c;c;c;c;c;c;c" />
  <path d="M 985.00 329.00 L 993.00 334.00 L 1092.00 332.00 L 1104.00 339.00 L 1120.00 357.00 L 1166.00 357.00 L 1176.00 365.00 L 1182.00 377.00 L 1180.00 411.00 L 1168.00 412.00 L 1169.00 415.00 L 1152.00 412.00 L 1142.00 416.00 L 1145.00 424.00 L 1173.00 424.00 L 1173.00 467.00 L 1147.00 469.00 L 1142.00 474.00 L 1144.00 480.00 L 1169.00 481.00 L 1172.00 484.00 L 1172.00 509.00 L 1169.00 512.00 L 1068.00 513.00 L 1062.00 517.00 L 1067.00 517.00 L 1065.00 520.00 L 1061.00 519.00 L 1062.00 524.00 L 1054.00 524.00 L 1050.00 529.00 L 1055.00 530.00 L 1046.00 536.00 L 1048.00 529.00 L 1044.00 534.00 L 1046.00 591.00 L 1086.00 632.00 L 1086.00 669.00 L 1078.00 677.00 L 982.00 678.00 L 974.00 668.00 L 976.00 658.00 L 995.00 640.00 L 995.00 635.00 L 1002.00 631.00 L 1001.00 634.00 L 1014.00 620.00 L 1024.00 595.00 L 1028.00 571.00 L 1028.00 485.00 L 1033.00 481.00 L 1092.00 481.00 L 1098.00 476.00 L 1095.00 470.00 L 1065.00 470.00 L 1060.00 462.00 L 1063.00 424.00 L 1097.00 423.00 L 1096.00 415.00 L 1060.00 411.00 L 1057.00 390.00 L 1052.00 390.00 L 1051.00 396.00 L 1043.00 386.00 L 1033.00 381.00 L 1044.00 381.00 L 1052.00 388.00 L 1045.00 366.00 L 1050.00 358.00 L 1059.00 355.00 L 1077.00 358.00 L 1098.00 377.00 L 1143.00 377.00 L 1148.00 381.00 L 1150.00 393.00 L 1154.00 396.00 L 1166.00 396.00 L 1174.00 390.00 L 1174.00 375.00 L 1171.00 368.00 L 1156.00 362.00 L 1146.00 362.00 L 1144.00 365.00 L 1103.00 365.00 L 1087.00 350.00 L 1076.00 346.00 L 1014.00 347.00 L 1008.00 351.00 L 983.00 351.00 L 979.00 339.00 Z" data-net-id="back-gnd" data-net-label="GND" data-category="gnd" data-color="#000000" fill="#000000" fill-opacity="1" data-editor-kind="area" data-editor-mode-version="2" fill-rule="evenodd" clip-rule="evenodd" data-editor-points="985.00,329.00;993.00,334.00;1092.00,332.00;1104.00,339.00;1120.00,357.00;1166.00,357.00;1176.00,365.00;1182.00,377.00;1180.00,411.00;1168.00,412.00;1169.00,415.00;1152.00,412.00;1142.00,416.00;1145.00,424.00;1173.00,424.00;1173.00,467.00;1147.00,469.00;1142.00,474.00;1144.00,480.00;1169.00,481.00;1172.00,484.00;1172.00,509.00;1169.00,512.00;1068.00,513.00;1062.00,517.00;1067.00,517.00;1065.00,520.00;1061.00,519.00;1062.00,524.00;1054.00,524.00;1050.00,529.00;1055.00,530.00;1046.00,536.00;1048.00,529.00;1044.00,534.00;1046.00,591.00;1086.00,632.00;1086.00,669.00;1078.00,677.00;982.00,678.00;974.00,668.00;976.00,658.00;995.00,640.00;995.00,635.00;1002.00,631.00;1001.00,634.00;1014.00,620.00;1024.00,595.00;1028.00,571.00;1028.00,485.00;1033.00,481.00;1092.00,481.00;1098.00,476.00;1095.00,470.00;1065.00,470.00;1060.00,462.00;1063.00,424.00;1097.00,423.00;1096.00,415.00;1060.00,411.00;1057.00,390.00;1052.00,390.00;1051.00,396.00;1043.00,386.00;1033.00,381.00;1044.00,381.00;1052.00,388.00;1045.00,366.00;1050.00,358.00;1059.00,355.00;1077.00,358.00;1098.00,377.00;1143.00,377.00;1148.00,381.00;1150.00,393.00;1154.00,396.00;1166.00,396.00;1174.00,390.00;1174.00,375.00;1171.00,368.00;1156.00,362.00;1146.00,362.00;1144.00,365.00;1103.00,365.00;1087.00,350.00;1076.00,346.00;1014.00,347.00;1008.00,351.00;983.00,351.00;979.00,339.00" data-editor-point-modes="c;c;c;c;c;c;c;c;c;c;c;c;c;c;c;c;c;c;c;c;c;c;c;c;c;c;c;c;c;c;c;c;c;c;c;c;c;c;c;c;c;c;c;c;c;c;c;c;c;c;c;c;c;c;c;c;c;c;c;c;c;c;c;c;c;c;c;c;c;c;c;c;c;c;c;c;c;c;c;c;c;c;c;c;c;c;c;c;c;c" />
  <path d="M 1024.00 367.00 L 1039.00 377.00 L 1028.00 376.00 Z" data-net-id="back-gnd" data-net-label="GND" data-category="gnd" data-color="#000000" fill="#000000" fill-opacity="1" data-editor-kind="area" data-editor-mode-version="2" fill-rule="evenodd" clip-rule="evenodd" data-editor-points="1024.00,367.00;1039.00,377.00;1028.00,376.00" data-editor-point-modes="c;c;c" />
  <path d="M 716.00 408.00 L 724.00 410.00 L 728.00 417.00 L 728.00 446.00 L 723.00 452.00 L 702.00 454.00 L 699.00 471.00 L 671.00 472.00 L 666.00 469.00 L 659.00 472.00 L 599.00 473.00 L 592.00 470.00 L 589.00 472.00 L 583.00 465.00 L 571.00 463.00 L 561.00 475.00 L 563.00 508.00 L 569.00 513.00 L 578.00 514.00 L 593.00 505.00 L 717.00 505.00 L 735.00 518.00 L 738.00 524.00 L 739.00 554.00 L 744.00 566.00 L 753.00 576.00 L 770.00 578.00 L 787.00 565.00 L 818.00 565.00 L 823.00 570.00 L 822.00 588.00 L 816.00 592.00 L 738.00 592.00 L 722.00 576.00 L 712.00 571.00 L 637.00 571.00 L 614.00 551.00 L 598.00 552.00 L 594.00 557.00 L 594.00 570.00 L 600.00 578.00 L 608.00 584.00 L 705.00 584.00 L 720.00 591.00 L 732.00 604.00 L 736.00 604.00 L 735.00 600.00 L 738.00 605.00 L 845.00 605.00 L 879.00 602.00 L 885.00 605.00 L 958.00 604.00 L 967.00 612.00 L 967.00 642.00 L 963.00 650.00 L 831.00 782.00 L 794.00 808.00 L 754.00 808.00 L 712.00 769.00 L 707.00 772.00 L 702.00 771.00 L 702.00 768.00 L 692.00 768.00 L 685.00 775.00 L 682.00 794.00 L 659.00 802.00 L 656.00 821.00 L 651.00 827.00 L 604.00 829.00 L 607.00 837.00 L 604.00 844.00 L 604.00 900.00 L 578.00 900.00 L 574.00 886.00 L 574.00 829.00 L 572.00 832.00 L 572.00 829.00 L 559.00 826.00 L 558.00 813.00 L 554.00 809.00 L 534.00 809.00 L 534.00 804.00 L 523.00 803.00 L 507.00 780.00 L 507.00 762.00 L 510.00 756.00 L 527.00 748.00 L 536.00 736.00 L 536.00 708.00 L 521.00 689.00 L 516.00 677.00 L 517.00 667.00 L 519.00 671.00 L 520.00 666.00 L 517.00 582.00 L 523.00 578.00 L 535.00 581.00 L 569.00 612.00 L 599.00 619.00 L 660.00 619.00 L 664.00 626.00 L 678.00 625.00 L 681.00 620.00 L 686.00 620.00 L 687.00 604.00 L 683.00 600.00 L 673.00 600.00 L 672.00 603.00 L 671.00 600.00 L 666.00 600.00 L 669.00 602.00 L 657.00 607.00 L 586.00 607.00 L 568.00 598.00 L 540.00 570.00 L 539.00 560.00 L 531.00 548.00 L 531.00 537.00 L 540.00 528.00 L 540.00 449.00 L 558.00 439.00 L 568.00 427.00 L 703.00 426.00 L 708.00 421.00 L 708.00 414.00 Z" data-net-id="back-gnd" data-net-label="GND" data-category="gnd" data-color="#000000" fill="#000000" fill-opacity="1" data-editor-kind="area" data-editor-mode-version="2" fill-rule="evenodd" clip-rule="evenodd" data-editor-points="716.00,408.00;724.00,410.00;728.00,417.00;728.00,446.00;723.00,452.00;702.00,454.00;699.00,471.00;671.00,472.00;666.00,469.00;659.00,472.00;599.00,473.00;592.00,470.00;589.00,472.00;583.00,465.00;571.00,463.00;561.00,475.00;563.00,508.00;569.00,513.00;578.00,514.00;593.00,505.00;717.00,505.00;735.00,518.00;738.00,524.00;739.00,554.00;744.00,566.00;753.00,576.00;770.00,578.00;787.00,565.00;818.00,565.00;823.00,570.00;822.00,588.00;816.00,592.00;738.00,592.00;722.00,576.00;712.00,571.00;637.00,571.00;614.00,551.00;598.00,552.00;594.00,557.00;594.00,570.00;600.00,578.00;608.00,584.00;705.00,584.00;720.00,591.00;732.00,604.00;736.00,604.00;735.00,600.00;738.00,605.00;845.00,605.00;879.00,602.00;885.00,605.00;958.00,604.00;967.00,612.00;967.00,642.00;963.00,650.00;831.00,782.00;794.00,808.00;754.00,808.00;712.00,769.00;707.00,772.00;702.00,771.00;702.00,768.00;692.00,768.00;685.00,775.00;682.00,794.00;659.00,802.00;656.00,821.00;651.00,827.00;604.00,829.00;607.00,837.00;604.00,844.00;604.00,900.00;578.00,900.00;574.00,886.00;574.00,829.00;572.00,832.00;572.00,829.00;559.00,826.00;558.00,813.00;554.00,809.00;534.00,809.00;534.00,804.00;523.00,803.00;507.00,780.00;507.00,762.00;510.00,756.00;527.00,748.00;536.00,736.00;536.00,708.00;521.00,689.00;516.00,677.00;517.00,667.00;519.00,671.00;520.00,666.00;517.00,582.00;523.00,578.00;535.00,581.00;569.00,612.00;599.00,619.00;660.00,619.00;664.00,626.00;678.00,625.00;681.00,620.00;686.00,620.00;687.00,604.00;683.00,600.00;673.00,600.00;672.00,603.00;671.00,600.00;666.00,600.00;669.00,602.00;657.00,607.00;586.00,607.00;568.00,598.00;540.00,570.00;539.00,560.00;531.00,548.00;531.00,537.00;540.00,528.00;540.00,449.00;558.00,439.00;568.00,427.00;703.00,426.00;708.00,421.00;708.00,414.00" data-editor-point-modes="c;c;c;c;c;c;c;c;c;c;c;c;c;c;c;c;c;c;c;c;c;c;c;c;c;c;c;c;c;c;c;c;c;c;c;c;c;c;c;c;c;c;c;c;c;c;c;c;c;c;c;c;c;c;c;c;c;c;c;c;c;c;c;c;c;c;c;c;c;c;c;c;c;c;c;c;c;c;c;c;c;c;c;c;c;c;c;c;c;c;c;c;c;c;c;c;c;c;c;c;c;c;c;c;c;c;c;c;c;c;c;c;c;c;c;c;c;c;c;c;c;c;c;c;c" />
  <path d="M 353.00 536.00 L 376.00 538.00 L 386.00 547.00 L 391.00 567.00 L 395.00 568.00 L 392.00 569.00 L 389.00 582.00 L 377.00 589.00 L 378.00 609.00 L 384.00 616.00 L 393.00 614.00 L 409.00 624.00 L 410.00 633.00 L 405.00 640.00 L 372.00 641.00 L 363.00 636.00 L 361.00 592.00 L 342.00 580.00 L 335.00 566.00 L 343.00 542.00 Z" data-net-id="back-gnd" data-net-label="GND" data-category="gnd" data-color="#000000" fill="#000000" fill-opacity="1" data-editor-kind="area" data-editor-mode-version="2" fill-rule="evenodd" clip-rule="evenodd" data-editor-points="353.00,536.00;376.00,538.00;386.00,547.00;391.00,567.00;395.00,568.00;392.00,569.00;389.00,582.00;377.00,589.00;378.00,609.00;384.00,616.00;393.00,614.00;409.00,624.00;410.00,633.00;405.00,640.00;372.00,641.00;363.00,636.00;361.00,592.00;342.00,580.00;335.00,566.00;343.00,542.00" data-editor-point-modes="c;c;c;c;c;c;c;c;c;c;c;c;c;c;c;c;c;c;c;c" />
  <path d="M 454.00 566.00 L 484.00 567.00 L 492.00 575.00 L 492.00 709.00 L 470.00 741.00 L 466.00 755.00 L 467.00 769.00 L 456.00 783.00 L 458.00 794.00 L 469.00 796.00 L 466.00 798.00 L 468.00 814.00 L 465.00 818.00 L 476.00 818.00 L 476.00 903.00 L 431.00 903.00 L 431.00 878.00 L 427.00 882.00 L 412.00 882.00 L 402.00 872.00 L 401.00 830.00 L 407.00 818.00 L 425.00 819.00 L 432.00 815.00 L 433.00 809.00 L 431.00 805.00 L 423.00 808.00 L 404.00 806.00 L 398.00 797.00 L 397.00 787.00 L 434.00 787.00 L 437.00 752.00 L 463.00 728.00 L 480.00 701.00 L 477.00 680.00 L 458.00 651.00 L 457.00 627.00 L 432.00 610.00 L 429.00 604.00 L 429.00 571.00 L 437.00 567.00 Z" data-net-id="back-gnd" data-net-label="GND" data-category="gnd" data-color="#000000" fill="#000000" fill-opacity="1" data-editor-kind="area" data-editor-mode-version="2" fill-rule="evenodd" clip-rule="evenodd" data-editor-points="454.00,566.00;484.00,567.00;492.00,575.00;492.00,709.00;470.00,741.00;466.00,755.00;467.00,769.00;456.00,783.00;458.00,794.00;469.00,796.00;466.00,798.00;468.00,814.00;465.00,818.00;476.00,818.00;476.00,903.00;431.00,903.00;431.00,878.00;427.00,882.00;412.00,882.00;402.00,872.00;401.00,830.00;407.00,818.00;425.00,819.00;432.00,815.00;433.00,809.00;431.00,805.00;423.00,808.00;404.00,806.00;398.00,797.00;397.00,787.00;434.00,787.00;437.00,752.00;463.00,728.00;480.00,701.00;477.00,680.00;458.00,651.00;457.00,627.00;432.00,610.00;429.00,604.00;429.00,571.00;437.00,567.00" data-editor-point-modes="c;c;c;c;c;c;c;c;c;c;c;c;c;c;c;c;c;c;c;c;c;c;c;c;c;c;c;c;c;c;c;c;c;c;c;c;c;c;c;c;c" />
  <path d="M 1347.00 682.00 L 1420.00 682.00 L 1430.00 689.00 L 1437.00 683.00 L 1432.00 713.00 L 1435.00 713.00 L 1436.00 720.00 L 1440.00 719.00 L 1440.00 723.00 L 1435.00 737.00 L 1427.00 743.00 L 1403.00 743.00 L 1401.00 746.00 L 1398.00 743.00 L 1399.00 772.00 L 1401.00 761.00 L 1404.00 777.00 L 1403.00 799.00 L 1400.00 808.00 L 1399.00 773.00 L 1399.00 816.00 L 1398.00 819.00 L 1395.00 818.00 L 1397.00 815.00 L 1393.00 816.00 L 1393.00 822.00 L 1422.00 824.00 L 1432.00 821.00 L 1426.00 824.00 L 1467.00 824.00 L 1470.00 827.00 L 1481.00 915.00 L 1481.00 953.00 L 1474.00 968.00 L 1446.00 972.00 L 1435.00 969.00 L 1396.00 970.00 L 1375.00 987.00 L 1365.00 986.00 L 1358.00 978.00 L 1356.00 903.00 L 1325.00 874.00 L 1317.00 862.00 L 1315.00 748.00 L 1309.00 742.00 L 1275.00 741.00 L 1269.00 738.00 L 1267.00 732.00 L 1267.00 707.00 L 1273.00 699.00 L 1297.00 698.00 L 1317.00 684.00 Z" data-net-id="back-gnd" data-net-label="GND" data-category="gnd" data-color="#000000" fill="#000000" fill-opacity="1" data-editor-kind="area" data-editor-mode-version="2" fill-rule="evenodd" clip-rule="evenodd" data-editor-points="1347.00,682.00;1420.00,682.00;1430.00,689.00;1437.00,683.00;1432.00,713.00;1435.00,713.00;1436.00,720.00;1440.00,719.00;1440.00,723.00;1435.00,737.00;1427.00,743.00;1403.00,743.00;1401.00,746.00;1398.00,743.00;1399.00,772.00;1401.00,761.00;1404.00,777.00;1403.00,799.00;1400.00,808.00;1399.00,773.00;1399.00,816.00;1398.00,819.00;1395.00,818.00;1397.00,815.00;1393.00,816.00;1393.00,822.00;1422.00,824.00;1432.00,821.00;1426.00,824.00;1467.00,824.00;1470.00,827.00;1481.00,915.00;1481.00,953.00;1474.00,968.00;1446.00,972.00;1435.00,969.00;1396.00,970.00;1375.00,987.00;1365.00,986.00;1358.00,978.00;1356.00,903.00;1325.00,874.00;1317.00,862.00;1315.00,748.00;1309.00,742.00;1275.00,741.00;1269.00,738.00;1267.00,732.00;1267.00,707.00;1273.00,699.00;1297.00,698.00;1317.00,684.00" data-editor-point-modes="c;c;c;c;c;c;c;c;c;c;c;c;c;c;c;c;c;c;c;c;c;c;c;c;c;c;c;c;c;c;c;c;c;c;c;c;c;c;c;c;c;c;c;c;c;c;c;c;c;c;c;c" />
  <path d="M 1249.00 782.00 L 1278.00 782.00 L 1285.00 790.00 L 1283.00 816.00 L 1278.00 820.00 L 1274.00 831.00 L 1275.00 890.00 L 1279.00 907.00 L 1288.00 920.00 L 1302.00 931.00 L 1310.00 944.00 L 1310.00 1031.00 L 1264.00 1028.00 L 1259.00 975.00 L 1261.00 933.00 L 1253.00 926.00 L 1220.00 926.00 L 1199.00 943.00 L 1112.00 942.00 L 1096.00 936.00 L 1074.00 917.00 L 873.00 918.00 L 864.00 914.00 L 859.00 907.00 L 859.00 835.00 L 868.00 835.00 L 870.00 840.00 L 869.00 888.00 L 872.00 905.00 L 1158.00 905.00 L 1169.00 907.00 L 1172.00 911.00 L 1186.00 912.00 L 1198.00 905.00 L 1210.00 903.00 L 1252.00 902.00 L 1256.00 871.00 L 1255.00 837.00 L 1252.00 829.00 L 1254.00 823.00 L 1242.00 811.00 L 1241.00 806.00 L 1241.00 790.00 Z" data-net-id="back-gnd" data-net-label="GND" data-category="gnd" data-color="#000000" fill="#000000" fill-opacity="1" data-editor-kind="area" data-editor-mode-version="2" fill-rule="evenodd" clip-rule="evenodd" data-editor-points="1249.00,782.00;1278.00,782.00;1285.00,790.00;1283.00,816.00;1278.00,820.00;1274.00,831.00;1275.00,890.00;1279.00,907.00;1288.00,920.00;1302.00,931.00;1310.00,944.00;1310.00,1031.00;1264.00,1028.00;1259.00,975.00;1261.00,933.00;1253.00,926.00;1220.00,926.00;1199.00,943.00;1112.00,942.00;1096.00,936.00;1074.00,917.00;873.00,918.00;864.00,914.00;859.00,907.00;859.00,835.00;868.00,835.00;870.00,840.00;869.00,888.00;872.00,905.00;1158.00,905.00;1169.00,907.00;1172.00,911.00;1186.00,912.00;1198.00,905.00;1210.00,903.00;1252.00,902.00;1256.00,871.00;1255.00,837.00;1252.00,829.00;1254.00,823.00;1242.00,811.00;1241.00,806.00;1241.00,790.00" data-editor-point-modes="c;c;c;c;c;c;c;c;c;c;c;c;c;c;c;c;c;c;c;c;c;c;c;c;c;c;c;c;c;c;c;c;c;c;c;c;c;c;c;c;c;c;c" />
  <path d="M 872.55 973.22 C 872.55 973.22 894.36 971.12 900.60 973.08 C 906.85 975.05 910.00 985.00 910.00 985.00 L 910.00 1008.00 L 940.00 1037.00 L 955.00 1047.00 L 967.00 1050.00 L 1094.93 1049.54 C 1094.93 1049.54 1101.08 1053.15 1103.09 1055.23 C 1105.10 1057.30 1107.00 1062.00 1107.00 1062.00 L 1106.63 1142.34 C 1106.63 1142.34 1104.06 1148.18 1101.62 1150.29 C 1099.18 1152.40 1092.00 1155.00 1092.00 1155.00 L 1003.88 1154.84 C 1003.88 1154.84 996.68 1159.66 993.71 1158.65 C 990.75 1157.64 987.46 1158.30 986.08 1148.78 C 984.70 1139.25 985.42 1101.49 985.42 1101.49 L 982.91 1098.61 L 912.02 1098.48 L 908.69 1101.81 L 908.07 1151.03 L 903.53 1154.97 L 886.00 1156.00 L 879.00 1155.00 L 874.00 1150.00 L 857.46 1150.43 L 856.00 1152.00 L 856.53 1165.20 L 860.67 1167.07 L 863.82 1166.61 L 869.00 1161.00 L 876.00 1161.00 L 876.00 1176.00 L 868.29 1175.90 L 864.95 1170.95 L 841.95 1170.75 L 839.55 1175.30 L 831.19 1175.90 L 830.65 1168.41 L 830.92 1161.66 L 837.67 1162.13 L 841.35 1166.21 L 847.57 1166.87 L 851.38 1164.53 C 851.38 1164.53 851.91 1154.27 851.18 1149.89 C 850.44 1145.51 847.61 1143.23 846.97 1138.26 C 846.32 1133.29 847.30 1120.08 847.30 1120.08 L 848.51 1108.64 L 848.00 1069.00 L 857.00 1054.00 L 905.00 1008.00 L 905.00 983.00 C 905.00 983.00 903.90 977.08 898.40 976.08 C 892.90 975.08 872.00 977.00 872.00 977.00 L 871.35 1014.00 C 871.35 1014.00 869.46 1018.94 864.68 1024.47 C 859.91 1030.01 842.69 1047.20 842.69 1047.20 L 835.00 1060.00 L 835.00 1113.00 C 835.00 1113.00 829.78 1121.72 826.44 1124.89 C 823.11 1128.06 815.00 1132.00 815.00 1132.00 L 768.00 1132.00 L 761.00 1128.00 L 758.00 1122.00 L 758.45 1049.21 L 761.00 1044.00 L 765.00 1041.00 L 812.00 1040.00 L 822.00 1030.00 L 821.00 992.00 C 821.00 992.00 821.13 983.74 823.23 980.81 C 825.34 977.88 825.41 975.68 833.63 974.42 C 841.85 973.15 872.55 973.22 872.55 973.22 Z M 1054.51 1103.23 C 1059.14 1106.57 1061.14 1105.49 1064.07 1105.76 C 1067.00 1106.03 1069.99 1105.82 1072.10 1104.86 C 1074.20 1103.89 1075.99 1103.13 1076.69 1099.99 C 1077.40 1096.85 1077.93 1090.04 1076.33 1086.01 C 1074.74 1081.98 1070.82 1078.41 1067.14 1075.82 C 1063.45 1073.24 1059.88 1071.59 1054.24 1070.50 C 1048.60 1069.41 1033.31 1069.31 1033.31 1069.31 L 979.28 1068.29 L 916.72 1069.65 L 900.18 1069.65 C 900.18 1069.65 895.54 1071.00 890.63 1075.38 C 885.72 1079.76 870.71 1095.94 870.71 1095.94 L 860.92 1105.55 L 852.28 1116.87 L 851.43 1123.52 L 852.28 1140.05 C 852.28 1140.05 853.57 1144.13 856.03 1145.17 C 858.49 1146.20 863.79 1146.36 867.06 1146.28 C 870.33 1146.19 873.62 1145.48 875.63 1144.66 C 877.65 1143.83 878.14 1143.24 879.16 1141.31 C 880.18 1139.38 881.28 1137.79 881.74 1133.08 C 882.20 1128.37 881.92 1113.06 881.92 1113.06 C 881.92 1113.06 882.54 1106.57 883.36 1104.22 C 884.19 1101.88 885.29 1100.91 886.88 1098.97 C 888.48 1097.03 892.92 1092.59 892.92 1092.59 C 892.92 1092.59 897.82 1086.03 900.77 1084.48 C 903.71 1082.93 910.58 1083.29 910.58 1083.29 L 1026.02 1082.67 C 1026.02 1082.67 1030.71 1082.16 1032.42 1082.67 C 1034.13 1083.18 1036.30 1085.74 1036.30 1085.74 C 1036.30 1085.74 1049.88 1099.90 1054.51 1103.23 Z" data-net-id="back-gnd" data-net-label="GND" data-category="gnd" data-color="#000000" fill="#000000" fill-opacity="1" data-editor-kind="area" data-editor-mode-version="2" fill-rule="evenodd" clip-rule="evenodd" data-editor-points="872.55,973.22;900.60,973.08;910.00,985.00;910.00,1008.00;940.00,1037.00;955.00,1047.00;967.00,1050.00;1094.93,1049.54;1103.09,1055.23;1107.00,1062.00;1106.63,1142.34;1101.62,1150.29;1092.00,1155.00;1003.88,1154.84;993.71,1158.65;986.08,1148.78;985.42,1101.49;982.91,1098.61;912.02,1098.48;908.69,1101.81;908.07,1151.03;903.53,1154.97;886.00,1156.00;879.00,1155.00;874.00,1150.00;857.46,1150.43;856.00,1152.00;856.53,1165.20;860.67,1167.07;863.82,1166.61;869.00,1161.00;876.00,1161.00;876.00,1176.00;868.29,1175.90;864.95,1170.95;841.95,1170.75;839.55,1175.30;831.19,1175.90;830.65,1168.41;830.92,1161.66;837.67,1162.13;841.35,1166.21;847.57,1166.87;851.38,1164.53;851.18,1149.89;846.97,1138.26;847.30,1120.08;848.51,1108.64;848.00,1069.00;857.00,1054.00;905.00,1008.00;905.00,983.00;898.40,976.08;872.00,977.00;871.35,1014.00;864.68,1024.47;842.69,1047.20;835.00,1060.00;835.00,1113.00;826.44,1124.89;815.00,1132.00;768.00,1132.00;761.00,1128.00;758.00,1122.00;758.45,1049.21;761.00,1044.00;765.00,1041.00;812.00,1040.00;822.00,1030.00;821.00,992.00;823.23,980.81;833.63,974.42" data-editor-point-modes="c;s;c;c;c;c;c;c;s;c;c;s;c;c;s;s;c;c;c;c;c;c;c;c;c;c;c;c;c;c;c;c;c;c;c;c;c;c;c;c;c;c;c;c;s;s;c;c;c;c;c;c;s;c;c;s;c;c;c;s;c;c;c;c;c;c;c;c;c;c;s;s" data-editor-holes="[{&quot;points&quot;:[[1054.51,1103.23],[1064.07,1105.76],[1072.1,1104.86],[1076.69,1099.99],[1076.33,1086.01],[1067.14,1075.82],[1054.24,1070.5],[1033.31,1069.31],[979.28,1068.29],[916.72,1069.65],[900.18,1069.65],[890.63,1075.38],[870.71,1095.94],[860.92,1105.55],[852.28,1116.87],[851.43,1123.52],[852.28,1140.05],[856.03,1145.17],[867.06,1146.28],[875.63,1144.66],[879.16,1141.31],[881.74,1133.08],[881.92,1113.06],[883.36,1104.22],[886.88,1098.97],[892.92,1092.59],[900.77,1084.48],[910.58,1083.29],[1026.02,1082.67],[1032.42,1082.67],[1036.3,1085.74]],&quot;pointModes&quot;:[&quot;smooth&quot;,&quot;smooth&quot;,&quot;smooth&quot;,&quot;smooth&quot;,&quot;smooth&quot;,&quot;smooth&quot;,&quot;smooth&quot;,&quot;corner&quot;,&quot;corner&quot;,&quot;corner&quot;,&quot;corner&quot;,&quot;smooth&quot;,&quot;corner&quot;,&quot;corner&quot;,&quot;corner&quot;,&quot;corner&quot;,&quot;corner&quot;,&quot;smooth&quot;,&quot;smooth&quot;,&quot;smooth&quot;,&quot;smooth&quot;,&quot;smooth&quot;,&quot;corner&quot;,&quot;smooth&quot;,&quot;smooth&quot;,&quot;corner&quot;,&quot;smooth&quot;,&quot;corner&quot;,&quot;corner&quot;,&quot;smooth&quot;,&quot;corner&quot;]}]" />
  <path d="M 383.00 980.00 C 383.00 980.00 397.16 979.70 401.32 980.37 C 405.49 981.03 408.00 984.00 408.00 984.00 L 408.00 1010.00 L 370.00 1048.00 L 364.23 1055.39 C 364.23 1055.39 369.14 1058.69 370.66 1060.51 C 372.18 1062.33 373.33 1066.32 373.33 1066.32 L 386.00 1066.00 L 387.79 1062.12 C 387.79 1062.12 396.61 1061.36 399.34 1062.19 C 402.06 1063.02 404.15 1067.09 404.15 1067.09 L 405.30 1121.00 L 417.08 1139.28 L 432.00 1154.00 L 470.68 1180.72 L 488.00 1180.00 C 488.00 1180.00 495.45 1179.43 498.06 1180.65 C 500.67 1181.86 503.64 1187.30 503.64 1187.30 L 503.18 1233.41 C 503.18 1233.41 502.50 1236.93 501.35 1238.31 C 500.20 1239.68 496.30 1241.67 496.30 1241.67 L 465.18 1242.82 L 456.38 1238.77 L 379.00 1164.00 C 379.00 1164.00 379.14 1154.73 377.00 1152.00 C 374.86 1149.27 369.98 1147.94 366.15 1147.61 C 362.31 1147.28 356.87 1147.67 354.00 1150.00 C 351.13 1152.33 349.02 1157.57 348.94 1161.61 C 348.86 1165.64 350.98 1171.69 353.53 1174.22 C 356.08 1176.76 364.23 1176.82 364.23 1176.82 L 457.00 1269.00 L 473.28 1280.52 L 490.41 1285.57 L 603.82 1283.96 L 621.81 1270.55 L 673.67 1270.33 L 725.00 1269.00 C 725.00 1269.00 734.63 1267.77 738.46 1269.27 C 742.30 1270.77 748.00 1278.00 748.00 1278.00 L 776.00 1307.00 C 776.00 1307.00 781.72 1311.53 784.22 1312.70 C 786.72 1313.86 791.00 1314.00 791.00 1314.00 L 1028.00 1313.00 L 1090.45 1312.92 C 1090.45 1312.92 1095.70 1313.37 1101.96 1318.72 C 1108.22 1324.06 1128.00 1345.00 1128.00 1345.00 C 1128.00 1345.00 1132.96 1351.56 1141.13 1352.73 C 1149.30 1353.89 1177.00 1352.00 1177.00 1352.00 C 1177.00 1352.00 1185.33 1352.00 1187.00 1342.00 C 1188.67 1332.00 1187.00 1292.00 1187.00 1292.00 C 1187.00 1292.00 1184.83 1281.33 1183.00 1278.00 C 1181.17 1274.67 1179.17 1272.83 1176.00 1272.00 C 1172.83 1271.17 1168.00 1270.67 1164.00 1273.00 C 1160.00 1275.33 1155.83 1283.00 1152.00 1286.00 C 1148.17 1289.00 1145.00 1290.50 1141.00 1291.00 C 1137.00 1291.50 1132.00 1290.83 1128.00 1289.00 C 1124.00 1287.17 1117.00 1280.00 1117.00 1280.00 L 800.00 1282.00 L 792.67 1277.71 L 766.00 1250.00 L 751.00 1238.00 L 666.57 1236.00 L 640.00 1213.00 L 634.00 1202.00 L 634.02 1175.24 L 642.63 1164.53 L 643.00 1143.00 C 643.00 1143.00 627.03 1126.10 623.46 1120.38 C 619.89 1114.66 621.59 1108.66 621.59 1108.66 L 609.13 1107.76 L 609.00 1048.00 L 619.88 1047.51 L 620.55 1039.90 C 620.55 1039.90 588.80 1041.14 581.00 1040.00 C 573.20 1038.86 573.74 1033.03 573.74 1033.03 L 574.11 1020.86 L 570.15 1017.87 L 569.78 1001.15 L 591.13 1000.70 L 592.25 1018.47 L 588.67 1019.44 L 591.58 1022.50 C 591.58 1022.50 633.29 1021.68 643.69 1022.43 C 654.10 1023.18 654.00 1027.00 654.00 1027.00 L 654.67 1046.92 L 662.51 1046.77 L 663.00 1067.00 L 661.91 1107.39 L 654.74 1107.24 L 655.00 1116.00 L 667.00 1130.00 L 667.00 1184.00 C 667.00 1184.00 665.33 1191.00 672.00 1199.00 C 678.67 1207.00 707.00 1232.00 707.00 1232.00 L 754.00 1234.00 L 774.00 1252.00 L 785.16 1264.75 L 1018.00 1264.00 L 1032.00 1277.00 L 1119.00 1276.00 L 1130.00 1285.00 L 1141.00 1287.00 L 1161.00 1270.00 C 1161.00 1270.00 1170.30 1266.67 1174.63 1267.51 C 1178.96 1268.34 1187.00 1275.00 1187.00 1275.00 C 1187.00 1275.00 1188.11 1285.05 1192.00 1287.48 C 1195.89 1289.91 1206.33 1289.98 1210.33 1289.57 C 1214.33 1289.16 1216.00 1285.00 1216.00 1285.00 C 1216.00 1285.00 1213.81 1253.74 1217.56 1242.98 C 1221.32 1232.23 1238.51 1220.47 1238.51 1220.47 L 1276.00 1219.00 C 1276.00 1219.00 1287.19 1219.12 1291.36 1220.62 C 1295.53 1222.12 1301.00 1228.00 1301.00 1228.00 L 1339.00 1265.00 L 1344.00 1275.00 L 1343.96 1385.92 L 1343.69 1436.01 L 1320.00 1457.00 L 1314.47 1461.75 L 1306.79 1468.64 L 1301.77 1474.74 L 1296.00 1483.00 C 1296.00 1483.00 1288.17 1493.57 1286.51 1505.07 C 1284.84 1516.57 1286.00 1552.00 1286.00 1552.00 L 1256.00 1560.00 L 1144.00 1576.00 L 973.97 1587.19 L 968.75 1582.37 L 968.00 1508.00 C 968.00 1508.00 970.12 1504.30 972.79 1503.30 C 975.45 1502.30 984.00 1502.00 984.00 1502.00 C 984.00 1502.00 1002.92 1507.12 1011.19 1505.76 C 1019.46 1504.40 1028.17 1499.47 1033.64 1493.85 C 1039.11 1488.22 1042.44 1478.31 1044.00 1472.00 C 1045.56 1465.69 1044.50 1461.33 1043.00 1456.00 C 1041.50 1450.67 1038.00 1444.00 1035.00 1440.00 C 1032.00 1436.00 1029.00 1434.17 1025.00 1432.00 C 1021.00 1429.83 1011.00 1427.00 1011.00 1427.00 L 816.82 1427.87 C 816.82 1427.87 807.87 1429.07 805.59 1431.12 C 803.31 1433.17 803.13 1440.18 803.13 1440.18 L 802.54 1601.96 L 702.69 1623.92 C 702.69 1623.92 697.48 1622.33 695.70 1620.67 C 693.92 1619.02 692.00 1614.00 692.00 1614.00 C 692.00 1614.00 692.43 1578.00 691.76 1567.50 C 691.09 1557.00 691.46 1555.25 688.00 1551.00 C 684.54 1546.75 677.67 1543.50 671.00 1542.00 C 664.33 1540.50 654.00 1540.83 648.00 1542.00 C 642.00 1543.17 638.18 1545.34 635.00 1549.00 C 631.82 1552.66 629.94 1554.79 628.94 1563.96 C 627.94 1573.12 631.23 1594.22 629.00 1604.00 C 626.77 1613.78 621.21 1616.14 615.55 1622.64 C 609.88 1629.14 595.00 1643.00 595.00 1643.00 C 595.00 1643.00 591.26 1646.05 587.00 1646.00 C 582.74 1645.95 578.63 1649.23 569.46 1642.73 C 560.30 1636.23 532.00 1607.00 532.00 1607.00 L 529.00 1600.00 L 528.00 1560.00 C 528.00 1560.00 525.29 1552.11 522.79 1549.78 C 520.29 1547.44 513.00 1546.00 513.00 1546.00 L 472.77 1544.16 C 472.77 1544.16 468.26 1543.97 466.76 1542.49 C 465.27 1541.01 463.81 1535.30 463.81 1535.30 L 462.00 1501.00 C 462.00 1501.00 463.70 1494.23 465.78 1492.17 C 467.85 1490.11 474.44 1488.63 474.44 1488.63 L 536.00 1489.00 C 536.00 1489.00 544.41 1486.29 547.51 1483.51 C 550.61 1480.72 554.60 1472.28 554.60 1472.28 L 554.50 1397.45 L 558.00 1394.00 L 559.22 1380.31 C 559.22 1380.31 561.34 1373.77 564.25 1371.55 C 567.15 1369.33 576.65 1367.02 576.65 1367.02 L 595.76 1366.04 L 784.00 1366.00 L 805.20 1344.47 L 856.00 1344.00 L 887.32 1343.78 C 887.32 1343.78 891.39 1350.13 894.00 1352.00 C 896.61 1353.87 900.00 1355.00 903.00 1355.00 C 906.00 1355.00 909.67 1353.83 912.00 1352.00 C 914.33 1350.17 916.39 1347.21 917.00 1344.00 C 917.61 1340.79 917.93 1335.66 915.68 1332.75 C 913.42 1329.84 907.58 1326.84 903.47 1326.55 C 899.35 1326.26 891.00 1331.00 891.00 1331.00 L 806.00 1331.00 L 796.00 1324.00 L 750.25 1324.09 L 727.90 1345.06 L 699.00 1345.00 L 691.00 1337.00 L 690.00 1300.00 C 690.00 1300.00 687.19 1294.86 683.69 1293.86 C 680.19 1292.86 669.00 1294.00 669.00 1294.00 L 641.84 1322.91 L 629.23 1328.52 L 464.89 1330.00 L 457.51 1335.81 L 458.00 1359.00 C 458.00 1359.00 455.83 1364.33 453.00 1366.00 C 450.17 1367.67 441.00 1369.00 441.00 1369.00 L 420.00 1368.00 C 420.00 1368.00 408.21 1372.09 401.38 1377.26 C 394.55 1382.43 379.00 1399.00 379.00 1399.00 L 362.09 1412.12 L 361.99 1419.01 C 361.99 1419.01 367.93 1422.22 370.26 1424.72 C 372.60 1427.22 376.00 1434.00 376.00 1434.00 L 387.00 1433.58 L 393.50 1425.90 L 431.81 1425.90 C 431.81 1425.90 434.84 1428.46 436.04 1430.14 C 437.24 1431.82 439.00 1436.00 439.00 1436.00 L 437.81 1471.00 L 431.00 1478.00 L 393.00 1478.00 L 387.00 1471.00 L 386.00 1457.00 L 376.00 1457.00 C 376.00 1457.00 364.31 1469.93 358.00 1472.00 C 351.69 1474.07 343.44 1472.07 338.16 1469.43 C 332.89 1466.78 326.35 1456.13 326.35 1456.13 L 314.14 1456.82 L 312.00 1475.00 C 312.00 1475.00 310.98 1478.27 307.00 1479.00 C 303.02 1479.73 292.31 1480.37 288.14 1479.37 C 283.98 1478.37 283.69 1477.23 282.00 1473.00 C 280.31 1468.77 278.00 1454.00 278.00 1454.00 L 279.00 1356.00 L 286.00 1347.00 L 323.00 1346.00 C 323.00 1346.00 333.00 1341.17 336.00 1338.00 C 339.00 1334.83 340.17 1333.50 341.00 1327.00 C 341.83 1320.50 341.00 1299.00 341.00 1299.00 C 341.00 1299.00 341.95 1285.30 339.00 1280.00 C 336.05 1274.70 331.96 1269.34 323.30 1267.17 C 314.63 1265.01 287.00 1267.00 287.00 1267.00 C 287.00 1267.00 280.88 1263.09 279.87 1257.62 C 278.86 1252.15 280.95 1234.19 280.95 1234.19 L 285.19 1231.43 C 285.19 1231.43 298.13 1231.35 301.44 1230.45 C 304.74 1229.54 305.00 1226.00 305.00 1226.00 L 304.00 1168.00 L 301.00 1165.00 L 284.00 1164.00 L 278.30 1159.35 L 278.30 1064.04 C 278.30 1064.04 280.22 1058.61 282.33 1057.44 C 284.45 1056.27 291.00 1057.00 291.00 1057.00 L 302.42 1049.26 C 302.42 1049.26 306.57 1048.18 308.23 1048.67 C 309.89 1049.17 311.56 1049.35 312.37 1052.22 C 313.17 1055.09 313.05 1065.91 313.05 1065.91 C 313.05 1065.91 319.71 1067.67 322.86 1066.02 C 326.02 1064.36 328.19 1058.52 332.00 1056.00 C 335.81 1053.48 345.73 1050.87 345.73 1050.87 L 360.00 1037.00 L 373.00 1024.00 C 373.00 1024.00 375.32 1019.76 375.63 1016.31 C 375.94 1012.86 374.86 1003.31 374.86 1003.31 L 374.71 982.89 L 383.00 980.00 Z M 1092.14 1417.89 L 1091.90 1471.63 L 1125.68 1470.75 L 1126.09 1523.87 L 1119.45 1536.14 L 1120.73 1544.69 L 1142.85 1565.53 L 1174.31 1565.53 L 1184.33 1556.87 C 1184.33 1556.87 1189.94 1548.74 1194.87 1544.74 C 1199.80 1540.74 1202.95 1534.96 1213.91 1532.87 C 1224.88 1530.78 1260.66 1532.22 1260.66 1532.22 C 1260.66 1532.22 1266.99 1532.85 1268.85 1531.67 C 1270.70 1530.49 1271.80 1525.12 1271.80 1525.12 C 1271.80 1525.12 1270.72 1515.40 1271.80 1512.03 C 1272.88 1508.66 1278.27 1504.92 1278.27 1504.92 L 1278.67 1456.62 L 1277.75 1432.44 C 1277.75 1432.44 1277.88 1425.93 1280.18 1422.60 C 1282.49 1419.27 1291.60 1412.46 1291.60 1412.46 C 1291.60 1412.46 1298.54 1406.56 1299.83 1401.20 C 1301.12 1395.84 1301.26 1385.67 1299.35 1380.28 C 1297.43 1374.89 1292.72 1370.86 1288.33 1368.86 C 1283.94 1366.87 1273.00 1368.30 1273.00 1368.30 L 1062.49 1371.02 L 1011.41 1368.83 L 987.36 1371.02 L 956.55 1369.83 L 930.91 1373.21 L 837.49 1370.82 L 810.91 1371.25 L 756.79 1370.82 L 623.51 1371.76 L 573.33 1372.52 C 573.33 1372.52 566.58 1375.52 565.11 1378.64 C 563.64 1381.76 563.32 1387.77 564.52 1391.23 C 565.73 1394.68 568.83 1398.21 572.33 1399.37 C 575.82 1400.53 580.52 1400.44 585.50 1398.19 C 590.48 1395.94 592.07 1388.03 602.20 1385.86 C 612.32 1383.69 646.25 1385.19 646.25 1385.19 L 855.39 1385.95 L 1006.54 1384.67 L 1028.30 1384.14 L 1168.23 1382.95 L 1256.09 1382.95 C 1256.09 1382.95 1271.79 1382.29 1276.43 1383.31 C 1281.07 1384.34 1282.68 1386.42 1283.91 1389.11 C 1285.15 1391.80 1286.52 1394.79 1283.86 1399.44 C 1281.20 1404.09 1271.15 1412.27 1267.97 1417.01 C 1264.79 1421.75 1264.77 1427.87 1264.77 1427.87 C 1264.77 1427.87 1266.02 1449.89 1264.53 1455.74 C 1263.04 1461.58 1255.83 1462.92 1255.83 1462.92 C 1255.83 1462.92 1245.10 1463.33 1242.50 1461.33 C 1239.89 1459.33 1240.19 1450.92 1240.19 1450.92 L 1239.94 1417.73 C 1239.94 1417.73 1239.95 1409.34 1236.99 1407.19 C 1234.02 1405.03 1222.13 1404.79 1222.13 1404.79 L 1099.25 1406.15 C 1099.25 1406.15 1095.72 1408.27 1094.54 1410.22 C 1093.35 1412.18 1092.14 1417.89 1092.14 1417.89 Z" data-net-id="back-gnd" data-net-label="GND" data-category="gnd" data-color="#000000" fill="#000000" fill-opacity="1" data-editor-kind="area" data-editor-mode-version="2" fill-rule="evenodd" clip-rule="evenodd" data-editor-points="383.00,980.00;401.32,980.37;408.00,984.00;408.00,1010.00;370.00,1048.00;364.23,1055.39;370.66,1060.51;373.33,1066.32;386.00,1066.00;387.79,1062.12;399.34,1062.19;404.15,1067.09;405.30,1121.00;417.08,1139.28;432.00,1154.00;470.68,1180.72;488.00,1180.00;498.06,1180.65;503.64,1187.30;503.18,1233.41;501.35,1238.31;496.30,1241.67;465.18,1242.82;456.38,1238.77;379.00,1164.00;377.00,1152.00;366.15,1147.61;354.00,1150.00;348.94,1161.61;353.53,1174.22;364.23,1176.82;457.00,1269.00;473.28,1280.52;490.41,1285.57;603.82,1283.96;621.81,1270.55;673.67,1270.33;725.00,1269.00;738.46,1269.27;748.00,1278.00;776.00,1307.00;784.22,1312.70;791.00,1314.00;1028.00,1313.00;1090.45,1312.92;1101.96,1318.72;1128.00,1345.00;1141.13,1352.73;1177.00,1352.00;1187.00,1342.00;1187.00,1292.00;1183.00,1278.00;1176.00,1272.00;1164.00,1273.00;1152.00,1286.00;1141.00,1291.00;1128.00,1289.00;1117.00,1280.00;800.00,1282.00;792.67,1277.71;766.00,1250.00;751.00,1238.00;666.57,1236.00;640.00,1213.00;634.00,1202.00;634.02,1175.24;642.63,1164.53;643.00,1143.00;623.46,1120.38;621.59,1108.66;609.13,1107.76;609.00,1048.00;619.88,1047.51;620.55,1039.90;581.00,1040.00;573.74,1033.03;574.11,1020.86;570.15,1017.87;569.78,1001.15;591.13,1000.70;592.25,1018.47;588.67,1019.44;591.58,1022.50;643.69,1022.43;654.00,1027.00;654.67,1046.92;662.51,1046.77;663.00,1067.00;661.91,1107.39;654.74,1107.24;655.00,1116.00;667.00,1130.00;667.00,1184.00;672.00,1199.00;707.00,1232.00;754.00,1234.00;774.00,1252.00;785.16,1264.75;1018.00,1264.00;1032.00,1277.00;1119.00,1276.00;1130.00,1285.00;1141.00,1287.00;1161.00,1270.00;1174.63,1267.51;1187.00,1275.00;1192.00,1287.48;1210.33,1289.57;1216.00,1285.00;1217.56,1242.98;1238.51,1220.47;1276.00,1219.00;1291.36,1220.62;1301.00,1228.00;1339.00,1265.00;1344.00,1275.00;1343.96,1385.92;1343.69,1436.01;1320.00,1457.00;1314.47,1461.75;1306.79,1468.64;1301.77,1474.74;1296.00,1483.00;1286.51,1505.07;1286.00,1552.00;1256.00,1560.00;1144.00,1576.00;973.97,1587.19;968.75,1582.37;968.00,1508.00;972.79,1503.30;984.00,1502.00;1011.19,1505.76;1033.64,1493.85;1044.00,1472.00;1043.00,1456.00;1035.00,1440.00;1025.00,1432.00;1011.00,1427.00;816.82,1427.87;805.59,1431.12;803.13,1440.18;802.54,1601.96;702.69,1623.92;695.70,1620.67;692.00,1614.00;691.76,1567.50;688.00,1551.00;671.00,1542.00;648.00,1542.00;635.00,1549.00;628.94,1563.96;629.00,1604.00;615.55,1622.64;595.00,1643.00;587.00,1646.00;569.46,1642.73;532.00,1607.00;529.00,1600.00;528.00,1560.00;522.79,1549.78;513.00,1546.00;472.77,1544.16;466.76,1542.49;463.81,1535.30;462.00,1501.00;465.78,1492.17;474.44,1488.63;536.00,1489.00;547.51,1483.51;554.60,1472.28;554.50,1397.45;558.00,1394.00;559.22,1380.31;564.25,1371.55;576.65,1367.02;595.76,1366.04;784.00,1366.00;805.20,1344.47;856.00,1344.00;887.32,1343.78;894.00,1352.00;903.00,1355.00;912.00,1352.00;917.00,1344.00;915.68,1332.75;903.47,1326.55;891.00,1331.00;806.00,1331.00;796.00,1324.00;750.25,1324.09;727.90,1345.06;699.00,1345.00;691.00,1337.00;690.00,1300.00;683.69,1293.86;669.00,1294.00;641.84,1322.91;629.23,1328.52;464.89,1330.00;457.51,1335.81;458.00,1359.00;453.00,1366.00;441.00,1369.00;420.00,1368.00;401.38,1377.26;379.00,1399.00;362.09,1412.12;361.99,1419.01;370.26,1424.72;376.00,1434.00;387.00,1433.58;393.50,1425.90;431.81,1425.90;436.04,1430.14;439.00,1436.00;437.81,1471.00;431.00,1478.00;393.00,1478.00;387.00,1471.00;386.00,1457.00;376.00,1457.00;358.00,1472.00;338.16,1469.43;326.35,1456.13;314.14,1456.82;312.00,1475.00;307.00,1479.00;288.14,1479.37;282.00,1473.00;278.00,1454.00;279.00,1356.00;286.00,1347.00;323.00,1346.00;336.00,1338.00;341.00,1327.00;341.00,1299.00;339.00,1280.00;323.30,1267.17;287.00,1267.00;279.87,1257.62;280.95,1234.19;285.19,1231.43;301.44,1230.45;305.00,1226.00;304.00,1168.00;301.00,1165.00;284.00,1164.00;278.30,1159.35;278.30,1064.04;282.33,1057.44;291.00,1057.00;302.42,1049.26;308.23,1048.67;312.37,1052.22;313.05,1065.91;322.86,1066.02;332.00,1056.00;345.73,1050.87;360.00,1037.00;373.00,1024.00;375.63,1016.31;374.86,1003.31;374.71,982.89" data-editor-point-modes="c;s;c;c;c;c;s;c;c;c;s;c;c;c;c;c;c;s;c;c;s;c;c;c;c;s;s;s;s;s;c;c;c;c;c;c;c;c;s;c;c;s;c;c;c;s;c;s;c;s;c;s;s;s;s;s;s;c;c;c;c;c;c;c;c;c;c;c;s;c;c;c;c;c;s;c;c;c;c;c;c;c;c;s;c;c;c;c;c;c;c;c;c;s;c;c;c;c;c;c;c;c;c;c;s;c;s;s;c;s;c;c;s;c;c;c;c;c;c;c;c;c;c;s;c;c;c;c;c;c;s;c;s;s;s;s;s;s;c;c;s;c;c;c;s;c;s;s;s;s;s;s;s;s;c;s;s;c;c;c;s;c;c;s;c;c;s;c;c;s;c;c;c;c;s;c;c;c;c;c;c;s;s;s;s;s;s;c;c;c;c;c;c;c;c;s;c;c;c;c;c;c;s;c;c;s;c;c;c;s;c;c;c;c;s;c;c;c;c;c;c;c;s;s;c;c;c;s;s;s;c;c;c;c;s;s;c;s;s;c;s;c;c;s;c;c;c;c;c;c;s;c;c;s;s;c;s;s;c;c;c;s;c;c" data-editor-holes="[{&quot;points&quot;:[[1092.14,1417.89],[1091.9,1471.63],[1125.68,1470.75],[1126.09,1523.87],[1119.45,1536.14],[1120.73,1544.69],[1142.85,1565.53],[1174.31,1565.53],[1184.33,1556.87],[1194.87,1544.74],[1213.91,1532.87],[1260.66,1532.22],[1268.85,1531.67],[1271.8,1525.12],[1271.8,1512.03],[1278.27,1504.92],[1278.67,1456.62],[1277.75,1432.44],[1280.18,1422.6],[1291.6,1412.46],[1299.83,1401.2],[1299.35,1380.28],[1288.33,1368.86],[1273,1368.3],[1062.49,1371.02],[1011.41,1368.83],[987.36,1371.02],[956.55,1369.83],[930.91,1373.21],[837.49,1370.82],[810.91,1371.25],[756.79,1370.82],[623.51,1371.76],[573.33,1372.52],[565.11,1378.64],[564.52,1391.23],[572.33,1399.37],[585.5,1398.19],[602.2,1385.86],[646.25,1385.19],[855.39,1385.95],[1006.54,1384.67],[1028.3,1384.14],[1168.23,1382.95],[1256.09,1382.95],[1276.43,1383.31],[1283.91,1389.11],[1283.86,1399.44],[1267.97,1417.01],[1264.77,1427.87],[1264.53,1455.74],[1255.83,1462.92],[1242.5,1461.33],[1240.19,1450.92],[1239.94,1417.73],[1236.99,1407.19],[1222.13,1404.79],[1099.25,1406.15],[1094.54,1410.22]],&quot;pointModes&quot;:[&quot;corner&quot;,&quot;corner&quot;,&quot;corner&quot;,&quot;corner&quot;,&quot;corner&quot;,&quot;corner&quot;,&quot;corner&quot;,&quot;corner&quot;,&quot;corner&quot;,&quot;smooth&quot;,&quot;smooth&quot;,&quot;corner&quot;,&quot;smooth&quot;,&quot;corner&quot;,&quot;smooth&quot;,&quot;corner&quot;,&quot;corner&quot;,&quot;corner&quot;,&quot;smooth&quot;,&quot;corner&quot;,&quot;smooth&quot;,&quot;smooth&quot;,&quot;smooth&quot;,&quot;corner&quot;,&quot;corner&quot;,&quot;corner&quot;,&quot;corner&quot;,&quot;corner&quot;,&quot;corner&quot;,&quot;corner&quot;,&quot;corner&quot;,&quot;corner&quot;,&quot;corner&quot;,&quot;corner&quot;,&quot;smooth&quot;,&quot;smooth&quot;,&quot;smooth&quot;,&quot;smooth&quot;,&quot;smooth&quot;,&quot;corner&quot;,&quot;corner&quot;,&quot;corner&quot;,&quot;corner&quot;,&quot;corner&quot;,&quot;corner&quot;,&quot;smooth&quot;,&quot;smooth&quot;,&quot;smooth&quot;,&quot;smooth&quot;,&quot;corner&quot;,&quot;smooth&quot;,&quot;corner&quot;,&quot;smooth&quot;,&quot;corner&quot;,&quot;corner&quot;,&quot;smooth&quot;,&quot;corner&quot;,&quot;corner&quot;,&quot;smooth&quot;]}]" />
  <path d="M 1160.42 1137.20 C 1162.75 1136.89 1167.44 1139.94 1167.44 1139.94 L 1173.03 1144.10 L 1182.73 1144.16 C 1182.73 1144.16 1186.60 1144.61 1187.67 1147.08 C 1188.73 1149.55 1189.09 1158.98 1189.09 1158.98 C 1189.09 1158.98 1187.40 1165.39 1186.59 1167.13 C 1185.79 1168.86 1184.27 1169.39 1184.27 1169.39 L 1178.09 1169.98 L 1175.02 1175.38 L 1167.26 1175.04 L 1167.44 1160.76 L 1174.82 1159.99 L 1179.28 1163.85 C 1179.28 1163.85 1183.06 1166.09 1183.92 1163.68 C 1184.78 1161.26 1184.45 1149.34 1184.45 1149.34 L 1172.79 1149.70 C 1172.79 1149.70 1169.36 1153.85 1166.61 1154.87 C 1163.85 1155.89 1156.26 1155.82 1156.26 1155.82 C 1156.26 1155.82 1152.50 1152.92 1152.03 1150.59 C 1151.57 1148.26 1152.06 1144.07 1153.46 1141.84 C 1154.86 1139.61 1158.09 1137.52 1160.42 1137.20 Z" data-net-id="back-gnd" data-net-label="GND" data-category="gnd" data-color="#000000" fill="#000000" fill-opacity="1" data-editor-kind="area" data-editor-mode-version="2" fill-rule="evenodd" clip-rule="evenodd" data-editor-points="1160.42,1137.20;1167.44,1139.94;1173.03,1144.10;1182.73,1144.16;1187.67,1147.08;1189.09,1158.98;1186.59,1167.13;1184.27,1169.39;1178.09,1169.98;1175.02,1175.38;1167.26,1175.04;1167.44,1160.76;1174.82,1159.99;1179.28,1163.85;1183.92,1163.68;1184.45,1149.34;1172.79,1149.70;1166.61,1154.87;1156.26,1155.82;1152.03,1150.59;1153.46,1141.84" data-editor-point-modes="s;c;c;c;s;c;s;c;c;c;c;c;c;c;s;c;c;s;c;s;s" />
  <path d="M 1232.40 1167.24 L 1246.93 1168.01 L 1246.93 1175.98 L 1240.35 1178.78 L 1240.66 1182.19 L 1248.55 1189.39 L 1301.63 1189.07 C 1301.63 1189.07 1312.57 1181.71 1318.61 1180.24 C 1324.65 1178.76 1333.34 1179.24 1337.86 1180.24 C 1342.38 1181.24 1342.57 1184.38 1345.75 1186.23 C 1348.92 1188.09 1354.68 1188.69 1356.91 1191.37 C 1359.14 1194.06 1360.33 1199.72 1359.12 1202.32 C 1357.92 1204.91 1352.54 1207.02 1349.66 1206.93 C 1346.78 1206.85 1343.03 1204.28 1341.84 1201.82 C 1340.64 1199.36 1342.47 1192.16 1342.47 1192.16 C 1342.47 1192.16 1342.66 1186.47 1338.68 1185.22 C 1334.70 1183.97 1322.86 1184.34 1318.61 1184.65 C 1314.36 1184.97 1315.73 1185.83 1313.18 1187.12 C 1310.64 1188.40 1305.94 1191.38 1303.34 1192.35 C 1300.73 1193.33 1297.53 1192.98 1297.53 1192.98 L 1252.91 1193.55 C 1252.91 1193.55 1247.44 1193.62 1245.08 1192.35 C 1242.73 1191.09 1238.77 1185.98 1238.77 1185.98 L 1237.51 1178.41 L 1232.73 1175.44 L 1232.40 1167.24 Z" data-net-id="back-gnd" data-net-label="GND" data-category="gnd" data-color="#000000" fill="#000000" fill-opacity="1" data-editor-kind="area" data-editor-mode-version="2" fill-rule="evenodd" clip-rule="evenodd" data-editor-points="1232.40,1167.24;1246.93,1168.01;1246.93,1175.98;1240.35,1178.78;1240.66,1182.19;1248.55,1189.39;1301.63,1189.07;1318.61,1180.24;1337.86,1180.24;1345.75,1186.23;1356.91,1191.37;1359.12,1202.32;1349.66,1206.93;1341.84,1201.82;1342.47,1192.16;1338.68,1185.22;1318.61,1184.65;1313.18,1187.12;1303.34,1192.35;1297.53,1192.98;1252.91,1193.55;1245.08,1192.35;1238.77,1185.98;1237.51,1178.41;1232.73,1175.44" data-editor-point-modes="c;c;c;c;c;c;c;s;s;s;s;s;s;s;c;s;s;s;s;c;c;s;c;c;c" />
  <path d="M 1157.00 294.00 L 1171.00 294.00 L 1173.00 298.00 L 1170.00 299.00 L 1179.00 311.00 L 1225.00 357.00 L 1234.00 377.00 L 1235.00 429.00 L 1253.00 459.00 L 1255.00 480.00 L 1263.00 485.00 L 1302.00 529.00 L 1305.00 552.00 L 1303.00 648.00 L 1305.00 647.00 L 1306.00 666.00 L 1304.00 691.00 L 1296.00 697.00 L 1288.00 696.00 L 1282.00 688.00 L 1289.00 664.00 L 1286.00 642.00 L 1290.00 603.00 L 1288.00 534.00 L 1240.00 485.00 L 1236.00 456.00 L 1223.00 439.00 L 1224.00 433.00 L 1220.00 433.00 L 1221.00 392.00 L 1217.00 372.00 L 1202.00 351.00 L 1169.00 318.00 L 1156.00 311.00 L 1153.00 301.00 Z" data-net-id="back-vbat" data-net-label="VBAT" data-category="vbat" data-color="#ff3e00" fill="#ff3e00" fill-opacity="1" data-editor-kind="area" data-editor-mode-version="2" fill-rule="evenodd" clip-rule="evenodd" data-editor-points="1157.00,294.00;1171.00,294.00;1173.00,298.00;1170.00,299.00;1179.00,311.00;1225.00,357.00;1234.00,377.00;1235.00,429.00;1253.00,459.00;1255.00,480.00;1263.00,485.00;1302.00,529.00;1305.00,552.00;1303.00,648.00;1305.00,647.00;1306.00,666.00;1304.00,691.00;1296.00,697.00;1288.00,696.00;1282.00,688.00;1289.00,664.00;1286.00,642.00;1290.00,603.00;1288.00,534.00;1240.00,485.00;1236.00,456.00;1223.00,439.00;1224.00,433.00;1220.00,433.00;1221.00,392.00;1217.00,372.00;1202.00,351.00;1169.00,318.00;1156.00,311.00;1153.00,301.00" data-editor-point-modes="c;c;c;c;c;c;c;c;c;c;c;c;c;c;c;c;c;c;c;c;c;c;c;c;c;c;c;c;c;c;c;c;c;c;c" />
  <path d="M 1333.17 920.16 C 1333.17 920.16 1331.43 908.57 1334.13 906.23 C 1336.83 903.89 1345.96 904.09 1349.38 906.11 C 1352.80 908.13 1354.66 918.36 1354.66 918.36 L 1353.12 1099.47 C 1353.12 1099.47 1350.75 1102.02 1349.19 1102.88 C 1347.64 1103.73 1343.79 1104.58 1343.79 1104.58 L 1317.49 1104.80 L 1311.35 1108.88 L 1310.31 1113.76 L 1309.35 1144.06 L 1312.46 1147.83 L 1322.83 1148.87 L 1325.79 1143.61 L 1336.31 1144.06 L 1335.19 1165.76 L 1323.94 1166.20 L 1323.49 1159.53 L 1311.79 1158.94 L 1311.12 1162.28 L 1264.39 1162.05 L 1264.09 1133.91 L 1248.02 1134.87 L 1241.06 1139.76 L 1240.91 1144.72 L 1245.73 1148.05 L 1246.76 1155.24 L 1231.51 1154.79 L 1233.80 1147.83 L 1237.80 1144.65 L 1237.73 1137.83 L 1234.62 1132.58 L 1232.32 1118.80 C 1232.32 1118.80 1224.30 1104.97 1219.21 1101.47 C 1214.12 1097.96 1201.81 1097.77 1201.81 1097.77 L 1202.10 1104.36 L 1148.85 1104.28 L 1149.07 1046.07 L 1200.10 1045.25 L 1200.25 1060.81 L 1206.03 1064.51 C 1206.03 1064.51 1236.69 1063.72 1244.76 1064.73 C 1252.84 1065.75 1252.40 1067.89 1254.46 1070.58 C 1256.53 1073.28 1257.13 1080.88 1257.13 1080.88 L 1263.06 1084.80 L 1263.20 1077.55 L 1307.85 1076.97 L 1308.43 1086.76 C 1308.43 1086.76 1318.68 1086.51 1323.06 1083.65 C 1327.44 1080.79 1334.69 1069.60 1334.69 1069.60 L 1333.17 920.16 Z" data-net-id="back-vbat" data-net-label="VBAT" data-category="vbat" data-color="#ff3e00" fill="#ff3e00" fill-opacity="1" data-editor-kind="area" data-editor-mode-version="2" fill-rule="evenodd" clip-rule="evenodd" data-editor-points="1333.17,920.16;1334.13,906.23;1349.38,906.11;1354.66,918.36;1353.12,1099.47;1349.19,1102.88;1343.79,1104.58;1317.49,1104.80;1311.35,1108.88;1310.31,1113.76;1309.35,1144.06;1312.46,1147.83;1322.83,1148.87;1325.79,1143.61;1336.31,1144.06;1335.19,1165.76;1323.94,1166.20;1323.49,1159.53;1311.79,1158.94;1311.12,1162.28;1264.39,1162.05;1264.09,1133.91;1248.02,1134.87;1241.06,1139.76;1240.91,1144.72;1245.73,1148.05;1246.76,1155.24;1231.51,1154.79;1233.80,1147.83;1237.80,1144.65;1237.73,1137.83;1234.62,1132.58;1232.32,1118.80;1219.21,1101.47;1201.81,1097.77;1202.10,1104.36;1148.85,1104.28;1149.07,1046.07;1200.10,1045.25;1200.25,1060.81;1206.03,1064.51;1244.76,1064.73;1254.46,1070.58;1257.13,1080.88;1263.06,1084.80;1263.20,1077.55;1307.85,1076.97;1308.43,1086.76;1323.06,1083.65;1334.69,1069.60" data-editor-point-modes="c;s;s;c;c;s;c;c;c;c;c;c;c;c;c;c;c;c;c;c;c;c;c;c;c;c;c;c;c;c;c;c;c;s;c;c;c;c;c;c;c;s;s;c;c;c;c;c;s;c" />
  <path d="M 1468.00 1065.00 L 1484.00 1065.00 L 1491.00 1069.00 L 1491.00 1155.00 L 1488.00 1159.00 L 1463.00 1161.00 L 1445.00 1183.00 L 1443.00 1197.00 L 1449.00 1204.00 L 1451.00 1213.00 L 1463.00 1225.00 L 1487.00 1227.00 L 1491.00 1236.00 L 1473.00 1251.00 L 1474.00 1263.00 L 1465.00 1263.00 L 1466.00 1269.00 L 1451.00 1269.00 L 1439.00 1281.00 L 1433.00 1281.00 L 1432.00 1320.00 L 1435.00 1328.00 L 1447.00 1339.00 L 1486.00 1341.00 L 1491.00 1345.00 L 1493.00 1395.00 L 1487.00 1403.00 L 1477.00 1407.00 L 1475.00 1417.00 L 1469.00 1423.00 L 1469.00 1439.00 L 1449.00 1459.00 L 1445.00 1470.00 L 1432.00 1479.00 L 1409.00 1479.00 L 1395.00 1465.00 L 1391.00 1454.00 L 1393.00 1445.00 L 1379.00 1433.00 L 1375.00 1424.00 L 1375.00 1375.00 L 1363.00 1363.00 L 1361.00 1206.00 L 1371.00 1171.00 L 1351.00 1170.00 L 1351.00 1150.00 L 1356.00 1143.00 L 1369.00 1143.00 L 1372.00 1146.00 L 1373.00 1139.00 L 1369.00 1135.00 L 1349.00 1133.00 L 1349.00 1113.00 L 1360.00 1109.00 L 1377.00 1091.00 L 1391.00 1091.00 L 1405.00 1077.00 L 1414.00 1073.00 L 1434.00 1075.00 L 1444.00 1087.00 L 1455.00 1089.00 L 1455.00 1071.00 Z" data-net-id="back-vbat" data-net-label="VBAT" data-category="vbat" data-color="#ff3e00" fill="#ff3e00" fill-opacity="1" data-editor-kind="area" data-editor-mode-version="2" fill-rule="evenodd" clip-rule="evenodd" data-editor-points="1468.00,1065.00;1484.00,1065.00;1491.00,1069.00;1491.00,1155.00;1488.00,1159.00;1463.00,1161.00;1445.00,1183.00;1443.00,1197.00;1449.00,1204.00;1451.00,1213.00;1463.00,1225.00;1487.00,1227.00;1491.00,1236.00;1473.00,1251.00;1474.00,1263.00;1465.00,1263.00;1466.00,1269.00;1451.00,1269.00;1439.00,1281.00;1433.00,1281.00;1432.00,1320.00;1435.00,1328.00;1447.00,1339.00;1486.00,1341.00;1491.00,1345.00;1493.00,1395.00;1487.00,1403.00;1477.00,1407.00;1475.00,1417.00;1469.00,1423.00;1469.00,1439.00;1449.00,1459.00;1445.00,1470.00;1432.00,1479.00;1409.00,1479.00;1395.00,1465.00;1391.00,1454.00;1393.00,1445.00;1379.00,1433.00;1375.00,1424.00;1375.00,1375.00;1363.00,1363.00;1361.00,1206.00;1371.00,1171.00;1351.00,1170.00;1351.00,1150.00;1356.00,1143.00;1369.00,1143.00;1372.00,1146.00;1373.00,1139.00;1369.00,1135.00;1349.00,1133.00;1349.00,1113.00;1360.00,1109.00;1377.00,1091.00;1391.00,1091.00;1405.00,1077.00;1414.00,1073.00;1434.00,1075.00;1444.00,1087.00;1455.00,1089.00;1455.00,1071.00" data-editor-point-modes="c;c;c;c;c;c;c;c;c;c;c;c;c;c;c;c;c;c;c;c;c;c;c;c;c;c;c;c;c;c;c;c;c;c;c;c;c;c;c;c;c;c;c;c;c;c;c;c;c;c;c;c;c;c;c;c;c;c;c;c;c;c" />
  <path d="M 872.00 240.00 L 946.00 242.00 L 970.00 261.00 L 1024.00 316.00 L 1105.00 315.00 L 1128.00 340.00 L 1176.00 340.00 L 1188.00 347.00 L 1198.00 360.00 L 1200.00 381.00 L 1205.00 381.00 L 1206.00 385.00 L 1203.00 387.00 L 1216.00 404.00 L 1221.00 435.00 L 1232.00 451.00 L 1236.00 464.00 L 1238.00 489.00 L 1282.00 534.00 L 1286.00 544.00 L 1287.00 649.00 L 1284.00 658.00 L 1277.00 662.00 L 1233.00 662.00 L 1225.00 671.00 L 1228.00 696.00 L 1216.00 699.00 L 1209.00 692.00 L 1213.00 680.00 L 1212.00 586.00 L 1217.00 574.00 L 1247.00 545.00 L 1248.00 522.00 L 1243.00 512.00 L 1227.00 496.00 L 1223.00 464.00 L 1206.00 433.00 L 1205.00 410.00 L 1200.00 403.00 L 1184.00 393.00 L 1186.00 364.00 L 1175.00 353.00 L 1124.00 352.00 L 1102.00 330.00 L 1093.00 328.00 L 1009.00 329.00 L 987.00 326.00 L 981.00 328.00 L 968.00 342.00 L 912.00 342.00 L 890.00 320.00 L 867.00 318.00 L 861.00 314.00 L 858.00 280.00 L 852.00 274.00 L 838.00 274.00 L 832.00 279.00 L 830.00 312.00 L 824.00 318.00 L 760.00 319.00 L 750.00 313.00 L 752.00 275.00 L 760.00 270.00 L 790.00 270.00 L 796.00 264.00 L 797.00 250.00 L 803.00 242.00 Z" data-net-id="back-vcc" data-net-label="VCC" data-category="vcc" data-color="#ff0000" fill="#ff0000" fill-opacity="1" data-editor-kind="area" data-editor-mode-version="2" fill-rule="evenodd" clip-rule="evenodd" data-editor-points="872.00,240.00;946.00,242.00;970.00,261.00;1024.00,316.00;1105.00,315.00;1128.00,340.00;1176.00,340.00;1188.00,347.00;1198.00,360.00;1200.00,381.00;1205.00,381.00;1206.00,385.00;1203.00,387.00;1216.00,404.00;1221.00,435.00;1232.00,451.00;1236.00,464.00;1238.00,489.00;1282.00,534.00;1286.00,544.00;1287.00,649.00;1284.00,658.00;1277.00,662.00;1233.00,662.00;1225.00,671.00;1228.00,696.00;1216.00,699.00;1209.00,692.00;1213.00,680.00;1212.00,586.00;1217.00,574.00;1247.00,545.00;1248.00,522.00;1243.00,512.00;1227.00,496.00;1223.00,464.00;1206.00,433.00;1205.00,410.00;1200.00,403.00;1184.00,393.00;1186.00,364.00;1175.00,353.00;1124.00,352.00;1102.00,330.00;1093.00,328.00;1009.00,329.00;987.00,326.00;981.00,328.00;968.00,342.00;912.00,342.00;890.00,320.00;867.00,318.00;861.00,314.00;858.00,280.00;852.00,274.00;838.00,274.00;832.00,279.00;830.00,312.00;824.00,318.00;760.00,319.00;750.00,313.00;752.00,275.00;760.00,270.00;790.00,270.00;796.00,264.00;797.00,250.00;803.00,242.00" data-editor-point-modes="c;c;c;c;c;c;c;c;c;c;c;c;c;c;c;c;c;c;c;c;c;c;c;c;c;c;c;c;c;c;c;c;c;c;c;c;c;c;c;c;c;c;c;c;c;c;c;c;c;c;c;c;c;c;c;c;c;c;c;c;c;c;c;c;c;c;c" />
  <path d="M 787.00 461.00 L 800.00 464.00 L 802.00 481.00 L 818.00 496.00 L 822.00 504.00 L 823.00 551.00 L 814.00 561.00 L 787.00 561.00 L 780.00 558.00 L 777.00 552.00 L 777.00 487.00 L 781.00 481.00 L 781.00 466.00 Z" data-net-id="back-vcc" data-net-label="VCC" data-category="vcc" data-color="#ff0000" fill="#ff0000" fill-opacity="1" data-editor-kind="area" data-editor-mode-version="2" fill-rule="evenodd" clip-rule="evenodd" data-editor-points="787.00,461.00;800.00,464.00;802.00,481.00;818.00,496.00;822.00,504.00;823.00,551.00;814.00,561.00;787.00,561.00;780.00,558.00;777.00,552.00;777.00,487.00;781.00,481.00;781.00,466.00" data-editor-point-modes="c;c;c;c;c;c;c;c;c;c;c;c;c" />
  <path d="M 857.00 678.00 L 868.00 684.00 L 868.00 704.00 L 864.00 714.00 L 848.00 728.00 L 806.00 730.00 L 792.00 719.00 L 781.00 718.00 L 773.00 722.00 L 771.00 739.00 L 765.00 744.00 L 670.00 746.00 L 616.00 799.00 L 620.00 801.00 L 613.00 806.00 L 575.00 805.00 L 556.00 788.00 L 552.00 780.00 L 551.00 724.00 L 547.00 724.00 L 547.00 720.00 L 567.00 716.00 L 568.00 723.00 L 573.00 728.00 L 573.00 762.00 L 576.00 770.00 L 590.00 781.00 L 608.00 781.00 L 624.00 768.00 L 628.00 749.00 L 640.00 737.00 L 653.00 726.00 L 671.00 724.00 L 690.00 706.00 L 752.00 705.00 L 776.00 692.00 L 818.00 692.00 L 830.00 701.00 L 840.00 701.00 L 848.00 696.00 L 849.00 686.00 Z" data-net-id="back-vcc" data-net-label="VCC" data-category="vcc" data-color="#ff0000" fill="#ff0000" fill-opacity="1" data-editor-kind="area" data-editor-mode-version="2" fill-rule="evenodd" clip-rule="evenodd" data-editor-points="857.00,678.00;868.00,684.00;868.00,704.00;864.00,714.00;848.00,728.00;806.00,730.00;792.00,719.00;781.00,718.00;773.00,722.00;771.00,739.00;765.00,744.00;670.00,746.00;616.00,799.00;620.00,801.00;613.00,806.00;575.00,805.00;556.00,788.00;552.00,780.00;551.00,724.00;547.00,724.00;547.00,720.00;567.00,716.00;568.00,723.00;573.00,728.00;573.00,762.00;576.00,770.00;590.00,781.00;608.00,781.00;624.00,768.00;628.00,749.00;640.00,737.00;653.00,726.00;671.00,724.00;690.00,706.00;752.00,705.00;776.00,692.00;818.00,692.00;830.00,701.00;840.00,701.00;848.00,696.00;849.00,686.00" data-editor-point-modes="c;c;c;c;c;c;c;c;c;c;c;c;c;c;c;c;c;c;c;c;c;c;c;c;c;c;c;c;c;c;c;c;c;c;c;c;c;c;c;c;c" />
  <path d="M 462.00 683.00 L 476.00 685.00 L 477.00 698.00 L 460.00 726.00 L 429.00 755.00 L 425.00 763.00 L 408.00 763.00 L 399.00 767.00 L 395.00 773.00 L 395.00 827.00 L 392.00 832.00 L 395.00 840.00 L 395.00 864.00 L 393.00 873.00 L 380.00 873.00 L 374.00 870.00 L 373.00 861.00 L 383.00 847.00 L 380.00 842.00 L 382.00 834.00 L 379.00 817.00 L 383.00 816.00 L 384.00 810.00 L 384.00 766.00 L 400.00 742.00 L 424.00 739.00 L 445.00 719.00 L 451.00 711.00 L 450.00 704.00 L 455.00 691.00 Z" data-net-id="back-vcc" data-net-label="VCC" data-category="vcc" data-color="#ff0000" fill="#ff0000" fill-opacity="1" data-editor-kind="area" data-editor-mode-version="2" fill-rule="evenodd" clip-rule="evenodd" data-editor-points="462.00,683.00;476.00,685.00;477.00,698.00;460.00,726.00;429.00,755.00;425.00,763.00;408.00,763.00;399.00,767.00;395.00,773.00;395.00,827.00;392.00,832.00;395.00,840.00;395.00,864.00;393.00,873.00;380.00,873.00;374.00,870.00;373.00,861.00;383.00,847.00;380.00,842.00;382.00,834.00;379.00,817.00;383.00,816.00;384.00,810.00;384.00,766.00;400.00,742.00;424.00,739.00;445.00,719.00;451.00,711.00;450.00,704.00;455.00,691.00" data-editor-point-modes="c;c;c;c;c;c;c;c;c;c;c;c;c;c;c;c;c;c;c;c;c;c;c;c;c;c;c;c;c;c" />
  <path d="M 1236.00 928.00 L 1253.00 930.00 L 1258.00 938.00 L 1255.00 944.00 L 1255.00 978.00 L 1252.00 983.00 L 1240.00 987.00 L 1203.00 987.00 L 1200.00 1010.00 L 1190.00 1008.00 L 1176.00 1026.00 L 1148.00 1026.00 L 1140.00 1034.00 L 1142.00 1115.00 L 1216.00 1115.00 L 1224.00 1120.00 L 1226.00 1126.00 L 1224.00 1187.00 L 1208.00 1203.00 L 1210.00 1206.00 L 1205.00 1212.00 L 1200.00 1212.00 L 1192.00 1222.00 L 1178.00 1228.00 L 1084.00 1228.00 L 1067.00 1212.00 L 1049.00 1212.00 L 1041.00 1208.00 L 1040.00 1175.00 L 1036.00 1170.00 L 1028.00 1176.00 L 1022.00 1176.00 L 1021.00 1162.00 L 1031.00 1161.00 L 1045.00 1169.00 L 1044.00 1191.00 L 1047.00 1195.00 L 1078.00 1196.00 L 1092.00 1203.00 L 1107.00 1203.00 L 1112.00 1197.00 L 1112.00 1186.00 L 1116.00 1182.00 L 1180.00 1182.00 L 1194.00 1168.00 L 1194.00 1146.00 L 1184.00 1134.00 L 1132.00 1133.00 L 1122.00 1124.00 L 1120.00 1055.00 L 1115.00 1046.00 L 1096.00 1028.00 L 1094.00 1015.00 L 1088.00 1008.00 L 1071.00 1008.00 L 1052.00 1027.00 L 1046.00 1029.00 L 980.00 1029.00 L 952.00 1000.00 L 951.00 969.00 L 943.00 963.00 L 819.00 962.00 L 816.00 967.00 L 807.00 971.00 L 806.00 976.00 L 798.00 976.00 L 789.00 985.00 L 787.00 1004.00 L 794.00 1012.00 L 793.00 1022.00 L 789.00 1026.00 L 781.00 1026.00 L 774.00 1019.00 L 774.00 1013.00 L 780.00 1006.00 L 785.00 976.00 L 789.00 977.00 L 808.00 958.00 L 820.00 953.00 L 825.00 956.00 L 828.00 953.00 L 829.00 956.00 L 892.00 956.00 L 893.00 952.00 L 904.00 951.00 L 908.00 956.00 L 912.00 951.00 L 927.00 951.00 L 937.00 956.00 L 936.00 953.00 L 940.00 952.00 L 954.00 965.00 L 965.00 967.00 L 980.00 980.00 L 986.00 986.00 L 992.00 1004.00 L 1006.00 1007.00 L 1013.00 1005.00 L 1026.00 992.00 L 1045.00 991.00 L 1048.00 986.00 L 1044.00 981.00 L 1044.00 974.00 L 1050.00 968.00 L 1063.00 971.00 L 1061.00 989.00 L 1064.00 992.00 L 1143.00 991.00 L 1148.00 986.00 L 1149.00 948.00 L 1205.00 950.00 L 1222.00 932.00 Z" data-net-id="back-vcc" data-net-label="VCC" data-category="vcc" data-color="#ff0000" fill="#ff0000" fill-opacity="1" data-editor-kind="area" data-editor-mode-version="2" fill-rule="evenodd" clip-rule="evenodd" data-editor-points="1236.00,928.00;1253.00,930.00;1258.00,938.00;1255.00,944.00;1255.00,978.00;1252.00,983.00;1240.00,987.00;1203.00,987.00;1200.00,1010.00;1190.00,1008.00;1176.00,1026.00;1148.00,1026.00;1140.00,1034.00;1142.00,1115.00;1216.00,1115.00;1224.00,1120.00;1226.00,1126.00;1224.00,1187.00;1208.00,1203.00;1210.00,1206.00;1205.00,1212.00;1200.00,1212.00;1192.00,1222.00;1178.00,1228.00;1084.00,1228.00;1067.00,1212.00;1049.00,1212.00;1041.00,1208.00;1040.00,1175.00;1036.00,1170.00;1028.00,1176.00;1022.00,1176.00;1021.00,1162.00;1031.00,1161.00;1045.00,1169.00;1044.00,1191.00;1047.00,1195.00;1078.00,1196.00;1092.00,1203.00;1107.00,1203.00;1112.00,1197.00;1112.00,1186.00;1116.00,1182.00;1180.00,1182.00;1194.00,1168.00;1194.00,1146.00;1184.00,1134.00;1132.00,1133.00;1122.00,1124.00;1120.00,1055.00;1115.00,1046.00;1096.00,1028.00;1094.00,1015.00;1088.00,1008.00;1071.00,1008.00;1052.00,1027.00;1046.00,1029.00;980.00,1029.00;952.00,1000.00;951.00,969.00;943.00,963.00;819.00,962.00;816.00,967.00;807.00,971.00;806.00,976.00;798.00,976.00;789.00,985.00;787.00,1004.00;794.00,1012.00;793.00,1022.00;789.00,1026.00;781.00,1026.00;774.00,1019.00;774.00,1013.00;780.00,1006.00;785.00,976.00;789.00,977.00;808.00,958.00;820.00,953.00;825.00,956.00;828.00,953.00;829.00,956.00;892.00,956.00;893.00,952.00;904.00,951.00;908.00,956.00;912.00,951.00;927.00,951.00;937.00,956.00;936.00,953.00;940.00,952.00;954.00,965.00;965.00,967.00;980.00,980.00;986.00,986.00;992.00,1004.00;1006.00,1007.00;1013.00,1005.00;1026.00,992.00;1045.00,991.00;1048.00,986.00;1044.00,981.00;1044.00,974.00;1050.00,968.00;1063.00,971.00;1061.00,989.00;1064.00,992.00;1143.00,991.00;1148.00,986.00;1149.00,948.00;1205.00,950.00;1222.00,932.00" data-editor-point-modes="c;c;c;c;c;c;c;c;c;c;c;c;c;c;c;c;c;c;c;c;c;c;c;c;c;c;c;c;c;c;c;c;c;c;c;c;c;c;c;c;c;c;c;c;c;c;c;c;c;c;c;c;c;c;c;c;c;c;c;c;c;c;c;c;c;c;c;c;c;c;c;c;c;c;c;c;c;c;c;c;c;c;c;c;c;c;c;c;c;c;c;c;c;c;c;c;c;c;c;c;c;c;c;c;c;c;c;c;c;c;c;c" />
  <path d="M 486.00 939.00 L 528.00 948.00 L 534.00 964.00 L 541.00 971.00 L 551.00 971.00 L 556.00 976.00 L 557.00 1034.00 L 552.00 1045.00 L 532.00 1049.00 L 522.00 1058.00 L 523.00 1110.00 L 526.00 1107.00 L 542.00 1107.00 L 544.00 1114.00 L 541.00 1120.00 L 537.00 1120.00 L 536.00 1126.00 L 540.00 1130.00 L 551.00 1132.00 L 570.00 1131.00 L 571.00 1110.00 L 590.00 1110.00 L 592.00 1119.00 L 595.00 1120.00 L 592.00 1138.00 L 627.00 1170.00 L 631.00 1183.00 L 632.00 1209.00 L 661.00 1239.00 L 748.00 1241.00 L 793.00 1282.00 L 1005.00 1285.00 L 1012.00 1282.00 L 1111.00 1281.00 L 1124.00 1291.00 L 1145.00 1293.00 L 1164.00 1280.00 L 1167.00 1285.00 L 1180.00 1285.00 L 1184.00 1299.00 L 1189.00 1303.00 L 1183.00 1334.00 L 1173.00 1340.00 L 1172.00 1344.00 L 1168.00 1343.00 L 1158.00 1327.00 L 1126.00 1325.00 L 1108.00 1307.00 L 1094.00 1300.00 L 794.00 1302.00 L 786.00 1300.00 L 750.00 1264.00 L 739.00 1257.00 L 626.00 1257.00 L 619.00 1254.00 L 614.00 1243.00 L 614.00 1195.00 L 592.00 1168.00 L 567.00 1144.00 L 557.00 1144.00 L 546.00 1151.00 L 536.00 1151.00 L 519.00 1149.00 L 513.00 1143.00 L 510.00 1125.00 L 511.00 1066.00 L 507.00 1048.00 L 484.00 1025.00 L 481.00 1025.00 L 480.00 1033.00 L 473.00 1040.00 L 448.00 1040.00 L 444.00 1037.00 L 435.00 1039.00 L 429.00 1035.00 L 427.00 1023.00 L 431.00 995.00 L 431.00 951.00 L 481.00 947.00 Z" data-net-id="back-vcc" data-net-label="VCC" data-category="vcc" data-color="#ff0000" fill="#ff0000" fill-opacity="1" data-editor-kind="area" data-editor-mode-version="2" fill-rule="evenodd" clip-rule="evenodd" data-editor-points="486.00,939.00;528.00,948.00;534.00,964.00;541.00,971.00;551.00,971.00;556.00,976.00;557.00,1034.00;552.00,1045.00;532.00,1049.00;522.00,1058.00;523.00,1110.00;526.00,1107.00;542.00,1107.00;544.00,1114.00;541.00,1120.00;537.00,1120.00;536.00,1126.00;540.00,1130.00;551.00,1132.00;570.00,1131.00;571.00,1110.00;590.00,1110.00;592.00,1119.00;595.00,1120.00;592.00,1138.00;627.00,1170.00;631.00,1183.00;632.00,1209.00;661.00,1239.00;748.00,1241.00;793.00,1282.00;1005.00,1285.00;1012.00,1282.00;1111.00,1281.00;1124.00,1291.00;1145.00,1293.00;1164.00,1280.00;1167.00,1285.00;1180.00,1285.00;1184.00,1299.00;1189.00,1303.00;1183.00,1334.00;1173.00,1340.00;1172.00,1344.00;1168.00,1343.00;1158.00,1327.00;1126.00,1325.00;1108.00,1307.00;1094.00,1300.00;794.00,1302.00;786.00,1300.00;750.00,1264.00;739.00,1257.00;626.00,1257.00;619.00,1254.00;614.00,1243.00;614.00,1195.00;592.00,1168.00;567.00,1144.00;557.00,1144.00;546.00,1151.00;536.00,1151.00;519.00,1149.00;513.00,1143.00;510.00,1125.00;511.00,1066.00;507.00,1048.00;484.00,1025.00;481.00,1025.00;480.00,1033.00;473.00,1040.00;448.00,1040.00;444.00,1037.00;435.00,1039.00;429.00,1035.00;427.00,1023.00;431.00,995.00;431.00,951.00;481.00,947.00" data-editor-point-modes="c;c;c;c;c;c;c;c;c;c;c;c;c;c;c;c;c;c;c;c;c;c;c;c;c;c;c;c;c;c;c;c;c;c;c;c;c;c;c;c;c;c;c;c;c;c;c;c;c;c;c;c;c;c;c;c;c;c;c;c;c;c;c;c;c;c;c;c;c;c;c;c;c;c;c;c;c;c;c" />
  <path d="M 849.00 952.00 L 860.00 952.00 L 860.00 953.00 L 864.00 953.00 L 864.00 954.00 L 849.00 954.00 Z" data-net-id="back-vcc" data-net-label="VCC" data-category="vcc" data-color="#ff0000" fill="#ff0000" fill-opacity="1" data-editor-kind="area" data-editor-mode-version="2" fill-rule="evenodd" clip-rule="evenodd" data-editor-points="849.00,952.00;860.00,952.00;860.00,953.00;864.00,953.00;864.00,954.00;849.00,954.00" data-editor-point-modes="c;c;c;c;c;c" />
  <path d="M 418.00 1021.00 L 421.00 1023.00 L 420.00 1047.00 L 416.00 1034.00 Z" data-net-id="back-vcc" data-net-label="VCC" data-category="vcc" data-color="#ff0000" fill="#ff0000" fill-opacity="1" data-editor-kind="area" data-editor-mode-version="2" fill-rule="evenodd" clip-rule="evenodd" data-editor-points="418.00,1021.00;421.00,1023.00;420.00,1047.00;416.00,1034.00" data-editor-point-modes="c;c;c;c" />
  <path d="M 1103.00 1408.00 L 1227.00 1409.00 L 1240.00 1430.00 L 1237.00 1439.00 L 1238.00 1466.00 L 1264.00 1468.00 L 1267.00 1476.00 L 1256.00 1482.00 L 1232.00 1480.00 L 1225.00 1470.00 L 1224.00 1449.00 L 1214.00 1451.00 L 1207.00 1443.00 L 1210.00 1436.00 L 1226.00 1438.00 L 1225.00 1429.00 L 1108.00 1431.00 L 1099.00 1422.00 Z" data-net-id="back-vcc" data-net-label="VCC" data-category="vcc" data-color="#ff0000" fill="#ff0000" fill-opacity="1" data-editor-kind="area" data-editor-mode-version="2" fill-rule="evenodd" clip-rule="evenodd" data-editor-points="1103.00,1408.00;1227.00,1409.00;1240.00,1430.00;1237.00,1439.00;1238.00,1466.00;1264.00,1468.00;1267.00,1476.00;1256.00,1482.00;1232.00,1480.00;1225.00,1470.00;1224.00,1449.00;1214.00,1451.00;1207.00,1443.00;1210.00,1436.00;1226.00,1438.00;1225.00,1429.00;1108.00,1431.00;1099.00,1422.00" data-editor-point-modes="c;c;c;c;c;c;c;c;c;c;c;c;c;c;c;c;c;c" />
  <path d="M 1147.00 1514.00 L 1155.00 1517.00 L 1156.00 1530.00 L 1143.00 1534.00 L 1140.00 1544.00 L 1154.00 1545.00 L 1153.00 1560.00 L 1145.00 1560.00 L 1141.00 1555.00 L 1135.00 1554.00 L 1131.00 1545.00 L 1135.00 1522.00 L 1140.00 1516.00 Z" data-net-id="back-vcc" data-net-label="VCC" data-category="vcc" data-color="#ff0000" fill="#ff0000" fill-opacity="1" data-editor-kind="area" data-editor-mode-version="2" fill-rule="evenodd" clip-rule="evenodd" data-editor-points="1147.00,1514.00;1155.00,1517.00;1156.00,1530.00;1143.00,1534.00;1140.00,1544.00;1154.00,1545.00;1153.00,1560.00;1145.00,1560.00;1141.00,1555.00;1135.00,1554.00;1131.00,1545.00;1135.00,1522.00;1140.00,1516.00" data-editor-point-modes="c;c;c;c;c;c;c;c;c;c;c;c;c" />
</svg>
