<svg xmlns="http://www.w3.org/2000/svg" viewBox="0 0 1765 1765">
  <path d="M 772.00 141.00 L 783.00 148.00 L 787.00 184.00 L 792.00 184.00 L 792.00 177.00 L 796.00 174.00 L 812.00 176.00 L 809.00 184.00 L 811.00 213.00 L 792.00 223.00 L 695.00 224.00 L 693.00 226.00 L 696.00 228.00 L 683.00 231.00 L 653.00 264.00 L 653.00 288.00 L 664.00 284.00 L 674.00 285.00 L 675.00 305.00 L 671.00 307.00 L 673.00 314.00 L 689.00 315.00 L 691.00 294.00 L 709.00 293.00 L 714.00 297.00 L 712.00 316.00 L 744.00 320.00 L 766.00 345.00 L 767.00 425.00 L 763.00 434.00 L 736.00 461.00 L 732.00 495.00 L 710.00 520.00 L 708.00 594.00 L 701.00 600.00 L 664.00 602.00 L 648.00 617.00 L 647.00 648.00 L 598.00 648.00 L 596.00 645.00 L 596.00 599.00 L 624.00 598.00 L 637.00 583.00 L 637.00 494.00 L 640.00 482.00 L 709.00 411.00 L 722.00 409.00 L 733.00 399.00 L 736.00 394.00 L 736.00 365.00 L 720.00 350.00 L 672.00 350.00 L 654.00 344.00 L 602.00 291.00 L 600.00 248.00 L 592.00 245.00 L 566.00 245.00 L 564.00 248.00 L 557.00 245.00 L 531.00 245.00 L 517.00 253.00 L 511.00 261.00 L 511.00 349.00 L 506.00 356.00 L 497.00 360.00 L 510.00 386.00 L 508.00 427.00 L 499.00 438.00 L 480.00 443.00 L 470.00 439.00 L 459.00 424.00 L 453.00 422.00 L 454.00 434.00 L 462.00 448.00 L 461.00 568.00 L 407.00 637.00 L 402.00 640.00 L 373.00 638.00 L 367.00 630.00 L 365.00 594.00 L 358.00 590.00 L 348.00 575.00 L 348.00 555.00 L 353.00 542.00 L 361.00 532.00 L 382.00 540.00 L 392.00 550.00 L 424.00 550.00 L 436.00 537.00 L 437.00 511.00 L 422.00 495.00 L 378.00 496.00 L 371.00 491.00 L 372.00 451.00 L 375.00 448.00 L 401.00 446.00 L 383.00 430.00 L 384.00 411.00 L 400.00 391.00 L 388.00 389.00 L 384.00 397.00 L 373.00 403.00 L 352.00 403.00 L 347.00 396.00 L 346.00 382.00 L 353.00 361.00 L 344.00 353.00 L 358.00 354.00 L 371.00 350.00 L 383.00 355.00 L 430.00 355.00 L 439.00 352.00 L 493.00 294.00 L 492.00 218.00 L 500.00 204.00 L 518.00 191.00 L 535.00 185.00 L 558.00 184.00 L 562.00 208.00 L 576.00 224.00 L 584.00 226.00 L 590.00 233.00 L 623.00 234.00 L 632.00 232.00 L 645.00 218.00 L 645.00 213.00 L 654.00 208.00 L 657.00 199.00 L 656.00 169.00 L 664.00 161.00 L 733.00 160.00 L 740.00 164.00 L 746.00 162.00 L 761.00 145.00 Z" data-net-id="front-gnd" data-net-label="GND" data-category="gnd" data-color="#68f2a0" data-stroke-width="1" fill="#68f2a0" fill-opacity="1" data-editor-points="772.00,141.00;783.00,148.00;787.00,184.00;792.00,184.00;792.00,177.00;796.00,174.00;812.00,176.00;809.00,184.00;811.00,213.00;792.00,223.00;695.00,224.00;693.00,226.00;696.00,228.00;683.00,231.00;653.00,264.00;653.00,288.00;664.00,284.00;674.00,285.00;675.00,305.00;671.00,307.00;673.00,314.00;689.00,315.00;691.00,294.00;709.00,293.00;714.00,297.00;712.00,316.00;744.00,320.00;766.00,345.00;767.00,425.00;763.00,434.00;736.00,461.00;732.00,495.00;710.00,520.00;708.00,594.00;701.00,600.00;664.00,602.00;648.00,617.00;647.00,648.00;598.00,648.00;596.00,645.00;596.00,599.00;624.00,598.00;637.00,583.00;637.00,494.00;640.00,482.00;709.00,411.00;722.00,409.00;733.00,399.00;736.00,394.00;736.00,365.00;720.00,350.00;672.00,350.00;654.00,344.00;602.00,291.00;600.00,248.00;592.00,245.00;566.00,245.00;564.00,248.00;557.00,245.00;531.00,245.00;517.00,253.00;511.00,261.00;511.00,349.00;506.00,356.00;497.00,360.00;510.00,386.00;508.00,427.00;499.00,438.00;480.00,443.00;470.00,439.00;459.00,424.00;453.00,422.00;454.00,434.00;462.00,448.00;461.00,568.00;407.00,637.00;402.00,640.00;373.00,638.00;367.00,630.00;365.00,594.00;358.00,590.00;348.00,575.00;348.00,555.00;353.00,542.00;361.00,532.00;382.00,540.00;392.00,550.00;424.00,550.00;436.00,537.00;437.00,511.00;422.00,495.00;378.00,496.00;371.00,491.00;372.00,451.00;375.00,448.00;401.00,446.00;383.00,430.00;384.00,411.00;400.00,391.00;388.00,389.00;384.00,397.00;373.00,403.00;352.00,403.00;347.00,396.00;346.00,382.00;353.00,361.00;344.00,353.00;358.00,354.00;371.00,350.00;383.00,355.00;430.00,355.00;439.00,352.00;493.00,294.00;492.00,218.00;500.00,204.00;518.00,191.00;535.00,185.00;558.00,184.00;562.00,208.00;576.00,224.00;584.00,226.00;590.00,233.00;623.00,234.00;632.00,232.00;645.00,218.00;645.00,213.00;654.00,208.00;657.00,199.00;656.00,169.00;664.00,161.00;733.00,160.00;740.00,164.00;746.00,162.00;761.00,145.00" data-editor-point-modes="c;c;c;c;c;c;c;c;c;c;c;c;c;c;c;c;c;c;c;c;c;c;c;c;c;c;c;c;c;c;c;c;c;c;c;c;c;c;c;c;c;c;c;c;c;c;c;c;c;c;c;c;c;c;c;c;c;c;c;c;c;c;c;c;c;c;c;c;c;c;c;c;c;c;c;c;c;c;c;c;c;c;c;c;c;c;c;c;c;c;c;c;c;c;c;c;c;c;c;c;c;c;c;c;c;c;c;c;c;c;c;c;c;c;c;c;c;c;c;c;c;c;c;c;c;c;c;c;c;c;c;c;c;c" />
  <path d="M 866.00 150.00 L 871.00 150.00 L 878.00 157.00 L 875.00 174.00 L 879.00 181.00 L 879.00 212.00 L 871.00 215.00 L 862.00 214.00 L 860.00 208.00 L 858.00 158.00 Z" data-net-id="front-gnd" data-net-label="GND" data-category="gnd" data-color="#68f2a0" data-stroke-width="1" fill="#68f2a0" fill-opacity="1" data-editor-points="866.00,150.00;871.00,150.00;878.00,157.00;875.00,174.00;879.00,181.00;879.00,212.00;871.00,215.00;862.00,214.00;860.00,208.00;858.00,158.00" data-editor-point-modes="c;c;c;c;c;c;c;c;c;c" />
  <path d="M 1040.00 158.00 L 1076.00 158.00 L 1101.00 168.00 L 1103.00 216.00 L 1098.00 222.00 L 1084.00 224.00 L 1078.00 241.00 L 1073.00 246.00 L 1013.00 248.00 L 992.00 268.00 L 990.00 291.00 L 1010.00 314.00 L 1034.00 318.00 L 1064.00 348.00 L 1072.00 367.00 L 1067.00 379.00 L 1070.00 385.00 L 1079.00 383.00 L 1080.00 374.00 L 1095.00 375.00 L 1094.00 383.00 L 1084.00 393.00 L 1069.00 391.00 L 1064.00 386.00 L 1057.00 385.00 L 1059.00 380.00 L 1051.00 372.00 L 1051.00 360.00 L 1040.00 352.00 L 1030.00 352.00 L 1016.00 361.00 L 996.00 361.00 L 980.00 348.00 L 976.00 333.00 L 961.00 336.00 L 957.00 332.00 L 958.00 320.00 L 967.00 319.00 L 974.00 323.00 L 977.00 319.00 L 972.00 296.00 L 973.00 242.00 L 1005.00 210.00 L 1020.00 206.00 L 1022.00 165.00 L 1027.00 160.00 Z" data-net-id="front-gnd" data-net-label="GND" data-category="gnd" data-color="#68f2a0" data-stroke-width="1" fill="#68f2a0" fill-opacity="1" data-editor-points="1040.00,158.00;1076.00,158.00;1101.00,168.00;1103.00,216.00;1098.00,222.00;1084.00,224.00;1078.00,241.00;1073.00,246.00;1013.00,248.00;992.00,268.00;990.00,291.00;1010.00,314.00;1034.00,318.00;1064.00,348.00;1072.00,367.00;1067.00,379.00;1070.00,385.00;1079.00,383.00;1080.00,374.00;1095.00,375.00;1094.00,383.00;1084.00,393.00;1069.00,391.00;1064.00,386.00;1057.00,385.00;1059.00,380.00;1051.00,372.00;1051.00,360.00;1040.00,352.00;1030.00,352.00;1016.00,361.00;996.00,361.00;980.00,348.00;976.00,333.00;961.00,336.00;957.00,332.00;958.00,320.00;967.00,319.00;974.00,323.00;977.00,319.00;972.00,296.00;973.00,242.00;1005.00,210.00;1020.00,206.00;1022.00,165.00;1027.00,160.00" data-editor-point-modes="c;c;c;c;c;c;c;c;c;c;c;c;c;c;c;c;c;c;c;c;c;c;c;c;c;c;c;c;c;c;c;c;c;c;c;c;c;c;c;c;c;c;c;c;c;c" />
  <path d="M 1205.00 179.00 L 1245.00 189.00 L 1260.00 189.00 L 1272.00 197.00 L 1274.00 290.00 L 1278.00 309.00 L 1317.00 349.00 L 1333.00 354.00 L 1360.00 353.00 L 1366.00 360.00 L 1367.00 377.00 L 1372.00 391.00 L 1370.00 421.00 L 1374.00 437.00 L 1372.00 500.00 L 1363.00 516.00 L 1349.00 517.00 L 1336.00 524.00 L 1326.00 541.00 L 1326.00 632.00 L 1350.00 655.00 L 1436.00 655.00 L 1447.00 664.00 L 1455.00 678.00 L 1464.00 760.00 L 1486.00 902.00 L 1486.00 946.00 L 1483.00 965.00 L 1477.00 970.00 L 1443.00 971.00 L 1433.00 961.00 L 1431.00 804.00 L 1424.00 803.00 L 1421.00 816.00 L 1423.00 824.00 L 1395.00 826.00 L 1376.00 823.00 L 1376.00 806.00 L 1372.00 806.00 L 1376.00 802.00 L 1368.00 802.00 L 1365.00 824.00 L 1356.00 829.00 L 1307.00 783.00 L 1306.00 739.00 L 1312.00 731.00 L 1360.00 731.00 L 1364.00 736.00 L 1364.00 759.00 L 1368.00 770.00 L 1374.00 768.00 L 1374.00 739.00 L 1411.00 738.00 L 1415.00 733.00 L 1415.00 682.00 L 1408.00 671.00 L 1355.00 671.00 L 1341.00 667.00 L 1310.00 635.00 L 1306.00 608.00 L 1307.00 564.00 L 1297.00 549.00 L 1296.00 465.00 L 1290.00 460.00 L 1226.00 460.00 L 1207.00 472.00 L 1200.00 471.00 L 1195.00 479.00 L 1194.00 505.00 L 1190.00 509.00 L 1184.00 509.00 L 1184.00 516.00 L 1168.00 517.00 L 1165.00 514.00 L 1167.00 497.00 L 1182.00 497.00 L 1189.00 504.00 L 1187.00 484.00 L 1192.00 465.00 L 1227.00 452.00 L 1266.00 445.00 L 1266.00 437.00 L 1256.00 427.00 L 1254.00 418.00 L 1253.00 380.00 L 1266.00 360.00 L 1262.00 352.00 L 1250.00 350.00 L 1247.00 344.00 L 1246.00 248.00 L 1232.00 231.00 L 1208.00 230.00 L 1202.00 224.00 L 1201.00 182.00 Z" data-net-id="front-gnd" data-net-label="GND" data-category="gnd" data-color="#68f2a0" data-stroke-width="1" fill="#68f2a0" fill-opacity="1" data-editor-points="1205.00,179.00;1245.00,189.00;1260.00,189.00;1272.00,197.00;1274.00,290.00;1278.00,309.00;1317.00,349.00;1333.00,354.00;1360.00,353.00;1366.00,360.00;1367.00,377.00;1372.00,391.00;1370.00,421.00;1374.00,437.00;1372.00,500.00;1363.00,516.00;1349.00,517.00;1336.00,524.00;1326.00,541.00;1326.00,632.00;1350.00,655.00;1436.00,655.00;1447.00,664.00;1455.00,678.00;1464.00,760.00;1486.00,902.00;1486.00,946.00;1483.00,965.00;1477.00,970.00;1443.00,971.00;1433.00,961.00;1431.00,804.00;1424.00,803.00;1421.00,816.00;1423.00,824.00;1395.00,826.00;1376.00,823.00;1376.00,806.00;1372.00,806.00;1376.00,802.00;1368.00,802.00;1365.00,824.00;1356.00,829.00;1307.00,783.00;1306.00,739.00;1312.00,731.00;1360.00,731.00;1364.00,736.00;1364.00,759.00;1368.00,770.00;1374.00,768.00;1374.00,739.00;1411.00,738.00;1415.00,733.00;1415.00,682.00;1408.00,671.00;1355.00,671.00;1341.00,667.00;1310.00,635.00;1306.00,608.00;1307.00,564.00;1297.00,549.00;1296.00,465.00;1290.00,460.00;1226.00,460.00;1207.00,472.00;1200.00,471.00;1195.00,479.00;1194.00,505.00;1190.00,509.00;1184.00,509.00;1184.00,516.00;1168.00,517.00;1165.00,514.00;1167.00,497.00;1182.00,497.00;1189.00,504.00;1187.00,484.00;1192.00,465.00;1227.00,452.00;1266.00,445.00;1266.00,437.00;1256.00,427.00;1254.00,418.00;1253.00,380.00;1266.00,360.00;1262.00,352.00;1250.00,350.00;1247.00,344.00;1246.00,248.00;1232.00,231.00;1208.00,230.00;1202.00,224.00;1201.00,182.00" data-editor-point-modes="c;c;c;c;c;c;c;c;c;c;c;c;c;c;c;c;c;c;c;c;c;c;c;c;c;c;c;c;c;c;c;c;c;c;c;c;c;c;c;c;c;c;c;c;c;c;c;c;c;c;c;c;c;c;c;c;c;c;c;c;c;c;c;c;c;c;c;c;c;c;c;c;c;c;c;c;c;c;c;c;c;c;c;c;c;c;c;c;c;c;c;c;c;c" />
  <path d="M 687.00 246.00 L 696.00 247.00 L 684.00 250.00 L 681.00 272.00 L 682.00 251.00 Z" data-net-id="front-gnd" data-net-label="GND" data-category="gnd" data-color="#68f2a0" data-stroke-width="1" fill="#68f2a0" fill-opacity="1" data-editor-points="687.00,246.00;696.00,247.00;684.00,250.00;681.00,272.00;682.00,251.00" data-editor-point-modes="c;c;c;c;c" />
  <path d="M 1192.00 276.00 L 1207.00 277.00 L 1210.00 281.00 L 1207.00 307.00 L 1209.00 315.00 L 1203.00 320.00 L 1209.00 336.00 L 1205.00 339.00 L 1192.00 338.00 L 1192.00 328.00 L 1197.00 326.00 L 1197.00 321.00 L 1192.00 320.00 L 1178.00 333.00 L 1178.00 361.00 L 1161.00 364.00 L 1157.00 358.00 L 1157.00 336.00 L 1133.00 334.00 L 1132.00 319.00 L 1136.00 315.00 L 1175.00 317.00 L 1187.00 306.00 L 1187.00 282.00 Z" data-net-id="front-gnd" data-net-label="GND" data-category="gnd" data-color="#68f2a0" data-stroke-width="1" fill="#68f2a0" fill-opacity="1" data-editor-points="1192.00,276.00;1207.00,277.00;1210.00,281.00;1207.00,307.00;1209.00,315.00;1203.00,320.00;1209.00,336.00;1205.00,339.00;1192.00,338.00;1192.00,328.00;1197.00,326.00;1197.00,321.00;1192.00,320.00;1178.00,333.00;1178.00,361.00;1161.00,364.00;1157.00,358.00;1157.00,336.00;1133.00,334.00;1132.00,319.00;1136.00,315.00;1175.00,317.00;1187.00,306.00;1187.00,282.00" data-editor-point-modes="c;c;c;c;c;c;c;c;c;c;c;c;c;c;c;c;c;c;c;c;c;c;c;c" />
  <path d="M 330.00 363.00 L 326.00 401.00 L 343.00 423.00 L 331.00 416.00 L 323.00 403.00 L 324.00 380.00 Z" data-net-id="front-gnd" data-net-label="GND" data-category="gnd" data-color="#68f2a0" data-stroke-width="1" fill="#68f2a0" fill-opacity="1" data-editor-points="330.00,363.00;326.00,401.00;343.00,423.00;331.00,416.00;323.00,403.00;324.00,380.00" data-editor-point-modes="c;c;c;c;c;c" />
  <path d="M 362.00 518.00 L 360.00 532.00 L 357.00 533.00 L 356.00 527.00 Z" data-net-id="front-gnd" data-net-label="GND" data-category="gnd" data-color="#68f2a0" data-stroke-width="1" fill="#68f2a0" fill-opacity="1" data-editor-points="362.00,518.00;360.00,532.00;357.00,533.00;356.00,527.00" data-editor-point-modes="c;c;c;c" />
  <path d="M 1344.00 530.00 L 1352.00 536.00 L 1345.00 535.00 Z" data-net-id="front-gnd" data-net-label="GND" data-category="gnd" data-color="#68f2a0" data-stroke-width="1" fill="#68f2a0" fill-opacity="1" data-editor-points="1344.00,530.00;1352.00,536.00;1345.00,535.00" data-editor-point-modes="c;c;c" />
  <path d="M 1034.00 569.00 L 1044.00 570.00 L 1051.00 582.00 L 1056.00 582.00 L 1055.00 586.00 L 1066.00 591.00 L 1063.00 593.00 L 1083.00 594.00 L 1086.00 600.00 L 1086.00 643.00 L 1075.00 647.00 L 1069.00 644.00 L 1071.00 649.00 L 1066.00 650.00 L 1065.00 655.00 L 1053.00 664.00 L 1054.00 669.00 L 1050.00 668.00 L 1046.00 673.00 L 1038.00 672.00 L 1032.00 667.00 L 1033.00 588.00 L 1028.00 586.00 L 1028.00 574.00 Z" data-net-id="front-gnd" data-net-label="GND" data-category="gnd" data-color="#68f2a0" data-stroke-width="1" fill="#68f2a0" fill-opacity="1" data-editor-points="1034.00,569.00;1044.00,570.00;1051.00,582.00;1056.00,582.00;1055.00,586.00;1066.00,591.00;1063.00,593.00;1083.00,594.00;1086.00,600.00;1086.00,643.00;1075.00,647.00;1069.00,644.00;1071.00,649.00;1066.00,650.00;1065.00,655.00;1053.00,664.00;1054.00,669.00;1050.00,668.00;1046.00,673.00;1038.00,672.00;1032.00,667.00;1033.00,588.00;1028.00,586.00;1028.00,574.00" data-editor-point-modes="c;c;c;c;c;c;c;c;c;c;c;c;c;c;c;c;c;c;c;c;c;c;c;c" />
  <path d="M 783.00 720.00 L 799.00 720.00 L 793.00 724.00 L 798.00 727.00 L 795.00 740.00 L 784.00 742.00 L 780.00 736.00 L 773.00 738.00 L 777.00 735.00 L 777.00 724.00 Z" data-net-id="front-gnd" data-net-label="GND" data-category="gnd" data-color="#68f2a0" data-stroke-width="1" fill="#68f2a0" fill-opacity="1" data-editor-points="783.00,720.00;799.00,720.00;793.00,724.00;798.00,727.00;795.00,740.00;784.00,742.00;780.00,736.00;773.00,738.00;777.00,735.00;777.00,724.00" data-editor-point-modes="c;c;c;c;c;c;c;c;c;c" />
  <path d="M 514.00 758.00 L 525.00 760.00 L 530.00 767.00 L 544.00 767.00 L 544.00 776.00 L 533.00 777.00 L 526.00 774.00 L 514.00 778.00 L 504.00 774.00 L 467.00 775.00 L 456.00 782.00 L 454.00 795.00 L 462.00 802.00 L 461.00 882.00 L 456.00 885.00 L 430.00 885.00 L 416.00 890.00 L 406.00 885.00 L 403.00 873.00 L 405.00 866.00 L 437.00 864.00 L 437.00 854.00 L 432.00 845.00 L 432.00 803.00 L 440.00 796.00 L 445.00 774.00 L 464.00 762.00 L 504.00 762.00 Z" data-net-id="front-gnd" data-net-label="GND" data-category="gnd" data-color="#68f2a0" data-stroke-width="1" fill="#68f2a0" fill-opacity="1" data-editor-points="514.00,758.00;525.00,760.00;530.00,767.00;544.00,767.00;544.00,776.00;533.00,777.00;526.00,774.00;514.00,778.00;504.00,774.00;467.00,775.00;456.00,782.00;454.00,795.00;462.00,802.00;461.00,882.00;456.00,885.00;430.00,885.00;416.00,890.00;406.00,885.00;403.00,873.00;405.00,866.00;437.00,864.00;437.00,854.00;432.00,845.00;432.00,803.00;440.00,796.00;445.00,774.00;464.00,762.00;504.00,762.00" data-editor-point-modes="c;c;c;c;c;c;c;c;c;c;c;c;c;c;c;c;c;c;c;c;c;c;c;c;c;c;c;c" />
  <path d="M 660.00 780.00 L 672.00 782.00 L 674.00 793.00 L 660.00 804.00 L 656.00 832.00 L 641.00 833.00 L 635.00 825.00 L 635.00 805.00 L 632.00 803.00 L 629.00 808.00 L 621.00 810.00 L 617.00 805.00 L 617.00 794.00 L 625.00 793.00 L 634.00 798.00 L 638.00 784.00 Z" data-net-id="front-gnd" data-net-label="GND" data-category="gnd" data-color="#68f2a0" data-stroke-width="1" fill="#68f2a0" fill-opacity="1" data-editor-points="660.00,780.00;672.00,782.00;674.00,793.00;660.00,804.00;656.00,832.00;641.00,833.00;635.00,825.00;635.00,805.00;632.00,803.00;629.00,808.00;621.00,810.00;617.00,805.00;617.00,794.00;625.00,793.00;634.00,798.00;638.00,784.00" data-editor-point-modes="c;c;c;c;c;c;c;c;c;c;c;c;c;c;c;c" />
  <path d="M 1200.00 797.00 L 1208.00 821.00 L 1216.00 992.00 L 1256.00 1050.00 L 1216.00 1059.00 L 1209.00 1104.00 L 1225.00 1171.00 L 1193.00 1193.00 L 1109.00 1176.00 L 1087.00 1184.00 L 1128.00 1237.00 L 1119.00 1259.00 L 1064.00 1227.00 L 1040.00 1233.00 L 1031.00 1292.00 L 1038.00 1322.00 L 1096.00 1337.00 L 1112.00 1368.00 L 1144.00 1376.00 L 1148.00 1448.00 L 1215.00 1510.00 L 1240.00 1504.00 L 1237.00 1455.00 L 1270.00 1433.00 L 1284.00 1412.00 L 1232.00 1404.00 L 1219.00 1272.00 L 1197.00 1258.00 L 1204.00 1229.00 L 1274.00 1214.00 L 1311.00 1232.00 L 1340.00 1234.00 L 1344.00 1192.00 L 1276.00 1120.00 L 1269.00 1002.00 L 1278.00 979.00 L 1258.00 967.00 L 1280.00 962.00 L 1354.00 956.00 L 1388.00 970.00 L 1382.00 985.00 L 1361.00 997.00 L 1338.00 973.00 L 1327.00 1065.00 L 1350.00 1093.00 L 1356.00 1158.00 L 1368.00 1186.00 L 1418.00 1305.00 L 1371.00 1308.00 L 1353.00 1278.00 L 1350.00 1262.00 L 1318.00 1286.00 L 1315.00 1333.00 L 1348.00 1370.00 L 1342.00 1440.00 L 1290.00 1496.00 L 1286.00 1549.00 L 1002.00 1580.00 L 875.00 1594.00 L 704.00 1613.00 L 699.00 1560.00 L 660.00 1538.00 L 632.00 1560.00 L 608.00 1634.00 L 536.00 1611.00 L 498.00 1528.00 L 496.00 1460.00 L 481.00 1437.00 L 488.00 1356.00 L 479.00 1333.00 L 461.00 1343.00 L 468.00 1364.00 L 467.00 1447.00 L 448.00 1451.00 L 439.00 1407.00 L 382.00 1400.00 L 378.00 1458.00 L 363.00 1479.00 L 361.00 1484.00 L 354.00 1508.00 L 341.00 1538.00 L 337.00 1540.00 L 302.00 1536.00 L 284.00 1498.00 L 287.00 1352.00 L 324.00 1349.00 L 342.00 1336.00 L 341.00 1280.00 L 290.00 1269.00 L 285.00 1236.00 L 304.00 1232.00 L 307.00 1170.00 L 287.00 1167.00 L 284.00 1100.00 L 352.00 1048.00 L 377.00 1015.00 L 387.00 961.00 L 400.00 967.00 L 400.00 1024.00 L 384.00 1055.00 L 394.00 1063.00 L 450.00 1029.00 L 472.00 1036.00 L 482.00 1155.00 L 506.00 1190.00 L 488.00 1266.00 L 494.00 1288.00 L 515.00 1296.00 L 513.00 1372.00 L 519.00 1404.00 L 590.00 1404.00 L 595.00 1376.00 L 564.00 1368.00 L 556.00 1345.00 L 542.00 1274.00 L 611.00 1266.00 L 620.00 1317.00 L 610.00 1343.00 L 600.00 1377.00 L 606.00 1404.00 L 656.00 1412.00 L 662.00 1450.00 L 663.00 1462.00 L 728.00 1430.00 L 731.00 1396.00 L 679.00 1390.00 L 669.00 1337.00 L 641.00 1334.00 L 631.00 1203.00 L 641.00 1191.00 L 650.00 1198.00 L 652.00 1187.00 L 690.00 1200.00 L 794.00 1214.00 L 796.00 1261.00 L 759.00 1294.00 L 667.00 1302.00 L 672.00 1321.00 L 683.00 1314.00 L 682.00 1321.00 L 706.00 1308.00 L 750.00 1317.00 L 762.00 1355.00 L 808.00 1344.00 L 825.00 1297.00 L 883.00 1296.00 L 885.00 1340.00 L 914.00 1352.00 L 932.00 1286.00 L 894.00 1283.00 L 889.00 1241.00 L 863.00 1238.00 L 869.00 1197.00 L 966.00 1204.00 L 953.00 1386.00 L 873.00 1398.00 L 838.00 1490.00 L 884.00 1495.00 L 883.00 1533.00 L 919.00 1538.00 L 982.00 1496.00 L 1006.00 1505.00 L 1033.00 1496.00 L 1047.00 1472.00 L 1039.00 1440.00 L 985.00 1420.00 L 979.00 1178.00 L 963.00 1160.00 L 917.00 1175.00 L 799.00 1138.00 L 732.00 1128.00 L 698.00 1143.00 L 640.00 1138.00 L 581.00 1135.00 L 553.00 1112.00 L 534.00 1084.00 L 527.00 1065.00 L 530.00 1047.00 L 532.00 1044.00 L 557.00 1025.00 L 591.00 1008.00 L 673.00 1002.00 L 680.00 1030.00 L 662.00 1033.00 L 640.00 1041.00 L 583.00 1027.00 L 561.00 1032.00 L 559.00 1050.00 L 554.00 1033.00 L 539.00 1043.00 L 538.00 1080.00 L 549.00 1096.00 L 566.00 1096.00 L 589.00 1129.00 L 645.00 1120.00 L 673.00 1057.00 L 830.00 1062.00 L 841.00 1124.00 L 858.00 1098.00 L 855.00 1114.00 L 856.00 1140.00 L 874.00 1145.00 L 936.00 1136.00 L 942.00 1030.00 L 979.00 1132.00 L 1036.00 1135.00 L 1042.00 1118.00 L 1052.00 1106.00 L 1078.00 1102.00 L 1084.00 1070.00 L 1129.00 1036.00 L 1146.00 1049.00 L 1145.00 1067.00 L 1208.00 1055.00 L 1204.00 1049.00 L 1190.00 1052.00 L 1205.00 1044.00 L 1207.00 1031.00 L 1168.00 1024.00 L 1168.00 990.00 L 1203.00 933.00 L 1179.00 925.00 L 1157.00 928.00 L 1151.00 905.00 L 1131.00 875.00 L 1181.00 822.00 Z" data-net-id="front-gnd" data-net-label="GND" data-category="gnd" data-color="#68f2a0" data-stroke-width="1" fill="#68f2a0" fill-opacity="1" data-editor-points="1200.00,797.00;1208.00,821.00;1216.00,992.00;1256.00,1050.00;1216.00,1059.00;1209.00,1104.00;1225.00,1171.00;1193.00,1193.00;1109.00,1176.00;1087.00,1184.00;1128.00,1237.00;1119.00,1259.00;1064.00,1227.00;1040.00,1233.00;1031.00,1292.00;1038.00,1322.00;1096.00,1337.00;1112.00,1368.00;1144.00,1376.00;1148.00,1448.00;1215.00,1510.00;1240.00,1504.00;1237.00,1455.00;1270.00,1433.00;1284.00,1412.00;1232.00,1404.00;1219.00,1272.00;1197.00,1258.00;1204.00,1229.00;1274.00,1214.00;1311.00,1232.00;1340.00,1234.00;1344.00,1192.00;1276.00,1120.00;1269.00,1002.00;1278.00,979.00;1258.00,967.00;1280.00,962.00;1354.00,956.00;1388.00,970.00;1382.00,985.00;1361.00,997.00;1338.00,973.00;1327.00,1065.00;1350.00,1093.00;1356.00,1158.00;1368.00,1186.00;1418.00,1305.00;1371.00,1308.00;1353.00,1278.00;1350.00,1262.00;1318.00,1286.00;1315.00,1333.00;1348.00,1370.00;1342.00,1440.00;1290.00,1496.00;1286.00,1549.00;1002.00,1580.00;875.00,1594.00;704.00,1613.00;699.00,1560.00;660.00,1538.00;632.00,1560.00;608.00,1634.00;536.00,1611.00;498.00,1528.00;496.00,1460.00;481.00,1437.00;488.00,1356.00;479.00,1333.00;461.00,1343.00;468.00,1364.00;467.00,1447.00;448.00,1451.00;439.00,1407.00;382.00,1400.00;378.00,1458.00;363.00,1479.00;361.00,1484.00;354.00,1508.00;341.00,1538.00;337.00,1540.00;302.00,1536.00;284.00,1498.00;287.00,1352.00;324.00,1349.00;342.00,1336.00;341.00,1280.00;290.00,1269.00;285.00,1236.00;304.00,1232.00;307.00,1170.00;287.00,1167.00;284.00,1100.00;352.00,1048.00;377.00,1015.00;387.00,961.00;400.00,967.00;400.00,1024.00;384.00,1055.00;394.00,1063.00;450.00,1029.00;472.00,1036.00;482.00,1155.00;506.00,1190.00;488.00,1266.00;494.00,1288.00;515.00,1296.00;513.00,1372.00;519.00,1404.00;590.00,1404.00;595.00,1376.00;564.00,1368.00;556.00,1345.00;542.00,1274.00;611.00,1266.00;620.00,1317.00;610.00,1343.00;600.00,1377.00;606.00,1404.00;656.00,1412.00;662.00,1450.00;663.00,1462.00;728.00,1430.00;731.00,1396.00;679.00,1390.00;669.00,1337.00;641.00,1334.00;631.00,1203.00;641.00,1191.00;650.00,1198.00;652.00,1187.00;690.00,1200.00;794.00,1214.00;796.00,1261.00;759.00,1294.00;667.00,1302.00;672.00,1321.00;683.00,1314.00;682.00,1321.00;706.00,1308.00;750.00,1317.00;762.00,1355.00;808.00,1344.00;825.00,1297.00;883.00,1296.00;885.00,1340.00;914.00,1352.00;932.00,1286.00;894.00,1283.00;889.00,1241.00;863.00,1238.00;869.00,1197.00;966.00,1204.00;953.00,1386.00;873.00,1398.00;838.00,1490.00;884.00,1495.00;883.00,1533.00;919.00,1538.00;982.00,1496.00;1006.00,1505.00;1033.00,1496.00;1047.00,1472.00;1039.00,1440.00;985.00,1420.00;979.00,1178.00;963.00,1160.00;917.00,1175.00;799.00,1138.00;732.00,1128.00;698.00,1143.00;640.00,1138.00;581.00,1135.00;553.00,1112.00;534.00,1084.00;527.00,1065.00;530.00,1047.00;532.00,1044.00;557.00,1025.00;591.00,1008.00;673.00,1002.00;680.00,1030.00;662.00,1033.00;640.00,1041.00;583.00,1027.00;561.00,1032.00;559.00,1050.00;554.00,1033.00;539.00,1043.00;538.00,1080.00;549.00,1096.00;566.00,1096.00;589.00,1129.00;645.00,1120.00;673.00,1057.00;830.00,1062.00;841.00,1124.00;858.00,1098.00;855.00,1114.00;856.00,1140.00;874.00,1145.00;936.00,1136.00;942.00,1030.00;979.00,1132.00;1036.00,1135.00;1042.00,1118.00;1052.00,1106.00;1078.00,1102.00;1084.00,1070.00;1129.00,1036.00;1146.00,1049.00;1145.00,1067.00;1208.00,1055.00;1204.00,1049.00;1190.00,1052.00;1205.00,1044.00;1207.00,1031.00;1168.00,1024.00;1168.00,990.00;1203.00,933.00;1179.00,925.00;1157.00,928.00;1151.00,905.00;1131.00,875.00;1181.00,822.00" data-editor-point-modes="c;c;c;c;c;c;c;c;c;c;c;c;c;c;c;c;c;c;c;c;c;c;c;c;c;c;c;c;c;c;c;c;c;c;c;c;c;c;c;c;c;c;c;c;c;c;c;c;c;c;c;c;c;c;c;c;c;c;c;c;c;c;c;c;c;c;c;c;c;c;c;c;c;c;c;c;c;c;c;c;c;c;c;c;c;c;c;c;c;c;c;c;c;c;c;c;c;c;c;c;c;c;c;c;c;c;c;c;c;c;c;c;c;c;c;c;c;c;c;c;c;c;c;c;c;c;c;c;c;c;c;c;c;c;c;c;c;c;c;c;c;c;c;c;c;c;c;c;c;c;c;c;c;c;c;c;c;c;c;c;c;c;c;c;c;c;c;c;c;c;c;c;c;c;c;c;c;c;c;c;c;c;c;c;c;c;c;c;c;c;c;c;c;c;c;c;c;c;c;c;c;c;c;c;c;c;c;c;c;c;c;c;c;c;c;c;c;c;c;c;c;c;c;c;c;c" />
  <path d="M 1270.00 799.00 L 1292.00 800.00 L 1307.00 814.00 L 1309.00 827.00 L 1303.00 835.00 L 1307.00 850.00 L 1302.00 853.00 L 1291.00 850.00 L 1293.00 832.00 L 1280.00 830.00 L 1269.00 839.00 L 1274.00 842.00 L 1271.00 870.00 L 1242.00 872.00 L 1241.00 843.00 L 1248.00 842.00 L 1264.00 826.00 L 1264.00 807.00 Z" data-net-id="front-gnd" data-net-label="GND" data-category="gnd" data-color="#68f2a0" data-stroke-width="1" fill="#68f2a0" fill-opacity="1" data-editor-points="1270.00,799.00;1292.00,800.00;1307.00,814.00;1309.00,827.00;1303.00,835.00;1307.00,850.00;1302.00,853.00;1291.00,850.00;1293.00,832.00;1280.00,830.00;1269.00,839.00;1274.00,842.00;1271.00,870.00;1242.00,872.00;1241.00,843.00;1248.00,842.00;1264.00,826.00;1264.00,807.00" data-editor-point-modes="c;c;c;c;c;c;c;c;c;c;c;c;c;c;c;c;c;c" />
  <path d="M 271.00 1059.00 L 272.00 1094.00 L 269.00 1099.00 L 268.00 1065.00 Z" data-net-id="front-gnd" data-net-label="GND" data-category="gnd" data-color="#68f2a0" data-stroke-width="1" fill="#68f2a0" fill-opacity="1" data-editor-points="271.00,1059.00;272.00,1094.00;269.00,1099.00;268.00,1065.00" data-editor-point-modes="c;c;c;c" />
  <path d="M 911.00 1346.00 L 911.00 1351.00 L 902.00 1350.00 Z" data-net-id="front-gnd" data-net-label="GND" data-category="gnd" data-color="#68f2a0" data-stroke-width="1" fill="#68f2a0" fill-opacity="1" data-editor-points="911.00,1346.00;911.00,1351.00;902.00,1350.00" data-editor-point-modes="c;c;c" />
  <path d="M 908.00 1400.00 L 961.00 1400.00 L 968.00 1407.00 L 968.00 1429.00 L 956.00 1456.00 L 957.00 1467.00 L 952.00 1482.00 L 895.00 1482.00 L 895.00 1416.00 L 899.00 1406.00 Z" data-net-id="front-gnd" data-net-label="GND" data-category="gnd" data-color="#68f2a0" data-stroke-width="1" fill="#68f2a0" fill-opacity="1" data-editor-points="908.00,1400.00;961.00,1400.00;968.00,1407.00;968.00,1429.00;956.00,1456.00;957.00,1467.00;952.00,1482.00;895.00,1482.00;895.00,1416.00;899.00,1406.00" data-editor-point-modes="c;c;c;c;c;c;c;c;c;c" />
  <path d="M 1159.00 275.00 L 1173.00 278.00 L 1170.00 293.00 L 1174.00 304.00 L 1173.00 312.00 L 1168.00 315.00 L 1126.00 313.00 L 1124.00 328.00 L 1120.00 330.00 L 1087.00 328.00 L 1086.00 306.00 L 1089.00 303.00 L 1152.00 305.00 L 1160.00 295.00 L 1155.00 284.00 L 1155.00 278.00 Z" data-net-id="front-vbat" data-net-label="VBAT" data-category="vbat" data-color="#ff9d6e" data-stroke-width="1" fill="#ff9d6e" fill-opacity="1" data-editor-points="1159.00,275.00;1173.00,278.00;1170.00,293.00;1174.00,304.00;1173.00,312.00;1168.00,315.00;1126.00,313.00;1124.00,328.00;1120.00,330.00;1087.00,328.00;1086.00,306.00;1089.00,303.00;1152.00,305.00;1160.00,295.00;1155.00,284.00;1155.00,278.00" data-editor-point-modes="c;c;c;c;c;c;c;c;c;c;c;c;c;c;c;c" />
  <path d="M 1289.00 675.00 L 1304.00 679.00 L 1301.00 693.00 L 1303.00 786.00 L 1340.00 822.00 L 1350.00 844.00 L 1350.00 896.00 L 1354.00 918.00 L 1347.00 925.00 L 1340.00 924.00 L 1334.00 917.00 L 1334.00 908.00 L 1338.00 906.00 L 1335.00 842.00 L 1322.00 822.00 L 1294.00 797.00 L 1290.00 789.00 L 1289.00 695.00 L 1284.00 688.00 L 1285.00 677.00 Z" data-net-id="front-vbat" data-net-label="VBAT" data-category="vbat" data-color="#ff9d6e" data-stroke-width="1" fill="#ff9d6e" fill-opacity="1" data-editor-points="1289.00,675.00;1304.00,679.00;1301.00,693.00;1303.00,786.00;1340.00,822.00;1350.00,844.00;1350.00,896.00;1354.00,918.00;1347.00,925.00;1340.00,924.00;1334.00,917.00;1334.00,908.00;1338.00,906.00;1335.00,842.00;1322.00,822.00;1294.00,797.00;1290.00,789.00;1289.00,695.00;1284.00,688.00;1285.00,677.00" data-editor-point-modes="c;c;c;c;c;c;c;c;c;c;c;c;c;c;c;c;c;c;c;c" />
  <path d="M 1245.00 1064.00 L 1252.00 1066.00 L 1256.00 1072.00 L 1251.00 1084.00 L 1219.00 1085.00 L 1214.00 1081.00 L 1212.00 1073.00 L 1215.00 1066.00 Z" data-net-id="front-vbat" data-net-label="VBAT" data-category="vbat" data-color="#ff9d6e" data-stroke-width="1" fill="#ff9d6e" fill-opacity="1" data-editor-points="1245.00,1064.00;1252.00,1066.00;1256.00,1072.00;1251.00,1084.00;1219.00,1085.00;1214.00,1081.00;1212.00,1073.00;1215.00,1066.00" data-editor-point-modes="c;c;c;c;c;c;c;c" />
  <path d="M 1425.00 1065.00 L 1486.00 1065.00 L 1490.00 1071.00 L 1492.00 1093.00 L 1492.00 1131.00 L 1487.00 1152.00 L 1481.00 1158.00 L 1453.00 1160.00 L 1443.00 1168.00 L 1439.00 1178.00 L 1439.00 1204.00 L 1441.00 1212.00 L 1449.00 1221.00 L 1460.00 1225.00 L 1480.00 1225.00 L 1477.00 1222.00 L 1481.00 1222.00 L 1488.00 1229.00 L 1494.00 1263.00 L 1496.00 1373.00 L 1491.00 1398.00 L 1472.00 1408.00 L 1472.00 1446.00 L 1453.00 1465.00 L 1434.00 1472.00 L 1411.00 1469.00 L 1401.00 1453.00 L 1389.00 1445.00 L 1387.00 1412.00 L 1390.00 1380.00 L 1429.00 1339.00 L 1430.00 1240.00 L 1374.00 1184.00 L 1363.00 1168.00 L 1359.00 1126.00 L 1359.00 1087.00 L 1366.00 1072.00 L 1378.00 1066.00 Z" data-net-id="front-vbat" data-net-label="VBAT" data-category="vbat" data-color="#ff9d6e" data-stroke-width="1" fill="#ff9d6e" fill-opacity="1" data-editor-points="1425.00,1065.00;1486.00,1065.00;1490.00,1071.00;1492.00,1093.00;1492.00,1131.00;1487.00,1152.00;1481.00,1158.00;1453.00,1160.00;1443.00,1168.00;1439.00,1178.00;1439.00,1204.00;1441.00,1212.00;1449.00,1221.00;1460.00,1225.00;1480.00,1225.00;1477.00,1222.00;1481.00,1222.00;1488.00,1229.00;1494.00,1263.00;1496.00,1373.00;1491.00,1398.00;1472.00,1408.00;1472.00,1446.00;1453.00,1465.00;1434.00,1472.00;1411.00,1469.00;1401.00,1453.00;1389.00,1445.00;1387.00,1412.00;1390.00,1380.00;1429.00,1339.00;1430.00,1240.00;1374.00,1184.00;1363.00,1168.00;1359.00,1126.00;1359.00,1087.00;1366.00,1072.00;1378.00,1066.00" data-editor-point-modes="c;c;c;c;c;c;c;c;c;c;c;c;c;c;c;c;c;c;c;c;c;c;c;c;c;c;c;c;c;c;c;c;c;c;c;c;c;c" />
  <path d="M 1469.00 1211.00 L 1504.00 1214.00 L 1506.00 1226.00 L 1504.00 1227.00 L 1503.00 1219.00 L 1498.00 1214.00 Z" data-net-id="front-vbat" data-net-label="VBAT" data-category="vbat" data-color="#ff9d6e" data-stroke-width="1" fill="#ff9d6e" fill-opacity="1" data-editor-points="1469.00,1211.00;1504.00,1214.00;1506.00,1226.00;1504.00,1227.00;1503.00,1219.00;1498.00,1214.00" data-editor-point-modes="c;c;c;c;c;c" />
  <path d="M 1505.00 1232.00 L 1506.00 1232.00 L 1506.00 1233.00 L 1507.00 1233.00 L 1507.00 1239.00 L 1508.00 1239.00 L 1508.00 1245.00 L 1507.00 1245.00 L 1507.00 1246.00 L 1506.00 1246.00 L 1506.00 1245.00 L 1505.00 1245.00 Z" data-net-id="front-vbat" data-net-label="VBAT" data-category="vbat" data-color="#ff9d6e" data-stroke-width="1" fill="#ff9d6e" fill-opacity="1" data-editor-points="1505.00,1232.00;1506.00,1232.00;1506.00,1233.00;1507.00,1233.00;1507.00,1239.00;1508.00,1239.00;1508.00,1245.00;1507.00,1245.00;1507.00,1246.00;1506.00,1246.00;1506.00,1245.00;1505.00,1245.00" data-editor-point-modes="c;c;c;c;c;c;c;c;c;c;c;c" />
  <path d="M 1507.00 1295.00 L 1508.00 1390.00 L 1504.00 1363.00 L 1507.00 1352.00 Z" data-net-id="front-vbat" data-net-label="VBAT" data-category="vbat" data-color="#ff9d6e" data-stroke-width="1" fill="#ff9d6e" fill-opacity="1" data-editor-points="1507.00,1295.00;1508.00,1390.00;1504.00,1363.00;1507.00,1352.00" data-editor-point-modes="c;c;c;c" />
  <path d="M 1478.00 1453.00 L 1481.00 1453.00 L 1480.00 1461.00 L 1468.00 1471.00 Z" data-net-id="front-vbat" data-net-label="VBAT" data-category="vbat" data-color="#ff9d6e" data-stroke-width="1" fill="#ff9d6e" fill-opacity="1" data-editor-points="1478.00,1453.00;1481.00,1453.00;1480.00,1461.00;1468.00,1471.00" data-editor-point-modes="c;c;c;c" />
  <path d="M 561.00 249.00 L 566.00 250.00 L 566.00 254.00 L 576.00 250.00 L 592.00 251.00 L 593.00 265.00 L 584.00 268.00 L 565.00 266.00 L 559.00 270.00 L 534.00 267.00 L 527.00 269.00 L 527.00 328.00 L 530.00 333.00 L 528.00 412.00 L 539.00 457.00 L 534.00 462.00 L 510.00 461.00 L 499.00 475.00 L 501.00 501.00 L 478.00 503.00 L 478.00 512.00 L 490.00 517.00 L 492.00 526.00 L 498.00 531.00 L 498.00 539.00 L 478.00 539.00 L 477.00 572.00 L 458.00 600.00 L 459.00 607.00 L 462.00 607.00 L 459.00 625.00 L 484.00 652.00 L 486.00 732.00 L 522.00 732.00 L 524.00 706.00 L 520.00 702.00 L 520.00 696.00 L 537.00 694.00 L 539.00 700.00 L 536.00 702.00 L 536.00 723.00 L 566.00 722.00 L 572.00 728.00 L 572.00 735.00 L 560.00 746.00 L 464.00 747.00 L 455.00 737.00 L 455.00 695.00 L 466.00 680.00 L 466.00 664.00 L 441.00 639.00 L 440.00 605.00 L 465.00 565.00 L 465.00 498.00 L 485.00 482.00 L 487.00 468.00 L 496.00 455.00 L 505.00 448.00 L 516.00 446.00 L 521.00 440.00 L 515.00 416.00 L 516.00 329.00 L 515.00 297.00 L 511.00 287.00 L 515.00 267.00 L 512.00 264.00 L 515.00 264.00 L 522.00 250.00 L 526.00 255.00 L 531.00 255.00 L 543.00 250.00 L 558.00 253.00 Z" data-net-id="front-vcc" data-net-label="VCC" data-category="vcc" data-color="#6ec5ff" data-stroke-width="1" fill="#6ec5ff" fill-opacity="1" data-editor-points="561.00,249.00;566.00,250.00;566.00,254.00;576.00,250.00;592.00,251.00;593.00,265.00;584.00,268.00;565.00,266.00;559.00,270.00;534.00,267.00;527.00,269.00;527.00,328.00;530.00,333.00;528.00,412.00;539.00,457.00;534.00,462.00;510.00,461.00;499.00,475.00;501.00,501.00;478.00,503.00;478.00,512.00;490.00,517.00;492.00,526.00;498.00,531.00;498.00,539.00;478.00,539.00;477.00,572.00;458.00,600.00;459.00,607.00;462.00,607.00;459.00,625.00;484.00,652.00;486.00,732.00;522.00,732.00;524.00,706.00;520.00,702.00;520.00,696.00;537.00,694.00;539.00,700.00;536.00,702.00;536.00,723.00;566.00,722.00;572.00,728.00;572.00,735.00;560.00,746.00;464.00,747.00;455.00,737.00;455.00,695.00;466.00,680.00;466.00,664.00;441.00,639.00;440.00,605.00;465.00,565.00;465.00,498.00;485.00,482.00;487.00,468.00;496.00,455.00;505.00,448.00;516.00,446.00;521.00,440.00;515.00,416.00;516.00,329.00;515.00,297.00;511.00,287.00;515.00,267.00;512.00,264.00;515.00,264.00;522.00,250.00;526.00,255.00;531.00,255.00;543.00,250.00;558.00,253.00" data-editor-point-modes="c;c;c;c;c;c;c;c;c;c;c;c;c;c;c;c;c;c;c;c;c;c;c;c;c;c;c;c;c;c;c;c;c;c;c;c;c;c;c;c;c;c;c;c;c;c;c;c;c;c;c;c;c;c;c;c;c;c;c;c;c;c;c;c;c;c;c;c;c;c;c;c" />
  <path d="M 860.00 256.00 L 890.00 259.00 L 889.00 296.00 L 885.00 297.00 L 888.00 304.00 L 926.00 304.00 L 931.00 309.00 L 928.00 322.00 L 904.00 321.00 L 895.00 324.00 L 892.00 319.00 L 872.00 318.00 L 868.00 311.00 L 868.00 297.00 L 864.00 297.00 L 862.00 292.00 Z" data-net-id="front-vcc" data-net-label="VCC" data-category="vcc" data-color="#6ec5ff" data-stroke-width="1" fill="#6ec5ff" fill-opacity="1" data-editor-points="860.00,256.00;890.00,259.00;889.00,296.00;885.00,297.00;888.00,304.00;926.00,304.00;931.00,309.00;928.00,322.00;904.00,321.00;895.00,324.00;892.00,319.00;872.00,318.00;868.00,311.00;868.00,297.00;864.00,297.00;862.00,292.00" data-editor-point-modes="c;c;c;c;c;c;c;c;c;c;c;c;c;c;c;c" />
  <path d="M 755.00 276.00 L 764.00 276.00 L 770.00 281.00 L 770.00 322.00 L 775.00 328.00 L 795.00 347.00 L 819.00 350.00 L 831.00 365.00 L 832.00 426.00 L 827.00 439.00 L 805.00 461.00 L 805.00 468.00 L 809.00 467.00 L 808.00 470.00 L 805.00 472.00 L 804.00 469.00 L 802.00 477.00 L 793.00 482.00 L 783.00 479.00 L 782.00 469.00 L 784.00 463.00 L 818.00 427.00 L 818.00 367.00 L 813.00 363.00 L 797.00 362.00 L 782.00 355.00 L 752.00 320.00 L 733.00 309.00 L 728.00 285.00 L 746.00 285.00 L 746.00 293.00 L 741.00 299.00 L 745.00 306.00 L 750.00 301.00 L 751.00 278.00 Z" data-net-id="front-vcc" data-net-label="VCC" data-category="vcc" data-color="#6ec5ff" data-stroke-width="1" fill="#6ec5ff" fill-opacity="1" data-editor-points="755.00,276.00;764.00,276.00;770.00,281.00;770.00,322.00;775.00,328.00;795.00,347.00;819.00,350.00;831.00,365.00;832.00,426.00;827.00,439.00;805.00,461.00;805.00,468.00;809.00,467.00;808.00,470.00;805.00,472.00;804.00,469.00;802.00,477.00;793.00,482.00;783.00,479.00;782.00,469.00;784.00,463.00;818.00,427.00;818.00,367.00;813.00,363.00;797.00,362.00;782.00,355.00;752.00,320.00;733.00,309.00;728.00,285.00;746.00,285.00;746.00,293.00;741.00,299.00;745.00,306.00;750.00,301.00;751.00,278.00" data-editor-point-modes="c;c;c;c;c;c;c;c;c;c;c;c;c;c;c;c;c;c;c;c;c;c;c;c;c;c;c;c;c;c;c;c;c;c;c" />
  <path d="M 1189.00 379.00 L 1200.00 380.00 L 1203.00 383.00 L 1203.00 393.00 L 1178.00 419.00 L 1178.00 445.00 L 1182.00 452.00 L 1181.00 475.00 L 1152.00 477.00 L 1148.00 469.00 L 1149.00 455.00 L 1150.00 448.00 L 1158.00 443.00 L 1158.00 413.00 Z" data-net-id="front-vcc" data-net-label="VCC" data-category="vcc" data-color="#6ec5ff" data-stroke-width="1" fill="#6ec5ff" fill-opacity="1" data-editor-points="1189.00,379.00;1200.00,380.00;1203.00,383.00;1203.00,393.00;1178.00,419.00;1178.00,445.00;1182.00,452.00;1181.00,475.00;1152.00,477.00;1148.00,469.00;1149.00,455.00;1150.00,448.00;1158.00,443.00;1158.00,413.00" data-editor-point-modes="c;c;c;c;c;c;c;c;c;c;c;c;c;c" />
  <path d="M 806.00 541.00 L 814.00 544.00 L 815.00 549.00 L 817.00 546.00 L 818.00 553.00 L 813.00 561.00 L 800.00 564.00 L 796.00 574.00 L 806.00 592.00 L 843.00 612.00 L 862.00 632.00 L 862.00 660.00 L 859.00 665.00 L 862.00 677.00 L 870.00 685.00 L 870.00 692.00 L 866.00 696.00 L 856.00 697.00 L 850.00 692.00 L 851.00 680.00 L 846.00 660.00 L 848.00 646.00 L 845.00 645.00 L 848.00 640.00 L 843.00 632.00 L 838.00 632.00 L 836.00 636.00 L 836.00 632.00 L 832.00 634.00 L 832.00 630.00 L 828.00 631.00 L 826.00 628.00 L 838.00 631.00 L 843.00 627.00 L 788.00 590.00 L 790.00 587.00 L 786.00 584.00 L 786.00 570.00 L 797.00 555.00 L 798.00 547.00 Z" data-net-id="front-vcc" data-net-label="VCC" data-category="vcc" data-color="#6ec5ff" data-stroke-width="1" fill="#6ec5ff" fill-opacity="1" data-editor-points="806.00,541.00;814.00,544.00;815.00,549.00;817.00,546.00;818.00,553.00;813.00,561.00;800.00,564.00;796.00,574.00;806.00,592.00;843.00,612.00;862.00,632.00;862.00,660.00;859.00,665.00;862.00,677.00;870.00,685.00;870.00,692.00;866.00,696.00;856.00,697.00;850.00,692.00;851.00,680.00;846.00,660.00;848.00,646.00;845.00,645.00;848.00,640.00;843.00,632.00;838.00,632.00;836.00,636.00;836.00,632.00;832.00,634.00;832.00,630.00;828.00,631.00;826.00,628.00;838.00,631.00;843.00,627.00;788.00,590.00;790.00,587.00;786.00,584.00;786.00,570.00;797.00,555.00;798.00,547.00" data-editor-point-modes="c;c;c;c;c;c;c;c;c;c;c;c;c;c;c;c;c;c;c;c;c;c;c;c;c;c;c;c;c;c;c;c;c;c;c;c;c;c;c;c" />
  <path d="M 1271.00 548.00 L 1279.00 548.00 L 1285.00 554.00 L 1294.00 551.00 L 1297.00 567.00 L 1303.00 574.00 L 1302.00 593.00 L 1308.00 612.00 L 1308.00 639.00 L 1336.00 664.00 L 1341.00 662.00 L 1344.00 672.00 L 1358.00 670.00 L 1400.00 673.00 L 1414.00 687.00 L 1408.00 688.00 L 1406.00 705.00 L 1411.00 708.00 L 1409.00 714.00 L 1406.00 713.00 L 1401.00 720.00 L 1395.00 721.00 L 1371.00 720.00 L 1366.00 705.00 L 1370.00 694.00 L 1391.00 693.00 L 1393.00 688.00 L 1335.00 688.00 L 1332.00 684.00 L 1334.00 681.00 L 1295.00 646.00 L 1289.00 629.00 L 1276.00 632.00 L 1269.00 627.00 L 1270.00 614.00 L 1274.00 610.00 L 1290.00 613.00 L 1296.00 597.00 L 1292.00 582.00 L 1295.00 579.00 L 1293.00 570.00 L 1285.00 564.00 L 1282.00 571.00 L 1275.00 563.00 L 1271.00 563.00 L 1268.00 558.00 Z" data-net-id="front-vcc" data-net-label="VCC" data-category="vcc" data-color="#6ec5ff" data-stroke-width="1" fill="#6ec5ff" fill-opacity="1" data-editor-points="1271.00,548.00;1279.00,548.00;1285.00,554.00;1294.00,551.00;1297.00,567.00;1303.00,574.00;1302.00,593.00;1308.00,612.00;1308.00,639.00;1336.00,664.00;1341.00,662.00;1344.00,672.00;1358.00,670.00;1400.00,673.00;1414.00,687.00;1408.00,688.00;1406.00,705.00;1411.00,708.00;1409.00,714.00;1406.00,713.00;1401.00,720.00;1395.00,721.00;1371.00,720.00;1366.00,705.00;1370.00,694.00;1391.00,693.00;1393.00,688.00;1335.00,688.00;1332.00,684.00;1334.00,681.00;1295.00,646.00;1289.00,629.00;1276.00,632.00;1269.00,627.00;1270.00,614.00;1274.00,610.00;1290.00,613.00;1296.00,597.00;1292.00,582.00;1295.00,579.00;1293.00,570.00;1285.00,564.00;1282.00,571.00;1275.00,563.00;1271.00,563.00;1268.00,558.00" data-editor-point-modes="c;c;c;c;c;c;c;c;c;c;c;c;c;c;c;c;c;c;c;c;c;c;c;c;c;c;c;c;c;c;c;c;c;c;c;c;c;c;c;c;c;c;c;c;c;c" />
  <path d="M 1302.00 554.00 L 1310.00 563.00 L 1310.00 592.00 L 1304.00 585.00 L 1307.00 568.00 Z" data-net-id="front-vcc" data-net-label="VCC" data-category="vcc" data-color="#6ec5ff" data-stroke-width="1" fill="#6ec5ff" fill-opacity="1" data-editor-points="1302.00,554.00;1310.00,563.00;1310.00,592.00;1304.00,585.00;1307.00,568.00" data-editor-point-modes="c;c;c;c;c" />
  <path d="M 1188.00 644.00 L 1224.00 644.00 L 1224.00 668.00 L 1227.00 669.00 L 1223.00 672.00 L 1224.00 677.00 L 1248.00 697.00 L 1277.00 698.00 L 1284.00 705.00 L 1285.00 791.00 L 1281.00 796.00 L 1264.00 798.00 L 1260.00 804.00 L 1259.00 821.00 L 1245.00 827.00 L 1233.00 842.00 L 1235.00 926.00 L 1240.00 929.00 L 1312.00 928.00 L 1318.00 923.00 L 1318.00 888.00 L 1296.00 885.00 L 1289.00 866.00 L 1291.00 861.00 L 1308.00 862.00 L 1309.00 868.00 L 1304.00 879.00 L 1320.00 879.00 L 1326.00 883.00 L 1327.00 922.00 L 1335.00 928.00 L 1373.00 926.00 L 1377.00 921.00 L 1377.00 893.00 L 1375.00 894.00 L 1374.00 888.00 L 1376.00 873.00 L 1380.00 870.00 L 1416.00 869.00 L 1424.00 875.00 L 1424.00 952.00 L 1416.00 955.00 L 1386.00 955.00 L 1378.00 951.00 L 1243.00 953.00 L 1237.00 962.00 L 1229.00 963.00 L 1228.00 968.00 L 1235.00 970.00 L 1247.00 967.00 L 1246.00 980.00 L 1228.00 979.00 L 1221.00 974.00 L 1219.00 835.00 L 1237.00 813.00 L 1237.00 808.00 L 1231.00 803.00 L 1232.00 797.00 L 1245.00 796.00 L 1247.00 802.00 L 1242.00 813.00 L 1246.00 817.00 L 1251.00 813.00 L 1253.00 777.00 L 1264.00 766.00 L 1267.00 757.00 L 1267.00 728.00 L 1261.00 719.00 L 1247.00 718.00 L 1241.00 722.00 L 1240.00 751.00 L 1217.00 771.00 L 1211.00 772.00 L 1214.00 782.00 L 1204.00 787.00 L 1198.00 785.00 L 1197.00 775.00 L 1190.00 775.00 L 1186.00 780.00 L 1174.00 784.00 L 1140.00 783.00 L 1115.00 768.00 L 1088.00 768.00 L 1073.00 758.00 L 1060.00 743.00 L 1007.00 741.00 L 1017.00 737.00 L 1060.00 738.00 L 1090.00 759.00 L 1124.00 766.00 L 1139.00 775.00 L 1155.00 776.00 L 1157.00 772.00 L 1168.00 772.00 L 1179.00 777.00 L 1193.00 766.00 L 1216.00 764.00 L 1231.00 747.00 L 1232.00 712.00 L 1220.00 700.00 L 1204.00 699.00 L 1198.00 695.00 L 1197.00 673.00 L 1194.00 668.00 L 1186.00 667.00 Z" data-net-id="front-vcc" data-net-label="VCC" data-category="vcc" data-color="#6ec5ff" data-stroke-width="1" fill="#6ec5ff" fill-opacity="1" data-editor-points="1188.00,644.00;1224.00,644.00;1224.00,668.00;1227.00,669.00;1223.00,672.00;1224.00,677.00;1248.00,697.00;1277.00,698.00;1284.00,705.00;1285.00,791.00;1281.00,796.00;1264.00,798.00;1260.00,804.00;1259.00,821.00;1245.00,827.00;1233.00,842.00;1235.00,926.00;1240.00,929.00;1312.00,928.00;1318.00,923.00;1318.00,888.00;1296.00,885.00;1289.00,866.00;1291.00,861.00;1308.00,862.00;1309.00,868.00;1304.00,879.00;1320.00,879.00;1326.00,883.00;1327.00,922.00;1335.00,928.00;1373.00,926.00;1377.00,921.00;1377.00,893.00;1375.00,894.00;1374.00,888.00;1376.00,873.00;1380.00,870.00;1416.00,869.00;1424.00,875.00;1424.00,952.00;1416.00,955.00;1386.00,955.00;1378.00,951.00;1243.00,953.00;1237.00,962.00;1229.00,963.00;1228.00,968.00;1235.00,970.00;1247.00,967.00;1246.00,980.00;1228.00,979.00;1221.00,974.00;1219.00,835.00;1237.00,813.00;1237.00,808.00;1231.00,803.00;1232.00,797.00;1245.00,796.00;1247.00,802.00;1242.00,813.00;1246.00,817.00;1251.00,813.00;1253.00,777.00;1264.00,766.00;1267.00,757.00;1267.00,728.00;1261.00,719.00;1247.00,718.00;1241.00,722.00;1240.00,751.00;1217.00,771.00;1211.00,772.00;1214.00,782.00;1204.00,787.00;1198.00,785.00;1197.00,775.00;1190.00,775.00;1186.00,780.00;1174.00,784.00;1140.00,783.00;1115.00,768.00;1088.00,768.00;1073.00,758.00;1060.00,743.00;1007.00,741.00;1017.00,737.00;1060.00,738.00;1090.00,759.00;1124.00,766.00;1139.00,775.00;1155.00,776.00;1157.00,772.00;1168.00,772.00;1179.00,777.00;1193.00,766.00;1216.00,764.00;1231.00,747.00;1232.00,712.00;1220.00,700.00;1204.00,699.00;1198.00,695.00;1197.00,673.00;1194.00,668.00;1186.00,667.00" data-editor-point-modes="c;c;c;c;c;c;c;c;c;c;c;c;c;c;c;c;c;c;c;c;c;c;c;c;c;c;c;c;c;c;c;c;c;c;c;c;c;c;c;c;c;c;c;c;c;c;c;c;c;c;c;c;c;c;c;c;c;c;c;c;c;c;c;c;c;c;c;c;c;c;c;c;c;c;c;c;c;c;c;c;c;c;c;c;c;c;c;c;c;c;c;c;c;c;c;c;c;c;c;c;c;c;c;c;c" />
  <path d="M 1260.00 690.00 L 1267.00 690.00 L 1267.00 693.00 L 1259.00 694.00 Z" data-net-id="front-vcc" data-net-label="VCC" data-category="vcc" data-color="#6ec5ff" data-stroke-width="1" fill="#6ec5ff" fill-opacity="1" data-editor-points="1260.00,690.00;1267.00,690.00;1267.00,693.00;1259.00,694.00" data-editor-point-modes="c;c;c;c" />
  <path d="M 757.00 714.00 L 767.00 714.00 L 774.00 720.00 L 774.00 728.00 L 769.00 737.00 L 771.00 753.00 L 767.00 757.00 L 761.00 752.00 L 760.00 741.00 L 753.00 729.00 L 755.00 719.00 L 752.00 717.00 Z" data-net-id="front-vcc" data-net-label="VCC" data-category="vcc" data-color="#6ec5ff" data-stroke-width="1" fill="#6ec5ff" fill-opacity="1" data-editor-points="757.00,714.00;767.00,714.00;774.00,720.00;774.00,728.00;769.00,737.00;771.00,753.00;767.00,757.00;761.00,752.00;760.00,741.00;753.00,729.00;755.00,719.00;752.00,717.00" data-editor-point-modes="c;c;c;c;c;c;c;c;c;c;c;c" />
  <path d="M 579.00 780.00 L 592.00 781.00 L 597.00 793.00 L 608.00 794.00 L 609.00 805.00 L 607.00 809.00 L 599.00 809.00 L 592.00 799.00 L 584.00 800.00 L 578.00 808.00 L 580.00 820.00 L 567.00 823.00 L 562.00 814.00 L 567.00 808.00 L 572.00 808.00 L 575.00 801.00 L 573.00 788.00 Z" data-net-id="front-vcc" data-net-label="VCC" data-category="vcc" data-color="#6ec5ff" data-stroke-width="1" fill="#6ec5ff" fill-opacity="1" data-editor-points="579.00,780.00;592.00,781.00;597.00,793.00;608.00,794.00;609.00,805.00;607.00,809.00;599.00,809.00;592.00,799.00;584.00,800.00;578.00,808.00;580.00,820.00;567.00,823.00;562.00,814.00;567.00,808.00;572.00,808.00;575.00,801.00;573.00,788.00" data-editor-point-modes="c;c;c;c;c;c;c;c;c;c;c;c;c;c;c;c;c" />
  <path d="M 380.00 854.00 L 390.00 854.00 L 396.00 860.00 L 399.00 904.00 L 404.00 909.00 L 432.00 912.00 L 488.00 911.00 L 501.00 916.00 L 503.00 980.00 L 472.00 1011.00 L 455.00 1012.00 L 448.00 1010.00 L 444.00 1004.00 L 441.00 935.00 L 432.00 929.00 L 406.00 929.00 L 389.00 913.00 L 384.00 903.00 L 386.00 878.00 L 376.00 867.00 Z" data-net-id="front-vcc" data-net-label="VCC" data-category="vcc" data-color="#6ec5ff" data-stroke-width="1" fill="#6ec5ff" fill-opacity="1" data-editor-points="380.00,854.00;390.00,854.00;396.00,860.00;399.00,904.00;404.00,909.00;432.00,912.00;488.00,911.00;501.00,916.00;503.00,980.00;472.00,1011.00;455.00,1012.00;448.00,1010.00;444.00,1004.00;441.00,935.00;432.00,929.00;406.00,929.00;389.00,913.00;384.00,903.00;386.00,878.00;376.00,867.00" data-editor-point-modes="c;c;c;c;c;c;c;c;c;c;c;c;c;c;c;c;c;c;c;c" />
  <path d="M 540.00 903.00 L 549.00 904.00 L 535.00 911.00 L 530.00 927.00 L 531.00 913.00 Z" data-net-id="front-vcc" data-net-label="VCC" data-category="vcc" data-color="#6ec5ff" data-stroke-width="1" fill="#6ec5ff" fill-opacity="1" data-editor-points="540.00,903.00;549.00,904.00;535.00,911.00;530.00,927.00;531.00,913.00" data-editor-point-modes="c;c;c;c;c" />
  <path d="M 626.00 912.00 L 634.00 916.00 L 635.00 927.00 L 631.00 931.00 L 609.00 927.00 L 606.00 922.00 L 592.00 922.00 L 590.00 924.00 L 595.00 924.00 L 592.00 927.00 L 583.00 927.00 L 584.00 923.00 L 570.00 920.00 L 556.00 924.00 L 544.00 938.00 L 543.00 947.00 L 547.00 954.00 L 545.00 969.00 L 557.00 976.00 L 558.00 983.00 L 550.00 992.00 L 542.00 991.00 L 537.00 986.00 L 535.00 941.00 L 538.00 929.00 L 547.00 920.00 L 561.00 913.00 L 601.00 913.00 L 618.00 920.00 Z" data-net-id="front-vcc" data-net-label="VCC" data-category="vcc" data-color="#6ec5ff" data-stroke-width="1" fill="#6ec5ff" fill-opacity="1" data-editor-points="626.00,912.00;634.00,916.00;635.00,927.00;631.00,931.00;609.00,927.00;606.00,922.00;592.00,922.00;590.00,924.00;595.00,924.00;592.00,927.00;583.00,927.00;584.00,923.00;570.00,920.00;556.00,924.00;544.00,938.00;543.00,947.00;547.00,954.00;545.00,969.00;557.00,976.00;558.00,983.00;550.00,992.00;542.00,991.00;537.00,986.00;535.00,941.00;538.00,929.00;547.00,920.00;561.00,913.00;601.00,913.00;618.00,920.00" data-editor-point-modes="c;c;c;c;c;c;c;c;c;c;c;c;c;c;c;c;c;c;c;c;c;c;c;c;c;c;c;c;c" />
  <path d="M 568.00 949.00 L 570.00 950.00 L 562.00 964.00 L 561.00 954.00 Z" data-net-id="front-vcc" data-net-label="VCC" data-category="vcc" data-color="#6ec5ff" data-stroke-width="1" fill="#6ec5ff" fill-opacity="1" data-editor-points="568.00,949.00;570.00,950.00;562.00,964.00;561.00,954.00" data-editor-point-modes="c;c;c;c" />
  <path d="M 1072.00 949.00 L 1076.00 956.00 L 1069.00 966.00 L 1065.00 985.00 L 1060.00 989.00 L 1051.00 988.00 L 1046.00 980.00 L 1048.00 971.00 L 1060.00 968.00 L 1063.00 964.00 L 1061.00 950.00 Z" data-net-id="front-vcc" data-net-label="VCC" data-category="vcc" data-color="#6ec5ff" data-stroke-width="1" fill="#6ec5ff" fill-opacity="1" data-editor-points="1072.00,949.00;1076.00,956.00;1069.00,966.00;1065.00,985.00;1060.00,989.00;1051.00,988.00;1046.00,980.00;1048.00,971.00;1060.00,968.00;1063.00,964.00;1061.00,950.00" data-editor-point-modes="c;c;c;c;c;c;c;c;c;c;c" />
  <path d="M 965.00 963.00 L 975.00 965.00 L 980.00 980.00 L 991.00 988.00 L 991.00 995.00 L 986.00 1002.00 L 977.00 1003.00 L 972.00 999.00 L 972.00 983.00 L 963.00 969.00 Z" data-net-id="front-vcc" data-net-label="VCC" data-category="vcc" data-color="#6ec5ff" data-stroke-width="1" fill="#6ec5ff" fill-opacity="1" data-editor-points="965.00,963.00;975.00,965.00;980.00,980.00;991.00,988.00;991.00,995.00;986.00,1002.00;977.00,1003.00;972.00,999.00;972.00,983.00;963.00,969.00" data-editor-point-modes="c;c;c;c;c;c;c;c;c;c" />
  <path d="M 855.00 981.00 L 859.00 981.00 L 862.00 990.00 L 845.00 1009.00 L 801.00 1014.00 L 797.00 1019.00 L 798.00 1025.00 L 789.00 1028.00 L 775.00 1023.00 L 776.00 1012.00 L 780.00 1007.00 L 798.00 1007.00 L 798.00 1003.00 L 793.00 1003.00 L 798.00 1001.00 L 801.00 1005.00 L 834.00 1003.00 L 839.00 995.00 L 845.00 995.00 L 846.00 989.00 Z" data-net-id="front-vcc" data-net-label="VCC" data-category="vcc" data-color="#6ec5ff" data-stroke-width="1" fill="#6ec5ff" fill-opacity="1" data-editor-points="855.00,981.00;859.00,981.00;862.00,990.00;845.00,1009.00;801.00,1014.00;797.00,1019.00;798.00,1025.00;789.00,1028.00;775.00,1023.00;776.00,1012.00;780.00,1007.00;798.00,1007.00;798.00,1003.00;793.00,1003.00;798.00,1001.00;801.00,1005.00;834.00,1003.00;839.00,995.00;845.00,995.00;846.00,989.00" data-editor-point-modes="c;c;c;c;c;c;c;c;c;c;c;c;c;c;c;c;c;c;c;c" />
  <path d="M 1152.00 1195.00 L 1181.00 1196.00 L 1190.00 1211.00 L 1192.00 1416.00 L 1184.00 1426.00 L 1176.00 1428.00 L 1165.00 1425.00 L 1158.00 1417.00 L 1158.00 1354.00 L 1165.00 1344.00 L 1164.00 1276.00 L 1157.00 1264.00 L 1157.00 1236.00 L 1144.00 1222.00 L 1142.00 1214.00 L 1144.00 1200.00 Z" data-net-id="front-vcc" data-net-label="VCC" data-category="vcc" data-color="#6ec5ff" data-stroke-width="1" fill="#6ec5ff" fill-opacity="1" data-editor-points="1152.00,1195.00;1181.00,1196.00;1190.00,1211.00;1192.00,1416.00;1184.00,1426.00;1176.00,1428.00;1165.00,1425.00;1158.00,1417.00;1158.00,1354.00;1165.00,1344.00;1164.00,1276.00;1157.00,1264.00;1157.00,1236.00;1144.00,1222.00;1142.00,1214.00;1144.00,1200.00" data-editor-point-modes="c;c;c;c;c;c;c;c;c;c;c;c;c;c;c;c" />
  <path d="M 1112.00 1404.00 L 1117.00 1404.00 L 1116.00 1407.00 L 1123.00 1411.00 L 1126.00 1422.00 L 1125.00 1502.00 L 1135.00 1513.00 L 1158.00 1516.00 L 1160.00 1526.00 L 1154.00 1532.00 L 1112.00 1532.00 L 1105.00 1529.00 L 1104.00 1519.00 L 1100.00 1518.00 L 1104.00 1510.00 L 1100.00 1509.00 L 1104.00 1505.00 L 1103.00 1407.00 Z" data-net-id="front-vcc" data-net-label="VCC" data-category="vcc" data-color="#6ec5ff" data-stroke-width="1" fill="#6ec5ff" fill-opacity="1" data-editor-points="1112.00,1404.00;1117.00,1404.00;1116.00,1407.00;1123.00,1411.00;1126.00,1422.00;1125.00,1502.00;1135.00,1513.00;1158.00,1516.00;1160.00,1526.00;1154.00,1532.00;1112.00,1532.00;1105.00,1529.00;1104.00,1519.00;1100.00,1518.00;1104.00,1510.00;1100.00,1509.00;1104.00,1505.00;1103.00,1407.00" data-editor-point-modes="c;c;c;c;c;c;c;c;c;c;c;c;c;c;c;c;c;c" />
</svg>
