<svg xmlns="http://www.w3.org/2000/svg" viewBox="0 0 1765 1765">
  <path d="M 777.05 143.76 C 780.64 144.46 783.48 149.62 783.48 149.62 L 781.52 215.42 L 792.42 215.84 C 792.42 215.84 793.28 207.97 793.25 201.31 C 793.23 194.65 792.28 175.89 792.28 175.89 L 810.71 176.30 L 810.30 213.60 C 810.30 213.60 804.13 213.57 801.08 215.14 C 798.03 216.70 792.00 223.00 792.00 223.00 C 792.00 223.00 729.42 221.35 711.26 222.68 C 693.09 224.01 692.71 224.11 683.00 231.00 C 673.29 237.89 653.00 264.00 653.00 264.00 C 653.00 264.00 650.45 294.71 652.03 302.16 C 653.61 309.62 660.76 309.50 662.51 308.73 C 664.25 307.96 662.51 297.55 662.51 297.55 L 656.92 288.75 L 664.00 284.00 L 674.00 285.00 L 673.82 291.69 L 669.49 299.37 L 672.14 316.55 L 692.54 316.83 L 692.12 310.13 L 690.16 294.76 L 714.19 293.64 L 712.00 316.00 C 712.00 316.00 735.00 315.17 744.00 320.00 C 753.00 324.83 766.00 345.00 766.00 345.00 C 766.00 345.00 767.21 397.82 766.71 412.66 C 766.21 427.49 768.12 425.94 763.00 434.00 C 757.88 442.06 736.00 461.00 736.00 461.00 L 732.00 495.00 L 710.00 520.00 L 708.00 594.00 L 701.00 600.00 L 664.00 602.00 L 648.00 617.00 L 647.00 648.00 L 598.00 648.00 L 596.00 645.00 L 596.00 599.00 L 624.00 598.00 L 637.00 583.00 L 637.00 494.00 L 640.00 482.00 L 709.00 411.00 L 722.00 409.00 L 733.00 399.00 L 736.00 394.00 L 736.00 365.00 L 720.00 350.00 L 672.00 350.00 L 654.00 344.00 L 602.00 291.00 L 600.00 248.00 L 592.00 245.00 L 566.00 245.00 L 557.00 245.00 L 531.00 245.00 C 531.00 245.00 521.29 248.38 517.96 251.05 C 514.63 253.72 511.00 261.00 511.00 261.00 L 511.00 349.00 L 506.00 356.00 L 497.00 360.00 L 497.66 368.84 C 497.66 368.84 508.28 376.31 510.00 386.00 C 511.72 395.69 509.83 418.33 508.00 427.00 C 506.17 435.67 503.67 435.33 499.00 438.00 C 494.33 440.67 484.83 442.83 480.00 443.00 C 475.17 443.17 473.27 443.15 470.00 439.00 C 466.73 434.85 463.39 421.50 460.37 418.09 C 457.35 414.69 451.88 418.55 451.88 418.55 C 451.88 418.55 452.36 426.83 454.00 434.00 C 455.64 441.17 460.57 439.26 461.74 461.59 C 462.90 483.93 461.00 568.00 461.00 568.00 C 461.00 568.00 423.29 617.45 412.02 629.38 C 400.75 641.30 399.21 637.96 393.38 639.53 C 387.54 641.10 377.01 638.77 377.01 638.77 C 377.01 638.77 368.57 636.47 367.00 630.00 C 365.43 623.53 367.61 599.97 367.61 599.97 L 358.00 590.00 C 358.00 590.00 345.68 581.84 343.36 575.27 C 341.05 568.69 342.43 556.62 344.12 550.56 C 345.81 544.50 350.21 541.42 353.52 538.89 C 356.83 536.37 363.98 535.41 363.98 535.41 C 363.98 535.41 372.95 536.16 377.62 538.59 C 382.29 541.02 384.27 548.10 392.00 550.00 C 399.73 551.90 416.67 552.17 424.00 550.00 C 431.33 547.83 433.83 543.50 436.00 537.00 C 438.17 530.50 439.33 518.00 437.00 511.00 C 434.67 504.00 430.08 497.58 422.00 495.00 C 413.92 492.42 397.03 496.21 388.53 495.54 C 380.03 494.88 371.00 491.00 371.00 491.00 L 371.55 448.41 L 398.08 447.80 L 400.65 443.56 C 400.65 443.56 390.45 434.16 387.62 429.01 C 384.79 423.85 381.62 418.97 383.68 412.64 C 385.74 406.30 400.00 391.00 400.00 391.00 L 388.00 389.00 L 384.00 397.00 C 384.00 397.00 376.66 404.17 372.31 405.36 C 367.96 406.56 362.13 405.71 357.91 404.15 C 353.69 402.59 348.99 399.69 347.00 396.00 C 345.01 392.31 345.00 387.83 346.00 382.00 C 347.00 376.17 351.00 365.67 353.00 361.00 C 355.00 356.33 355.00 355.83 358.00 354.00 C 361.00 352.17 371.00 350.00 371.00 350.00 L 383.00 355.00 L 430.00 355.00 L 439.00 352.00 L 495.38 296.09 L 495.08 219.09 C 495.08 219.09 496.18 208.68 500.00 204.00 C 503.82 199.32 512.17 194.17 518.00 191.00 C 523.83 187.83 528.33 186.17 535.00 185.00 C 541.67 183.83 558.00 184.00 558.00 184.00 C 558.00 184.00 559.24 201.93 562.24 208.59 C 565.24 215.26 576.00 224.00 576.00 224.00 C 576.00 224.00 581.40 232.37 589.24 234.04 C 597.07 235.71 623.00 234.00 623.00 234.00 L 632.00 232.00 L 645.00 218.00 L 654.82 208.99 L 658.04 200.47 C 658.04 200.47 655.34 170.53 662.65 164.15 C 669.96 157.77 689.30 161.94 701.90 162.20 C 714.49 162.45 731.58 158.05 738.22 165.69 C 744.85 173.32 741.71 208.01 741.71 208.01 L 745.90 214.72 L 771.32 214.44 L 772.44 202.85 L 746.74 201.03 L 747.58 160.94 L 761.96 145.43 C 761.96 145.43 773.46 143.06 777.05 143.76 Z" data-net-id="front-gnd" data-net-label="GND" data-category="gnd" data-color="#000000" fill="#000000" fill-opacity="1" data-editor-kind="area" data-editor-mode-version="2" fill-rule="evenodd" clip-rule="evenodd" data-editor-points="777.05,143.76;783.48,149.62;781.52,215.42;792.42,215.84;793.25,201.31;792.28,175.89;810.71,176.30;810.30,213.60;801.08,215.14;792.00,223.00;711.26,222.68;683.00,231.00;653.00,264.00;652.03,302.16;662.51,308.73;662.51,297.55;656.92,288.75;664.00,284.00;674.00,285.00;673.82,291.69;669.49,299.37;672.14,316.55;692.54,316.83;692.12,310.13;690.16,294.76;714.19,293.64;712.00,316.00;744.00,320.00;766.00,345.00;766.71,412.66;763.00,434.00;736.00,461.00;732.00,495.00;710.00,520.00;708.00,594.00;701.00,600.00;664.00,602.00;648.00,617.00;647.00,648.00;598.00,648.00;596.00,645.00;596.00,599.00;624.00,598.00;637.00,583.00;637.00,494.00;640.00,482.00;709.00,411.00;722.00,409.00;733.00,399.00;736.00,394.00;736.00,365.00;720.00,350.00;672.00,350.00;654.00,344.00;602.00,291.00;600.00,248.00;592.00,245.00;566.00,245.00;557.00,245.00;531.00,245.00;517.96,251.05;511.00,261.00;511.00,349.00;506.00,356.00;497.00,360.00;497.66,368.84;510.00,386.00;508.00,427.00;499.00,438.00;480.00,443.00;470.00,439.00;460.37,418.09;451.88,418.55;454.00,434.00;461.74,461.59;461.00,568.00;412.02,629.38;393.38,639.53;377.01,638.77;367.00,630.00;367.61,599.97;358.00,590.00;343.36,575.27;344.12,550.56;353.52,538.89;363.98,535.41;377.62,538.59;392.00,550.00;424.00,550.00;436.00,537.00;437.00,511.00;422.00,495.00;388.53,495.54;371.00,491.00;371.55,448.41;398.08,447.80;400.65,443.56;387.62,429.01;383.68,412.64;400.00,391.00;388.00,389.00;384.00,397.00;372.31,405.36;357.91,404.15;347.00,396.00;346.00,382.00;353.00,361.00;358.00,354.00;371.00,350.00;383.00,355.00;430.00,355.00;439.00,352.00;495.38,296.09;495.08,219.09;500.00,204.00;518.00,191.00;535.00,185.00;558.00,184.00;562.24,208.59;576.00,224.00;589.24,234.04;623.00,234.00;632.00,232.00;645.00,218.00;654.82,208.99;658.04,200.47;662.65,164.15;701.90,162.20;738.22,165.69;741.71,208.01;745.90,214.72;771.32,214.44;772.44,202.85;746.74,201.03;747.58,160.94;761.96,145.43" data-editor-point-modes="c;c;c;c;c;c;c;c;c;c;c;c;c;c;c;c;c;c;c;c;c;c;c;c;c;c;c;c;c;c;c;c;c;c;c;c;c;c;c;c;c;c;c;c;c;c;c;c;c;c;c;c;c;c;c;c;c;c;c;c;c;c;c;c;c;c;c;c;c;c;c;c;c;c;c;c;c;c;c;c;c;c;c;c;c;c;c;c;c;c;c;c;c;c;c;c;c;c;c;c;c;c;c;c;c;c;c;c;c;c;c;c;c;c;c;c;c;c;c;c;c;c;c;c;c;c;c;c;c;c;c;c;c;c;c;c" />
  <path d="M 858.23 157.45 C 859.21 153.77 864.38 151.64 867.67 151.57 C 870.97 151.49 876.76 153.65 878.00 157.00 C 879.24 160.35 874.92 167.69 875.08 171.69 C 875.25 175.69 878.36 174.50 879.00 181.00 C 879.64 187.50 880.26 205.08 878.93 210.71 C 877.60 216.34 873.84 214.23 871.01 214.78 C 868.19 215.33 863.84 215.13 862.00 214.00 C 860.16 212.87 860.42 213.70 860.00 208.00 C 859.58 202.30 859.16 185.55 859.46 179.83 C 859.76 174.11 861.79 173.65 861.79 173.65 C 861.79 173.65 857.24 161.13 858.23 157.45 Z" data-net-id="front-gnd" data-net-label="GND" data-category="gnd" data-color="#000000" fill="#000000" fill-opacity="1" data-editor-kind="area" data-editor-mode-version="2" fill-rule="evenodd" clip-rule="evenodd" data-editor-points="858.23,157.45;867.67,151.57;878.00,157.00;875.08,171.69;879.00,181.00;878.93,210.71;871.01,214.78;862.00,214.00;860.00,208.00;859.46,179.83;861.79,173.65" data-editor-point-modes="c;c;c;c;c;c;c;c;c;c;c" />
  <path d="M 1045.90 160.40 L 1086.00 161.27 C 1086.00 161.27 1098.18 163.22 1100.92 171.68 C 1103.65 180.14 1102.42 212.04 1102.42 212.04 C 1102.42 212.04 1101.63 218.23 1098.39 220.51 C 1095.15 222.80 1082.97 225.74 1082.97 225.74 C 1082.97 225.74 1078.85 238.83 1076.27 242.15 C 1073.69 245.48 1067.50 245.68 1067.50 245.68 L 1012.57 249.86 L 990.59 272.91 L 991.63 295.16 L 1017.85 316.99 C 1017.85 316.99 1028.56 314.07 1035.87 319.05 C 1043.19 324.02 1061.73 346.85 1061.73 346.85 C 1061.73 346.85 1069.73 361.04 1070.73 366.29 C 1071.73 371.55 1067.74 378.39 1067.74 378.39 C 1067.74 378.39 1070.08 385.04 1072.56 386.37 C 1075.05 387.70 1082.64 386.37 1082.64 386.37 L 1083.61 384.57 L 1080.85 382.92 L 1081.27 374.95 L 1093.49 375.70 L 1093.09 383.18 L 1083.53 391.86 L 1069.93 390.70 L 1063.91 386.12 L 1058.45 379.86 C 1058.45 379.86 1053.80 376.54 1052.40 373.31 C 1050.99 370.08 1050.02 360.48 1050.02 360.48 C 1050.02 360.48 1043.45 354.06 1040.06 352.79 C 1036.66 351.53 1029.64 352.90 1029.64 352.90 C 1029.64 352.90 1021.54 359.60 1015.97 361.00 C 1010.40 362.41 996.22 361.30 996.22 361.30 C 996.22 361.30 982.80 353.27 980.00 349.29 C 977.21 345.32 979.46 337.43 979.46 337.43 L 975.87 333.06 L 969.91 332.38 L 961.73 335.35 L 957.00 332.65 L 958.09 320.10 L 965.31 320.51 L 970.44 322.92 L 975.99 322.16 L 976.64 310.73 L 971.60 286.36 C 971.60 286.36 968.49 256.48 974.10 243.77 C 979.71 231.05 1005.27 210.08 1005.27 210.08 L 1018.30 205.27 L 1020.85 173.14 C 1020.85 173.14 1021.57 164.60 1025.74 162.47 C 1029.92 160.35 1045.90 160.40 1045.90 160.40 Z" data-net-id="front-gnd" data-net-label="GND" data-category="gnd" data-color="#000000" fill="#000000" fill-opacity="1" data-editor-kind="area" data-editor-mode-version="2" fill-rule="evenodd" clip-rule="evenodd" data-editor-points="1045.90,160.40;1086.00,161.27;1100.92,171.68;1102.42,212.04;1098.39,220.51;1082.97,225.74;1076.27,242.15;1067.50,245.68;1012.57,249.86;990.59,272.91;991.63,295.16;1017.85,316.99;1035.87,319.05;1061.73,346.85;1070.73,366.29;1067.74,378.39;1072.56,386.37;1082.64,386.37;1083.61,384.57;1080.85,382.92;1081.27,374.95;1093.49,375.70;1093.09,383.18;1083.53,391.86;1069.93,390.70;1063.91,386.12;1058.45,379.86;1052.40,373.31;1050.02,360.48;1040.06,352.79;1029.64,352.90;1015.97,361.00;996.22,361.30;980.00,349.29;979.46,337.43;975.87,333.06;969.91,332.38;961.73,335.35;957.00,332.65;958.09,320.10;965.31,320.51;970.44,322.92;975.99,322.16;976.64,310.73;971.60,286.36;974.10,243.77;1005.27,210.08;1018.30,205.27;1020.85,173.14;1025.74,162.47" data-editor-point-modes="c;c;s;c;s;c;s;c;c;c;c;c;s;c;s;c;s;c;c;c;c;c;c;c;c;c;c;s;c;s;c;s;c;s;c;c;c;c;c;c;c;c;c;c;c;s;c;c;c;s" />
  <path d="M 1205.00 179.00 L 1242.49 186.50 L 1266.03 191.02 L 1273.63 199.82 L 1273.54 249.30 C 1273.54 249.30 1269.60 287.46 1276.22 303.42 C 1282.85 319.37 1303.82 336.59 1313.29 345.02 C 1322.75 353.45 1325.43 352.58 1333.00 354.00 C 1340.57 355.42 1353.06 352.20 1358.69 353.54 C 1364.31 354.89 1366.75 362.07 1366.75 362.07 L 1370.27 379.95 L 1372.00 391.00 L 1370.00 421.00 L 1374.00 437.00 L 1372.00 500.00 L 1363.00 516.00 L 1349.00 517.00 L 1336.00 524.00 L 1326.00 541.00 L 1326.00 632.00 L 1350.00 655.00 L 1436.00 655.00 L 1447.00 664.00 L 1455.00 678.00 L 1464.00 760.00 L 1485.21 901.45 L 1486.00 946.00 C 1486.00 946.00 1484.64 961.14 1483.00 965.00 C 1481.36 968.86 1476.15 969.16 1476.15 969.16 C 1476.15 969.16 1449.19 971.19 1442.00 969.83 C 1434.81 968.47 1433.00 961.00 1433.00 961.00 L 1431.00 804.00 L 1424.00 803.00 L 1422.86 821.65 L 1376.00 823.00 L 1376.00 806.00 L 1375.88 800.83 C 1375.88 800.83 1369.11 799.29 1367.06 803.28 C 1365.00 807.28 1365.74 820.77 1363.58 824.81 C 1361.41 828.84 1354.04 827.51 1354.04 827.51 L 1306.29 780.92 L 1306.00 739.00 L 1312.00 731.00 L 1360.00 731.00 L 1363.83 738.84 L 1364.22 766.62 C 1364.22 766.62 1367.68 770.96 1369.31 771.19 C 1370.94 771.42 1374.00 768.00 1374.00 768.00 L 1374.00 739.00 L 1411.00 738.00 L 1415.00 733.00 C 1415.00 733.00 1416.17 692.33 1415.00 682.00 C 1413.83 671.67 1408.00 671.00 1408.00 671.00 C 1408.00 671.00 1369.52 671.30 1358.36 670.64 C 1347.19 669.97 1341.00 667.00 1341.00 667.00 C 1341.00 667.00 1318.50 646.05 1312.96 636.05 C 1307.42 626.06 1307.76 607.02 1307.76 607.02 L 1307.00 564.00 L 1297.00 549.00 C 1297.00 549.00 1299.18 487.19 1297.71 472.29 C 1296.23 457.38 1288.17 459.57 1288.17 459.57 L 1268.72 459.11 L 1249.20 459.25 C 1249.20 459.25 1242.02 456.42 1238.30 456.07 C 1234.58 455.73 1226.89 457.18 1226.89 457.18 L 1208.21 464.31 L 1199.65 467.49 C 1199.65 467.49 1195.21 466.81 1194.26 473.06 C 1193.32 479.32 1194.00 505.00 1194.00 505.00 L 1190.00 509.00 L 1184.00 509.00 L 1184.00 516.00 L 1165.47 516.13 L 1166.03 498.63 L 1182.75 498.31 L 1183.31 505.38 L 1189.14 504.45 C 1189.14 504.45 1189.32 477.72 1190.18 471.12 C 1191.03 464.51 1194.26 464.83 1194.26 464.83 C 1194.26 464.83 1200.98 463.70 1206.13 461.91 C 1211.29 460.12 1225.20 454.06 1225.20 454.06 L 1241.80 452.77 L 1248.68 447.36 L 1268.13 447.17 L 1268.04 439.02 C 1268.04 439.02 1258.34 430.50 1256.00 427.00 C 1253.66 423.50 1254.00 418.00 1254.00 418.00 C 1254.00 418.00 1251.96 389.48 1253.96 379.81 C 1255.96 370.14 1266.00 360.00 1266.00 360.00 L 1266.31 352.34 C 1266.31 352.34 1256.46 351.88 1253.24 350.49 C 1250.03 349.10 1247.00 344.00 1247.00 344.00 L 1246.76 244.58 L 1232.39 229.38 L 1210.53 228.27 L 1201.72 219.47 L 1201.00 182.00 L 1205.00 179.00 Z" data-net-id="front-gnd" data-net-label="GND" data-category="gnd" data-color="#000000" fill="#000000" fill-opacity="1" data-editor-kind="area" data-editor-mode-version="2" fill-rule="evenodd" clip-rule="evenodd" data-editor-points="1205.00,179.00;1242.49,186.50;1266.03,191.02;1273.63,199.82;1273.54,249.30;1276.22,303.42;1313.29,345.02;1333.00,354.00;1358.69,353.54;1366.75,362.07;1370.27,379.95;1372.00,391.00;1370.00,421.00;1374.00,437.00;1372.00,500.00;1363.00,516.00;1349.00,517.00;1336.00,524.00;1326.00,541.00;1326.00,632.00;1350.00,655.00;1436.00,655.00;1447.00,664.00;1455.00,678.00;1464.00,760.00;1485.21,901.45;1486.00,946.00;1483.00,965.00;1476.15,969.16;1442.00,969.83;1433.00,961.00;1431.00,804.00;1424.00,803.00;1422.86,821.65;1376.00,823.00;1376.00,806.00;1375.88,800.83;1367.06,803.28;1363.58,824.81;1354.04,827.51;1306.29,780.92;1306.00,739.00;1312.00,731.00;1360.00,731.00;1363.83,738.84;1364.22,766.62;1369.31,771.19;1374.00,768.00;1374.00,739.00;1411.00,738.00;1415.00,733.00;1415.00,682.00;1408.00,671.00;1358.36,670.64;1341.00,667.00;1312.96,636.05;1307.76,607.02;1307.00,564.00;1297.00,549.00;1297.71,472.29;1288.17,459.57;1268.72,459.11;1249.20,459.25;1238.30,456.07;1226.89,457.18;1208.21,464.31;1199.65,467.49;1194.26,473.06;1194.00,505.00;1190.00,509.00;1184.00,509.00;1184.00,516.00;1165.47,516.13;1166.03,498.63;1182.75,498.31;1183.31,505.38;1189.14,504.45;1190.18,471.12;1194.26,464.83;1206.13,461.91;1225.20,454.06;1241.80,452.77;1248.68,447.36;1268.13,447.17;1268.04,439.02;1256.00,427.00;1254.00,418.00;1253.96,379.81;1266.00,360.00;1266.31,352.34;1253.24,350.49;1247.00,344.00;1246.76,244.58;1232.39,229.38;1210.53,228.27;1201.72,219.47;1201.00,182.00" data-editor-point-modes="c;c;c;c;c;s;s;s;s;c;c;c;c;c;c;c;c;c;c;c;c;c;c;c;c;c;c;s;c;s;c;c;c;c;c;c;c;s;s;c;c;c;c;c;c;c;s;c;c;c;c;s;c;s;c;s;c;c;c;s;c;c;c;s;c;c;c;s;c;c;c;c;c;c;c;c;c;s;c;s;c;c;c;c;c;s;c;s;c;c;s;c;c;c;c;c;c" />
  <path d="M 1188.35 279.50 L 1208.10 279.57 L 1207.25 306.10 L 1207.36 315.20 L 1202.75 321.17 L 1203.38 326.46 L 1208.29 327.21 L 1208.41 338.22 L 1192.61 338.47 L 1192.86 327.58 L 1197.65 326.83 L 1197.65 321.98 L 1191.55 320.70 L 1179.42 333.30 L 1178.68 344.87 L 1179.11 364.16 L 1157.71 364.28 L 1157.46 337.53 L 1154.60 335.42 L 1147.51 334.61 C 1147.51 334.61 1138.53 336.84 1135.68 335.29 C 1132.83 333.73 1129.86 328.48 1130.40 325.28 C 1130.94 322.07 1132.93 317.21 1138.90 316.05 C 1144.88 314.89 1166.24 318.31 1166.24 318.31 C 1166.24 318.31 1173.11 317.89 1176.81 315.32 C 1180.51 312.76 1188.41 302.93 1188.41 302.93 L 1188.35 279.50 Z" data-net-id="front-gnd" data-net-label="GND" data-category="gnd" data-color="#000000" fill="#000000" fill-opacity="1" data-editor-kind="area" data-editor-mode-version="2" fill-rule="evenodd" clip-rule="evenodd" data-editor-points="1188.35,279.50;1208.10,279.57;1207.25,306.10;1207.36,315.20;1202.75,321.17;1203.38,326.46;1208.29,327.21;1208.41,338.22;1192.61,338.47;1192.86,327.58;1197.65,326.83;1197.65,321.98;1191.55,320.70;1179.42,333.30;1178.68,344.87;1179.11,364.16;1157.71,364.28;1157.46,337.53;1154.60,335.42;1147.51,334.61;1135.68,335.29;1130.40,325.28;1138.90,316.05;1166.24,318.31;1176.81,315.32;1188.41,302.93" data-editor-point-modes="c;c;c;c;c;c;c;c;c;c;c;c;c;c;c;c;c;c;c;c;s;s;s;c;s;c" />
  <path d="M 1034.00 569.00 C 1036.71 568.65 1041.67 569.95 1044.27 571.88 C 1046.87 573.82 1049.59 580.61 1049.59 580.61 L 1065.21 594.87 L 1086.43 595.18 L 1086.49 644.77 L 1070.00 645.95 L 1069.69 649.68 L 1063.66 655.34 C 1063.66 655.34 1056.69 662.82 1053.48 665.69 C 1050.27 668.57 1047.82 672.08 1044.43 672.62 C 1041.03 673.16 1035.07 672.50 1033.08 668.95 C 1031.10 665.40 1032.50 651.32 1032.50 651.32 L 1033.30 588.22 C 1033.30 588.22 1028.88 588.37 1028.00 586.00 C 1027.12 583.63 1027.00 576.83 1028.00 574.00 C 1029.00 571.17 1031.29 569.35 1034.00 569.00 Z" data-net-id="front-gnd" data-net-label="GND" data-category="gnd" data-color="#000000" fill="#000000" fill-opacity="1" data-editor-kind="area" data-editor-mode-version="2" fill-rule="evenodd" clip-rule="evenodd" data-editor-points="1034.00,569.00;1044.27,571.88;1049.59,580.61;1065.21,594.87;1086.43,595.18;1086.49,644.77;1070.00,645.95;1069.69,649.68;1063.66,655.34;1053.48,665.69;1044.43,672.62;1033.08,668.95;1032.50,651.32;1033.30,588.22;1028.00,586.00;1028.00,574.00" data-editor-point-modes="s;s;c;c;c;c;c;c;c;s;s;s;c;c;s;s" />
  <path d="M 786.37 721.08 C 788.52 720.92 790.91 722.16 792.37 724.07 C 793.82 725.99 795.42 730.16 795.11 732.56 C 794.80 734.96 792.58 737.58 790.49 738.49 C 788.40 739.39 784.66 739.00 782.57 737.99 C 780.47 736.98 778.44 734.60 777.93 732.44 C 777.42 730.27 778.10 726.90 779.51 725.01 C 780.92 723.12 784.23 721.23 786.37 721.08 Z" data-net-id="front-gnd" data-net-label="GND" data-category="gnd" data-color="#000000" fill="#000000" fill-opacity="1" data-editor-kind="area" data-editor-mode-version="2" fill-rule="evenodd" clip-rule="evenodd" data-editor-points="786.37,721.08;792.37,724.07;795.11,732.56;790.49,738.49;782.57,737.99;777.93,732.44;779.51,725.01" data-editor-point-modes="c;c;c;c;c;c;c" />
  <path d="M 514.50 757.47 C 518.00 757.14 522.49 758.36 525.00 760.00 C 527.51 761.64 529.54 767.33 529.54 767.33 C 529.54 767.33 540.93 765.08 543.34 766.52 C 545.75 767.96 546.18 774.44 544.00 776.00 C 541.82 777.56 530.23 775.88 530.23 775.88 L 526.00 774.00 C 526.00 774.00 521.42 778.25 517.75 778.25 C 514.08 778.25 504.00 774.00 504.00 774.00 L 467.00 775.00 C 467.00 775.00 462.85 775.89 460.71 777.50 C 458.56 779.12 454.15 784.68 454.15 784.68 C 454.15 784.68 453.66 791.25 454.96 794.14 C 456.27 797.02 462.00 802.00 462.00 802.00 L 461.00 882.00 L 456.00 885.00 L 431.69 885.16 L 428.56 887.85 L 403.60 888.53 L 403.66 865.88 L 434.18 866.94 L 436.74 864.50 L 437.00 854.00 L 432.00 845.00 L 432.00 803.00 C 432.00 803.00 437.24 798.62 439.41 793.78 C 441.58 788.95 440.90 779.30 445.00 774.00 C 449.10 768.70 454.17 764.00 464.00 762.00 C 473.83 760.00 504.00 762.00 504.00 762.00 C 504.00 762.00 511.00 757.80 514.50 757.47 Z" data-net-id="front-gnd" data-net-label="GND" data-category="gnd" data-color="#000000" fill="#000000" fill-opacity="1" data-editor-kind="area" data-editor-mode-version="2" fill-rule="evenodd" clip-rule="evenodd" data-editor-points="514.50,757.47;525.00,760.00;529.54,767.33;543.34,766.52;544.00,776.00;530.23,775.88;526.00,774.00;517.75,778.25;504.00,774.00;467.00,775.00;460.71,777.50;454.15,784.68;454.96,794.14;462.00,802.00;461.00,882.00;456.00,885.00;431.69,885.16;428.56,887.85;403.60,888.53;403.66,865.88;434.18,866.94;436.74,864.50;437.00,854.00;432.00,845.00;432.00,803.00;439.41,793.78;445.00,774.00;464.00,762.00;504.00,762.00" data-editor-point-modes="c;c;c;c;c;c;c;c;c;c;c;c;c;c;c;c;c;c;c;c;c;c;c;c;c;c;c;c;c" />
  <path d="M 657.87 781.89 C 657.87 781.89 664.90 778.49 667.77 779.14 C 670.65 779.78 674.38 782.99 675.13 785.78 C 675.87 788.58 673.96 793.64 672.23 795.89 C 670.49 798.14 664.73 799.29 664.73 799.29 L 660.00 804.00 C 660.00 804.00 660.64 826.33 657.02 830.96 C 653.41 835.60 641.88 834.40 638.29 831.81 C 634.69 829.22 635.46 815.41 635.46 815.41 L 635.00 805.00 L 630.30 803.11 L 626.41 807.84 C 626.41 807.84 619.35 808.96 618.00 806.78 C 616.64 804.60 617.08 796.85 618.28 794.76 C 619.48 792.68 623.24 793.51 625.21 794.27 C 627.18 795.02 630.09 799.29 630.09 799.29 L 634.61 798.30 C 634.61 798.30 634.20 785.48 638.08 782.74 C 641.95 780.01 657.87 781.89 657.87 781.89 Z" data-net-id="front-gnd" data-net-label="GND" data-category="gnd" data-color="#000000" fill="#000000" fill-opacity="1" data-editor-kind="area" data-editor-mode-version="2" fill-rule="evenodd" clip-rule="evenodd" data-editor-points="657.87,781.89;667.77,779.14;675.13,785.78;672.23,795.89;664.73,799.29;660.00,804.00;657.02,830.96;638.29,831.81;635.46,815.41;635.00,805.00;630.30,803.11;626.41,807.84;618.00,806.78;618.28,794.76;625.21,794.27;630.09,799.29;634.61,798.30;638.08,782.74" data-editor-point-modes="c;c;c;c;c;c;c;c;c;c;c;c;c;c;c;c;c;c" />
  <path d="M 1198.44 797.72 L 1214.07 797.62 L 1213.32 806.88 L 1209.93 807.43 L 1209.97 816.31 L 1208.00 821.00 L 1210.10 984.35 L 1228.35 1004.98 L 1254.97 1032.06 C 1254.97 1032.06 1256.59 1045.06 1255.53 1049.32 C 1254.48 1053.58 1248.64 1057.61 1248.64 1057.61 L 1215.95 1058.42 L 1208.24 1066.48 L 1209.00 1104.00 L 1220.48 1125.60 L 1224.95 1128.73 L 1225.06 1173.71 C 1225.06 1173.71 1211.35 1175.64 1206.01 1178.86 C 1200.66 1182.07 1193.00 1193.00 1193.00 1193.00 L 1188.05 1191.39 L 1126.79 1191.78 C 1126.79 1191.78 1113.09 1177.02 1106.50 1175.13 C 1099.91 1173.24 1089.75 1176.04 1087.26 1180.45 C 1084.77 1184.86 1085.17 1192.39 1091.59 1201.58 C 1098.00 1210.77 1119.78 1226.99 1125.75 1235.60 C 1131.71 1244.20 1128.52 1249.28 1127.39 1253.19 C 1126.27 1257.09 1119.00 1259.00 1119.00 1259.00 L 1096.86 1259.31 L 1062.30 1225.85 C 1062.30 1225.85 1051.37 1224.12 1047.64 1226.17 C 1043.90 1228.22 1041.17 1229.07 1039.87 1238.13 C 1038.58 1247.19 1039.87 1280.54 1039.87 1280.54 L 1031.00 1292.00 L 1030.43 1317.47 C 1030.43 1317.47 1031.80 1320.27 1033.06 1321.02 C 1034.32 1321.78 1038.00 1322.00 1038.00 1322.00 L 1091.14 1320.45 L 1096.00 1337.00 L 1108.22 1349.97 L 1109.14 1362.25 L 1112.42 1368.56 L 1117.07 1370.29 L 1138.43 1371.00 C 1138.43 1371.00 1141.31 1372.23 1142.21 1373.34 C 1143.10 1374.44 1143.80 1377.61 1143.80 1377.61 L 1144.59 1442.75 L 1152.98 1454.32 L 1211.83 1510.94 L 1237.48 1510.30 L 1240.54 1504.64 L 1238.17 1453.79 C 1238.17 1453.79 1250.74 1449.99 1256.05 1446.53 C 1261.35 1443.06 1270.00 1433.00 1270.00 1433.00 C 1270.00 1433.00 1275.59 1435.91 1277.71 1435.97 C 1279.82 1436.03 1282.70 1433.38 1282.70 1433.38 L 1283.41 1409.36 L 1278.04 1403.75 L 1228.15 1402.78 L 1220.43 1396.43 L 1219.12 1270.26 L 1213.27 1263.81 L 1200.12 1261.54 L 1194.86 1253.53 L 1195.10 1235.37 L 1204.00 1229.00 L 1255.69 1228.44 L 1269.55 1216.07 C 1269.55 1216.07 1284.69 1213.64 1291.60 1216.29 C 1298.51 1218.95 1311.00 1232.00 1311.00 1232.00 L 1321.39 1235.49 L 1340.00 1234.76 L 1344.24 1231.48 L 1344.09 1191.55 L 1339.13 1181.25 L 1274.21 1115.27 L 1270.03 1107.98 L 1269.00 1002.00 L 1277.95 991.15 L 1278.75 978.56 L 1266.78 978.01 L 1264.22 980.63 L 1256.41 980.23 L 1256.76 966.25 L 1263.22 965.89 L 1268.48 969.96 L 1278.16 970.08 C 1278.16 970.08 1278.79 961.99 1281.02 959.92 C 1283.25 957.85 1291.54 957.65 1291.54 957.65 L 1359.06 957.17 L 1370.37 962.46 C 1370.37 962.46 1382.14 963.56 1384.90 965.45 C 1387.66 967.33 1387.27 970.84 1386.95 973.77 C 1386.62 976.70 1386.96 981.31 1382.93 983.04 C 1378.90 984.77 1362.78 984.14 1362.78 984.14 L 1362.27 996.48 L 1338.40 995.60 L 1339.20 973.26 L 1328.40 972.46 L 1325.77 979.03 L 1325.84 1066.85 L 1353.73 1098.97 L 1356.00 1158.00 L 1359.06 1172.23 L 1368.00 1186.00 L 1414.56 1233.06 L 1417.55 1305.53 L 1373.02 1307.36 L 1366.00 1288.49 L 1351.38 1275.77 L 1353.67 1266.75 C 1353.67 1266.75 1351.82 1263.42 1350.35 1262.61 C 1348.89 1261.80 1344.87 1261.88 1344.87 1261.88 L 1320.59 1281.98 L 1314.09 1293.02 L 1314.76 1336.14 L 1348.00 1370.00 L 1346.99 1430.79 L 1290.82 1490.26 L 1289.81 1538.79 C 1289.81 1538.79 1287.90 1544.70 1285.35 1547.27 C 1282.80 1549.84 1274.53 1554.22 1274.53 1554.22 L 1002.00 1580.00 L 875.00 1594.00 L 705.57 1612.49 C 705.57 1612.49 702.76 1610.89 701.91 1609.79 C 701.06 1608.69 700.45 1605.91 700.45 1605.91 L 700.96 1560.94 L 675.83 1537.40 L 653.87 1538.28 L 629.23 1563.87 L 629.88 1608.84 L 606.56 1631.21 L 559.98 1631.80 L 536.00 1611.00 L 534.68 1561.60 L 497.31 1524.38 L 495.19 1456.89 L 482.76 1445.70 L 481.68 1362.89 C 481.68 1362.89 488.49 1357.34 488.83 1352.69 C 489.18 1348.05 487.61 1337.99 483.74 1335.02 C 479.86 1332.04 469.57 1332.08 465.58 1334.85 C 461.59 1337.63 459.40 1346.81 459.80 1351.67 C 460.21 1356.53 468.00 1364.00 468.00 1364.00 L 468.14 1443.44 C 468.14 1443.44 463.65 1449.94 459.07 1450.09 C 454.49 1450.24 443.96 1451.86 440.64 1444.31 C 437.33 1436.77 439.18 1404.83 439.18 1404.83 L 434.58 1398.98 L 384.85 1398.61 L 377.91 1405.92 L 377.54 1455.72 L 363.28 1474.74 L 351.69 1484.09 L 354.00 1508.00 C 354.00 1508.00 353.22 1522.24 350.85 1527.16 C 348.49 1532.09 343.75 1535.31 339.81 1537.54 C 335.87 1539.78 327.18 1540.58 327.18 1540.58 C 327.18 1540.58 310.09 1538.94 303.54 1532.79 C 296.99 1526.64 287.89 1503.69 287.89 1503.69 L 284.49 1357.11 L 290.90 1349.62 L 320.26 1348.67 C 320.26 1348.67 330.14 1348.89 334.17 1345.84 C 338.19 1342.79 342.85 1340.92 344.43 1330.38 C 346.00 1319.84 347.11 1293.06 343.62 1282.59 C 340.12 1272.13 323.43 1267.61 323.43 1267.61 L 286.22 1266.75 L 287.16 1233.27 L 303.66 1233.12 C 303.66 1233.12 308.01 1231.95 308.72 1226.77 C 309.43 1221.59 307.92 1202.03 307.92 1202.03 L 307.30 1170.95 C 307.30 1170.95 306.43 1167.69 303.05 1167.03 C 299.66 1166.37 287.00 1167.00 287.00 1167.00 L 284.00 1100.00 L 298.66 1050.80 C 298.66 1050.80 338.96 1052.03 352.05 1047.02 C 365.14 1042.00 377.21 1020.71 377.21 1020.71 C 377.21 1020.71 373.93 977.77 377.59 969.14 C 381.26 960.52 395.47 959.82 399.21 968.97 C 402.94 978.11 400.00 1024.00 400.00 1024.00 L 384.98 1038.74 C 384.98 1038.74 381.92 1050.93 384.00 1055.00 C 386.08 1059.07 392.41 1061.86 397.45 1063.16 C 402.50 1064.45 414.28 1062.75 414.28 1062.75 L 446.68 1031.28 C 446.68 1031.28 464.04 1026.19 468.23 1033.71 C 472.42 1041.23 471.81 1076.41 471.81 1076.41 L 470.81 1129.19 L 479.62 1154.69 L 482.35 1174.55 L 490.38 1182.28 C 490.38 1182.28 503.90 1179.72 506.45 1190.39 C 509.01 1201.06 505.70 1246.31 505.70 1246.31 C 505.70 1246.31 489.45 1262.94 487.50 1269.89 C 485.55 1276.84 489.46 1283.19 494.00 1288.00 C 498.54 1292.81 511.18 1285.28 514.75 1298.75 C 518.32 1312.21 515.41 1368.81 515.41 1368.81 C 515.41 1368.81 507.50 1397.12 518.82 1403.06 C 530.14 1409.00 583.34 1404.46 583.34 1404.46 C 583.34 1404.46 592.42 1404.56 594.36 1399.82 C 596.30 1395.08 595.00 1376.00 595.00 1376.00 C 595.00 1376.00 590.79 1372.28 585.57 1370.89 C 580.36 1369.50 568.39 1371.85 563.70 1367.68 C 559.00 1363.50 557.40 1345.84 557.40 1345.84 L 542.76 1325.62 C 542.76 1325.62 541.84 1286.19 543.23 1276.56 C 544.63 1266.93 551.13 1267.84 551.13 1267.84 C 551.13 1267.84 591.97 1265.52 603.18 1266.34 C 614.40 1267.16 618.44 1272.74 618.44 1272.74 L 618.89 1325.93 L 610.86 1341.99 L 609.55 1369.08 L 600.00 1377.00 L 600.12 1400.74 L 608.52 1404.29 L 643.81 1402.05 L 659.46 1418.53 L 660.82 1446.74 C 660.82 1446.74 657.37 1452.74 658.14 1455.33 C 658.91 1457.91 659.60 1461.23 665.42 1462.27 C 671.24 1463.30 693.05 1461.53 693.05 1461.53 C 693.05 1461.53 723.00 1439.71 729.04 1428.67 C 735.07 1417.63 731.98 1401.24 729.24 1395.28 C 726.51 1389.33 712.63 1392.94 712.63 1392.94 L 685.65 1393.69 L 667.47 1377.57 C 667.47 1377.57 673.14 1345.47 668.73 1338.21 C 664.32 1330.95 646.99 1335.87 641.00 1334.00 C 635.01 1332.13 632.80 1326.97 632.80 1326.97 L 631.00 1203.00 C 631.00 1203.00 632.83 1192.50 635.21 1189.78 C 637.59 1187.06 645.27 1186.67 645.27 1186.67 L 662.84 1186.95 C 662.84 1186.95 673.55 1197.65 692.11 1199.57 C 710.67 1201.49 774.17 1198.47 774.17 1198.47 C 774.17 1198.47 790.75 1207.26 794.39 1217.68 C 798.02 1228.10 796.00 1261.00 796.00 1261.00 L 762.68 1293.19 L 672.14 1294.61 C 672.14 1294.61 665.35 1302.53 665.32 1306.93 C 665.30 1311.33 667.15 1318.89 672.00 1321.00 C 676.85 1323.11 694.42 1319.59 694.42 1319.59 L 706.00 1308.00 L 741.26 1308.41 C 741.26 1308.41 748.11 1310.18 749.56 1316.55 C 751.01 1322.92 749.97 1346.63 749.97 1346.63 C 749.97 1346.63 755.35 1353.76 763.53 1355.01 C 771.71 1356.25 799.03 1354.10 799.03 1354.10 L 807.74 1345.31 L 807.66 1311.37 L 825.00 1297.00 L 883.00 1296.00 L 882.12 1332.74 L 884.25 1338.41 C 884.25 1338.41 895.98 1351.26 900.94 1353.53 C 905.89 1355.79 914.00 1352.00 914.00 1352.00 L 932.82 1325.92 L 932.00 1286.00 L 927.65 1282.77 L 894.00 1283.00 L 893.45 1252.26 C 893.45 1252.26 894.49 1246.35 893.75 1244.47 C 893.01 1242.60 889.00 1241.00 889.00 1241.00 C 889.00 1241.00 868.70 1242.50 864.06 1238.76 C 859.43 1235.02 861.21 1218.56 861.21 1218.56 L 861.57 1203.90 C 861.57 1203.90 862.66 1198.63 878.42 1197.57 C 894.19 1196.52 956.17 1197.57 956.17 1197.57 C 956.17 1197.57 961.02 1199.00 962.61 1200.55 C 964.21 1202.10 965.72 1206.88 965.72 1206.88 L 966.89 1366.37 C 966.89 1366.37 963.64 1375.94 961.33 1379.21 C 959.01 1382.48 953.00 1386.00 953.00 1386.00 L 888.29 1388.04 L 873.00 1398.00 L 843.14 1429.18 L 837.34 1442.10 L 838.00 1490.00 C 838.00 1490.00 839.74 1493.65 841.34 1494.61 C 842.95 1495.57 847.64 1495.76 847.64 1495.76 L 884.00 1495.00 L 885.84 1528.15 L 883.23 1529.78 C 883.23 1529.78 882.68 1538.68 888.13 1540.40 C 893.57 1542.11 915.89 1540.07 915.89 1540.07 L 966.44 1496.06 C 966.44 1496.06 975.04 1494.51 981.46 1496.06 C 987.89 1497.61 996.39 1505.37 1004.98 1505.37 C 1013.57 1505.36 1026.00 1501.56 1033.00 1496.00 C 1040.00 1490.44 1046.58 1481.84 1047.00 1472.00 C 1047.42 1462.16 1045.85 1445.60 1035.52 1436.94 C 1025.19 1428.27 985.00 1420.00 985.00 1420.00 L 981.13 1415.87 L 979.00 1178.00 L 963.00 1160.00 C 963.00 1160.00 941.68 1158.08 934.92 1160.52 C 928.15 1162.96 922.41 1174.63 922.41 1174.63 L 836.45 1174.96 L 799.00 1138.00 L 744.16 1137.57 L 732.00 1128.00 L 713.52 1130.05 L 700.85 1142.69 L 646.04 1143.38 L 639.77 1137.24 C 639.77 1137.24 600.43 1139.78 587.74 1136.17 C 575.05 1132.56 569.71 1120.09 563.63 1115.60 C 557.56 1111.11 553.88 1111.31 551.28 1109.22 C 548.67 1107.14 548.02 1103.10 548.02 1103.10 C 548.02 1103.10 539.54 1093.44 536.84 1086.93 C 534.14 1080.43 531.82 1064.07 531.82 1064.07 C 531.82 1064.07 531.08 1049.60 533.79 1043.71 C 536.50 1037.81 541.39 1031.57 548.08 1028.72 C 554.78 1025.86 567.54 1029.03 573.96 1026.59 C 580.39 1024.15 582.17 1018.00 586.61 1014.08 C 591.05 1010.16 600.61 1003.07 600.61 1003.07 L 673.42 1001.62 C 673.42 1001.62 678.80 1006.40 679.76 1011.35 C 680.72 1016.29 682.87 1027.38 679.17 1031.31 C 675.46 1035.24 657.53 1034.92 657.53 1034.92 C 657.53 1034.92 654.46 1040.63 651.86 1041.76 C 649.25 1042.90 644.37 1043.09 641.91 1041.74 C 639.44 1040.38 637.09 1033.61 637.09 1033.61 L 626.46 1026.45 L 581.30 1026.59 L 575.67 1030.24 L 559.82 1030.64 L 559.59 1038.88 L 564.57 1040.23 L 565.13 1049.90 L 550.78 1048.87 L 551.44 1039.51 L 555.09 1038.17 L 555.45 1031.63 C 555.45 1031.63 549.99 1030.02 546.76 1033.03 C 543.53 1036.04 537.55 1041.86 536.09 1049.69 C 534.63 1057.52 536.00 1072.12 538.00 1080.00 C 540.00 1087.88 548.11 1096.97 548.11 1096.97 C 548.11 1096.97 555.68 1093.17 558.78 1093.32 C 561.88 1093.47 565.12 1095.03 566.71 1097.87 C 568.30 1100.71 568.33 1110.34 568.33 1110.34 L 589.30 1129.98 L 639.84 1129.75 L 645.54 1122.17 L 645.54 1088.48 L 648.84 1081.50 L 673.00 1057.00 L 830.68 1056.34 L 830.66 1090.65 L 831.36 1126.73 L 840.89 1126.10 L 841.30 1114.44 L 838.52 1114.13 L 839.19 1097.09 L 858.85 1097.09 L 858.61 1112.43 L 854.45 1114.50 L 854.45 1137.65 C 854.45 1137.65 858.28 1144.03 861.68 1145.23 C 865.09 1146.42 871.13 1146.19 874.89 1144.82 C 878.65 1143.45 884.25 1137.01 884.25 1137.01 L 931.97 1136.34 C 931.97 1136.34 939.32 1136.03 941.12 1134.61 C 942.92 1133.18 942.77 1127.78 942.77 1127.78 L 942.00 1030.00 L 977.17 1028.99 L 977.29 1128.98 L 983.56 1135.63 L 1035.32 1134.37 C 1035.32 1134.37 1040.46 1134.68 1041.70 1131.24 C 1042.94 1127.81 1042.76 1113.78 1042.76 1113.78 C 1042.76 1113.78 1045.20 1108.48 1050.09 1107.12 C 1054.99 1105.76 1072.12 1105.60 1072.12 1105.60 C 1072.12 1105.60 1078.38 1104.76 1080.34 1098.80 C 1082.29 1092.84 1078.02 1075.07 1083.86 1069.83 C 1089.69 1064.60 1115.34 1067.40 1115.34 1067.40 L 1124.50 1067.11 L 1129.36 1064.40 L 1129.74 1056.76 L 1127.07 1055.71 L 1126.59 1036.87 L 1144.86 1037.02 L 1144.96 1055.76 L 1141.81 1056.43 L 1143.29 1067.26 L 1195.46 1068.01 L 1207.11 1055.97 L 1208.19 1049.37 L 1200.79 1047.42 L 1199.06 1052.56 L 1190.99 1052.41 L 1190.84 1040.52 L 1199.15 1040.80 L 1200.73 1044.70 L 1205.59 1044.12 L 1207.59 1041.34 L 1207.00 1031.00 L 1175.46 1030.19 C 1175.46 1030.19 1168.18 1024.58 1166.94 1017.70 C 1165.70 1010.81 1168.04 988.89 1168.04 988.89 C 1168.04 988.89 1182.63 975.13 1188.47 969.27 C 1194.30 963.40 1203.04 953.71 1203.04 953.71 L 1203.00 933.00 C 1203.00 933.00 1198.15 926.52 1194.04 925.26 C 1189.92 924.00 1183.06 924.55 1178.32 925.45 C 1173.59 926.36 1169.86 931.23 1165.63 930.69 C 1161.41 930.15 1155.55 926.63 1152.99 922.21 C 1150.43 917.79 1153.79 910.17 1150.27 904.16 C 1146.76 898.16 1131.89 886.16 1131.89 886.16 C 1131.89 886.16 1127.98 879.32 1136.84 868.40 C 1145.69 857.48 1185.00 820.63 1185.00 820.63 L 1199.45 819.05 L 1202.16 812.31 L 1202.30 807.95 L 1198.02 806.04 L 1198.44 797.72 Z" data-net-id="front-gnd" data-net-label="GND" data-category="gnd" data-color="#000000" fill="#000000" fill-opacity="1" data-editor-kind="area" data-editor-mode-version="2" fill-rule="evenodd" clip-rule="evenodd" data-editor-points="1198.44,797.72;1214.07,797.62;1213.32,806.88;1209.93,807.43;1209.97,816.31;1208.00,821.00;1210.10,984.35;1228.35,1004.98;1254.97,1032.06;1255.53,1049.32;1248.64,1057.61;1215.95,1058.42;1208.24,1066.48;1209.00,1104.00;1220.48,1125.60;1224.95,1128.73;1225.06,1173.71;1206.01,1178.86;1193.00,1193.00;1188.05,1191.39;1126.79,1191.78;1106.50,1175.13;1087.26,1180.45;1091.59,1201.58;1125.75,1235.60;1127.39,1253.19;1119.00,1259.00;1096.86,1259.31;1062.30,1225.85;1047.64,1226.17;1039.87,1238.13;1039.87,1280.54;1031.00,1292.00;1030.43,1317.47;1033.06,1321.02;1038.00,1322.00;1091.14,1320.45;1096.00,1337.00;1108.22,1349.97;1109.14,1362.25;1112.42,1368.56;1117.07,1370.29;1138.43,1371.00;1142.21,1373.34;1143.80,1377.61;1144.59,1442.75;1152.98,1454.32;1211.83,1510.94;1237.48,1510.30;1240.54,1504.64;1238.17,1453.79;1256.05,1446.53;1270.00,1433.00;1277.71,1435.97;1282.70,1433.38;1283.41,1409.36;1278.04,1403.75;1228.15,1402.78;1220.43,1396.43;1219.12,1270.26;1213.27,1263.81;1200.12,1261.54;1194.86,1253.53;1195.10,1235.37;1204.00,1229.00;1255.69,1228.44;1269.55,1216.07;1291.60,1216.29;1311.00,1232.00;1321.39,1235.49;1340.00,1234.76;1344.24,1231.48;1344.09,1191.55;1339.13,1181.25;1274.21,1115.27;1270.03,1107.98;1269.00,1002.00;1277.95,991.15;1278.75,978.56;1266.78,978.01;1264.22,980.63;1256.41,980.23;1256.76,966.25;1263.22,965.89;1268.48,969.96;1278.16,970.08;1281.02,959.92;1291.54,957.65;1359.06,957.17;1370.37,962.46;1384.90,965.45;1386.95,973.77;1382.93,983.04;1362.78,984.14;1362.27,996.48;1338.40,995.60;1339.20,973.26;1328.40,972.46;1325.77,979.03;1325.84,1066.85;1353.73,1098.97;1356.00,1158.00;1359.06,1172.23;1368.00,1186.00;1414.56,1233.06;1417.55,1305.53;1373.02,1307.36;1366.00,1288.49;1351.38,1275.77;1353.67,1266.75;1350.35,1262.61;1344.87,1261.88;1320.59,1281.98;1314.09,1293.02;1314.76,1336.14;1348.00,1370.00;1346.99,1430.79;1290.82,1490.26;1289.81,1538.79;1285.35,1547.27;1274.53,1554.22;1002.00,1580.00;875.00,1594.00;705.57,1612.49;701.91,1609.79;700.45,1605.91;700.96,1560.94;675.83,1537.40;653.87,1538.28;629.23,1563.87;629.88,1608.84;606.56,1631.21;559.98,1631.80;536.00,1611.00;534.68,1561.60;497.31,1524.38;495.19,1456.89;482.76,1445.70;481.68,1362.89;488.83,1352.69;483.74,1335.02;465.58,1334.85;459.80,1351.67;468.00,1364.00;468.14,1443.44;459.07,1450.09;440.64,1444.31;439.18,1404.83;434.58,1398.98;384.85,1398.61;377.91,1405.92;377.54,1455.72;363.28,1474.74;351.69,1484.09;354.00,1508.00;350.85,1527.16;339.81,1537.54;327.18,1540.58;303.54,1532.79;287.89,1503.69;284.49,1357.11;290.90,1349.62;320.26,1348.67;334.17,1345.84;344.43,1330.38;343.62,1282.59;323.43,1267.61;286.22,1266.75;287.16,1233.27;303.66,1233.12;308.72,1226.77;307.92,1202.03;307.30,1170.95;303.05,1167.03;287.00,1167.00;284.00,1100.00;298.66,1050.80;352.05,1047.02;377.21,1020.71;377.59,969.14;399.21,968.97;400.00,1024.00;384.98,1038.74;384.00,1055.00;397.45,1063.16;414.28,1062.75;446.68,1031.28;468.23,1033.71;471.81,1076.41;470.81,1129.19;479.62,1154.69;482.35,1174.55;490.38,1182.28;506.45,1190.39;505.70,1246.31;487.50,1269.89;494.00,1288.00;514.75,1298.75;515.41,1368.81;518.82,1403.06;583.34,1404.46;594.36,1399.82;595.00,1376.00;585.57,1370.89;563.70,1367.68;557.40,1345.84;542.76,1325.62;543.23,1276.56;551.13,1267.84;603.18,1266.34;618.44,1272.74;618.89,1325.93;610.86,1341.99;609.55,1369.08;600.00,1377.00;600.12,1400.74;608.52,1404.29;643.81,1402.05;659.46,1418.53;660.82,1446.74;658.14,1455.33;665.42,1462.27;693.05,1461.53;729.04,1428.67;729.24,1395.28;712.63,1392.94;685.65,1393.69;667.47,1377.57;668.73,1338.21;641.00,1334.00;632.80,1326.97;631.00,1203.00;635.21,1189.78;645.27,1186.67;662.84,1186.95;692.11,1199.57;774.17,1198.47;794.39,1217.68;796.00,1261.00;762.68,1293.19;672.14,1294.61;665.32,1306.93;672.00,1321.00;694.42,1319.59;706.00,1308.00;741.26,1308.41;749.56,1316.55;749.97,1346.63;763.53,1355.01;799.03,1354.10;807.74,1345.31;807.66,1311.37;825.00,1297.00;883.00,1296.00;882.12,1332.74;884.25,1338.41;900.94,1353.53;914.00,1352.00;932.82,1325.92;932.00,1286.00;927.65,1282.77;894.00,1283.00;893.45,1252.26;893.75,1244.47;889.00,1241.00;864.06,1238.76;861.21,1218.56;861.57,1203.90;878.42,1197.57;956.17,1197.57;962.61,1200.55;965.72,1206.88;966.89,1366.37;961.33,1379.21;953.00,1386.00;888.29,1388.04;873.00,1398.00;843.14,1429.18;837.34,1442.10;838.00,1490.00;841.34,1494.61;847.64,1495.76;884.00,1495.00;885.84,1528.15;883.23,1529.78;888.13,1540.40;915.89,1540.07;966.44,1496.06;981.46,1496.06;1004.98,1505.37;1033.00,1496.00;1047.00,1472.00;1035.52,1436.94;985.00,1420.00;981.13,1415.87;979.00,1178.00;963.00,1160.00;934.92,1160.52;922.41,1174.63;836.45,1174.96;799.00,1138.00;744.16,1137.57;732.00,1128.00;713.52,1130.05;700.85,1142.69;646.04,1143.38;639.77,1137.24;587.74,1136.17;563.63,1115.60;551.28,1109.22;548.02,1103.10;536.84,1086.93;531.82,1064.07;533.79,1043.71;548.08,1028.72;573.96,1026.59;586.61,1014.08;600.61,1003.07;673.42,1001.62;679.76,1011.35;679.17,1031.31;657.53,1034.92;651.86,1041.76;641.91,1041.74;637.09,1033.61;626.46,1026.45;581.30,1026.59;575.67,1030.24;559.82,1030.64;559.59,1038.88;564.57,1040.23;565.13,1049.90;550.78,1048.87;551.44,1039.51;555.09,1038.17;555.45,1031.63;546.76,1033.03;536.09,1049.69;538.00,1080.00;548.11,1096.97;558.78,1093.32;566.71,1097.87;568.33,1110.34;589.30,1129.98;639.84,1129.75;645.54,1122.17;645.54,1088.48;648.84,1081.50;673.00,1057.00;830.68,1056.34;830.66,1090.65;831.36,1126.73;840.89,1126.10;841.30,1114.44;838.52,1114.13;839.19,1097.09;858.85,1097.09;858.61,1112.43;854.45,1114.50;854.45,1137.65;861.68,1145.23;874.89,1144.82;884.25,1137.01;931.97,1136.34;941.12,1134.61;942.77,1127.78;942.00,1030.00;977.17,1028.99;977.29,1128.98;983.56,1135.63;1035.32,1134.37;1041.70,1131.24;1042.76,1113.78;1050.09,1107.12;1072.12,1105.60;1080.34,1098.80;1083.86,1069.83;1115.34,1067.40;1124.50,1067.11;1129.36,1064.40;1129.74,1056.76;1127.07,1055.71;1126.59,1036.87;1144.86,1037.02;1144.96,1055.76;1141.81,1056.43;1143.29,1067.26;1195.46,1068.01;1207.11,1055.97;1208.19,1049.37;1200.79,1047.42;1199.06,1052.56;1190.99,1052.41;1190.84,1040.52;1199.15,1040.80;1200.73,1044.70;1205.59,1044.12;1207.59,1041.34;1207.00,1031.00;1175.46,1030.19;1166.94,1017.70;1168.04,988.89;1188.47,969.27;1203.04,953.71;1203.00,933.00;1194.04,925.26;1178.32,925.45;1165.63,930.69;1152.99,922.21;1150.27,904.16;1131.89,886.16;1136.84,868.40;1185.00,820.63;1199.45,819.05;1202.16,812.31;1202.30,807.95;1198.02,806.04" data-editor-point-modes="c;c;c;c;c;c;c;c;c;s;c;c;c;c;c;c;c;s;c;c;c;s;s;s;s;s;c;c;c;s;s;c;c;c;s;c;c;c;c;c;c;c;c;s;c;c;c;c;c;c;c;s;c;s;c;c;c;c;c;c;c;c;c;c;c;c;c;s;c;c;c;c;c;c;c;c;c;c;c;c;c;c;c;c;c;c;s;c;c;c;s;s;s;c;c;c;c;c;c;c;c;c;c;c;c;c;c;c;c;c;s;c;c;c;c;c;c;c;c;s;c;c;c;c;s;c;c;c;c;c;c;c;c;c;c;c;c;c;c;s;s;s;s;c;c;s;s;c;c;c;c;c;c;c;c;s;s;c;s;c;c;c;c;s;s;s;c;c;c;c;s;c;c;s;c;c;c;s;c;s;s;c;c;s;s;c;c;s;c;c;c;c;c;s;c;s;s;s;c;s;c;s;c;s;s;c;c;s;c;s;c;c;c;c;c;c;c;c;c;c;s;s;c;s;s;c;c;c;s;s;c;c;s;c;c;s;c;s;c;c;c;s;s;c;c;c;s;c;s;c;c;c;c;c;c;c;s;c;c;c;c;c;c;s;c;s;c;c;s;c;s;c;c;s;c;c;c;c;c;c;s;c;c;c;c;s;c;c;s;s;s;s;s;c;c;c;c;s;c;c;c;c;c;c;c;c;c;s;s;s;c;s;c;s;s;s;s;c;c;s;s;c;s;s;c;c;c;c;c;c;c;c;c;c;c;c;s;s;s;c;s;s;c;c;c;c;c;c;c;c;c;c;c;c;c;c;c;c;c;c;s;s;c;c;s;c;c;c;c;c;c;s;c;s;c;s;s;c;c;c;c;c;c;c;c;c;c;c;c;c;c;c;c;c;c;c;c;c;c;c;s;c;s;c;c;s;s;s;s;s;c;s;c;c;c;c;c" />
  <path d="M 1268.50 800.79 L 1292.00 800.00 L 1307.00 814.00 L 1309.00 827.00 L 1303.00 835.00 L 1307.00 850.00 L 1302.00 853.00 L 1291.00 850.00 L 1293.00 832.00 L 1280.00 830.00 L 1264.92 841.23 L 1272.18 842.10 L 1271.00 870.00 L 1242.00 872.00 L 1241.00 843.00 L 1248.00 842.00 L 1264.00 826.00 L 1264.00 807.00 L 1268.50 800.79 Z" data-net-id="front-gnd" data-net-label="GND" data-category="gnd" data-color="#000000" fill="#000000" fill-opacity="1" data-editor-kind="area" data-editor-mode-version="2" fill-rule="evenodd" clip-rule="evenodd" data-editor-points="1268.50,800.79;1292.00,800.00;1307.00,814.00;1309.00,827.00;1303.00,835.00;1307.00,850.00;1302.00,853.00;1291.00,850.00;1293.00,832.00;1280.00,830.00;1264.92,841.23;1272.18,842.10;1271.00,870.00;1242.00,872.00;1241.00,843.00;1248.00,842.00;1264.00,826.00;1264.00,807.00" data-editor-point-modes="c;c;c;c;c;c;c;c;c;c;c;c;c;c;c;c;c;c" />
  <path d="M 908.00 1400.00 L 961.00 1400.00 L 968.00 1407.00 L 968.00 1429.00 L 956.00 1456.00 L 957.00 1467.00 L 952.00 1482.00 L 895.00 1482.00 L 895.00 1416.00 L 899.00 1406.00 Z" data-net-id="front-gnd" data-net-label="GND" data-category="gnd" data-color="#000000" fill="#000000" fill-opacity="1" data-editor-kind="area" data-editor-mode-version="2" fill-rule="evenodd" clip-rule="evenodd" data-editor-points="908.00,1400.00;961.00,1400.00;968.00,1407.00;968.00,1429.00;956.00,1456.00;957.00,1467.00;952.00,1482.00;895.00,1482.00;895.00,1416.00;899.00,1406.00" data-editor-point-modes="c;c;c;c;c;c;c;c;c;c" />
  <path d="M 1159.00 275.00 L 1173.00 278.00 L 1170.00 293.00 L 1174.00 304.00 L 1173.00 312.00 L 1168.00 315.00 L 1126.00 313.00 L 1124.00 328.00 L 1120.00 330.00 L 1087.00 328.00 L 1086.00 306.00 L 1089.00 303.00 L 1152.00 305.00 L 1160.00 295.00 L 1155.00 284.00 L 1155.00 278.00 Z" data-net-id="front-vbat" data-net-label="VBAT" data-category="vbat" data-color="#ff3e00" fill="#ff3e00" fill-opacity="1" data-editor-kind="area" data-editor-mode-version="2" fill-rule="evenodd" clip-rule="evenodd" data-editor-points="1159.00,275.00;1173.00,278.00;1170.00,293.00;1174.00,304.00;1173.00,312.00;1168.00,315.00;1126.00,313.00;1124.00,328.00;1120.00,330.00;1087.00,328.00;1086.00,306.00;1089.00,303.00;1152.00,305.00;1160.00,295.00;1155.00,284.00;1155.00,278.00" data-editor-point-modes="c;c;c;c;c;c;c;c;c;c;c;c;c;c;c;c" />
  <path d="M 1295.35 674.66 C 1298.11 675.22 1303.16 677.72 1304.10 680.78 C 1305.04 683.83 1301.00 693.00 1301.00 693.00 L 1303.00 786.00 C 1303.00 786.00 1329.28 810.13 1337.12 819.80 C 1344.95 829.47 1350.00 844.00 1350.00 844.00 L 1350.51 903.02 L 1354.00 918.00 L 1347.00 925.00 L 1340.00 924.00 L 1334.00 917.00 L 1335.43 908.51 L 1338.00 906.00 L 1335.00 842.00 L 1322.00 822.00 L 1294.00 797.00 L 1290.00 789.00 L 1288.91 694.70 C 1288.91 694.70 1285.77 688.51 1285.54 685.63 C 1285.31 682.75 1285.91 679.23 1287.54 677.40 C 1289.18 675.57 1292.59 674.10 1295.35 674.66 Z" data-net-id="front-vbat" data-net-label="VBAT" data-category="vbat" data-color="#ff3e00" fill="#ff3e00" fill-opacity="1" data-editor-kind="area" data-editor-mode-version="2" fill-rule="evenodd" clip-rule="evenodd" data-editor-points="1295.35,674.66;1304.10,680.78;1301.00,693.00;1303.00,786.00;1337.12,819.80;1350.00,844.00;1350.51,903.02;1354.00,918.00;1347.00,925.00;1340.00,924.00;1334.00,917.00;1335.43,908.51;1338.00,906.00;1335.00,842.00;1322.00,822.00;1294.00,797.00;1290.00,789.00;1288.91,694.70;1285.54,685.63;1287.54,677.40" data-editor-point-modes="s;s;c;c;s;c;c;c;c;c;c;c;c;c;c;c;c;c;s;s" />
  <path d="M 1245.00 1064.00 L 1252.00 1066.00 L 1256.00 1072.00 L 1251.00 1084.00 L 1219.00 1085.00 L 1214.00 1081.00 L 1212.00 1073.00 L 1215.00 1066.00 Z" data-net-id="front-vbat" data-net-label="VBAT" data-category="vbat" data-color="#ff3e00" fill="#ff3e00" fill-opacity="1" data-editor-kind="area" data-editor-mode-version="2" fill-rule="evenodd" clip-rule="evenodd" data-editor-points="1245.00,1064.00;1252.00,1066.00;1256.00,1072.00;1251.00,1084.00;1219.00,1085.00;1214.00,1081.00;1212.00,1073.00;1215.00,1066.00" data-editor-point-modes="c;c;c;c;c;c;c;c" />
  <path d="M 1425.02 1067.09 L 1484.04 1066.44 L 1487.10 1068.66 L 1488.86 1092.38 L 1489.60 1130.10 L 1487.00 1152.00 L 1481.00 1158.00 C 1481.00 1158.00 1462.77 1156.88 1456.43 1158.54 C 1450.10 1160.21 1445.91 1164.76 1443.00 1168.00 C 1440.09 1171.24 1439.00 1178.00 1439.00 1178.00 L 1439.00 1204.00 L 1441.00 1212.00 L 1449.67 1222.57 L 1459.58 1226.00 L 1480.00 1225.00 L 1484.51 1226.09 L 1486.36 1229.52 L 1491.64 1263.25 L 1492.75 1369.53 C 1492.75 1369.53 1489.73 1391.41 1486.82 1396.95 C 1483.92 1402.50 1475.33 1402.79 1475.33 1402.79 L 1470.05 1410.11 L 1470.15 1440.97 L 1451.43 1462.56 L 1434.00 1472.00 C 1434.00 1472.00 1418.86 1471.96 1413.44 1468.49 C 1408.02 1465.01 1405.04 1454.96 1401.49 1451.16 C 1397.93 1447.36 1392.13 1445.69 1392.13 1445.69 L 1391.57 1412.34 L 1391.94 1382.87 L 1431.69 1342.38 L 1431.32 1237.02 L 1375.17 1182.73 L 1363.00 1168.00 L 1360.34 1124.63 L 1360.62 1089.42 L 1366.55 1074.04 L 1377.39 1067.74 L 1425.02 1067.09 Z" data-net-id="front-vbat" data-net-label="VBAT" data-category="vbat" data-color="#ff3e00" fill="#ff3e00" fill-opacity="1" data-editor-kind="area" data-editor-mode-version="2" fill-rule="evenodd" clip-rule="evenodd" data-editor-points="1425.02,1067.09;1484.04,1066.44;1487.10,1068.66;1488.86,1092.38;1489.60,1130.10;1487.00,1152.00;1481.00,1158.00;1456.43,1158.54;1443.00,1168.00;1439.00,1178.00;1439.00,1204.00;1441.00,1212.00;1449.67,1222.57;1459.58,1226.00;1480.00,1225.00;1484.51,1226.09;1486.36,1229.52;1491.64,1263.25;1492.75,1369.53;1486.82,1396.95;1475.33,1402.79;1470.05,1410.11;1470.15,1440.97;1451.43,1462.56;1434.00,1472.00;1413.44,1468.49;1401.49,1451.16;1392.13,1445.69;1391.57,1412.34;1391.94,1382.87;1431.69,1342.38;1431.32,1237.02;1375.17,1182.73;1363.00,1168.00;1360.34,1124.63;1360.62,1089.42;1366.55,1074.04;1377.39,1067.74" data-editor-point-modes="c;c;c;c;c;c;c;s;s;c;c;c;c;c;c;c;c;c;c;s;c;c;c;c;c;s;s;c;c;c;c;c;c;c;c;c;c;c" />
  <path d="M 559.17 254.82 L 569.78 255.22 L 572.48 251.91 L 593.49 252.11 L 594.39 269.02 L 575.08 267.82 L 572.58 265.22 L 554.97 265.52 L 551.36 267.82 L 535.46 267.32 C 535.46 267.32 532.05 264.62 530.45 264.86 C 528.84 265.10 525.85 268.76 525.85 268.76 L 525.85 326.86 L 527.67 416.77 L 534.57 440.37 L 537.93 444.14 L 536.45 460.82 L 523.60 461.56 C 523.60 461.56 515.04 458.20 510.88 460.69 C 506.72 463.18 500.32 472.45 498.64 476.50 C 496.96 480.55 500.79 484.98 500.79 484.98 L 501.00 501.00 L 478.00 503.00 L 478.00 512.00 C 478.00 512.00 483.99 513.39 486.33 515.72 C 488.66 518.05 492.00 526.00 492.00 526.00 L 496.35 530.46 L 497.27 537.03 L 477.11 535.99 L 477.00 572.00 L 457.34 596.95 L 458.40 626.55 L 484.00 652.00 L 483.69 729.72 L 489.17 734.36 L 519.58 734.03 L 523.26 729.91 L 524.55 704.78 L 522.29 701.56 L 522.48 696.01 L 536.40 696.40 L 536.72 703.30 L 534.47 704.78 L 535.11 723.64 L 554.97 724.50 C 554.97 724.50 561.14 722.53 563.66 722.99 C 566.17 723.44 568.98 725.17 570.06 727.22 C 571.15 729.26 571.85 732.12 570.17 735.25 C 568.49 738.38 560.00 746.00 560.00 746.00 L 464.00 747.00 L 455.00 737.00 L 455.00 695.00 L 466.00 680.00 L 466.00 664.00 L 441.00 639.00 L 440.00 605.00 L 465.00 565.00 L 465.00 498.00 L 474.08 489.15 C 474.08 489.15 482.62 488.70 484.78 485.18 C 486.93 481.65 487.00 468.00 487.00 468.00 L 496.00 455.00 L 505.00 448.00 C 505.00 448.00 515.94 447.65 518.89 446.22 C 521.84 444.79 522.73 439.43 522.73 439.43 L 517.48 415.67 L 516.85 327.86 L 515.00 297.00 L 515.00 267.00 L 526.35 256.32 L 531.95 255.32 L 535.76 252.11 L 553.27 251.91 L 559.17 254.82 Z" data-net-id="front-vcc" data-net-label="VCC" data-category="vcc" data-color="#ff0000" fill="#ff0000" fill-opacity="1" data-editor-kind="area" data-editor-mode-version="2" fill-rule="evenodd" clip-rule="evenodd" data-editor-points="559.17,254.82;569.78,255.22;572.48,251.91;593.49,252.11;594.39,269.02;575.08,267.82;572.58,265.22;554.97,265.52;551.36,267.82;535.46,267.32;530.45,264.86;525.85,268.76;525.85,326.86;527.67,416.77;534.57,440.37;537.93,444.14;536.45,460.82;523.60,461.56;510.88,460.69;498.64,476.50;500.79,484.98;501.00,501.00;478.00,503.00;478.00,512.00;486.33,515.72;492.00,526.00;496.35,530.46;497.27,537.03;477.11,535.99;477.00,572.00;457.34,596.95;458.40,626.55;484.00,652.00;483.69,729.72;489.17,734.36;519.58,734.03;523.26,729.91;524.55,704.78;522.29,701.56;522.48,696.01;536.40,696.40;536.72,703.30;534.47,704.78;535.11,723.64;554.97,724.50;563.66,722.99;570.06,727.22;570.17,735.25;560.00,746.00;464.00,747.00;455.00,737.00;455.00,695.00;466.00,680.00;466.00,664.00;441.00,639.00;440.00,605.00;465.00,565.00;465.00,498.00;474.08,489.15;484.78,485.18;487.00,468.00;496.00,455.00;505.00,448.00;518.89,446.22;522.73,439.43;517.48,415.67;516.85,327.86;515.00,297.00;515.00,267.00;526.35,256.32;531.95,255.32;535.76,252.11;553.27,251.91" data-editor-point-modes="c;c;c;c;c;c;c;c;c;c;s;c;c;c;c;c;c;c;s;s;c;c;c;c;s;c;c;c;c;c;c;c;c;c;c;c;c;c;c;c;c;c;c;c;c;s;s;s;c;c;c;c;c;c;c;c;c;c;c;s;c;c;c;s;c;c;c;c;c;c;c;c;c" />
  <path d="M 862.35 258.33 L 890.00 259.00 L 889.00 296.00 L 885.00 297.00 L 886.00 303.49 L 924.36 304.17 C 924.36 304.17 930.36 306.21 931.00 309.00 C 931.64 311.79 930.15 318.63 928.21 320.92 C 926.28 323.20 919.39 322.73 919.39 322.73 C 919.39 322.73 916.71 320.46 914.29 319.90 C 911.88 319.33 904.90 319.33 904.90 319.33 C 904.90 319.33 898.90 321.65 896.75 321.60 C 894.60 321.54 892.00 319.00 892.00 319.00 L 872.00 318.00 L 868.00 311.00 L 868.00 297.00 L 864.00 297.00 L 862.12 290.93 L 862.35 258.33 Z" data-net-id="front-vcc" data-net-label="VCC" data-category="vcc" data-color="#ff0000" fill="#ff0000" fill-opacity="1" data-editor-kind="area" data-editor-mode-version="2" fill-rule="evenodd" clip-rule="evenodd" data-editor-points="862.35,258.33;890.00,259.00;889.00,296.00;885.00,297.00;886.00,303.49;924.36,304.17;931.00,309.00;928.21,320.92;919.39,322.73;914.29,319.90;904.90,319.33;896.75,321.60;892.00,319.00;872.00,318.00;868.00,311.00;868.00,297.00;864.00,297.00;862.12,290.93" data-editor-point-modes="c;c;c;c;c;c;s;s;c;s;c;s;c;c;c;c;c;c" />
  <path d="M 755.00 276.00 L 764.00 276.00 L 770.00 281.00 L 770.00 322.00 L 788.87 342.94 L 801.11 350.35 L 819.99 350.91 L 831.00 365.00 L 830.13 425.72 L 825.09 437.19 L 804.61 459.49 L 801.25 465.23 C 801.25 465.23 802.09 474.08 800.55 476.62 C 799.01 479.16 792.02 480.47 792.02 480.47 C 792.02 480.47 785.87 478.45 784.40 476.69 C 782.93 474.93 783.21 469.91 783.21 469.91 L 786.57 464.74 L 818.94 427.12 L 819.85 367.41 L 814.60 360.56 L 797.40 358.60 L 783.00 350.49 L 753.92 321.48 L 747.27 313.64 L 734.83 309.10 L 734.13 298.68 L 730.70 292.46 L 728.00 285.00 L 746.00 285.00 L 746.00 293.00 L 741.00 299.00 L 745.00 306.00 L 750.00 301.00 L 751.00 278.00 L 755.00 276.00 Z" data-net-id="front-vcc" data-net-label="VCC" data-category="vcc" data-color="#ff0000" fill="#ff0000" fill-opacity="1" data-editor-kind="area" data-editor-mode-version="2" fill-rule="evenodd" clip-rule="evenodd" data-editor-points="755.00,276.00;764.00,276.00;770.00,281.00;770.00,322.00;788.87,342.94;801.11,350.35;819.99,350.91;831.00,365.00;830.13,425.72;825.09,437.19;804.61,459.49;801.25,465.23;800.55,476.62;792.02,480.47;784.40,476.69;783.21,469.91;786.57,464.74;818.94,427.12;819.85,367.41;814.60,360.56;797.40,358.60;783.00,350.49;753.92,321.48;747.27,313.64;734.83,309.10;734.13,298.68;730.70,292.46;728.00,285.00;746.00,285.00;746.00,293.00;741.00,299.00;745.00,306.00;750.00,301.00;751.00,278.00" data-editor-point-modes="c;c;c;c;c;c;c;c;c;c;c;c;s;c;s;c;c;c;c;c;c;c;c;c;c;c;c;c;c;c;c;c;c;c" />
  <path d="M 1189.00 379.00 L 1200.00 380.00 L 1203.00 383.00 L 1203.00 393.00 L 1178.00 419.00 L 1178.00 445.00 L 1182.00 452.00 L 1181.00 475.00 L 1152.00 477.00 L 1148.00 469.00 L 1149.00 455.00 L 1150.00 448.00 L 1158.00 443.00 L 1158.00 413.00 Z" data-net-id="front-vcc" data-net-label="VCC" data-category="vcc" data-color="#ff0000" fill="#ff0000" fill-opacity="1" data-editor-kind="area" data-editor-mode-version="2" fill-rule="evenodd" clip-rule="evenodd" data-editor-points="1189.00,379.00;1200.00,380.00;1203.00,383.00;1203.00,393.00;1178.00,419.00;1178.00,445.00;1182.00,452.00;1181.00,475.00;1152.00,477.00;1148.00,469.00;1149.00,455.00;1150.00,448.00;1158.00,443.00;1158.00,413.00" data-editor-point-modes="c;c;c;c;c;c;c;c;c;c;c;c;c;c" />
  <path d="M 806.20 543.21 C 808.69 542.83 812.82 544.68 814.43 546.28 C 816.03 547.89 816.19 550.68 815.83 552.83 C 815.47 554.98 814.55 557.79 812.29 559.19 C 810.03 560.58 805.31 559.60 802.26 561.19 C 799.21 562.78 795.35 565.44 793.97 568.75 C 792.59 572.05 793.97 581.05 793.97 581.05 L 806.00 592.00 L 841.57 612.00 L 856.28 629.18 L 856.81 661.47 L 856.76 673.09 C 856.76 673.09 865.19 680.13 867.18 683.20 C 869.16 686.27 868.96 689.61 868.65 691.49 C 868.33 693.37 865.30 694.50 865.30 694.50 C 865.30 694.50 858.18 696.06 855.88 695.17 C 853.57 694.28 852.03 691.75 851.46 689.15 C 850.90 686.56 852.84 684.49 852.47 679.59 C 852.10 674.69 849.26 659.74 849.26 659.74 L 849.46 646.16 L 848.66 631.05 L 838.09 616.28 L 803.33 598.30 L 789.09 583.52 C 789.09 583.52 787.61 571.61 789.16 567.14 C 790.70 562.67 798.38 556.71 798.38 556.71 C 798.38 556.71 798.21 550.81 799.52 548.56 C 800.82 546.30 803.72 543.59 806.20 543.21 Z" data-net-id="front-vcc" data-net-label="VCC" data-category="vcc" data-color="#ff0000" fill="#ff0000" fill-opacity="1" data-editor-kind="area" data-editor-mode-version="2" fill-rule="evenodd" clip-rule="evenodd" data-editor-points="806.20,543.21;814.43,546.28;815.83,552.83;812.29,559.19;802.26,561.19;793.97,568.75;793.97,581.05;806.00,592.00;841.57,612.00;856.28,629.18;856.81,661.47;856.76,673.09;867.18,683.20;868.65,691.49;865.30,694.50;855.88,695.17;851.46,689.15;852.47,679.59;849.26,659.74;849.46,646.16;848.66,631.05;838.09,616.28;803.33,598.30;789.09,583.52;789.16,567.14;798.38,556.71;799.52,548.56" data-editor-point-modes="s;s;s;s;s;s;c;c;c;c;c;c;s;s;c;s;s;s;c;c;c;c;c;c;s;c;s" />
  <path d="M 1271.79 551.77 L 1278.15 551.77 L 1282.74 555.53 L 1293.70 560.67 L 1297.00 567.00 L 1299.66 575.87 L 1301.51 595.04 L 1304.12 606.72 L 1304.93 635.81 C 1304.93 635.81 1329.52 663.93 1337.47 670.28 C 1345.43 676.63 1352.66 673.90 1352.66 673.90 C 1352.66 673.90 1384.14 672.69 1392.68 673.82 C 1401.23 674.94 1403.93 680.65 1403.93 680.65 L 1406.50 688.61 L 1406.00 705.00 L 1411.00 708.00 L 1409.00 714.00 L 1406.00 713.00 L 1401.00 720.00 L 1395.00 721.00 L 1371.00 720.00 L 1371.31 696.56 L 1395.01 695.28 C 1395.01 695.28 1396.22 690.53 1395.74 688.69 C 1395.25 686.84 1392.12 684.19 1392.12 684.19 C 1392.12 684.19 1361.97 684.61 1352.34 683.86 C 1342.71 683.11 1334.34 679.68 1334.34 679.68 L 1295.53 642.24 L 1294.24 628.41 L 1286.45 626.89 C 1286.45 626.89 1279.92 630.06 1277.44 629.70 C 1274.97 629.34 1272.40 627.33 1271.58 624.72 C 1270.76 622.11 1271.04 616.04 1272.54 614.03 C 1274.04 612.02 1277.24 612.50 1280.58 612.66 C 1283.91 612.82 1292.55 614.99 1292.55 614.99 L 1297.21 600.53 L 1297.05 584.30 L 1296.25 575.30 L 1291.51 562.76 L 1282.67 558.98 L 1278.57 563.00 L 1271.98 564.61 L 1271.79 551.77 Z" data-net-id="front-vcc" data-net-label="VCC" data-category="vcc" data-color="#ff0000" fill="#ff0000" fill-opacity="1" data-editor-kind="area" data-editor-mode-version="2" fill-rule="evenodd" clip-rule="evenodd" data-editor-points="1271.79,551.77;1278.15,551.77;1282.74,555.53;1293.70,560.67;1297.00,567.00;1299.66,575.87;1301.51,595.04;1304.12,606.72;1304.93,635.81;1337.47,670.28;1352.66,673.90;1392.68,673.82;1403.93,680.65;1406.50,688.61;1406.00,705.00;1411.00,708.00;1409.00,714.00;1406.00,713.00;1401.00,720.00;1395.00,721.00;1371.00,720.00;1371.31,696.56;1395.01,695.28;1395.74,688.69;1392.12,684.19;1352.34,683.86;1334.34,679.68;1295.53,642.24;1294.24,628.41;1286.45,626.89;1277.44,629.70;1271.58,624.72;1272.54,614.03;1280.58,612.66;1292.55,614.99;1297.21,600.53;1297.05,584.30;1296.25,575.30;1291.51,562.76;1282.67,558.98;1278.57,563.00;1271.98,564.61" data-editor-point-modes="c;c;c;c;c;c;c;c;c;s;c;s;c;c;c;c;c;c;c;c;c;c;c;s;c;s;c;c;c;c;s;s;s;s;c;c;c;c;c;c;c;c" />
  <path d="M 1188.07 645.31 L 1223.82 645.24 L 1224.00 668.00 L 1221.50 670.98 L 1224.00 677.00 L 1248.86 698.84 L 1277.29 699.53 L 1283.24 706.35 L 1283.43 789.94 L 1279.92 794.38 L 1265.52 795.26 L 1259.20 800.58 L 1258.57 817.23 L 1254.69 824.00 L 1245.17 825.00 L 1232.08 838.58 L 1232.73 925.01 L 1239.42 928.76 L 1312.00 928.00 L 1318.64 923.31 L 1318.55 886.43 L 1296.00 885.00 L 1294.53 872.05 L 1291.49 870.26 L 1290.33 862.58 L 1307.48 863.12 L 1306.50 871.78 L 1302.48 873.83 L 1302.12 879.37 L 1320.61 881.07 L 1324.72 883.57 L 1325.52 922.42 L 1333.20 928.40 L 1372.59 928.67 L 1378.84 922.33 L 1376.61 872.32 L 1422.69 872.23 L 1424.00 952.00 L 1416.00 955.00 L 1386.00 955.00 L 1378.00 951.00 L 1241.30 953.14 C 1241.30 953.14 1239.20 958.53 1237.01 960.20 C 1234.82 961.87 1229.76 961.67 1228.17 963.15 C 1226.58 964.62 1226.46 967.70 1227.46 969.04 C 1228.45 970.38 1234.15 971.18 1234.15 971.18 L 1239.42 967.25 L 1247.00 967.00 L 1246.00 980.00 L 1240.32 979.76 L 1235.94 976.45 C 1235.94 976.45 1230.27 977.64 1227.81 976.99 C 1225.36 976.33 1221.20 972.52 1221.20 972.52 L 1220.82 832.76 L 1237.00 813.00 L 1237.00 808.00 L 1231.58 804.02 L 1231.46 798.58 L 1246.67 798.51 L 1246.17 803.77 L 1241.79 807.91 L 1242.23 813.42 C 1242.23 813.42 1243.51 817.91 1245.23 818.36 C 1246.95 818.81 1252.56 816.11 1252.56 816.11 L 1253.94 776.98 L 1262.39 770.09 L 1268.34 759.70 L 1268.71 729.02 C 1268.71 729.02 1266.12 721.48 1263.89 719.25 C 1261.66 717.02 1255.31 715.62 1255.31 715.62 C 1255.31 715.62 1242.19 715.27 1239.47 720.94 C 1236.76 726.61 1239.03 749.62 1239.03 749.62 L 1216.62 768.77 L 1208.11 771.22 L 1208.17 773.91 L 1212.68 777.67 L 1213.87 784.87 L 1204.00 787.00 L 1198.40 784.49 L 1199.53 776.54 L 1203.47 773.53 L 1198.78 771.15 L 1190.00 775.00 L 1186.00 780.00 L 1183.18 781.15 L 1146.05 781.85 L 1117.94 768.60 L 1087.93 763.58 L 1073.17 751.94 L 1057.51 741.00 L 1001.90 739.59 L 999.19 737.18 L 1060.00 738.00 L 1089.33 761.28 L 1118.14 765.19 L 1146.05 778.04 L 1182.48 777.64 L 1192.52 768.65 L 1215.05 766.77 L 1232.21 749.93 C 1232.21 749.93 1235.27 722.37 1233.27 713.93 C 1231.28 705.49 1225.04 702.15 1220.25 699.28 C 1215.46 696.41 1208.15 697.68 1204.54 696.71 C 1200.93 695.74 1198.59 693.45 1198.59 693.45 L 1198.03 669.73 L 1195.71 667.97 L 1187.07 667.16 L 1188.07 645.31 Z" data-net-id="front-vcc" data-net-label="VCC" data-category="vcc" data-color="#ff0000" fill="#ff0000" fill-opacity="1" data-editor-kind="area" data-editor-mode-version="2" fill-rule="evenodd" clip-rule="evenodd" data-editor-points="1188.07,645.31;1223.82,645.24;1224.00,668.00;1221.50,670.98;1224.00,677.00;1248.86,698.84;1277.29,699.53;1283.24,706.35;1283.43,789.94;1279.92,794.38;1265.52,795.26;1259.20,800.58;1258.57,817.23;1254.69,824.00;1245.17,825.00;1232.08,838.58;1232.73,925.01;1239.42,928.76;1312.00,928.00;1318.64,923.31;1318.55,886.43;1296.00,885.00;1294.53,872.05;1291.49,870.26;1290.33,862.58;1307.48,863.12;1306.50,871.78;1302.48,873.83;1302.12,879.37;1320.61,881.07;1324.72,883.57;1325.52,922.42;1333.20,928.40;1372.59,928.67;1378.84,922.33;1376.61,872.32;1422.69,872.23;1424.00,952.00;1416.00,955.00;1386.00,955.00;1378.00,951.00;1241.30,953.14;1237.01,960.20;1228.17,963.15;1227.46,969.04;1234.15,971.18;1239.42,967.25;1247.00,967.00;1246.00,980.00;1240.32,979.76;1235.94,976.45;1227.81,976.99;1221.20,972.52;1220.82,832.76;1237.00,813.00;1237.00,808.00;1231.58,804.02;1231.46,798.58;1246.67,798.51;1246.17,803.77;1241.79,807.91;1242.23,813.42;1245.23,818.36;1252.56,816.11;1253.94,776.98;1262.39,770.09;1268.34,759.70;1268.71,729.02;1263.89,719.25;1255.31,715.62;1239.47,720.94;1239.03,749.62;1216.62,768.77;1208.11,771.22;1208.17,773.91;1212.68,777.67;1213.87,784.87;1204.00,787.00;1198.40,784.49;1199.53,776.54;1203.47,773.53;1198.78,771.15;1190.00,775.00;1186.00,780.00;1183.18,781.15;1146.05,781.85;1117.94,768.60;1087.93,763.58;1073.17,751.94;1057.51,741.00;1001.90,739.59;999.19,737.18;1060.00,738.00;1089.33,761.28;1118.14,765.19;1146.05,778.04;1182.48,777.64;1192.52,768.65;1215.05,766.77;1232.21,749.93;1233.27,713.93;1220.25,699.28;1204.54,696.71;1198.59,693.45;1198.03,669.73;1195.71,667.97;1187.07,667.16" data-editor-point-modes="c;c;c;c;c;c;c;c;c;c;c;c;c;c;c;c;c;c;c;c;c;c;c;c;c;c;c;c;c;c;c;c;c;c;c;c;c;c;c;c;c;c;s;s;s;c;c;c;c;c;c;s;c;c;c;c;c;c;c;c;c;c;s;c;c;c;c;c;s;c;s;c;c;c;c;c;c;c;c;c;c;c;c;c;c;c;c;c;c;c;c;c;c;c;c;c;c;c;c;c;s;s;s;c;c;c;c" />
  <path d="M 764.28 715.97 C 766.79 716.02 770.33 717.92 771.46 720.19 C 772.59 722.47 772.13 726.88 771.07 729.63 C 770.00 732.39 765.07 736.71 765.07 736.71 L 766.45 749.39 L 761.00 752.00 L 761.33 736.51 C 761.33 736.51 755.96 731.03 755.14 728.26 C 754.32 725.49 754.89 721.95 756.42 719.90 C 757.94 717.85 761.78 715.92 764.28 715.97 Z" data-net-id="front-vcc" data-net-label="VCC" data-category="vcc" data-color="#ff0000" fill="#ff0000" fill-opacity="1" data-editor-kind="area" data-editor-mode-version="2" fill-rule="evenodd" clip-rule="evenodd" data-editor-points="764.28,715.97;771.46,720.19;771.07,729.63;765.07,736.71;766.45,749.39;761.00,752.00;761.33,736.51;755.14,728.26;756.42,719.90" data-editor-point-modes="s;s;s;c;c;c;c;s;s" />
  <path d="M 579.01 781.64 C 581.65 780.46 588.65 779.50 591.20 781.64 C 593.76 783.79 594.35 794.52 594.35 794.52 L 598.77 795.31 L 601.82 793.54 L 608.11 794.32 L 607.82 807.30 L 600.93 808.09 L 597.30 804.35 L 594.74 799.04 L 590.71 797.86 L 581.08 800.32 L 576.06 808.28 L 579.01 812.12 L 580.00 820.00 L 564.85 820.18 L 565.64 812.90 C 565.64 812.90 567.04 810.08 568.10 809.27 C 569.16 808.45 572.00 808.00 572.00 808.00 L 577.73 797.96 C 577.73 797.96 575.16 791.44 575.37 788.72 C 575.59 786.00 576.37 782.82 579.01 781.64 Z" data-net-id="front-vcc" data-net-label="VCC" data-category="vcc" data-color="#ff0000" fill="#ff0000" fill-opacity="1" data-editor-kind="area" data-editor-mode-version="2" fill-rule="evenodd" clip-rule="evenodd" data-editor-points="579.01,781.64;591.20,781.64;594.35,794.52;598.77,795.31;601.82,793.54;608.11,794.32;607.82,807.30;600.93,808.09;597.30,804.35;594.74,799.04;590.71,797.86;581.08,800.32;576.06,808.28;579.01,812.12;580.00,820.00;564.85,820.18;565.64,812.90;568.10,809.27;572.00,808.00;577.73,797.96;575.37,788.72" data-editor-point-modes="s;s;c;c;c;c;c;c;c;c;c;c;c;c;c;c;c;s;c;c;s" />
  <path d="M 380.15 856.51 C 382.21 854.83 388.32 855.05 391.07 855.92 C 393.82 856.79 396.65 861.74 396.65 861.74 L 397.01 904.13 L 405.32 911.73 L 432.00 912.00 L 487.87 912.52 C 487.87 912.52 493.26 911.88 495.50 912.90 C 497.75 913.92 501.35 918.65 501.35 918.65 L 501.38 980.12 L 472.29 1008.85 L 455.00 1012.00 C 455.00 1012.00 449.83 1011.33 448.00 1010.00 C 446.17 1008.67 444.00 1004.00 444.00 1004.00 L 444.15 937.25 L 436.55 927.87 L 407.22 926.92 L 390.60 912.20 L 386.80 903.18 C 386.80 903.18 387.35 884.19 386.00 878.00 C 384.65 871.81 379.70 869.59 378.72 866.01 C 377.75 862.43 378.09 858.19 380.15 856.51 Z" data-net-id="front-vcc" data-net-label="VCC" data-category="vcc" data-color="#ff0000" fill="#ff0000" fill-opacity="1" data-editor-kind="area" data-editor-mode-version="2" fill-rule="evenodd" clip-rule="evenodd" data-editor-points="380.15,856.51;391.07,855.92;396.65,861.74;397.01,904.13;405.32,911.73;432.00,912.00;487.87,912.52;495.50,912.90;501.35,918.65;501.38,980.12;472.29,1008.85;455.00,1012.00;448.00,1010.00;444.00,1004.00;444.15,937.25;436.55,927.87;407.22,926.92;390.60,912.20;386.80,903.18;386.00,878.00;378.72,866.01" data-editor-point-modes="s;s;c;c;c;c;c;s;c;c;c;c;s;c;c;c;c;c;c;s;s" />
  <path d="M 623.58 916.69 L 631.70 916.77 L 632.29 929.67 L 622.57 928.42 L 619.81 925.65 L 604.47 920.12 L 592.50 920.21 L 570.00 920.00 L 560.74 920.21 C 560.74 920.21 549.60 927.80 546.59 931.01 C 543.57 934.23 542.65 939.47 542.65 939.47 L 542.40 967.62 L 543.24 970.30 C 543.24 970.30 552.05 971.92 554.21 974.41 C 556.37 976.89 556.97 982.63 556.22 985.22 C 555.47 987.80 551.93 989.39 549.69 989.91 C 547.44 990.42 544.59 990.73 542.73 988.32 C 540.88 985.90 539.26 984.48 538.54 975.41 C 537.83 966.35 538.46 933.95 538.46 933.95 L 544.24 926.49 L 553.12 919.45 L 561.92 915.85 L 607.91 915.26 L 614.95 919.54 L 619.81 920.88 L 623.58 916.69 Z" data-net-id="front-vcc" data-net-label="VCC" data-category="vcc" data-color="#ff0000" fill="#ff0000" fill-opacity="1" data-editor-kind="area" data-editor-mode-version="2" fill-rule="evenodd" clip-rule="evenodd" data-editor-points="623.58,916.69;631.70,916.77;632.29,929.67;622.57,928.42;619.81,925.65;604.47,920.12;592.50,920.21;570.00,920.00;560.74,920.21;546.59,931.01;542.65,939.47;542.40,967.62;543.24,970.30;554.21,974.41;556.22,985.22;549.69,989.91;542.73,988.32;538.54,975.41;538.46,933.95;544.24,926.49;553.12,919.45;561.92,915.85;607.91,915.26;614.95,919.54;619.81,920.88" data-editor-point-modes="c;c;c;c;c;c;c;c;c;s;c;c;c;s;s;s;s;s;c;c;c;c;c;c;c" />
  <path d="M 1074.32 950.40 L 1073.23 958.03 L 1069.63 960.71 L 1065.11 981.57 C 1065.11 981.57 1061.11 986.36 1058.74 986.93 C 1056.37 987.50 1052.61 986.51 1050.86 985.00 C 1049.12 983.49 1048.10 980.24 1048.27 977.88 C 1048.43 975.52 1049.31 972.31 1051.87 970.84 C 1054.42 969.38 1063.60 969.08 1063.60 969.08 L 1066.28 961.13 L 1062.51 958.19 L 1060.41 950.23 L 1074.32 950.40 Z" data-net-id="front-vcc" data-net-label="VCC" data-category="vcc" data-color="#ff0000" fill="#ff0000" fill-opacity="1" data-editor-kind="area" data-editor-mode-version="2" fill-rule="evenodd" clip-rule="evenodd" data-editor-points="1074.32,950.40;1073.23,958.03;1069.63,960.71;1065.11,981.57;1058.74,986.93;1050.86,985.00;1048.27,977.88;1051.87,970.84;1063.60,969.08;1066.28,961.13;1062.51,958.19;1060.41,950.23" data-editor-point-modes="c;c;c;c;s;s;s;s;c;c;c;c" />
  <path d="M 965.00 963.00 L 975.00 965.00 L 980.00 980.00 L 991.00 988.00 L 991.00 995.00 L 986.00 1002.00 L 977.00 1003.00 L 972.00 999.00 L 972.00 983.00 L 963.00 969.00 Z" data-net-id="front-vcc" data-net-label="VCC" data-category="vcc" data-color="#ff0000" fill="#ff0000" fill-opacity="1" data-editor-kind="area" data-editor-mode-version="2" fill-rule="evenodd" clip-rule="evenodd" data-editor-points="965.00,963.00;975.00,965.00;980.00,980.00;991.00,988.00;991.00,995.00;986.00,1002.00;977.00,1003.00;972.00,999.00;972.00,983.00;963.00,969.00" data-editor-point-modes="c;c;c;c;c;c;c;c;c;c" />
  <path d="M 855.36 984.39 L 859.00 981.00 L 862.82 981.38 L 838.35 1009.19 L 801.83 1010.20 L 797.14 1012.21 C 797.14 1012.21 795.73 1019.82 794.12 1021.93 C 792.52 1024.03 789.99 1024.90 787.50 1024.86 C 785.02 1024.82 780.55 1023.92 779.21 1021.67 C 777.87 1019.43 777.99 1013.80 779.46 1011.37 C 780.93 1008.94 785.44 1007.36 788.01 1007.10 C 790.57 1006.83 794.87 1009.78 794.87 1009.78 L 801.91 1007.18 L 836.09 1006.09 L 843.30 999.39 L 849.24 992.60 L 855.36 984.39 Z" data-net-id="front-vcc" data-net-label="VCC" data-category="vcc" data-color="#ff0000" fill="#ff0000" fill-opacity="1" data-editor-kind="area" data-editor-mode-version="2" fill-rule="evenodd" clip-rule="evenodd" data-editor-points="855.36,984.39;859.00,981.00;862.82,981.38;838.35,1009.19;801.83,1010.20;797.14,1012.21;794.12,1021.93;787.50,1024.86;779.21,1021.67;779.46,1011.37;788.01,1007.10;794.87,1009.78;801.91,1007.18;836.09,1006.09;843.30,999.39;849.24,992.60" data-editor-point-modes="c;c;c;c;c;c;s;s;s;s;s;c;c;c;c;c" />
  <path d="M 1152.00 1195.00 L 1181.00 1196.00 L 1190.00 1211.00 L 1192.00 1416.00 L 1184.00 1426.00 L 1176.00 1428.00 L 1165.00 1425.00 L 1158.00 1417.00 L 1158.00 1354.00 L 1165.00 1344.00 L 1164.00 1276.00 L 1157.00 1264.00 L 1157.00 1236.00 L 1144.00 1222.00 L 1142.00 1214.00 L 1144.00 1200.00 Z" data-net-id="front-vcc" data-net-label="VCC" data-category="vcc" data-color="#ff0000" fill="#ff0000" fill-opacity="1" data-editor-kind="area" data-editor-mode-version="2" fill-rule="evenodd" clip-rule="evenodd" data-editor-points="1152.00,1195.00;1181.00,1196.00;1190.00,1211.00;1192.00,1416.00;1184.00,1426.00;1176.00,1428.00;1165.00,1425.00;1158.00,1417.00;1158.00,1354.00;1165.00,1344.00;1164.00,1276.00;1157.00,1264.00;1157.00,1236.00;1144.00,1222.00;1142.00,1214.00;1144.00,1200.00" data-editor-point-modes="c;c;c;c;c;c;c;c;c;c;c;c;c;c;c;c" />
  <path d="M 1120.21 1409.92 C 1122.79 1412.24 1122.76 1424.99 1122.76 1424.99 L 1123.86 1502.05 C 1123.86 1502.05 1125.15 1508.22 1127.01 1510.04 C 1128.87 1511.87 1135.00 1513.00 1135.00 1513.00 C 1135.00 1513.00 1152.76 1511.87 1156.93 1514.04 C 1161.09 1516.20 1160.49 1523.01 1160.00 1526.00 C 1159.51 1528.99 1154.00 1532.00 1154.00 1532.00 L 1112.82 1531.12 L 1106.61 1527.81 L 1104.00 1519.00 L 1104.00 1510.00 L 1104.00 1505.00 L 1105.06 1421.76 C 1105.06 1421.76 1104.74 1413.09 1107.27 1411.12 C 1109.79 1409.14 1117.63 1407.61 1120.21 1409.92 Z" data-net-id="front-vcc" data-net-label="VCC" data-category="vcc" data-color="#ff0000" fill="#ff0000" fill-opacity="1" data-editor-kind="area" data-editor-mode-version="2" fill-rule="evenodd" clip-rule="evenodd" data-editor-points="1120.21,1409.92;1122.76,1424.99;1123.86,1502.05;1127.01,1510.04;1135.00,1513.00;1156.93,1514.04;1160.00,1526.00;1154.00,1532.00;1112.82,1531.12;1106.61,1527.81;1104.00,1519.00;1104.00,1510.00;1104.00,1505.00;1105.06,1421.76;1107.27,1411.12" data-editor-point-modes="s;c;c;s;c;s;s;c;c;c;c;c;c;c;s" />
  <path d="M 406.06 1432.94 L 406.60 1455.02 L 432.00 1455.26 L 430.85 1432.65 L 422.02 1429.74 L 421.85 1422.70 C 421.85 1422.70 425.67 1421.14 426.54 1418.75 C 427.42 1416.37 428.34 1410.86 427.08 1408.41 C 425.82 1405.95 421.58 1404.23 418.97 1404.03 C 416.36 1403.84 412.96 1405.38 411.40 1407.23 C 409.83 1409.08 408.94 1412.60 409.58 1415.13 C 410.22 1417.65 415.24 1422.38 415.24 1422.38 L 415.34 1430.17 L 406.06 1432.94 Z" data-net-id="front-PWR" data-net-label="Power through D5+D6" data-category="PWR" data-color="#000000" fill="#000000" fill-opacity="1" data-editor-kind="area" data-editor-mode-version="2" fill-rule="evenodd" clip-rule="evenodd" data-editor-points="406.06,1432.94;406.60,1455.02;432.00,1455.26;430.85,1432.65;422.02,1429.74;421.85,1422.70;426.54,1418.75;427.08,1408.41;418.97,1404.03;411.40,1407.23;409.58,1415.13;415.24,1422.38;415.34,1430.17" data-editor-point-modes="c;c;c;c;c;c;s;s;s;s;s;c;c" />
  <path d="M 409.18 1482.30 L 409.55 1500.64 L 431.46 1500.44 L 431.36 1495.18 L 437.85 1497.25 C 437.85 1497.25 438.58 1504.89 439.63 1507.49 C 440.68 1510.09 444.15 1512.85 444.15 1512.85 C 444.15 1512.85 444.21 1523.49 446.03 1526.95 C 447.84 1530.42 451.93 1532.39 455.05 1533.63 C 458.17 1534.86 464.73 1534.38 464.73 1534.38 L 465.30 1539.55 L 487.20 1539.64 L 486.45 1521.97 L 464.83 1521.31 L 465.20 1527.23 L 458.15 1527.33 C 458.15 1527.33 454.20 1526.42 452.89 1523.94 C 451.57 1521.47 450.26 1512.48 450.26 1512.48 C 450.26 1512.48 455.87 1505.41 456.27 1502.23 C 456.68 1499.05 454.72 1494.98 452.70 1493.39 C 450.68 1491.81 444.15 1492.74 444.15 1492.74 C 444.15 1492.74 440.61 1489.76 438.41 1488.88 C 436.22 1488.00 430.99 1487.47 430.99 1487.47 L 429.37 1482.21 L 409.18 1482.30 Z" data-net-id="front-PWR" data-net-label="Power through D5+D6" data-category="PWR" data-color="#000000" fill="#000000" fill-opacity="1" data-editor-kind="area" data-editor-mode-version="2" fill-rule="evenodd" clip-rule="evenodd" data-editor-points="409.18,1482.30;409.55,1500.64;431.46,1500.44;431.36,1495.18;437.85,1497.25;439.63,1507.49;444.15,1512.85;446.03,1526.95;455.05,1533.63;464.73,1534.38;465.30,1539.55;487.20,1539.64;486.45,1521.97;464.83,1521.31;465.20,1527.23;458.15,1527.33;452.89,1523.94;450.26,1512.48;456.27,1502.23;452.70,1493.39;444.15,1492.74;438.41,1488.88;430.99,1487.47;429.37,1482.21" data-editor-point-modes="c;c;c;c;c;s;c;s;s;c;c;c;c;c;c;c;s;c;s;s;c;s;c;c" />
  <path d="M 463.65 1472.69 L 464.18 1489.93 L 486.73 1490.33 L 486.60 1473.09 L 477.84 1472.62 L 477.45 1360.54 C 477.45 1360.54 480.53 1357.78 481.36 1354.50 C 482.19 1351.22 483.66 1343.60 482.42 1340.84 C 481.18 1338.08 476.62 1337.69 473.90 1337.95 C 471.18 1338.22 467.34 1340.14 466.11 1342.43 C 464.87 1344.72 465.33 1348.78 466.50 1351.72 C 467.68 1354.66 473.14 1360.07 473.14 1360.07 L 472.54 1472.16 L 463.65 1472.69 Z" data-net-id="front-PWR" data-net-label="Power through D5+D6" data-category="PWR" data-color="#000000" fill="#000000" fill-opacity="1" data-editor-kind="area" data-editor-mode-version="2" fill-rule="evenodd" clip-rule="evenodd" data-editor-points="463.65,1472.69;464.18,1489.93;486.73,1490.33;486.60,1473.09;477.84,1472.62;477.45,1360.54;481.36,1354.50;482.42,1340.84;473.90,1337.95;466.11,1342.43;466.50,1351.72;473.14,1360.07;472.54,1472.16" data-editor-point-modes="c;c;c;c;c;c;s;s;s;s;s;c;c" />
  <path d="M 892.85 1296.06 L 893.10 1312.35 L 895.66 1343.52 C 895.66 1343.52 899.85 1348.83 902.62 1349.74 C 905.38 1350.66 909.00 1351.92 912.25 1349.01 C 915.51 1346.10 920.11 1338.32 922.14 1332.30 C 924.17 1326.27 924.45 1312.85 924.45 1312.85 L 924.09 1296.06 L 892.85 1296.06 Z" data-net-id="front-PWR" data-net-label="Power through D5+D6" data-category="PWR" data-color="#000000" fill="#000000" fill-opacity="1" data-editor-kind="area" data-editor-mode-version="2" fill-rule="evenodd" clip-rule="evenodd" data-editor-points="892.85,1296.06;893.10,1312.35;895.66,1343.52;902.62,1349.74;912.25,1349.01;922.14,1332.30;924.45,1312.85;924.09,1296.06" data-editor-point-modes="c;c;c;s;s;s;c;c" />
  <path d="M 881.68 1255.30 L 882.14 1282.78 L 815.56 1282.41 C 815.56 1282.41 803.71 1294.23 800.44 1299.19 C 797.17 1304.16 796.56 1307.39 795.92 1312.20 C 795.28 1317.00 796.59 1328.03 796.59 1328.03 C 796.59 1328.03 801.85 1330.73 802.75 1333.50 C 803.64 1336.26 803.54 1342.21 801.96 1344.62 C 800.37 1347.03 795.71 1347.81 793.25 1347.98 C 790.79 1348.14 788.65 1346.91 787.19 1345.60 C 785.73 1344.28 784.85 1342.08 784.51 1340.11 C 784.16 1338.13 783.92 1336.21 785.12 1333.76 C 786.31 1331.31 791.68 1325.38 791.68 1325.38 C 791.68 1325.38 789.95 1309.16 793.90 1301.31 C 797.85 1293.45 815.38 1278.26 815.38 1278.26 L 827.94 1268.97 L 841.29 1255.95 L 881.68 1255.30 Z" data-net-id="front-PWR" data-net-label="Power through D5+D6" data-category="PWR" data-color="#000000" fill="#000000" fill-opacity="1" data-editor-kind="area" data-editor-mode-version="2" fill-rule="evenodd" clip-rule="evenodd" data-editor-points="881.68,1255.30;882.14,1282.78;815.56,1282.41;800.44,1299.19;795.92,1312.20;796.59,1328.03;802.75,1333.50;801.96,1344.62;793.25,1347.98;787.19,1345.60;784.51,1340.11;785.12,1333.76;791.68,1325.38;793.90,1301.31;815.38,1278.26;827.94,1268.97;841.29,1255.95" data-editor-point-modes="c;c;c;s;s;c;s;s;s;s;s;s;c;s;c;c;c" />
  <path d="M 760.53 1326.90 C 760.53 1326.90 753.73 1336.03 753.88 1339.68 C 754.02 1343.34 758.71 1347.88 761.40 1348.82 C 764.10 1349.75 768.29 1347.73 770.06 1345.30 C 771.83 1342.86 772.87 1337.57 772.02 1334.20 C 771.17 1330.83 764.97 1325.07 764.97 1325.07 C 764.97 1325.07 766.04 1319.72 770.71 1313.98 C 775.39 1308.24 793.03 1290.62 793.03 1290.62 L 815.47 1269.35 L 842.48 1239.33 C 842.48 1239.33 846.20 1235.22 847.05 1231.24 C 847.90 1227.26 847.57 1215.45 847.57 1215.45 C 847.57 1215.45 854.01 1210.78 854.49 1207.62 C 854.97 1204.47 853.27 1198.14 850.44 1196.53 C 847.62 1194.92 839.98 1195.73 837.53 1197.97 C 835.07 1200.21 834.81 1206.47 835.70 1209.97 C 836.59 1213.47 841.83 1214.95 842.88 1218.98 C 843.92 1223.00 841.96 1234.11 841.96 1234.11 L 812.21 1267.00 C 812.21 1267.00 778.67 1299.56 770.06 1309.54 C 761.45 1319.52 760.53 1326.90 760.53 1326.90 Z" data-net-id="front-PWR" data-net-label="Power through D5+D6" data-category="PWR" data-color="#000000" fill="#000000" fill-opacity="1" data-editor-kind="area" data-editor-mode-version="2" fill-rule="evenodd" clip-rule="evenodd" data-editor-points="760.53,1326.90;753.88,1339.68;761.40,1348.82;770.06,1345.30;772.02,1334.20;764.97,1325.07;770.71,1313.98;793.03,1290.62;815.47,1269.35;842.48,1239.33;847.05,1231.24;847.57,1215.45;854.49,1207.62;850.44,1196.53;837.53,1197.97;835.70,1209.97;842.88,1218.98;841.96,1234.11;812.21,1267.00;770.06,1309.54" data-editor-point-modes="c;s;s;s;s;c;s;c;c;c;s;c;s;s;s;s;s;c;c;s" />
  <path d="M 957.74 1176.45 C 959.38 1178.06 960.75 1181.45 960.73 1183.93 C 960.70 1186.41 959.23 1189.85 957.59 1191.33 C 955.94 1192.81 953.26 1193.02 950.86 1192.83 C 948.45 1192.63 943.16 1190.13 943.16 1190.13 C 943.16 1190.13 867.55 1189.25 848.49 1191.33 C 829.42 1193.41 828.74 1202.62 828.74 1202.62 L 828.30 1210.17 C 828.30 1210.17 829.64 1233.47 828.00 1240.76 C 826.35 1248.05 818.42 1253.92 818.42 1253.92 C 818.42 1253.92 786.95 1286.54 778.36 1294.64 C 769.77 1302.74 766.88 1302.51 766.88 1302.51 L 701.07 1302.95 L 693.31 1304.85 C 693.31 1304.85 688.99 1313.89 686.14 1315.87 C 683.30 1317.86 678.95 1317.45 676.24 1316.75 C 673.53 1316.05 670.67 1314.15 669.90 1311.68 C 669.13 1309.21 669.63 1304.15 671.61 1301.92 C 673.58 1299.70 678.83 1298.38 681.75 1298.31 C 684.68 1298.25 689.17 1301.54 689.17 1301.54 L 698.77 1299.21 L 762.53 1298.91 C 762.53 1298.91 766.50 1300.11 776.11 1291.34 C 785.73 1282.57 820.22 1246.29 820.22 1246.29 C 820.22 1246.29 823.90 1242.67 824.63 1235.52 C 825.37 1228.38 822.92 1211.06 824.63 1203.44 C 826.34 1195.83 830.53 1192.46 834.88 1189.83 C 839.23 1187.20 850.73 1187.67 850.73 1187.67 L 912.94 1186.32 L 940.91 1185.65 C 940.91 1185.65 942.10 1179.47 943.75 1177.57 C 945.41 1175.68 948.53 1174.47 950.86 1174.28 C 953.19 1174.09 956.09 1174.84 957.74 1176.45 Z" data-net-id="front-PWR" data-net-label="Power through D5+D6" data-category="PWR" data-color="#000000" fill="#000000" fill-opacity="1" data-editor-kind="area" data-editor-mode-version="2" fill-rule="evenodd" clip-rule="evenodd" data-editor-points="957.74,1176.45;960.73,1183.93;957.59,1191.33;950.86,1192.83;943.16,1190.13;848.49,1191.33;828.74,1202.62;828.30,1210.17;828.00,1240.76;818.42,1253.92;778.36,1294.64;766.88,1302.51;701.07,1302.95;693.31,1304.85;686.14,1315.87;676.24,1316.75;669.90,1311.68;671.61,1301.92;681.75,1298.31;689.17,1301.54;698.77,1299.21;762.53,1298.91;776.11,1291.34;820.22,1246.29;824.63,1235.52;824.63,1203.44;834.88,1189.83;850.73,1187.67;912.94,1186.32;940.91,1185.65;943.75,1177.57;950.86,1174.28" data-editor-point-modes="s;s;s;s;c;s;c;c;s;c;s;c;c;c;s;s;s;s;s;c;c;c;s;c;s;s;s;c;c;c;s;s" />
  <path d="M 724.60 1016.44 C 724.60 1016.44 715.65 1017.38 713.40 1019.48 C 711.14 1021.58 710.71 1026.48 711.06 1029.04 C 711.41 1031.61 713.09 1033.98 715.50 1034.88 C 717.91 1035.77 723.12 1035.59 725.53 1034.41 C 727.94 1033.22 729.11 1030.93 729.97 1027.76 C 730.82 1024.59 728.72 1018.02 730.67 1015.39 C 732.61 1012.77 741.63 1012.01 741.63 1012.01 L 765.78 990.19 L 774.29 989.06 L 804.17 986.34 L 824.93 985.29 L 828.59 980.27 L 804.40 983.19 L 762.98 987.63 L 740.70 1008.51 L 731.48 1010.03 L 724.60 1016.44 Z" data-net-id="front-PWR" data-net-label="Power through D5+D6" data-category="PWR" data-color="#000000" fill="#000000" fill-opacity="1" data-editor-kind="area" data-editor-mode-version="2" fill-rule="evenodd" clip-rule="evenodd" data-editor-points="724.60,1016.44;713.40,1019.48;711.06,1029.04;715.50,1034.88;725.53,1034.41;729.97,1027.76;730.67,1015.39;741.63,1012.01;765.78,990.19;774.29,989.06;804.17,986.34;824.93,985.29;828.59,980.27;804.40,983.19;762.98,987.63;740.70,1008.51;731.48,1010.03" data-editor-point-modes="c;s;s;s;s;s;s;c;c;c;c;c;c;c;c;c;c" />
  <path d="M 1100.65 599.61 L 1100.55 644.71 L 1174.53 644.19 L 1188.45 633.93 L 1224.23 633.62 C 1224.23 633.62 1223.71 625.96 1224.55 625.56 C 1225.38 625.16 1229.26 631.21 1229.26 631.21 L 1229.46 661.56 L 1231.77 668.78 C 1231.77 668.78 1230.21 676.26 1231.56 679.03 C 1232.90 681.81 1237.00 684.94 1239.82 685.42 C 1242.65 685.89 1246.71 684.33 1248.51 681.86 C 1250.31 679.38 1251.89 673.61 1250.60 670.56 C 1249.31 667.50 1242.94 665.44 1240.77 663.55 C 1238.59 661.65 1237.57 659.18 1237.57 659.18 L 1237.31 625.35 C 1237.31 625.35 1235.85 621.04 1233.86 619.70 C 1231.87 618.36 1225.38 617.29 1225.38 617.29 L 1223.60 610.07 L 1186.57 609.08 L 1170.58 598.22 L 1100.65 599.61 Z" data-net-id="front-vcc_cart" data-net-label="VCC Cart" data-category="vcc_cart" data-color="#ff4860" fill="#ff4860" fill-opacity="1" data-editor-kind="area" data-editor-mode-version="2" fill-rule="evenodd" clip-rule="evenodd" data-editor-points="1100.65,599.61;1100.55,644.71;1174.53,644.19;1188.45,633.93;1224.23,633.62;1224.55,625.56;1229.26,631.21;1229.46,661.56;1231.77,668.78;1231.56,679.03;1239.82,685.42;1248.51,681.86;1250.60,670.56;1240.77,663.55;1237.57,659.18;1237.31,625.35;1233.86,619.70;1225.38,617.29;1223.60,610.07;1186.57,609.08;1170.58,598.22" data-editor-point-modes="c;c;c;c;c;s;c;c;c;s;s;s;s;s;c;c;s;c;c;c;c" />
  <path d="M 1241.56 891.40 L 1241.87 919.39 L 1270.27 919.39 L 1271.63 914.28 L 1303.16 913.57 C 1303.16 913.57 1307.72 909.07 1308.27 906.62 C 1308.81 904.17 1307.33 900.70 1306.43 898.86 C 1305.53 897.02 1302.85 895.59 1302.85 895.59 L 1271.82 895.39 L 1271.51 890.68 L 1241.56 891.40 Z" data-net-id="front-vcc_cart" data-net-label="VCC Cart" data-category="vcc_cart" data-color="#ff4860" fill="#ff4860" fill-opacity="1" data-editor-kind="area" data-editor-mode-version="2" fill-rule="evenodd" clip-rule="evenodd" data-editor-points="1241.56,891.40;1241.87,919.39;1270.27,919.39;1271.63,914.28;1303.16,913.57;1308.27,906.62;1306.43,898.86;1302.85,895.59;1271.82,895.39;1271.51,890.68" data-editor-point-modes="c;c;c;c;c;s;s;c;c;c" />
</svg>
