<svg xmlns="http://www.w3.org/2000/svg" viewBox="0 0 1765 1765">
  <path d="M 777.05 143.76 C 780.64 144.46 783.48 149.62 783.48 149.62 L 781.52 215.42 L 792.42 215.84 C 792.42 215.84 793.28 207.97 793.25 201.31 C 793.23 194.65 792.28 175.89 792.28 175.89 L 810.71 176.30 L 810.30 213.60 C 810.30 213.60 804.13 213.57 801.08 215.14 C 798.03 216.70 792.00 223.00 792.00 223.00 C 792.00 223.00 729.42 221.35 711.26 222.68 C 693.09 224.01 692.71 224.11 683.00 231.00 C 673.29 237.89 653.00 264.00 653.00 264.00 C 653.00 264.00 650.45 294.71 652.03 302.16 C 653.61 309.62 660.76 309.50 662.51 308.73 C 664.25 307.96 662.51 297.55 662.51 297.55 L 656.92 288.75 L 664.00 284.00 L 674.00 285.00 L 673.82 291.69 L 669.49 299.37 L 672.14 316.55 L 692.54 316.83 L 692.12 310.13 L 690.16 294.76 L 714.19 293.64 L 712.00 316.00 C 712.00 316.00 735.00 315.17 744.00 320.00 C 753.00 324.83 766.00 345.00 766.00 345.00 C 766.00 345.00 767.21 397.82 766.71 412.66 C 766.21 427.49 768.12 425.94 763.00 434.00 C 757.88 442.06 736.00 461.00 736.00 461.00 L 732.00 495.00 L 710.00 520.00 L 708.00 594.00 L 701.00 600.00 L 664.00 602.00 L 648.00 617.00 L 647.00 648.00 L 598.00 648.00 L 596.00 645.00 L 596.00 599.00 L 624.00 598.00 L 637.00 583.00 L 637.00 494.00 L 640.00 482.00 L 709.00 411.00 L 722.00 409.00 L 733.00 399.00 L 736.00 394.00 L 736.00 365.00 L 720.00 350.00 L 672.00 350.00 L 654.00 344.00 L 602.00 291.00 L 600.00 248.00 L 592.00 245.00 L 566.00 245.00 L 557.00 245.00 L 531.00 245.00 C 531.00 245.00 521.29 248.38 517.96 251.05 C 514.63 253.72 511.00 261.00 511.00 261.00 L 511.00 349.00 L 506.00 356.00 L 497.00 360.00 L 497.66 368.84 C 497.66 368.84 508.28 376.31 510.00 386.00 C 511.72 395.69 509.83 418.33 508.00 427.00 C 506.17 435.67 503.67 435.33 499.00 438.00 C 494.33 440.67 484.83 442.83 480.00 443.00 C 475.17 443.17 473.27 443.15 470.00 439.00 C 466.73 434.85 463.39 421.50 460.37 418.09 C 457.35 414.69 451.88 418.55 451.88 418.55 C 451.88 418.55 452.36 426.83 454.00 434.00 C 455.64 441.17 460.57 439.26 461.74 461.59 C 462.90 483.93 461.00 568.00 461.00 568.00 C 461.00 568.00 423.29 617.45 412.02 629.38 C 400.75 641.30 399.21 637.96 393.38 639.53 C 387.54 641.10 377.01 638.77 377.01 638.77 C 377.01 638.77 368.57 636.47 367.00 630.00 C 365.43 623.53 367.61 599.97 367.61 599.97 L 358.00 590.00 C 358.00 590.00 345.68 581.84 343.36 575.27 C 341.05 568.69 342.43 556.62 344.12 550.56 C 345.81 544.50 350.21 541.42 353.52 538.89 C 356.83 536.37 363.98 535.41 363.98 535.41 C 363.98 535.41 372.95 536.16 377.62 538.59 C 382.29 541.02 384.27 548.10 392.00 550.00 C 399.73 551.90 416.67 552.17 424.00 550.00 C 431.33 547.83 433.83 543.50 436.00 537.00 C 438.17 530.50 439.33 518.00 437.00 511.00 C 434.67 504.00 430.08 497.58 422.00 495.00 C 413.92 492.42 397.03 496.21 388.53 495.54 C 380.03 494.88 371.00 491.00 371.00 491.00 L 371.55 448.41 L 398.08 447.80 L 400.65 443.56 C 400.65 443.56 390.45 434.16 387.62 429.01 C 384.79 423.85 381.62 418.97 383.68 412.64 C 385.74 406.30 400.00 391.00 400.00 391.00 L 388.00 389.00 L 384.00 397.00 C 384.00 397.00 376.66 404.17 372.31 405.36 C 367.96 406.56 362.13 405.71 357.91 404.15 C 353.69 402.59 348.99 399.69 347.00 396.00 C 345.01 392.31 345.00 387.83 346.00 382.00 C 347.00 376.17 351.00 365.67 353.00 361.00 C 355.00 356.33 355.00 355.83 358.00 354.00 C 361.00 352.17 371.00 350.00 371.00 350.00 L 383.00 355.00 L 430.00 355.00 L 439.00 352.00 L 495.38 296.09 L 495.08 219.09 C 495.08 219.09 496.18 208.68 500.00 204.00 C 503.82 199.32 512.17 194.17 518.00 191.00 C 523.83 187.83 528.33 186.17 535.00 185.00 C 541.67 183.83 558.00 184.00 558.00 184.00 C 558.00 184.00 559.24 201.93 562.24 208.59 C 565.24 215.26 576.00 224.00 576.00 224.00 C 576.00 224.00 581.40 232.37 589.24 234.04 C 597.07 235.71 623.00 234.00 623.00 234.00 L 632.00 232.00 L 645.00 218.00 L 654.82 208.99 L 658.04 200.47 C 658.04 200.47 655.34 170.53 662.65 164.15 C 669.96 157.77 689.30 161.94 701.90 162.20 C 714.49 162.45 731.58 158.05 738.22 165.69 C 744.85 173.32 741.71 208.01 741.71 208.01 L 745.90 214.72 L 771.32 214.44 L 772.44 202.85 L 746.74 201.03 L 747.58 160.94 L 761.96 145.43 C 761.96 145.43 773.46 143.06 777.05 143.76 Z" data-net-id="front-gnd" data-net-label="GND" data-category="gnd" data-color="#000000" fill="#000000" fill-opacity="1" data-editor-points="777.05,143.76;783.48,149.62;781.52,215.42;792.42,215.84;793.25,201.31;792.28,175.89;810.71,176.30;810.30,213.60;801.08,215.14;792.00,223.00;711.26,222.68;683.00,231.00;653.00,264.00;652.03,302.16;662.51,308.73;662.51,297.55;656.92,288.75;664.00,284.00;674.00,285.00;673.82,291.69;669.49,299.37;672.14,316.55;692.54,316.83;692.12,310.13;690.16,294.76;714.19,293.64;712.00,316.00;744.00,320.00;766.00,345.00;766.71,412.66;763.00,434.00;736.00,461.00;732.00,495.00;710.00,520.00;708.00,594.00;701.00,600.00;664.00,602.00;648.00,617.00;647.00,648.00;598.00,648.00;596.00,645.00;596.00,599.00;624.00,598.00;637.00,583.00;637.00,494.00;640.00,482.00;709.00,411.00;722.00,409.00;733.00,399.00;736.00,394.00;736.00,365.00;720.00,350.00;672.00,350.00;654.00,344.00;602.00,291.00;600.00,248.00;592.00,245.00;566.00,245.00;557.00,245.00;531.00,245.00;517.96,251.05;511.00,261.00;511.00,349.00;506.00,356.00;497.00,360.00;497.66,368.84;510.00,386.00;508.00,427.00;499.00,438.00;480.00,443.00;470.00,439.00;460.37,418.09;451.88,418.55;454.00,434.00;461.74,461.59;461.00,568.00;412.02,629.38;393.38,639.53;377.01,638.77;367.00,630.00;367.61,599.97;358.00,590.00;343.36,575.27;344.12,550.56;353.52,538.89;363.98,535.41;377.62,538.59;392.00,550.00;424.00,550.00;436.00,537.00;437.00,511.00;422.00,495.00;388.53,495.54;371.00,491.00;371.55,448.41;398.08,447.80;400.65,443.56;387.62,429.01;383.68,412.64;400.00,391.00;388.00,389.00;384.00,397.00;372.31,405.36;357.91,404.15;347.00,396.00;346.00,382.00;353.00,361.00;358.00,354.00;371.00,350.00;383.00,355.00;430.00,355.00;439.00,352.00;495.38,296.09;495.08,219.09;500.00,204.00;518.00,191.00;535.00,185.00;558.00,184.00;562.24,208.59;576.00,224.00;589.24,234.04;623.00,234.00;632.00,232.00;645.00,218.00;654.82,208.99;658.04,200.47;662.65,164.15;701.90,162.20;738.22,165.69;741.71,208.01;745.90,214.72;771.32,214.44;772.44,202.85;746.74,201.03;747.58,160.94;761.96,145.43" data-editor-point-modes="s;s;s;s;s;s;s;s;s;s;s;s;s;s;s;s;s;s;s;s;s;s;s;s;s;s;s;s;s;s;s;s;s;s;s;s;s;s;s;s;s;s;s;s;s;s;s;s;s;s;s;s;s;s;s;s;s;s;s;s;s;s;s;s;s;s;s;s;s;s;s;s;s;s;s;s;s;s;s;s;s;s;s;s;s;s;s;s;s;s;s;s;s;s;s;s;s;s;s;s;s;s;s;s;s;s;s;s;s;s;s;s;s;s;s;s;s;s;s;s;s;s;s;s;s;s;s;s;s;s;s;s;s;s;s;s" />
  <path d="M 866.00 150.00 C 868.20 148.00 869.00 148.83 871.00 150.00 C 873.00 151.17 877.33 153.00 878.00 157.00 C 878.67 161.00 874.83 170.00 875.00 174.00 C 875.17 178.00 879.00 181.00 879.00 181.00 L 879.00 212.00 L 871.00 215.00 C 871.00 215.00 863.83 215.17 862.00 214.00 C 860.17 212.83 860.00 208.00 860.00 208.00 C 860.00 208.00 856.80 171.67 857.80 162.01 C 858.80 152.34 863.80 152.00 866.00 150.00 Z" data-net-id="front-gnd" data-net-label="GND" data-category="gnd" data-color="#000000" fill="#000000" fill-opacity="1" data-editor-points="866.00,150.00;871.00,150.00;878.00,157.00;875.00,174.00;879.00,181.00;879.00,212.00;871.00,215.00;862.00,214.00;860.00,208.00;857.80,162.01" data-editor-point-modes="s;s;s;s;s;s;s;s;s;s" />
  <path d="M 1044.67 160.30 L 1087.44 160.84 C 1087.44 160.84 1099.03 161.09 1101.57 169.94 C 1104.11 178.78 1102.65 213.90 1102.65 213.90 C 1102.65 213.90 1102.44 218.74 1099.05 220.62 C 1095.66 222.51 1082.30 225.21 1082.30 225.21 L 1078.88 240.43 L 1070.33 245.74 L 1010.64 248.80 L 989.48 273.02 L 990.47 295.16 L 1014.60 317.22 L 1031.08 316.32 L 1062.90 347.45 L 1071.35 366.65 L 1067.40 378.70 L 1070.30 384.60 L 1078.60 382.65 L 1080.70 374.50 L 1094.20 375.35 L 1093.55 383.10 L 1083.75 392.40 L 1069.50 390.85 L 1063.90 386.20 L 1057.45 384.80 L 1058.50 379.85 L 1051.40 371.80 L 1050.45 360.20 L 1040.05 352.40 L 1029.80 352.45 L 1016.31 361.43 L 996.06 361.97 L 979.13 349.27 L 979.67 337.03 L 975.98 332.89 L 970.04 332.17 C 970.04 332.17 963.77 335.50 961.55 335.65 C 959.33 335.80 957.35 335.33 956.71 333.07 C 956.07 330.81 956.25 324.21 957.70 322.08 C 959.16 319.95 963.33 320.12 965.45 320.28 C 967.56 320.45 968.60 322.67 970.40 323.07 C 972.20 323.48 976.25 322.71 976.25 322.71 L 976.97 311.37 C 976.97 311.37 971.46 298.23 971.12 287.24 C 970.77 276.26 969.84 257.76 974.90 245.47 C 979.96 233.18 994.09 219.98 1001.46 213.51 C 1008.83 207.04 1019.10 206.67 1019.10 206.67 C 1019.10 206.67 1019.42 179.42 1020.63 171.92 C 1021.85 164.41 1022.39 163.59 1026.40 161.65 C 1030.40 159.72 1044.67 160.30 1044.67 160.30 Z" data-net-id="front-gnd" data-net-label="GND" data-category="gnd" data-color="#000000" fill="#000000" fill-opacity="1" data-editor-points="1044.67,160.30;1087.44,160.84;1101.57,169.94;1102.65,213.90;1099.05,220.62;1082.30,225.21;1078.88,240.43;1070.33,245.74;1010.64,248.80;989.48,273.02;990.47,295.16;1014.60,317.22;1031.08,316.32;1062.90,347.45;1071.35,366.65;1067.40,378.70;1070.30,384.60;1078.60,382.65;1080.70,374.50;1094.20,375.35;1093.55,383.10;1083.75,392.40;1069.50,390.85;1063.90,386.20;1057.45,384.80;1058.50,379.85;1051.40,371.80;1050.45,360.20;1040.05,352.40;1029.80,352.45;1016.31,361.43;996.06,361.97;979.13,349.27;979.67,337.03;975.98,332.89;970.04,332.17;961.55,335.65;956.71,333.07;957.70,322.08;965.45,320.28;970.40,323.07;976.25,322.71;976.97,311.37;971.12,287.24;974.90,245.47;1001.46,213.51;1019.10,206.67;1020.63,171.92;1026.40,161.65" data-editor-point-modes="s;s;s;s;s;s;s;s;s;s;s;s;s;s;s;s;s;s;s;s;s;s;s;s;s;s;s;s;s;s;s;s;s;s;s;s;s;s;s;s;s;s;s;s;s;s;s;s;s" />
  <path d="M 1205.00 179.00 C 1205.00 179.00 1233.33 184.83 1242.49 186.50 C 1251.66 188.16 1255.08 187.25 1260.00 189.00 C 1264.92 190.75 1272.00 197.00 1272.00 197.00 L 1274.00 290.00 L 1278.00 309.00 L 1317.00 349.00 L 1333.00 354.00 L 1360.00 353.00 L 1366.00 360.00 L 1367.00 377.00 L 1372.00 391.00 L 1370.00 421.00 L 1374.00 437.00 L 1372.00 500.00 L 1363.00 516.00 L 1349.00 517.00 L 1336.00 524.00 L 1326.00 541.00 L 1326.00 632.00 L 1350.00 655.00 L 1436.00 655.00 L 1447.00 664.00 L 1455.00 678.00 L 1464.00 760.00 L 1486.00 902.00 L 1486.00 946.00 L 1483.00 965.00 L 1477.00 970.00 L 1443.00 971.00 L 1433.00 961.00 L 1431.00 804.00 L 1424.00 803.00 L 1421.00 816.00 L 1423.00 824.00 L 1395.00 826.00 L 1376.00 823.00 L 1376.00 806.00 L 1372.00 806.00 L 1376.00 802.00 L 1368.00 802.00 L 1365.00 824.00 L 1356.00 829.00 L 1307.00 783.00 L 1306.00 739.00 L 1312.00 731.00 L 1360.00 731.00 L 1364.00 736.00 L 1364.00 759.00 L 1368.00 770.00 L 1374.00 768.00 L 1374.00 739.00 L 1411.00 738.00 L 1415.00 733.00 L 1415.00 682.00 L 1408.00 671.00 L 1355.00 671.00 L 1341.00 667.00 L 1310.00 635.00 L 1306.00 608.00 L 1307.00 564.00 L 1297.00 549.00 L 1295.07 461.88 L 1268.72 459.11 L 1244.76 458.23 L 1237.32 457.09 L 1217.48 461.67 L 1194.00 505.00 L 1190.00 509.00 L 1184.00 509.00 L 1184.00 516.00 L 1168.00 517.00 L 1165.00 514.00 L 1167.00 497.00 L 1182.00 497.00 L 1189.00 504.00 L 1187.00 484.00 L 1192.00 465.00 L 1227.00 452.00 L 1266.00 445.00 L 1266.00 437.00 L 1256.00 427.00 L 1254.00 418.00 L 1253.00 380.00 L 1266.00 360.00 L 1262.00 352.00 L 1250.00 350.00 L 1247.00 344.00 L 1246.00 248.00 L 1234.80 231.39 L 1208.00 230.00 L 1202.00 224.00 L 1201.00 182.00 L 1205.00 179.00 Z" data-net-id="front-gnd" data-net-label="GND" data-category="gnd" data-color="#000000" fill="#000000" fill-opacity="1" data-editor-points="1205.00,179.00;1242.49,186.50;1260.00,189.00;1272.00,197.00;1274.00,290.00;1278.00,309.00;1317.00,349.00;1333.00,354.00;1360.00,353.00;1366.00,360.00;1367.00,377.00;1372.00,391.00;1370.00,421.00;1374.00,437.00;1372.00,500.00;1363.00,516.00;1349.00,517.00;1336.00,524.00;1326.00,541.00;1326.00,632.00;1350.00,655.00;1436.00,655.00;1447.00,664.00;1455.00,678.00;1464.00,760.00;1486.00,902.00;1486.00,946.00;1483.00,965.00;1477.00,970.00;1443.00,971.00;1433.00,961.00;1431.00,804.00;1424.00,803.00;1421.00,816.00;1423.00,824.00;1395.00,826.00;1376.00,823.00;1376.00,806.00;1372.00,806.00;1376.00,802.00;1368.00,802.00;1365.00,824.00;1356.00,829.00;1307.00,783.00;1306.00,739.00;1312.00,731.00;1360.00,731.00;1364.00,736.00;1364.00,759.00;1368.00,770.00;1374.00,768.00;1374.00,739.00;1411.00,738.00;1415.00,733.00;1415.00,682.00;1408.00,671.00;1355.00,671.00;1341.00,667.00;1310.00,635.00;1306.00,608.00;1307.00,564.00;1297.00,549.00;1295.07,461.88;1268.72,459.11;1244.76,458.23;1237.32,457.09;1217.48,461.67;1194.00,505.00;1190.00,509.00;1184.00,509.00;1184.00,516.00;1168.00,517.00;1165.00,514.00;1167.00,497.00;1182.00,497.00;1189.00,504.00;1187.00,484.00;1192.00,465.00;1227.00,452.00;1266.00,445.00;1266.00,437.00;1256.00,427.00;1254.00,418.00;1253.00,380.00;1266.00,360.00;1262.00,352.00;1250.00,350.00;1247.00,344.00;1246.00,248.00;1234.80,231.39;1208.00,230.00;1202.00,224.00;1201.00,182.00" data-editor-point-modes="s;s;s;s;s;s;s;s;s;s;s;s;s;s;s;s;s;s;s;s;s;s;s;s;s;s;s;s;s;s;s;s;s;s;s;s;s;s;s;s;s;s;s;s;s;s;s;s;s;s;s;s;s;s;s;s;s;s;s;s;s;s;s;s;s;s;s;s;s;s;s;s;s;s;s;s;s;s;s;s;s;s;s;s;s;s;s;s;s;s;s;s;s" />
  <path d="M 1190.37 276.38 C 1193.61 275.29 1203.94 275.77 1207.05 276.94 C 1210.16 278.11 1209.00 278.55 1209.04 283.41 C 1209.07 288.27 1207.53 300.80 1207.25 306.10 C 1206.97 311.40 1208.11 312.69 1207.36 315.20 C 1206.61 317.71 1202.75 321.17 1202.75 321.17 L 1203.38 326.46 L 1208.29 327.21 L 1208.41 338.22 L 1192.61 338.47 L 1192.86 327.58 L 1197.65 326.83 L 1197.65 321.98 C 1197.65 321.98 1194.59 318.81 1191.55 320.70 C 1188.51 322.59 1181.57 329.27 1179.42 333.30 C 1177.28 337.33 1178.68 344.87 1178.68 344.87 L 1179.11 364.16 L 1157.71 364.28 L 1157.46 337.53 L 1154.60 335.42 L 1147.51 334.61 C 1147.51 334.61 1138.42 336.91 1135.57 335.36 C 1132.71 333.80 1130.04 328.62 1130.40 325.28 C 1130.77 321.93 1131.78 316.46 1137.75 315.30 C 1143.72 314.14 1159.73 318.31 1166.24 318.31 C 1172.75 318.31 1173.23 318.22 1176.81 315.32 C 1180.39 312.43 1185.89 306.26 1187.70 300.95 C 1189.50 295.64 1187.19 287.57 1187.64 283.47 C 1188.08 279.38 1187.14 277.47 1190.37 276.38 Z" data-net-id="front-gnd" data-net-label="GND" data-category="gnd" data-color="#000000" fill="#000000" fill-opacity="1" data-editor-points="1190.37,276.38;1207.05,276.94;1209.04,283.41;1207.25,306.10;1207.36,315.20;1202.75,321.17;1203.38,326.46;1208.29,327.21;1208.41,338.22;1192.61,338.47;1192.86,327.58;1197.65,326.83;1197.65,321.98;1191.55,320.70;1179.42,333.30;1178.68,344.87;1179.11,364.16;1157.71,364.28;1157.46,337.53;1154.60,335.42;1147.51,334.61;1135.57,335.36;1130.40,325.28;1137.75,315.30;1166.24,318.31;1176.81,315.32;1187.70,300.95;1187.64,283.47" data-editor-point-modes="s;s;s;s;s;s;s;s;s;s;s;s;s;s;s;s;s;s;s;s;s;s;s;s;s;s;s;s" />
  <path d="M 1034.00 569.00 C 1036.71 568.65 1041.42 569.94 1044.27 571.88 C 1047.13 573.83 1051.14 580.68 1051.14 580.68 L 1056.13 584.74 L 1062.29 590.02 L 1065.21 594.87 L 1086.43 595.18 L 1086.49 644.77 L 1070.00 645.95 L 1069.69 649.68 L 1064.16 650.86 L 1063.66 655.34 L 1053.00 664.00 C 1053.00 664.00 1047.74 671.79 1044.43 672.62 C 1041.11 673.44 1034.92 672.02 1033.08 668.95 C 1031.25 665.87 1033.42 654.16 1033.42 654.16 L 1033.30 588.22 C 1033.30 588.22 1028.88 588.37 1028.00 586.00 C 1027.12 583.63 1027.00 576.83 1028.00 574.00 C 1029.00 571.17 1031.29 569.35 1034.00 569.00 Z" data-net-id="front-gnd" data-net-label="GND" data-category="gnd" data-color="#000000" fill="#000000" fill-opacity="1" data-editor-points="1034.00,569.00;1044.27,571.88;1051.14,580.68;1056.13,584.74;1062.29,590.02;1065.21,594.87;1086.43,595.18;1086.49,644.77;1070.00,645.95;1069.69,649.68;1064.16,650.86;1063.66,655.34;1053.00,664.00;1044.43,672.62;1033.08,668.95;1033.42,654.16;1033.30,588.22;1028.00,586.00;1028.00,574.00" data-editor-point-modes="s;s;s;s;s;s;s;s;s;s;s;s;s;s;s;s;s;s;s" />
  <path d="M 786.37 721.08 C 788.52 720.92 790.91 722.16 792.37 724.07 C 793.82 725.99 795.42 730.16 795.11 732.56 C 794.80 734.96 792.58 737.58 790.49 738.49 C 788.40 739.39 784.66 739.00 782.57 737.99 C 780.47 736.98 778.44 734.60 777.93 732.44 C 777.42 730.27 778.10 726.90 779.51 725.01 C 780.92 723.12 784.23 721.23 786.37 721.08 Z" data-net-id="front-gnd" data-net-label="GND" data-category="gnd" data-color="#000000" fill="#000000" fill-opacity="1" data-editor-points="786.37,721.08;792.37,724.07;795.11,732.56;790.49,738.49;782.57,737.99;777.93,732.44;779.51,725.01" data-editor-point-modes="s;s;s;s;s;s;s" />
  <path d="M 514.50 757.47 C 518.00 757.14 522.49 758.36 525.00 760.00 C 527.51 761.64 529.54 767.33 529.54 767.33 C 529.54 767.33 540.93 765.08 543.34 766.52 C 545.75 767.96 546.18 774.44 544.00 776.00 C 541.82 777.56 530.23 775.88 530.23 775.88 L 526.00 774.00 C 526.00 774.00 521.42 778.25 517.75 778.25 C 514.08 778.25 504.00 774.00 504.00 774.00 L 467.00 775.00 C 467.00 775.00 462.85 775.89 460.71 777.50 C 458.56 779.12 454.15 784.68 454.15 784.68 C 454.15 784.68 453.66 791.25 454.96 794.14 C 456.27 797.02 462.00 802.00 462.00 802.00 L 461.00 882.00 L 456.00 885.00 L 431.69 885.16 L 428.56 887.85 L 403.60 888.53 L 403.66 865.88 L 434.18 866.94 L 436.74 864.50 L 437.00 854.00 L 432.00 845.00 L 432.00 803.00 C 432.00 803.00 437.24 798.62 439.41 793.78 C 441.58 788.95 440.90 779.30 445.00 774.00 C 449.10 768.70 454.17 764.00 464.00 762.00 C 473.83 760.00 504.00 762.00 504.00 762.00 C 504.00 762.00 511.00 757.80 514.50 757.47 Z" data-net-id="front-gnd" data-net-label="GND" data-category="gnd" data-color="#000000" fill="#000000" fill-opacity="1" data-editor-points="514.50,757.47;525.00,760.00;529.54,767.33;543.34,766.52;544.00,776.00;530.23,775.88;526.00,774.00;517.75,778.25;504.00,774.00;467.00,775.00;460.71,777.50;454.15,784.68;454.96,794.14;462.00,802.00;461.00,882.00;456.00,885.00;431.69,885.16;428.56,887.85;403.60,888.53;403.66,865.88;434.18,866.94;436.74,864.50;437.00,854.00;432.00,845.00;432.00,803.00;439.41,793.78;445.00,774.00;464.00,762.00;504.00,762.00" data-editor-point-modes="s;s;s;s;s;s;s;s;s;s;s;s;s;s;s;s;s;s;s;s;s;s;s;s;s;s;s;s;s" />
  <path d="M 657.87 781.89 C 657.87 781.89 664.90 778.49 667.77 779.14 C 670.65 779.78 674.38 782.99 675.13 785.78 C 675.87 788.58 673.96 793.64 672.23 795.89 C 670.49 798.14 664.73 799.29 664.73 799.29 L 660.00 804.00 C 660.00 804.00 660.64 826.33 657.02 830.96 C 653.41 835.60 641.88 834.40 638.29 831.81 C 634.69 829.22 635.46 815.41 635.46 815.41 L 635.00 805.00 L 630.30 803.11 L 626.41 807.84 C 626.41 807.84 619.35 808.96 618.00 806.78 C 616.64 804.60 617.08 796.85 618.28 794.76 C 619.48 792.68 623.24 793.51 625.21 794.27 C 627.18 795.02 630.09 799.29 630.09 799.29 L 634.61 798.30 C 634.61 798.30 634.20 785.48 638.08 782.74 C 641.95 780.01 657.87 781.89 657.87 781.89 Z" data-net-id="front-gnd" data-net-label="GND" data-category="gnd" data-color="#000000" fill="#000000" fill-opacity="1" data-editor-points="657.87,781.89;667.77,779.14;675.13,785.78;672.23,795.89;664.73,799.29;660.00,804.00;657.02,830.96;638.29,831.81;635.46,815.41;635.00,805.00;630.30,803.11;626.41,807.84;618.00,806.78;618.28,794.76;625.21,794.27;630.09,799.29;634.61,798.30;638.08,782.74" data-editor-point-modes="s;s;s;s;s;s;s;s;s;s;s;s;s;s;s;s;s;s" />
  <path d="M 1198.00 796.78 L 1214.07 797.62 C 1214.07 797.62 1212.08 805.11 1211.07 809.00 C 1210.06 812.90 1208.00 821.00 1208.00 821.00 L 1210.10 984.35 L 1254.98 1029.96 L 1256.00 1050.00 L 1248.64 1057.61 L 1218.00 1059.64 L 1207.71 1065.99 L 1209.00 1104.00 L 1225.06 1129.18 L 1225.06 1173.71 C 1225.06 1173.71 1211.13 1175.52 1205.79 1178.74 C 1200.45 1181.95 1193.00 1193.00 1193.00 1193.00 L 1126.79 1191.78 C 1126.79 1191.78 1111.89 1178.64 1105.37 1176.82 C 1098.84 1175.01 1090.41 1177.36 1087.65 1180.89 C 1084.90 1184.42 1088.85 1198.01 1088.85 1198.01 L 1130.26 1240.50 C 1130.26 1240.50 1129.27 1250.10 1127.39 1253.19 C 1125.51 1256.27 1124.23 1258.12 1119.00 1259.00 C 1113.77 1259.88 1096.03 1258.45 1096.03 1258.45 L 1064.00 1227.00 L 1047.64 1226.17 L 1040.00 1233.00 L 1039.87 1280.54 L 1031.00 1292.00 C 1031.00 1292.00 1029.26 1312.47 1030.43 1317.47 C 1031.60 1322.47 1038.00 1322.00 1038.00 1322.00 L 1091.14 1320.45 L 1096.00 1337.00 L 1108.22 1349.97 C 1108.22 1349.97 1109.98 1362.36 1111.45 1365.75 C 1112.92 1369.13 1117.07 1370.29 1117.07 1370.29 L 1143.12 1371.60 L 1145.15 1443.90 L 1211.83 1510.94 L 1237.17 1509.15 L 1238.96 1502.81 L 1237.00 1455.00 C 1237.00 1455.00 1250.55 1450.20 1256.05 1446.53 C 1261.55 1442.86 1270.00 1433.00 1270.00 1433.00 C 1270.00 1433.00 1280.46 1437.32 1282.70 1433.38 C 1284.93 1429.44 1284.19 1414.30 1283.41 1409.36 C 1282.64 1404.42 1278.04 1403.75 1278.04 1403.75 C 1278.04 1403.75 1241.11 1404.64 1231.43 1403.15 C 1221.75 1401.66 1219.96 1394.78 1219.96 1394.78 L 1219.12 1270.26 C 1219.12 1270.26 1216.43 1265.27 1213.27 1263.81 C 1210.10 1262.36 1200.12 1261.54 1200.12 1261.54 L 1194.86 1253.53 L 1195.10 1235.37 L 1204.00 1229.00 L 1255.69 1228.44 L 1273.02 1214.82 L 1292.38 1214.82 L 1311.00 1232.00 C 1311.00 1232.00 1335.93 1240.42 1340.65 1232.38 C 1345.38 1224.34 1350.41 1203.26 1339.34 1183.75 C 1328.27 1164.23 1274.21 1115.27 1274.21 1115.27 L 1270.03 1107.98 L 1269.00 1002.00 L 1276.96 990.27 L 1278.75 978.56 L 1266.56 980.00 L 1256.41 980.23 L 1256.76 966.25 L 1263.22 965.89 L 1268.48 969.96 L 1278.16 970.08 C 1278.16 970.08 1278.79 961.99 1281.02 959.92 C 1283.25 957.85 1291.54 957.65 1291.54 957.65 L 1359.06 957.17 L 1371.13 963.50 C 1371.13 963.50 1382.58 960.66 1384.99 964.10 C 1387.40 967.55 1388.81 980.37 1385.59 984.18 C 1382.36 987.98 1365.63 986.93 1365.63 986.93 L 1365.75 997.20 L 1338.03 998.28 L 1337.43 971.99 L 1325.47 974.08 L 1329.67 1073.30 L 1354.68 1099.51 L 1356.00 1158.00 L 1368.00 1186.00 L 1415.58 1232.89 L 1419.69 1304.72 L 1371.00 1308.00 C 1371.00 1308.00 1368.15 1293.61 1364.14 1287.88 C 1360.13 1282.16 1346.93 1273.67 1346.93 1273.67 C 1346.93 1273.67 1354.01 1268.71 1353.67 1266.75 C 1353.32 1264.78 1344.87 1261.88 1344.87 1261.88 L 1314.39 1287.88 L 1314.76 1336.14 L 1348.00 1370.00 L 1348.80 1430.97 L 1290.82 1490.26 L 1291.01 1542.82 L 1277.17 1553.86 L 1002.00 1580.00 L 875.00 1594.00 L 701.45 1611.65 L 699.00 1560.00 L 675.83 1537.40 L 654.88 1538.14 L 632.00 1560.00 L 630.57 1609.22 L 608.00 1634.00 L 560.42 1633.16 L 536.00 1611.00 L 533.68 1563.58 L 498.00 1528.00 L 496.00 1460.00 L 481.68 1443.69 L 481.68 1362.89 C 481.68 1362.89 487.70 1353.88 488.04 1349.23 C 488.38 1344.59 486.76 1337.67 483.74 1335.02 C 480.71 1332.37 473.64 1331.37 469.90 1333.33 C 466.16 1335.30 461.61 1341.69 461.29 1346.80 C 460.98 1351.91 468.00 1364.00 468.00 1364.00 L 466.53 1450.23 L 440.16 1447.80 L 437.16 1401.04 C 437.16 1401.04 394.84 1392.11 384.98 1401.60 C 375.12 1411.10 378.00 1458.00 378.00 1458.00 L 363.28 1474.74 L 351.69 1484.09 L 354.00 1508.00 C 354.00 1508.00 356.34 1523.92 351.87 1529.35 C 347.40 1534.78 335.57 1539.70 327.18 1540.58 C 318.80 1541.45 308.76 1541.69 301.56 1534.59 C 294.36 1527.49 284.00 1498.00 284.00 1498.00 L 284.54 1350.54 L 320.26 1348.67 C 320.26 1348.67 338.94 1347.94 342.00 1336.00 C 345.06 1324.06 347.89 1288.58 338.59 1277.03 C 329.30 1265.49 286.22 1266.75 286.22 1266.75 L 287.16 1233.27 L 308.29 1229.34 L 307.92 1202.03 L 304.37 1167.43 L 287.00 1167.00 L 284.00 1100.00 L 298.42 1049.38 C 298.42 1049.38 337.42 1053.07 350.56 1048.29 C 363.69 1043.52 377.21 1020.71 377.21 1020.71 C 377.21 1020.71 375.59 978.24 379.07 969.73 C 382.56 961.22 394.62 960.61 398.11 969.66 C 401.60 978.70 400.00 1024.00 400.00 1024.00 C 400.00 1024.00 387.65 1033.57 384.98 1038.74 C 382.31 1043.90 382.23 1050.82 384.00 1055.00 C 385.77 1059.18 390.58 1062.54 395.63 1063.84 C 400.67 1065.13 414.28 1062.75 414.28 1062.75 L 446.68 1031.28 C 446.68 1031.28 467.45 1024.53 471.47 1040.76 C 475.49 1056.98 470.81 1128.62 470.81 1128.62 L 481.84 1155.59 C 481.84 1155.59 481.13 1171.58 485.23 1177.38 C 489.34 1183.18 503.04 1178.90 506.45 1190.39 C 509.86 1201.88 505.70 1246.31 505.70 1246.31 C 505.70 1246.31 489.45 1262.94 487.50 1269.89 C 485.55 1276.84 489.46 1283.19 494.00 1288.00 C 498.54 1292.81 511.18 1285.28 514.75 1298.75 C 518.32 1312.21 514.31 1351.19 515.41 1368.81 C 516.51 1386.43 508.92 1398.60 521.35 1404.46 C 533.78 1410.33 590.00 1404.00 590.00 1404.00 L 595.85 1400.69 L 595.00 1376.00 C 595.00 1376.00 590.74 1372.22 585.57 1370.89 C 580.41 1369.56 568.93 1372.31 564.00 1368.00 C 559.07 1363.69 556.00 1345.00 556.00 1345.00 C 556.00 1345.00 544.84 1338.09 542.76 1325.62 C 540.68 1313.15 543.51 1270.17 543.51 1270.17 C 543.51 1270.17 544.70 1266.31 556.72 1266.31 C 568.74 1266.30 605.26 1260.23 615.62 1270.17 C 625.99 1280.10 618.89 1325.93 618.89 1325.93 L 610.86 1341.99 L 609.55 1369.08 L 600.00 1377.00 L 600.12 1400.74 L 608.52 1404.29 L 643.95 1401.65 L 662.50 1416.46 L 659.60 1449.54 C 659.60 1449.54 658.71 1456.83 660.16 1458.91 C 661.61 1460.98 662.83 1461.56 668.31 1462.00 C 673.79 1462.44 693.05 1461.53 693.05 1461.53 C 693.05 1461.53 721.78 1440.99 728.00 1430.00 C 734.22 1419.01 732.90 1401.74 730.34 1395.56 C 727.78 1389.39 712.63 1392.94 712.63 1392.94 L 685.65 1393.69 L 667.47 1377.57 L 669.00 1337.00 L 641.00 1334.00 L 632.80 1326.97 L 631.00 1203.00 L 641.00 1191.00 L 650.00 1198.00 L 652.00 1187.00 L 690.00 1200.00 L 794.00 1214.00 L 796.00 1261.00 L 759.00 1294.00 L 667.00 1302.00 L 672.00 1321.00 L 683.00 1314.00 L 682.00 1321.00 L 706.00 1308.00 L 750.00 1317.00 L 762.00 1355.00 L 808.00 1344.00 L 825.00 1297.00 L 883.00 1296.00 L 885.00 1340.00 L 914.00 1352.00 L 932.00 1286.00 L 894.00 1283.00 L 889.00 1241.00 L 863.00 1238.00 L 869.00 1197.00 L 966.00 1204.00 L 953.00 1386.00 L 873.00 1398.00 L 838.00 1490.00 L 884.00 1495.00 L 883.00 1533.00 L 919.00 1538.00 L 982.00 1496.00 L 1006.00 1505.00 L 1033.00 1496.00 L 1047.00 1472.00 L 1039.00 1440.00 L 985.00 1420.00 L 979.00 1178.00 L 963.00 1160.00 L 917.00 1175.00 L 799.00 1138.00 L 732.00 1128.00 L 698.00 1143.00 L 640.00 1138.00 L 581.00 1135.00 L 553.00 1112.00 L 534.00 1084.00 L 527.00 1065.00 L 530.00 1047.00 L 532.00 1044.00 L 557.00 1025.00 L 591.00 1008.00 L 673.00 1002.00 L 680.00 1030.00 L 662.00 1033.00 L 640.00 1041.00 L 583.00 1027.00 L 561.00 1032.00 L 559.00 1050.00 L 554.00 1033.00 L 539.00 1043.00 L 538.00 1080.00 L 549.00 1096.00 L 566.00 1096.00 L 589.00 1129.00 L 645.00 1120.00 L 673.00 1057.00 L 830.00 1062.00 L 830.80 1125.02 L 840.39 1127.06 L 839.19 1097.09 L 858.85 1097.09 L 858.61 1112.43 L 856.09 1117.47 C 856.09 1117.47 852.30 1136.11 855.13 1140.61 C 857.97 1145.10 867.76 1145.02 873.12 1144.44 C 878.47 1143.86 877.17 1138.61 887.26 1137.13 C 897.35 1135.65 924.41 1137.13 933.66 1135.57 C 942.91 1134.01 942.77 1127.78 942.77 1127.78 L 942.00 1030.00 L 977.17 1028.99 L 977.29 1128.98 L 981.73 1135.57 C 981.73 1135.57 1025.27 1137.79 1035.32 1134.37 C 1045.37 1130.95 1039.69 1119.61 1042.03 1115.07 C 1044.37 1110.53 1049.35 1107.16 1049.35 1107.16 C 1049.35 1107.16 1067.19 1107.18 1072.12 1105.60 C 1077.06 1104.02 1077.22 1103.40 1078.96 1097.69 C 1080.70 1091.97 1074.50 1076.63 1082.55 1071.31 C 1090.61 1066.00 1127.27 1065.80 1127.27 1065.80 L 1128.11 1061.12 L 1127.51 1036.91 L 1144.41 1036.55 L 1144.05 1055.97 L 1142.74 1066.88 L 1196.08 1067.72 L 1207.11 1055.97 L 1208.19 1049.37 L 1201.84 1051.05 L 1189.25 1053.45 L 1189.25 1037.15 L 1207.59 1041.34 L 1207.00 1031.00 L 1175.46 1030.19 L 1168.00 1024.00 L 1168.00 990.00 L 1203.04 953.71 L 1203.00 933.00 L 1193.33 926.37 L 1179.00 925.00 L 1165.63 930.69 C 1165.63 930.69 1157.04 928.49 1154.48 924.21 C 1151.93 919.94 1154.10 911.41 1150.29 905.03 C 1146.47 898.66 1131.59 885.97 1131.59 885.97 L 1131.00 875.00 L 1184.58 818.84 C 1184.58 818.84 1197.68 821.31 1199.92 817.64 C 1202.16 813.96 1198.00 796.78 1198.00 796.78 Z" data-net-id="front-gnd" data-net-label="GND" data-category="gnd" data-color="#000000" fill="#000000" fill-opacity="1" data-editor-points="1198.00,796.78;1214.07,797.62;1211.07,809.00;1208.00,821.00;1210.10,984.35;1254.98,1029.96;1256.00,1050.00;1248.64,1057.61;1218.00,1059.64;1207.71,1065.99;1209.00,1104.00;1225.06,1129.18;1225.06,1173.71;1205.79,1178.74;1193.00,1193.00;1126.79,1191.78;1105.37,1176.82;1087.65,1180.89;1088.85,1198.01;1130.26,1240.50;1127.39,1253.19;1119.00,1259.00;1096.03,1258.45;1064.00,1227.00;1047.64,1226.17;1040.00,1233.00;1039.87,1280.54;1031.00,1292.00;1030.43,1317.47;1038.00,1322.00;1091.14,1320.45;1096.00,1337.00;1108.22,1349.97;1111.45,1365.75;1117.07,1370.29;1143.12,1371.60;1145.15,1443.90;1211.83,1510.94;1237.17,1509.15;1238.96,1502.81;1237.00,1455.00;1256.05,1446.53;1270.00,1433.00;1282.70,1433.38;1283.41,1409.36;1278.04,1403.75;1231.43,1403.15;1219.96,1394.78;1219.12,1270.26;1213.27,1263.81;1200.12,1261.54;1194.86,1253.53;1195.10,1235.37;1204.00,1229.00;1255.69,1228.44;1273.02,1214.82;1292.38,1214.82;1311.00,1232.00;1340.65,1232.38;1339.34,1183.75;1274.21,1115.27;1270.03,1107.98;1269.00,1002.00;1276.96,990.27;1278.75,978.56;1266.56,980.00;1256.41,980.23;1256.76,966.25;1263.22,965.89;1268.48,969.96;1278.16,970.08;1281.02,959.92;1291.54,957.65;1359.06,957.17;1371.13,963.50;1384.99,964.10;1385.59,984.18;1365.63,986.93;1365.75,997.20;1338.03,998.28;1337.43,971.99;1325.47,974.08;1329.67,1073.30;1354.68,1099.51;1356.00,1158.00;1368.00,1186.00;1415.58,1232.89;1419.69,1304.72;1371.00,1308.00;1364.14,1287.88;1346.93,1273.67;1353.67,1266.75;1344.87,1261.88;1314.39,1287.88;1314.76,1336.14;1348.00,1370.00;1348.80,1430.97;1290.82,1490.26;1291.01,1542.82;1277.17,1553.86;1002.00,1580.00;875.00,1594.00;701.45,1611.65;699.00,1560.00;675.83,1537.40;654.88,1538.14;632.00,1560.00;630.57,1609.22;608.00,1634.00;560.42,1633.16;536.00,1611.00;533.68,1563.58;498.00,1528.00;496.00,1460.00;481.68,1443.69;481.68,1362.89;488.04,1349.23;483.74,1335.02;469.90,1333.33;461.29,1346.80;468.00,1364.00;466.53,1450.23;440.16,1447.80;437.16,1401.04;384.98,1401.60;378.00,1458.00;363.28,1474.74;351.69,1484.09;354.00,1508.00;351.87,1529.35;327.18,1540.58;301.56,1534.59;284.00,1498.00;284.54,1350.54;320.26,1348.67;342.00,1336.00;338.59,1277.03;286.22,1266.75;287.16,1233.27;308.29,1229.34;307.92,1202.03;304.37,1167.43;287.00,1167.00;284.00,1100.00;298.42,1049.38;350.56,1048.29;377.21,1020.71;379.07,969.73;398.11,969.66;400.00,1024.00;384.98,1038.74;384.00,1055.00;395.63,1063.84;414.28,1062.75;446.68,1031.28;471.47,1040.76;470.81,1128.62;481.84,1155.59;485.23,1177.38;506.45,1190.39;505.70,1246.31;487.50,1269.89;494.00,1288.00;514.75,1298.75;515.41,1368.81;521.35,1404.46;590.00,1404.00;595.85,1400.69;595.00,1376.00;585.57,1370.89;564.00,1368.00;556.00,1345.00;542.76,1325.62;543.51,1270.17;556.72,1266.31;615.62,1270.17;618.89,1325.93;610.86,1341.99;609.55,1369.08;600.00,1377.00;600.12,1400.74;608.52,1404.29;643.95,1401.65;662.50,1416.46;659.60,1449.54;660.16,1458.91;668.31,1462.00;693.05,1461.53;728.00,1430.00;730.34,1395.56;712.63,1392.94;685.65,1393.69;667.47,1377.57;669.00,1337.00;641.00,1334.00;632.80,1326.97;631.00,1203.00;641.00,1191.00;650.00,1198.00;652.00,1187.00;690.00,1200.00;794.00,1214.00;796.00,1261.00;759.00,1294.00;667.00,1302.00;672.00,1321.00;683.00,1314.00;682.00,1321.00;706.00,1308.00;750.00,1317.00;762.00,1355.00;808.00,1344.00;825.00,1297.00;883.00,1296.00;885.00,1340.00;914.00,1352.00;932.00,1286.00;894.00,1283.00;889.00,1241.00;863.00,1238.00;869.00,1197.00;966.00,1204.00;953.00,1386.00;873.00,1398.00;838.00,1490.00;884.00,1495.00;883.00,1533.00;919.00,1538.00;982.00,1496.00;1006.00,1505.00;1033.00,1496.00;1047.00,1472.00;1039.00,1440.00;985.00,1420.00;979.00,1178.00;963.00,1160.00;917.00,1175.00;799.00,1138.00;732.00,1128.00;698.00,1143.00;640.00,1138.00;581.00,1135.00;553.00,1112.00;534.00,1084.00;527.00,1065.00;530.00,1047.00;532.00,1044.00;557.00,1025.00;591.00,1008.00;673.00,1002.00;680.00,1030.00;662.00,1033.00;640.00,1041.00;583.00,1027.00;561.00,1032.00;559.00,1050.00;554.00,1033.00;539.00,1043.00;538.00,1080.00;549.00,1096.00;566.00,1096.00;589.00,1129.00;645.00,1120.00;673.00,1057.00;830.00,1062.00;830.80,1125.02;840.39,1127.06;839.19,1097.09;858.85,1097.09;858.61,1112.43;856.09,1117.47;855.13,1140.61;873.12,1144.44;887.26,1137.13;933.66,1135.57;942.77,1127.78;942.00,1030.00;977.17,1028.99;977.29,1128.98;981.73,1135.57;1035.32,1134.37;1042.03,1115.07;1049.35,1107.16;1072.12,1105.60;1078.96,1097.69;1082.55,1071.31;1127.27,1065.80;1128.11,1061.12;1127.51,1036.91;1144.41,1036.55;1144.05,1055.97;1142.74,1066.88;1196.08,1067.72;1207.11,1055.97;1208.19,1049.37;1201.84,1051.05;1189.25,1053.45;1189.25,1037.15;1207.59,1041.34;1207.00,1031.00;1175.46,1030.19;1168.00,1024.00;1168.00,990.00;1203.04,953.71;1203.00,933.00;1193.33,926.37;1179.00,925.00;1165.63,930.69;1154.48,924.21;1150.29,905.03;1131.59,885.97;1131.00,875.00;1184.58,818.84;1199.92,817.64" data-editor-point-modes="s;s;s;s;s;s;s;s;s;s;s;s;s;s;s;s;s;s;s;s;s;s;s;s;s;s;s;s;s;s;s;s;s;s;s;s;s;s;s;s;s;s;s;s;s;s;s;s;s;s;s;s;s;s;s;s;s;s;s;s;s;s;s;s;s;s;s;s;s;s;s;s;s;s;s;s;s;s;s;s;s;s;s;s;s;s;s;s;s;s;s;s;s;s;s;s;s;s;s;s;s;s;s;s;s;s;s;s;s;s;s;s;s;s;s;s;s;s;s;s;s;s;s;s;s;s;s;s;s;s;s;s;s;s;s;s;s;s;s;s;s;s;s;s;s;s;s;s;s;s;s;s;s;s;s;s;s;s;s;s;s;s;s;s;s;s;s;s;s;s;s;s;s;s;s;s;s;s;s;s;s;s;s;s;s;s;s;s;s;s;s;s;s;s;s;s;s;s;s;s;s;s;s;s;s;s;s;s;s;s;s;s;s;s;s;s;s;s;s;s;s;s;s;s;s;s;s;s;s;s;s;s;s;s;s;s;s;s;s;s;s;s;s;s;s;s;s;s;s;s;s;s;s;s;s;s;s;s;s;s;s;s;s;s;s;s;s;s;s;s;s;s;s;s;s;s;s;s;s;s;s;s;s;s;s;s;s;s;s;s;s;s;s;s;s;s;s;s;s;s;s;s;s;s;s;s;s;s;s;s;s;s;s;s" />
  <path d="M 1270.00 799.00 L 1292.00 800.00 L 1307.00 814.00 L 1309.00 827.00 L 1303.00 835.00 L 1307.00 850.00 L 1302.00 853.00 L 1291.00 850.00 L 1293.00 832.00 L 1280.00 830.00 L 1269.00 839.00 L 1274.00 842.00 L 1271.00 870.00 L 1242.00 872.00 L 1241.00 843.00 L 1248.00 842.00 L 1264.00 826.00 L 1264.00 807.00 Z" data-net-id="front-gnd" data-net-label="GND" data-category="gnd" data-color="#000000" fill="#000000" fill-opacity="1" data-editor-points="1270.00,799.00;1292.00,800.00;1307.00,814.00;1309.00,827.00;1303.00,835.00;1307.00,850.00;1302.00,853.00;1291.00,850.00;1293.00,832.00;1280.00,830.00;1269.00,839.00;1274.00,842.00;1271.00,870.00;1242.00,872.00;1241.00,843.00;1248.00,842.00;1264.00,826.00;1264.00,807.00" data-editor-point-modes="c;c;c;c;c;c;c;c;c;c;c;c;c;c;c;c;c;c" />
  <path d="M 271.00 1059.00 L 272.00 1094.00 L 269.00 1099.00 L 268.00 1065.00 Z" data-net-id="front-gnd" data-net-label="GND" data-category="gnd" data-color="#000000" fill="#000000" fill-opacity="1" data-editor-points="271.00,1059.00;272.00,1094.00;269.00,1099.00;268.00,1065.00" data-editor-point-modes="c;c;c;c" />
  <path d="M 911.00 1346.00 L 911.00 1351.00 L 902.00 1350.00 Z" data-net-id="front-gnd" data-net-label="GND" data-category="gnd" data-color="#000000" fill="#000000" fill-opacity="1" data-editor-points="911.00,1346.00;911.00,1351.00;902.00,1350.00" data-editor-point-modes="c;c;c" />
  <path d="M 908.00 1400.00 L 961.00 1400.00 L 968.00 1407.00 L 968.00 1429.00 L 956.00 1456.00 L 957.00 1467.00 L 952.00 1482.00 L 895.00 1482.00 L 895.00 1416.00 L 899.00 1406.00 Z" data-net-id="front-gnd" data-net-label="GND" data-category="gnd" data-color="#000000" fill="#000000" fill-opacity="1" data-editor-points="908.00,1400.00;961.00,1400.00;968.00,1407.00;968.00,1429.00;956.00,1456.00;957.00,1467.00;952.00,1482.00;895.00,1482.00;895.00,1416.00;899.00,1406.00" data-editor-point-modes="c;c;c;c;c;c;c;c;c;c" />
  <path d="M 1159.00 275.00 L 1173.00 278.00 L 1170.00 293.00 L 1174.00 304.00 L 1173.00 312.00 L 1168.00 315.00 L 1126.00 313.00 L 1124.00 328.00 L 1120.00 330.00 L 1087.00 328.00 L 1086.00 306.00 L 1089.00 303.00 L 1152.00 305.00 L 1160.00 295.00 L 1155.00 284.00 L 1155.00 278.00 Z" data-net-id="front-vbat" data-net-label="VBAT" data-category="vbat" data-color="#ff3e00" fill="#ff3e00" fill-opacity="1" data-editor-points="1159.00,275.00;1173.00,278.00;1170.00,293.00;1174.00,304.00;1173.00,312.00;1168.00,315.00;1126.00,313.00;1124.00,328.00;1120.00,330.00;1087.00,328.00;1086.00,306.00;1089.00,303.00;1152.00,305.00;1160.00,295.00;1155.00,284.00;1155.00,278.00" data-editor-point-modes="c;c;c;c;c;c;c;c;c;c;c;c;c;c;c;c" />
  <path d="M 1289.00 675.00 L 1304.00 679.00 L 1301.00 693.00 L 1303.00 786.00 L 1340.00 822.00 L 1350.00 844.00 L 1350.00 896.00 L 1354.00 918.00 L 1347.00 925.00 L 1340.00 924.00 L 1334.00 917.00 L 1334.00 908.00 L 1338.00 906.00 L 1335.00 842.00 L 1322.00 822.00 L 1294.00 797.00 L 1290.00 789.00 L 1289.00 695.00 L 1284.00 688.00 L 1285.00 677.00 Z" data-net-id="front-vbat" data-net-label="VBAT" data-category="vbat" data-color="#ff3e00" fill="#ff3e00" fill-opacity="1" data-editor-points="1289.00,675.00;1304.00,679.00;1301.00,693.00;1303.00,786.00;1340.00,822.00;1350.00,844.00;1350.00,896.00;1354.00,918.00;1347.00,925.00;1340.00,924.00;1334.00,917.00;1334.00,908.00;1338.00,906.00;1335.00,842.00;1322.00,822.00;1294.00,797.00;1290.00,789.00;1289.00,695.00;1284.00,688.00;1285.00,677.00" data-editor-point-modes="c;c;c;c;c;c;c;c;c;c;c;c;c;c;c;c;c;c;c;c" />
  <path d="M 1245.00 1064.00 L 1252.00 1066.00 L 1256.00 1072.00 L 1251.00 1084.00 L 1219.00 1085.00 L 1214.00 1081.00 L 1212.00 1073.00 L 1215.00 1066.00 Z" data-net-id="front-vbat" data-net-label="VBAT" data-category="vbat" data-color="#ff3e00" fill="#ff3e00" fill-opacity="1" data-editor-points="1245.00,1064.00;1252.00,1066.00;1256.00,1072.00;1251.00,1084.00;1219.00,1085.00;1214.00,1081.00;1212.00,1073.00;1215.00,1066.00" data-editor-point-modes="c;c;c;c;c;c;c;c" />
  <path d="M 1425.00 1065.00 L 1486.00 1065.00 L 1490.00 1071.00 L 1492.00 1093.00 L 1492.00 1131.00 L 1487.00 1152.00 L 1481.00 1158.00 L 1453.00 1160.00 L 1443.00 1168.00 L 1439.00 1178.00 L 1439.00 1204.00 L 1441.00 1212.00 L 1449.00 1221.00 L 1460.00 1225.00 L 1480.00 1225.00 L 1477.00 1222.00 L 1481.00 1222.00 L 1488.00 1229.00 L 1494.00 1263.00 L 1496.00 1373.00 L 1491.00 1398.00 L 1472.00 1408.00 L 1472.00 1446.00 L 1453.00 1465.00 L 1434.00 1472.00 L 1411.00 1469.00 L 1401.00 1453.00 L 1389.00 1445.00 L 1387.00 1412.00 L 1390.00 1380.00 L 1429.00 1339.00 L 1430.00 1240.00 L 1374.00 1184.00 L 1363.00 1168.00 L 1359.00 1126.00 L 1359.00 1087.00 L 1366.00 1072.00 L 1378.00 1066.00 Z" data-net-id="front-vbat" data-net-label="VBAT" data-category="vbat" data-color="#ff3e00" fill="#ff3e00" fill-opacity="1" data-editor-points="1425.00,1065.00;1486.00,1065.00;1490.00,1071.00;1492.00,1093.00;1492.00,1131.00;1487.00,1152.00;1481.00,1158.00;1453.00,1160.00;1443.00,1168.00;1439.00,1178.00;1439.00,1204.00;1441.00,1212.00;1449.00,1221.00;1460.00,1225.00;1480.00,1225.00;1477.00,1222.00;1481.00,1222.00;1488.00,1229.00;1494.00,1263.00;1496.00,1373.00;1491.00,1398.00;1472.00,1408.00;1472.00,1446.00;1453.00,1465.00;1434.00,1472.00;1411.00,1469.00;1401.00,1453.00;1389.00,1445.00;1387.00,1412.00;1390.00,1380.00;1429.00,1339.00;1430.00,1240.00;1374.00,1184.00;1363.00,1168.00;1359.00,1126.00;1359.00,1087.00;1366.00,1072.00;1378.00,1066.00" data-editor-point-modes="c;c;c;c;c;c;c;c;c;c;c;c;c;c;c;c;c;c;c;c;c;c;c;c;c;c;c;c;c;c;c;c;c;c;c;c;c;c" />
  <path d="M 1469.00 1211.00 L 1504.00 1214.00 L 1506.00 1226.00 L 1504.00 1227.00 L 1503.00 1219.00 L 1498.00 1214.00 Z" data-net-id="front-vbat" data-net-label="VBAT" data-category="vbat" data-color="#ff3e00" fill="#ff3e00" fill-opacity="1" data-editor-points="1469.00,1211.00;1504.00,1214.00;1506.00,1226.00;1504.00,1227.00;1503.00,1219.00;1498.00,1214.00" data-editor-point-modes="c;c;c;c;c;c" />
  <path d="M 1505.00 1232.00 L 1506.00 1232.00 L 1506.00 1233.00 L 1507.00 1233.00 L 1507.00 1239.00 L 1508.00 1239.00 L 1508.00 1245.00 L 1507.00 1245.00 L 1507.00 1246.00 L 1506.00 1246.00 L 1506.00 1245.00 L 1505.00 1245.00 Z" data-net-id="front-vbat" data-net-label="VBAT" data-category="vbat" data-color="#ff3e00" fill="#ff3e00" fill-opacity="1" data-editor-points="1505.00,1232.00;1506.00,1232.00;1506.00,1233.00;1507.00,1233.00;1507.00,1239.00;1508.00,1239.00;1508.00,1245.00;1507.00,1245.00;1507.00,1246.00;1506.00,1246.00;1506.00,1245.00;1505.00,1245.00" data-editor-point-modes="c;c;c;c;c;c;c;c;c;c;c;c" />
  <path d="M 1507.00 1295.00 L 1508.00 1390.00 L 1504.00 1363.00 L 1507.00 1352.00 Z" data-net-id="front-vbat" data-net-label="VBAT" data-category="vbat" data-color="#ff3e00" fill="#ff3e00" fill-opacity="1" data-editor-points="1507.00,1295.00;1508.00,1390.00;1504.00,1363.00;1507.00,1352.00" data-editor-point-modes="c;c;c;c" />
  <path d="M 1478.00 1453.00 L 1481.00 1453.00 L 1480.00 1461.00 L 1468.00 1471.00 Z" data-net-id="front-vbat" data-net-label="VBAT" data-category="vbat" data-color="#ff3e00" fill="#ff3e00" fill-opacity="1" data-editor-points="1478.00,1453.00;1481.00,1453.00;1480.00,1461.00;1468.00,1471.00" data-editor-point-modes="c;c;c;c" />
  <path d="M 561.00 249.00 L 566.00 250.00 L 566.00 254.00 L 576.00 250.00 L 592.00 251.00 L 593.00 265.00 L 584.00 268.00 L 565.00 266.00 L 559.00 270.00 L 534.00 267.00 L 527.00 269.00 L 527.00 328.00 L 530.00 333.00 L 528.00 412.00 L 539.00 457.00 L 534.00 462.00 L 510.00 461.00 L 499.00 475.00 L 501.00 501.00 L 478.00 503.00 L 478.00 512.00 L 490.00 517.00 L 492.00 526.00 L 498.00 531.00 L 498.00 539.00 L 478.00 539.00 L 477.00 572.00 L 458.00 600.00 L 459.00 607.00 L 462.00 607.00 L 459.00 625.00 L 484.00 652.00 L 486.00 732.00 L 522.00 732.00 L 524.00 706.00 L 520.00 702.00 L 520.00 696.00 L 537.00 694.00 L 539.00 700.00 L 536.00 702.00 L 536.00 723.00 L 566.00 722.00 L 572.00 728.00 L 572.00 735.00 L 560.00 746.00 L 464.00 747.00 L 455.00 737.00 L 455.00 695.00 L 466.00 680.00 L 466.00 664.00 L 441.00 639.00 L 440.00 605.00 L 465.00 565.00 L 465.00 498.00 L 485.00 482.00 L 487.00 468.00 L 496.00 455.00 L 505.00 448.00 L 516.00 446.00 L 521.00 440.00 L 515.00 416.00 L 516.00 329.00 L 515.00 297.00 L 511.00 287.00 L 515.00 267.00 L 512.00 264.00 L 515.00 264.00 L 522.00 250.00 L 526.00 255.00 L 531.00 255.00 L 543.00 250.00 L 558.00 253.00 Z" data-net-id="front-vcc" data-net-label="VCC" data-category="vcc" data-color="#ff0000" fill="#ff0000" fill-opacity="1" data-editor-points="561.00,249.00;566.00,250.00;566.00,254.00;576.00,250.00;592.00,251.00;593.00,265.00;584.00,268.00;565.00,266.00;559.00,270.00;534.00,267.00;527.00,269.00;527.00,328.00;530.00,333.00;528.00,412.00;539.00,457.00;534.00,462.00;510.00,461.00;499.00,475.00;501.00,501.00;478.00,503.00;478.00,512.00;490.00,517.00;492.00,526.00;498.00,531.00;498.00,539.00;478.00,539.00;477.00,572.00;458.00,600.00;459.00,607.00;462.00,607.00;459.00,625.00;484.00,652.00;486.00,732.00;522.00,732.00;524.00,706.00;520.00,702.00;520.00,696.00;537.00,694.00;539.00,700.00;536.00,702.00;536.00,723.00;566.00,722.00;572.00,728.00;572.00,735.00;560.00,746.00;464.00,747.00;455.00,737.00;455.00,695.00;466.00,680.00;466.00,664.00;441.00,639.00;440.00,605.00;465.00,565.00;465.00,498.00;485.00,482.00;487.00,468.00;496.00,455.00;505.00,448.00;516.00,446.00;521.00,440.00;515.00,416.00;516.00,329.00;515.00,297.00;511.00,287.00;515.00,267.00;512.00,264.00;515.00,264.00;522.00,250.00;526.00,255.00;531.00,255.00;543.00,250.00;558.00,253.00" data-editor-point-modes="c;c;c;c;c;c;c;c;c;c;c;c;c;c;c;c;c;c;c;c;c;c;c;c;c;c;c;c;c;c;c;c;c;c;c;c;c;c;c;c;c;c;c;c;c;c;c;c;c;c;c;c;c;c;c;c;c;c;c;c;c;c;c;c;c;c;c;c;c;c;c;c" />
  <path d="M 860.00 256.00 L 890.00 259.00 L 889.00 296.00 L 885.00 297.00 L 888.00 304.00 L 926.00 304.00 L 931.00 309.00 L 928.00 322.00 L 904.00 321.00 L 895.00 324.00 L 892.00 319.00 L 872.00 318.00 L 868.00 311.00 L 868.00 297.00 L 864.00 297.00 L 862.00 292.00 Z" data-net-id="front-vcc" data-net-label="VCC" data-category="vcc" data-color="#ff0000" fill="#ff0000" fill-opacity="1" data-editor-points="860.00,256.00;890.00,259.00;889.00,296.00;885.00,297.00;888.00,304.00;926.00,304.00;931.00,309.00;928.00,322.00;904.00,321.00;895.00,324.00;892.00,319.00;872.00,318.00;868.00,311.00;868.00,297.00;864.00,297.00;862.00,292.00" data-editor-point-modes="c;c;c;c;c;c;c;c;c;c;c;c;c;c;c;c" />
  <path d="M 755.00 276.00 L 764.00 276.00 L 770.00 281.00 L 770.00 322.00 L 775.00 328.00 L 795.00 347.00 L 819.00 350.00 L 831.00 365.00 L 832.00 426.00 L 827.00 439.00 L 805.00 461.00 L 805.00 468.00 L 809.00 467.00 L 808.00 470.00 L 805.00 472.00 L 804.00 469.00 L 802.00 477.00 L 793.00 482.00 L 783.00 479.00 L 782.00 469.00 L 784.00 463.00 L 818.00 427.00 L 818.00 367.00 L 813.00 363.00 L 797.00 362.00 L 782.00 355.00 L 752.00 320.00 L 733.00 309.00 L 728.00 285.00 L 746.00 285.00 L 746.00 293.00 L 741.00 299.00 L 745.00 306.00 L 750.00 301.00 L 751.00 278.00 Z" data-net-id="front-vcc" data-net-label="VCC" data-category="vcc" data-color="#ff0000" fill="#ff0000" fill-opacity="1" data-editor-points="755.00,276.00;764.00,276.00;770.00,281.00;770.00,322.00;775.00,328.00;795.00,347.00;819.00,350.00;831.00,365.00;832.00,426.00;827.00,439.00;805.00,461.00;805.00,468.00;809.00,467.00;808.00,470.00;805.00,472.00;804.00,469.00;802.00,477.00;793.00,482.00;783.00,479.00;782.00,469.00;784.00,463.00;818.00,427.00;818.00,367.00;813.00,363.00;797.00,362.00;782.00,355.00;752.00,320.00;733.00,309.00;728.00,285.00;746.00,285.00;746.00,293.00;741.00,299.00;745.00,306.00;750.00,301.00;751.00,278.00" data-editor-point-modes="c;c;c;c;c;c;c;c;c;c;c;c;c;c;c;c;c;c;c;c;c;c;c;c;c;c;c;c;c;c;c;c;c;c;c" />
  <path d="M 1189.00 379.00 L 1200.00 380.00 L 1203.00 383.00 L 1203.00 393.00 L 1178.00 419.00 L 1178.00 445.00 L 1182.00 452.00 L 1181.00 475.00 L 1152.00 477.00 L 1148.00 469.00 L 1149.00 455.00 L 1150.00 448.00 L 1158.00 443.00 L 1158.00 413.00 Z" data-net-id="front-vcc" data-net-label="VCC" data-category="vcc" data-color="#ff0000" fill="#ff0000" fill-opacity="1" data-editor-points="1189.00,379.00;1200.00,380.00;1203.00,383.00;1203.00,393.00;1178.00,419.00;1178.00,445.00;1182.00,452.00;1181.00,475.00;1152.00,477.00;1148.00,469.00;1149.00,455.00;1150.00,448.00;1158.00,443.00;1158.00,413.00" data-editor-point-modes="c;c;c;c;c;c;c;c;c;c;c;c;c;c" />
  <path d="M 806.00 541.00 L 814.00 544.00 L 815.00 549.00 L 817.00 546.00 L 818.00 553.00 L 813.00 561.00 L 800.00 564.00 L 796.00 574.00 L 806.00 592.00 L 843.00 612.00 L 862.00 632.00 L 862.00 660.00 L 859.00 665.00 L 862.00 677.00 L 870.00 685.00 L 870.00 692.00 L 866.00 696.00 L 856.00 697.00 L 850.00 692.00 L 851.00 680.00 L 846.00 660.00 L 848.00 646.00 L 845.00 645.00 L 848.00 640.00 L 843.00 632.00 L 838.00 632.00 L 836.00 636.00 L 836.00 632.00 L 832.00 634.00 L 832.00 630.00 L 828.00 631.00 L 826.00 628.00 L 838.00 631.00 L 843.00 627.00 L 788.00 590.00 L 790.00 587.00 L 786.00 584.00 L 786.00 570.00 L 797.00 555.00 L 798.00 547.00 Z" data-net-id="front-vcc" data-net-label="VCC" data-category="vcc" data-color="#ff0000" fill="#ff0000" fill-opacity="1" data-editor-points="806.00,541.00;814.00,544.00;815.00,549.00;817.00,546.00;818.00,553.00;813.00,561.00;800.00,564.00;796.00,574.00;806.00,592.00;843.00,612.00;862.00,632.00;862.00,660.00;859.00,665.00;862.00,677.00;870.00,685.00;870.00,692.00;866.00,696.00;856.00,697.00;850.00,692.00;851.00,680.00;846.00,660.00;848.00,646.00;845.00,645.00;848.00,640.00;843.00,632.00;838.00,632.00;836.00,636.00;836.00,632.00;832.00,634.00;832.00,630.00;828.00,631.00;826.00,628.00;838.00,631.00;843.00,627.00;788.00,590.00;790.00,587.00;786.00,584.00;786.00,570.00;797.00,555.00;798.00,547.00" data-editor-point-modes="c;c;c;c;c;c;c;c;c;c;c;c;c;c;c;c;c;c;c;c;c;c;c;c;c;c;c;c;c;c;c;c;c;c;c;c;c;c;c;c" />
  <path d="M 1271.00 548.00 L 1279.00 548.00 L 1285.00 554.00 L 1294.00 551.00 L 1297.00 567.00 L 1303.00 574.00 L 1302.00 593.00 L 1308.00 612.00 L 1308.00 639.00 L 1336.00 664.00 L 1341.00 662.00 L 1344.00 672.00 L 1358.00 670.00 L 1400.00 673.00 L 1414.00 687.00 L 1408.00 688.00 L 1406.00 705.00 L 1411.00 708.00 L 1409.00 714.00 L 1406.00 713.00 L 1401.00 720.00 L 1395.00 721.00 L 1371.00 720.00 L 1366.00 705.00 L 1370.00 694.00 L 1391.00 693.00 L 1393.00 688.00 L 1335.00 688.00 L 1332.00 684.00 L 1334.00 681.00 L 1295.00 646.00 L 1289.00 629.00 L 1276.00 632.00 L 1269.00 627.00 L 1270.00 614.00 L 1274.00 610.00 L 1290.00 613.00 L 1296.00 597.00 L 1292.00 582.00 L 1295.00 579.00 L 1293.00 570.00 L 1285.00 564.00 L 1282.00 571.00 L 1275.00 563.00 L 1271.00 563.00 L 1268.00 558.00 Z" data-net-id="front-vcc" data-net-label="VCC" data-category="vcc" data-color="#ff0000" fill="#ff0000" fill-opacity="1" data-editor-points="1271.00,548.00;1279.00,548.00;1285.00,554.00;1294.00,551.00;1297.00,567.00;1303.00,574.00;1302.00,593.00;1308.00,612.00;1308.00,639.00;1336.00,664.00;1341.00,662.00;1344.00,672.00;1358.00,670.00;1400.00,673.00;1414.00,687.00;1408.00,688.00;1406.00,705.00;1411.00,708.00;1409.00,714.00;1406.00,713.00;1401.00,720.00;1395.00,721.00;1371.00,720.00;1366.00,705.00;1370.00,694.00;1391.00,693.00;1393.00,688.00;1335.00,688.00;1332.00,684.00;1334.00,681.00;1295.00,646.00;1289.00,629.00;1276.00,632.00;1269.00,627.00;1270.00,614.00;1274.00,610.00;1290.00,613.00;1296.00,597.00;1292.00,582.00;1295.00,579.00;1293.00,570.00;1285.00,564.00;1282.00,571.00;1275.00,563.00;1271.00,563.00;1268.00,558.00" data-editor-point-modes="c;c;c;c;c;c;c;c;c;c;c;c;c;c;c;c;c;c;c;c;c;c;c;c;c;c;c;c;c;c;c;c;c;c;c;c;c;c;c;c;c;c;c;c;c;c" />
  <path d="M 1302.00 554.00 L 1310.00 563.00 L 1310.00 592.00 L 1304.00 585.00 L 1307.00 568.00 Z" data-net-id="front-vcc" data-net-label="VCC" data-category="vcc" data-color="#ff0000" fill="#ff0000" fill-opacity="1" data-editor-points="1302.00,554.00;1310.00,563.00;1310.00,592.00;1304.00,585.00;1307.00,568.00" data-editor-point-modes="c;c;c;c;c" />
  <path d="M 1188.00 644.00 L 1224.00 644.00 L 1224.00 668.00 L 1227.00 669.00 L 1223.00 672.00 L 1224.00 677.00 L 1248.00 697.00 L 1277.00 698.00 L 1284.00 705.00 L 1285.00 791.00 L 1281.00 796.00 L 1264.00 798.00 L 1260.00 804.00 L 1259.00 821.00 L 1245.00 827.00 L 1233.00 842.00 L 1235.00 926.00 L 1240.00 929.00 L 1312.00 928.00 L 1318.00 923.00 L 1318.00 888.00 L 1296.00 885.00 L 1289.00 866.00 L 1291.00 861.00 L 1308.00 862.00 L 1309.00 868.00 L 1304.00 879.00 L 1320.00 879.00 L 1326.00 883.00 L 1327.00 922.00 L 1335.00 928.00 L 1373.00 926.00 L 1377.00 921.00 L 1377.00 893.00 L 1375.00 894.00 L 1374.00 888.00 L 1376.00 873.00 L 1380.00 870.00 L 1416.00 869.00 L 1424.00 875.00 L 1424.00 952.00 L 1416.00 955.00 L 1386.00 955.00 L 1378.00 951.00 L 1243.00 953.00 L 1237.00 962.00 L 1229.00 963.00 L 1228.00 968.00 L 1235.00 970.00 L 1247.00 967.00 L 1246.00 980.00 L 1228.00 979.00 L 1221.00 974.00 L 1219.00 835.00 L 1237.00 813.00 L 1237.00 808.00 L 1231.00 803.00 L 1232.00 797.00 L 1245.00 796.00 L 1247.00 802.00 L 1242.00 813.00 L 1246.00 817.00 L 1251.00 813.00 L 1253.00 777.00 L 1264.00 766.00 L 1267.00 757.00 L 1267.00 728.00 L 1261.00 719.00 L 1247.00 718.00 L 1241.00 722.00 L 1240.00 751.00 L 1217.00 771.00 L 1211.00 772.00 L 1214.00 782.00 L 1204.00 787.00 L 1198.00 785.00 L 1197.00 775.00 L 1190.00 775.00 L 1186.00 780.00 L 1174.00 784.00 L 1140.00 783.00 L 1115.00 768.00 L 1088.00 768.00 L 1073.00 758.00 L 1060.00 743.00 L 1007.00 741.00 L 1017.00 737.00 L 1060.00 738.00 L 1090.00 759.00 L 1124.00 766.00 L 1139.00 775.00 L 1155.00 776.00 L 1157.00 772.00 L 1168.00 772.00 L 1179.00 777.00 L 1193.00 766.00 L 1216.00 764.00 L 1231.00 747.00 L 1232.00 712.00 L 1220.00 700.00 L 1204.00 699.00 L 1198.00 695.00 L 1197.00 673.00 L 1194.00 668.00 L 1186.00 667.00 Z" data-net-id="front-vcc" data-net-label="VCC" data-category="vcc" data-color="#ff0000" fill="#ff0000" fill-opacity="1" data-editor-points="1188.00,644.00;1224.00,644.00;1224.00,668.00;1227.00,669.00;1223.00,672.00;1224.00,677.00;1248.00,697.00;1277.00,698.00;1284.00,705.00;1285.00,791.00;1281.00,796.00;1264.00,798.00;1260.00,804.00;1259.00,821.00;1245.00,827.00;1233.00,842.00;1235.00,926.00;1240.00,929.00;1312.00,928.00;1318.00,923.00;1318.00,888.00;1296.00,885.00;1289.00,866.00;1291.00,861.00;1308.00,862.00;1309.00,868.00;1304.00,879.00;1320.00,879.00;1326.00,883.00;1327.00,922.00;1335.00,928.00;1373.00,926.00;1377.00,921.00;1377.00,893.00;1375.00,894.00;1374.00,888.00;1376.00,873.00;1380.00,870.00;1416.00,869.00;1424.00,875.00;1424.00,952.00;1416.00,955.00;1386.00,955.00;1378.00,951.00;1243.00,953.00;1237.00,962.00;1229.00,963.00;1228.00,968.00;1235.00,970.00;1247.00,967.00;1246.00,980.00;1228.00,979.00;1221.00,974.00;1219.00,835.00;1237.00,813.00;1237.00,808.00;1231.00,803.00;1232.00,797.00;1245.00,796.00;1247.00,802.00;1242.00,813.00;1246.00,817.00;1251.00,813.00;1253.00,777.00;1264.00,766.00;1267.00,757.00;1267.00,728.00;1261.00,719.00;1247.00,718.00;1241.00,722.00;1240.00,751.00;1217.00,771.00;1211.00,772.00;1214.00,782.00;1204.00,787.00;1198.00,785.00;1197.00,775.00;1190.00,775.00;1186.00,780.00;1174.00,784.00;1140.00,783.00;1115.00,768.00;1088.00,768.00;1073.00,758.00;1060.00,743.00;1007.00,741.00;1017.00,737.00;1060.00,738.00;1090.00,759.00;1124.00,766.00;1139.00,775.00;1155.00,776.00;1157.00,772.00;1168.00,772.00;1179.00,777.00;1193.00,766.00;1216.00,764.00;1231.00,747.00;1232.00,712.00;1220.00,700.00;1204.00,699.00;1198.00,695.00;1197.00,673.00;1194.00,668.00;1186.00,667.00" data-editor-point-modes="c;c;c;c;c;c;c;c;c;c;c;c;c;c;c;c;c;c;c;c;c;c;c;c;c;c;c;c;c;c;c;c;c;c;c;c;c;c;c;c;c;c;c;c;c;c;c;c;c;c;c;c;c;c;c;c;c;c;c;c;c;c;c;c;c;c;c;c;c;c;c;c;c;c;c;c;c;c;c;c;c;c;c;c;c;c;c;c;c;c;c;c;c;c;c;c;c;c;c;c;c;c;c;c;c" />
  <path d="M 1260.00 690.00 L 1267.00 690.00 L 1267.00 693.00 L 1259.00 694.00 Z" data-net-id="front-vcc" data-net-label="VCC" data-category="vcc" data-color="#ff0000" fill="#ff0000" fill-opacity="1" data-editor-points="1260.00,690.00;1267.00,690.00;1267.00,693.00;1259.00,694.00" data-editor-point-modes="c;c;c;c" />
  <path d="M 757.00 714.00 L 767.00 714.00 L 774.00 720.00 L 774.00 728.00 L 769.00 737.00 L 771.00 753.00 L 767.00 757.00 L 761.00 752.00 L 760.00 741.00 L 753.00 729.00 L 755.00 719.00 L 752.00 717.00 Z" data-net-id="front-vcc" data-net-label="VCC" data-category="vcc" data-color="#ff0000" fill="#ff0000" fill-opacity="1" data-editor-points="757.00,714.00;767.00,714.00;774.00,720.00;774.00,728.00;769.00,737.00;771.00,753.00;767.00,757.00;761.00,752.00;760.00,741.00;753.00,729.00;755.00,719.00;752.00,717.00" data-editor-point-modes="c;c;c;c;c;c;c;c;c;c;c;c" />
  <path d="M 579.00 780.00 L 592.00 781.00 L 597.00 793.00 L 608.00 794.00 L 609.00 805.00 L 607.00 809.00 L 599.00 809.00 L 592.00 799.00 L 584.00 800.00 L 578.00 808.00 L 580.00 820.00 L 567.00 823.00 L 562.00 814.00 L 567.00 808.00 L 572.00 808.00 L 575.00 801.00 L 573.00 788.00 Z" data-net-id="front-vcc" data-net-label="VCC" data-category="vcc" data-color="#ff0000" fill="#ff0000" fill-opacity="1" data-editor-points="579.00,780.00;592.00,781.00;597.00,793.00;608.00,794.00;609.00,805.00;607.00,809.00;599.00,809.00;592.00,799.00;584.00,800.00;578.00,808.00;580.00,820.00;567.00,823.00;562.00,814.00;567.00,808.00;572.00,808.00;575.00,801.00;573.00,788.00" data-editor-point-modes="c;c;c;c;c;c;c;c;c;c;c;c;c;c;c;c;c" />
  <path d="M 380.00 854.00 L 390.00 854.00 L 396.00 860.00 L 399.00 904.00 L 404.00 909.00 L 432.00 912.00 L 488.00 911.00 L 501.00 916.00 L 503.00 980.00 L 472.00 1011.00 L 455.00 1012.00 L 448.00 1010.00 L 444.00 1004.00 L 441.00 935.00 L 432.00 929.00 L 406.00 929.00 L 389.00 913.00 L 384.00 903.00 L 386.00 878.00 L 376.00 867.00 Z" data-net-id="front-vcc" data-net-label="VCC" data-category="vcc" data-color="#ff0000" fill="#ff0000" fill-opacity="1" data-editor-points="380.00,854.00;390.00,854.00;396.00,860.00;399.00,904.00;404.00,909.00;432.00,912.00;488.00,911.00;501.00,916.00;503.00,980.00;472.00,1011.00;455.00,1012.00;448.00,1010.00;444.00,1004.00;441.00,935.00;432.00,929.00;406.00,929.00;389.00,913.00;384.00,903.00;386.00,878.00;376.00,867.00" data-editor-point-modes="c;c;c;c;c;c;c;c;c;c;c;c;c;c;c;c;c;c;c;c" />
  <path d="M 540.00 903.00 L 549.00 904.00 L 535.00 911.00 L 530.00 927.00 L 531.00 913.00 Z" data-net-id="front-vcc" data-net-label="VCC" data-category="vcc" data-color="#ff0000" fill="#ff0000" fill-opacity="1" data-editor-points="540.00,903.00;549.00,904.00;535.00,911.00;530.00,927.00;531.00,913.00" data-editor-point-modes="c;c;c;c;c" />
  <path d="M 626.00 912.00 L 634.00 916.00 L 635.00 927.00 L 631.00 931.00 L 609.00 927.00 L 606.00 922.00 L 592.00 922.00 L 590.00 924.00 L 595.00 924.00 L 592.00 927.00 L 583.00 927.00 L 584.00 923.00 L 570.00 920.00 L 556.00 924.00 L 544.00 938.00 L 543.00 947.00 L 547.00 954.00 L 545.00 969.00 L 557.00 976.00 L 558.00 983.00 L 550.00 992.00 L 542.00 991.00 L 537.00 986.00 L 535.00 941.00 L 538.00 929.00 L 547.00 920.00 L 561.00 913.00 L 601.00 913.00 L 618.00 920.00 Z" data-net-id="front-vcc" data-net-label="VCC" data-category="vcc" data-color="#ff0000" fill="#ff0000" fill-opacity="1" data-editor-points="626.00,912.00;634.00,916.00;635.00,927.00;631.00,931.00;609.00,927.00;606.00,922.00;592.00,922.00;590.00,924.00;595.00,924.00;592.00,927.00;583.00,927.00;584.00,923.00;570.00,920.00;556.00,924.00;544.00,938.00;543.00,947.00;547.00,954.00;545.00,969.00;557.00,976.00;558.00,983.00;550.00,992.00;542.00,991.00;537.00,986.00;535.00,941.00;538.00,929.00;547.00,920.00;561.00,913.00;601.00,913.00;618.00,920.00" data-editor-point-modes="c;c;c;c;c;c;c;c;c;c;c;c;c;c;c;c;c;c;c;c;c;c;c;c;c;c;c;c;c" />
  <path d="M 568.00 949.00 L 570.00 950.00 L 562.00 964.00 L 561.00 954.00 Z" data-net-id="front-vcc" data-net-label="VCC" data-category="vcc" data-color="#ff0000" fill="#ff0000" fill-opacity="1" data-editor-points="568.00,949.00;570.00,950.00;562.00,964.00;561.00,954.00" data-editor-point-modes="c;c;c;c" />
  <path d="M 1072.00 949.00 L 1076.00 956.00 L 1069.00 966.00 L 1065.00 985.00 L 1060.00 989.00 L 1051.00 988.00 L 1046.00 980.00 L 1048.00 971.00 L 1060.00 968.00 L 1063.00 964.00 L 1061.00 950.00 Z" data-net-id="front-vcc" data-net-label="VCC" data-category="vcc" data-color="#ff0000" fill="#ff0000" fill-opacity="1" data-editor-points="1072.00,949.00;1076.00,956.00;1069.00,966.00;1065.00,985.00;1060.00,989.00;1051.00,988.00;1046.00,980.00;1048.00,971.00;1060.00,968.00;1063.00,964.00;1061.00,950.00" data-editor-point-modes="c;c;c;c;c;c;c;c;c;c;c" />
  <path d="M 965.00 963.00 L 975.00 965.00 L 980.00 980.00 L 991.00 988.00 L 991.00 995.00 L 986.00 1002.00 L 977.00 1003.00 L 972.00 999.00 L 972.00 983.00 L 963.00 969.00 Z" data-net-id="front-vcc" data-net-label="VCC" data-category="vcc" data-color="#ff0000" fill="#ff0000" fill-opacity="1" data-editor-points="965.00,963.00;975.00,965.00;980.00,980.00;991.00,988.00;991.00,995.00;986.00,1002.00;977.00,1003.00;972.00,999.00;972.00,983.00;963.00,969.00" data-editor-point-modes="c;c;c;c;c;c;c;c;c;c" />
  <path d="M 855.00 981.00 L 859.00 981.00 L 862.00 990.00 L 845.00 1009.00 L 801.00 1014.00 L 797.00 1019.00 L 798.00 1025.00 L 789.00 1028.00 L 775.00 1023.00 L 776.00 1012.00 L 780.00 1007.00 L 798.00 1007.00 L 798.00 1003.00 L 793.00 1003.00 L 798.00 1001.00 L 801.00 1005.00 L 834.00 1003.00 L 839.00 995.00 L 845.00 995.00 L 846.00 989.00 Z" data-net-id="front-vcc" data-net-label="VCC" data-category="vcc" data-color="#ff0000" fill="#ff0000" fill-opacity="1" data-editor-points="855.00,981.00;859.00,981.00;862.00,990.00;845.00,1009.00;801.00,1014.00;797.00,1019.00;798.00,1025.00;789.00,1028.00;775.00,1023.00;776.00,1012.00;780.00,1007.00;798.00,1007.00;798.00,1003.00;793.00,1003.00;798.00,1001.00;801.00,1005.00;834.00,1003.00;839.00,995.00;845.00,995.00;846.00,989.00" data-editor-point-modes="c;c;c;c;c;c;c;c;c;c;c;c;c;c;c;c;c;c;c;c" />
  <path d="M 1152.00 1195.00 L 1181.00 1196.00 L 1190.00 1211.00 L 1192.00 1416.00 L 1184.00 1426.00 L 1176.00 1428.00 L 1165.00 1425.00 L 1158.00 1417.00 L 1158.00 1354.00 L 1165.00 1344.00 L 1164.00 1276.00 L 1157.00 1264.00 L 1157.00 1236.00 L 1144.00 1222.00 L 1142.00 1214.00 L 1144.00 1200.00 Z" data-net-id="front-vcc" data-net-label="VCC" data-category="vcc" data-color="#ff0000" fill="#ff0000" fill-opacity="1" data-editor-points="1152.00,1195.00;1181.00,1196.00;1190.00,1211.00;1192.00,1416.00;1184.00,1426.00;1176.00,1428.00;1165.00,1425.00;1158.00,1417.00;1158.00,1354.00;1165.00,1344.00;1164.00,1276.00;1157.00,1264.00;1157.00,1236.00;1144.00,1222.00;1142.00,1214.00;1144.00,1200.00" data-editor-point-modes="c;c;c;c;c;c;c;c;c;c;c;c;c;c;c;c" />
  <path d="M 1112.00 1404.00 L 1117.00 1404.00 L 1116.00 1407.00 L 1123.00 1411.00 L 1126.00 1422.00 L 1125.00 1502.00 L 1135.00 1513.00 L 1158.00 1516.00 L 1160.00 1526.00 L 1154.00 1532.00 L 1112.00 1532.00 L 1105.00 1529.00 L 1104.00 1519.00 L 1100.00 1518.00 L 1104.00 1510.00 L 1100.00 1509.00 L 1104.00 1505.00 L 1103.00 1407.00 Z" data-net-id="front-vcc" data-net-label="VCC" data-category="vcc" data-color="#ff0000" fill="#ff0000" fill-opacity="1" data-editor-points="1112.00,1404.00;1117.00,1404.00;1116.00,1407.00;1123.00,1411.00;1126.00,1422.00;1125.00,1502.00;1135.00,1513.00;1158.00,1516.00;1160.00,1526.00;1154.00,1532.00;1112.00,1532.00;1105.00,1529.00;1104.00,1519.00;1100.00,1518.00;1104.00,1510.00;1100.00,1509.00;1104.00,1505.00;1103.00,1407.00" data-editor-point-modes="c;c;c;c;c;c;c;c;c;c;c;c;c;c;c;c;c;c" />
</svg>
